<svg width="16" height="14" viewBox="0 0 16 14" fill="none" xmlns="http://www.w3.org/2000/svg">
<path d="M9.25 11.55C8.8379 11.6279 8.4194 11.667 8 11.6667C5.01467 11.6667 2.488 9.70467 1.638 7C1.86685 6.27207 2.21933 5.58898 2.68 4.98067M6.58533 5.586C6.96044 5.2109 7.46919 5.00016 7.99967 5.00016C8.53015 5.00016 9.0389 5.2109 9.414 5.586C9.78911 5.9611 9.99984 6.46986 9.99984 7.00033C9.99984 7.53081 9.78911 8.03956 9.414 8.41467M6.58533 5.586L9.414 8.41467M6.58533 5.586L9.41333 8.41333M9.414 8.41467L11.608 10.608M6.58667 5.58667L4.39333 3.39333M4.39333 3.39333L2 1M4.39333 3.39333C5.46824 2.69971 6.72073 2.3316 8 2.33333C10.9853 2.33333 13.512 4.29533 14.362 7C13.8927 8.48697 12.9183 9.76305 11.6073 10.6073M4.39333 3.39333L11.6073 10.6073M11.6073 10.6073L14 13" stroke="#ABB0B2" stroke-width="2" stroke-linecap="round" stroke-linejoin="round"/>
</svg>
