<svg width="16" height="14" viewBox="0 0 16 14" fill="none" xmlns="http://www.w3.org/2000/svg">
<path d="M11.3333 12.3333H14.6666V11C14.6666 10.5843 14.5371 10.179 14.2961 9.84038C14.0551 9.50175 13.7145 9.24662 13.3218 9.11046C12.9291 8.9743 12.5037 8.96388 12.1048 9.08064C11.7059 9.1974 11.3533 9.43554 11.096 9.76196M11.3333 12.3333H4.66665M11.3333 12.3333V11C11.3333 10.5626 11.2493 10.1446 11.096 9.76196M11.096 9.76196C10.8484 9.14326 10.4211 8.61294 9.86931 8.23937C9.31747 7.86581 8.66637 7.66616 7.99998 7.66616C7.33359 7.66616 6.68249 7.86581 6.13065 8.23937C5.57881 8.61294 5.15155 9.14326 4.90398 9.76196M4.66665 12.3333H1.33331V11C1.33334 10.5843 1.46287 10.179 1.70389 9.84038C1.9449 9.50175 2.28544 9.24662 2.67815 9.11046C3.07086 8.9743 3.49623 8.96388 3.89514 9.08064C4.29405 9.1974 4.64667 9.43554 4.90398 9.76196M4.66665 12.3333V11C4.66665 10.5626 4.75065 10.1446 4.90398 9.76196M9.99998 3.66663C9.99998 4.19706 9.78927 4.70577 9.41419 5.08084C9.03912 5.45591 8.53041 5.66663 7.99998 5.66663C7.46955 5.66663 6.96084 5.45591 6.58577 5.08084C6.21069 4.70577 5.99998 4.19706 5.99998 3.66663C5.99998 3.13619 6.21069 2.62749 6.58577 2.25241C6.96084 1.87734 7.46955 1.66663 7.99998 1.66663C8.53041 1.66663 9.03912 1.87734 9.41419 2.25241C9.78927 2.62749 9.99998 3.13619 9.99998 3.66663ZM14 5.66663C14 6.02025 13.8595 6.35939 13.6095 6.60943C13.3594 6.85948 13.0203 6.99996 12.6666 6.99996C12.313 6.99996 11.9739 6.85948 11.7238 6.60943C11.4738 6.35939 11.3333 6.02025 11.3333 5.66663C11.3333 5.313 11.4738 4.97387 11.7238 4.72382C11.9739 4.47377 12.313 4.33329 12.6666 4.33329C13.0203 4.33329 13.3594 4.47377 13.6095 4.72382C13.8595 4.97387 14 5.313 14 5.66663ZM4.66665 5.66663C4.66665 6.02025 4.52617 6.35939 4.27612 6.60943C4.02607 6.85948 3.68694 6.99996 3.33331 6.99996C2.97969 6.99996 2.64055 6.85948 2.3905 6.60943C2.14046 6.35939 1.99998 6.02025 1.99998 5.66663C1.99998 5.313 2.14046 4.97387 2.3905 4.72382C2.64055 4.47377 2.97969 4.33329 3.33331 4.33329C3.68694 4.33329 4.02607 4.47377 4.27612 4.72382C4.52617 4.97387 4.66665 5.313 4.66665 5.66663Z" stroke="#ABB0B2" stroke-width="2" stroke-linecap="round" stroke-linejoin="round"/>
</svg>
