<svg width="78" height="37" viewBox="0 0 78 37" fill="none" xmlns="http://www.w3.org/2000/svg">
    <g filter="url(#filter0_dd_829_50200)">
        <path fill-rule="evenodd" clip-rule="evenodd" d="M50.249 27.5772C55.3258 32.654 63.557 32.654 68.6338 27.5772C73.7106 22.5003 73.7106 14.2692 68.6338 9.19239C63.557 4.11557 55.3258 4.11557 50.249 9.19239C50.1293 9.31213 50.0124 9.43362 49.8983 9.55678C54.6058 5.21618 61.9428 5.33043 66.5119 9.89954C71.1982 14.5858 71.1982 22.1838 66.5119 26.8701C61.943 31.439 54.6064 31.5535 49.8988 27.2134C50.0128 27.3363 50.1295 27.4576 50.249 27.5772Z" fill="#F0FBFF"/>
    </g>
    <path d="M0.91 12.8692H4.802C6.146 12.8692 7.266 13.3405 8.162 14.2832C9.06733 15.2165 9.52 16.3785 9.52 17.7692C9.52 19.1599 9.06733 20.3219 8.162 21.2552C7.266 22.1979 6.146 22.6692 4.802 22.6692H0.91V12.8692ZM2.842 20.8212H4.802C5.65133 20.8212 6.342 20.5412 6.874 19.9812C7.406 19.4025 7.672 18.6652 7.672 17.7692C7.672 16.8639 7.406 16.1312 6.874 15.5712C6.342 15.0019 5.65133 14.7172 4.802 14.7172H2.842V20.8212ZM12.8225 18.6232V20.8212H16.9525V22.6692H10.8905V12.8692H16.8825V14.7172H12.8225V16.8032H16.5325V18.6232H12.8225ZM20.2463 18.6232V20.8212H24.3763V22.6692H18.3143V12.8692H24.3063V14.7172H20.2463V16.8032H23.9563V18.6232H20.2463ZM25.7381 12.8692H29.3921C30.3255 12.8692 31.1188 13.1865 31.7721 13.8212C32.4161 14.4559 32.7381 15.2352 32.7381 16.1592C32.7381 17.0832 32.4161 17.8625 31.7721 18.4972C31.1188 19.1319 30.3255 19.4492 29.3921 19.4492H27.6701V22.6692H25.7381V12.8692ZM27.6701 17.6432H29.3921C29.8028 17.6432 30.1435 17.5032 30.4141 17.2232C30.6848 16.9339 30.8201 16.5792 30.8201 16.1592C30.8201 15.7299 30.6848 15.3752 30.4141 15.0952C30.1435 14.8152 29.8028 14.6752 29.3921 14.6752H27.6701V17.6432ZM40.8419 22.8652C39.8806 22.8652 39.0686 22.6505 38.4059 22.2212C37.7433 21.7919 37.2719 21.1992 36.9919 20.4432L38.6439 19.4772C39.0266 20.4759 39.7779 20.9752 40.8979 20.9752C41.4206 20.9752 41.8126 20.8819 42.0739 20.6952C42.3353 20.5085 42.4659 20.2565 42.4659 19.9392C42.4659 19.5939 42.3119 19.3279 42.0039 19.1412C41.6959 18.9452 41.1453 18.7352 40.3519 18.5112C39.4933 18.2499 38.8166 17.9465 38.3219 17.6012C37.7059 17.1439 37.3979 16.4719 37.3979 15.5852C37.3979 14.6892 37.7106 13.9845 38.3359 13.4712C38.9613 12.9392 39.7219 12.6732 40.6179 12.6732C41.4019 12.6732 42.0973 12.8645 42.7039 13.2472C43.3106 13.6299 43.7819 14.1712 44.1179 14.8712L42.4939 15.8092C42.1019 14.9692 41.4766 14.5492 40.6179 14.5492C40.2259 14.5492 39.9133 14.6425 39.6799 14.8292C39.4466 15.0065 39.3299 15.2399 39.3299 15.5292C39.3299 15.8372 39.4559 16.0892 39.7079 16.2852C39.9879 16.4812 40.4826 16.6865 41.1919 16.9012L41.8639 17.1252C41.9853 17.1625 42.1953 17.2419 42.4939 17.3632C42.7739 17.4659 42.9793 17.5639 43.1099 17.6572C43.5673 17.9372 43.8753 18.2265 44.0339 18.5252C44.2766 18.9172 44.3979 19.3792 44.3979 19.9112C44.3979 20.8165 44.0666 21.5352 43.4039 22.0672C42.7413 22.5992 41.8873 22.8652 40.8419 22.8652ZM49.4817 17.6292L53.2477 22.6692H51.0217L47.5217 18.0772V22.6692H45.5897V12.8692H47.5217V17.1952L50.8817 12.8692H53.1077L49.4817 17.6292ZM59.775 12.8692H61.959L58.599 18.8472V22.6692H56.681V18.8472L53.335 12.8692H55.519L57.647 16.9572L59.775 12.8692Z" fill="#F0FBFF"/>
    <defs>
        <filter id="filter0_dd_829_50200" x="46.8984" y="0.384766" width="30.543" height="34" filterUnits="userSpaceOnUse" color-interpolation-filters="sRGB">
            <feFlood flood-opacity="0" result="BackgroundImageFix"/>
            <feColorMatrix in="SourceAlpha" type="matrix" values="0 0 0 0 0 0 0 0 0 0 0 0 0 0 0 0 0 0 127 0" result="hardAlpha"/>
            <feOffset dx="1" dy="-1"/>
            <feGaussianBlur stdDeviation="1"/>
            <feComposite in2="hardAlpha" operator="out"/>
            <feColorMatrix type="matrix" values="0 0 0 0 0.494118 0 0 0 0 0.870588 0 0 0 0 0.960784 0 0 0 1 0"/>
            <feBlend mode="normal" in2="BackgroundImageFix" result="effect1_dropShadow_829_50200"/>
            <feColorMatrix in="SourceAlpha" type="matrix" values="0 0 0 0 0 0 0 0 0 0 0 0 0 0 0 0 0 0 127 0" result="hardAlpha"/>
            <feOffset dx="1" dy="-1"/>
            <feGaussianBlur stdDeviation="2"/>
            <feComposite in2="hardAlpha" operator="out"/>
            <feColorMatrix type="matrix" values="0 0 0 0 0.494118 0 0 0 0 0.870588 0 0 0 0 0.960784 0 0 0 1 0"/>
            <feBlend mode="normal" in2="effect1_dropShadow_829_50200" result="effect2_dropShadow_829_50200"/>
            <feBlend mode="normal" in="SourceGraphic" in2="effect2_dropShadow_829_50200" result="shape"/>
        </filter>
    </defs>
</svg>
