<svg width="91" height="98" viewBox="0 0 91 98" fill="#646b9c" xmlns="http://www.w3.org/2000/svg">
    <path d="M5.76 26C5.76 -10.5833 35.4167 -40.24 72 -40.24C108.583 -40.24 138.24 -10.5833 138.24 26C138.24 62.5833 108.583 92.24 72 92.24C61.015 92.24 50.6546 89.566 41.534 84.8335C40.2382 86.418 38.706 87.8017 36.9912 88.9306C47.3545 94.7081 59.2928 98 72 98C111.765 98 144 65.7645 144 26C144 -13.7645 111.765 -46 72 -46C32.2355 -46 0 -13.7645 0 26C0 38.7072 3.29187 50.6455 9.06936 61.0088C10.1983 59.294 11.582 57.7618 13.1665 56.466C8.43396 47.3455 5.76 36.985 5.76 26Z" fill="#646b9c"/>
    <path fill-rule="evenodd" clip-rule="evenodd" d="M0 72.08C0 57.7648 11.6048 46.16 25.92 46.16C40.2352 46.16 51.84 57.7648 51.84 72.08C51.84 86.3952 40.2352 98 25.92 98C11.6048 98 0 86.3952 0 72.08ZM25.92 57.68C17.9671 57.68 11.52 64.1271 11.52 72.08C11.52 80.0329 17.9671 86.48 25.92 86.48C33.8729 86.48 40.32 80.0329 40.32 72.08C40.32 64.1271 33.8729 57.68 25.92 57.68Z" fill="#646b9c"/>
    <path d="M2.88 26C2.88 -12.1739 33.8261 -43.12 72 -43.12C72.8737 -43.12 73.7435 -43.1038 74.6093 -43.0717C40.4268 -41.753 13.12 -13.6254 13.12 20.88C13.12 32.3494 16.137 43.1142 21.4207 52.4239C17.3339 53.3555 13.7196 55.529 10.9959 58.5263C5.81639 48.8322 2.88 37.759 2.88 26Z" fill="#646b9c"/>
    <path d="M39.4737 87.0041C49.1678 92.1836 60.241 95.12 72 95.12C110.174 95.12 141.12 64.1739 141.12 26C141.12 25.1263 141.104 24.2565 141.072 23.3907C139.753 57.5732 111.625 84.88 77.12 84.88C65.6506 84.88 54.8858 81.863 45.5761 76.5793C44.6445 80.6661 42.471 84.2804 39.4737 87.0041Z" fill="#646b9c"/>
</svg>

