<svg width="16" height="16" viewBox="0 0 16 16" fill="none" xmlns="http://www.w3.org/2000/svg">
    <path d="M0.64 8C0.64 3.93518 3.93518 0.64 8 0.64C12.0648 0.64 15.36 3.93518 15.36 8C15.36 12.0648 12.0648 15.36 8 15.36C6.77945 15.36 5.62828 15.0629 4.61489 14.5371C4.47091 14.7131 4.30067 14.8669 4.11014 14.9923C5.26161 15.6342 6.58809 16 8 16C12.4183 16 16 12.4183 16 8C16 3.58172 12.4183 0 8 0C3.58172 0 0 3.58172 0 8C0 9.41191 0.365763 10.7384 1.00771 11.8899C1.13314 11.6993 1.28688 11.5291 1.46294 11.3851C0.937107 10.3717 0.64 9.22055 0.64 8Z" fill="white"/>
    <path fill-rule="evenodd" clip-rule="evenodd" d="M0 13.12C0 11.5294 1.28942 10.24 2.88 10.24C4.47058 10.24 5.76 11.5294 5.76 13.12C5.76 14.7106 4.47058 16 2.88 16C1.28942 16 0 14.7106 0 13.12ZM2.88 11.52C1.99634 11.52 1.28 12.2363 1.28 13.12C1.28 14.0037 1.99634 14.72 2.88 14.72C3.76366 14.72 4.48 14.0037 4.48 13.12C4.48 12.2363 3.76366 11.52 2.88 11.52Z" fill="white"/>
    <path d="M0.32 8C0.32 3.75845 3.75845 0.32 8 0.32C8.09707 0.32 8.19372 0.321801 8.28992 0.325371C4.49187 0.471884 1.45778 3.59717 1.45778 7.43111C1.45778 8.70549 1.793 9.90158 2.38008 10.936C1.92599 11.0395 1.5244 11.281 1.22177 11.614C0.646266 10.5369 0.32 9.30656 0.32 8Z" fill="white"/>
    <path d="M4.38597 14.7782C5.46309 15.3537 6.69344 15.68 8 15.68C12.2415 15.68 15.68 12.2415 15.68 8C15.68 7.90293 15.6782 7.80627 15.6746 7.71007C15.5281 11.5081 12.4028 14.5422 8.56889 14.5422C7.29451 14.5422 6.09842 14.207 5.06401 13.6199C4.96049 14.074 4.719 14.4756 4.38597 14.7782Z" fill="white"/>
</svg>
