<svg width="20" height="20" viewBox="0 0 20 20" fill="none" xmlns="http://www.w3.org/2000/svg">
    <g clip-path="url(#clip0_2902_65167)">
        <path d="M0.416992 9.99998C0.416992 9.17728 0.522872 8.38026 0.721157 7.61843C1.25293 7.64605 1.78208 7.52784 2.25011 7.27687C2.71814 7.02589 3.10681 6.65192 3.37318 6.1963C3.63954 5.74068 3.77321 5.22116 3.75942 4.69517C3.74562 4.16917 3.5849 3.65718 3.29501 3.21581C4.45868 2.08455 5.89465 1.26463 7.46766 0.833313C7.70925 1.30265 8.07756 1.69678 8.53183 1.97207C8.98611 2.24736 9.50861 2.39307 10.0415 2.39307C10.5744 2.39307 11.0969 2.24736 11.5512 1.97207C12.0055 1.69678 12.3738 1.30265 12.6154 0.833313C14.1884 1.26463 15.6243 2.08455 16.788 3.21581C16.4978 3.65726 16.3368 4.16944 16.3229 4.69568C16.309 5.22192 16.4427 5.7417 16.7093 6.19751C16.9758 6.65332 17.3647 7.02739 17.833 7.27834C18.3014 7.52928 18.8308 7.64732 19.3628 7.61938C19.5611 8.38026 19.667 9.17728 19.667 9.99998C19.667 10.8227 19.5611 11.6197 19.3628 12.3815C18.831 12.3537 18.3017 12.4718 17.8335 12.7227C17.3654 12.9736 16.9765 13.3476 16.71 13.8032C16.4436 14.2589 16.3098 14.7785 16.3236 15.3045C16.3373 15.8306 16.4981 16.3427 16.788 16.7841C15.6243 17.9154 14.1884 18.7353 12.6154 19.1666C12.3738 18.6973 12.0055 18.3032 11.5512 18.0279C11.0969 17.7526 10.5744 17.6069 10.0415 17.6069C9.50861 17.6069 8.98611 17.7526 8.53183 18.0279C8.07756 18.3032 7.70925 18.6973 7.46766 19.1666C5.89465 18.7353 4.45868 17.9154 3.29501 16.7841C3.58522 16.3427 3.74619 15.8305 3.76008 15.3043C3.77398 14.778 3.64028 14.2583 3.37376 13.8024C3.10724 13.3466 2.7183 12.9726 2.24998 12.7216C1.78165 12.4707 1.2522 12.3526 0.720195 12.3806C0.522873 11.6206 0.416992 10.8236 0.416992 9.99998ZM5.04107 12.8533C5.64748 13.8909 5.82074 15.0845 5.58395 16.2049C5.97667 16.4807 6.39442 16.7195 6.83238 16.9183C7.71471 16.1372 8.85788 15.7057 10.0425 15.7066C11.2553 15.7066 12.3892 16.1545 13.2526 16.9183C13.6905 16.7195 14.1083 16.4807 14.501 16.2049C14.2579 15.0598 14.4512 13.8663 15.0439 12.8533C15.6355 11.8398 16.5849 11.0777 17.7101 10.7133C17.7546 10.2388 17.7546 9.76119 17.7101 9.28666C16.5846 8.92244 15.6348 8.16039 15.0429 7.14669C14.4502 6.13371 14.2569 4.94018 14.5 3.79503C14.1074 3.51914 13.6894 3.28031 13.2516 3.0817C12.3695 3.86249 11.2267 4.29398 10.0425 4.2934C8.85788 4.29421 7.71471 3.86271 6.83238 3.0817C6.39454 3.28032 5.97656 3.51914 5.58395 3.79503C5.82706 4.94018 5.63374 6.13371 5.04107 7.14669C4.44946 8.1602 3.50002 8.92224 2.37481 9.28666C2.3303 9.76119 2.3303 10.2388 2.37481 10.7133C3.50038 11.0775 4.45019 11.8396 5.04204 12.8533H5.04107ZM10.0425 12.8533C9.27662 12.8533 8.54214 12.5527 8.0006 12.0176C7.45906 11.4825 7.15483 10.7567 7.15483 9.99998C7.15483 9.24324 7.45906 8.51749 8.0006 7.9824C8.54214 7.4473 9.27662 7.14669 10.0425 7.14669C10.8083 7.14669 11.5428 7.4473 12.0843 7.9824C12.6259 8.51749 12.9301 9.24324 12.9301 9.99998C12.9301 10.7567 12.6259 11.4825 12.0843 12.0176C11.5428 12.5527 10.8083 12.8533 10.0425 12.8533ZM10.0425 10.9511C10.2978 10.9511 10.5426 10.8509 10.7231 10.6725C10.9036 10.4941 11.005 10.2522 11.005 9.99998C11.005 9.74773 10.9036 9.50582 10.7231 9.32745C10.5426 9.14909 10.2978 9.04888 10.0425 9.04888C9.78719 9.04888 9.54236 9.14909 9.36185 9.32745C9.18134 9.50582 9.07993 9.74773 9.07993 9.99998C9.07993 10.2522 9.18134 10.4941 9.36185 10.6725C9.54236 10.8509 9.78719 10.9511 10.0425 10.9511Z" fill="#C3C9CD"/>
    </g>
    <defs>
        <clipPath id="clip0_2902_65167">
            <rect width="20" height="20" fill="white"/>
        </clipPath>
    </defs>
</svg>
