<svg width="93" height="86" viewBox="0 0 93 86" fill="none" xmlns="http://www.w3.org/2000/svg">
<g clip-path="url(#clip0_2829_104753)">
<path d="M57.3413 84.2097C32.9785 87.1558 7.08628 73.8435 1.29601 45.8004C-1.87224 22.7765 21.0703 13.0651 37.6763 7.50026C62.236 -0.729914 79.3006 -2.42956 87.2758 10.0098C95.2511 22.4492 89.7886 30.524 85.0908 45.8004C80.3931 61.0768 81.7041 81.2635 57.3413 84.2097Z" stroke="#192239" stroke-width="1.85801"/>
<path d="M55.3084 76.8165C35.3752 79.2366 14.1906 68.3015 9.45313 45.2661C6.86092 26.3536 25.6321 18.3763 39.2188 13.8052C59.3131 7.04476 73.2751 5.64861 79.8003 15.8666C86.3255 26.0847 81.8562 32.7176 78.0125 45.2661C74.1689 57.8146 75.2416 74.3965 55.3084 76.8165Z" stroke="#192239" stroke-width="1.85801"/>
<path d="M53.0942 68.6827C37.9933 70.5241 21.9444 62.2039 18.3554 44.6769C16.3916 30.287 30.6121 24.2173 40.9051 20.7393C56.1281 15.5955 66.7053 14.5332 71.6486 22.3078C76.592 30.0824 73.2061 35.1292 70.2943 44.6769C67.3825 54.2247 68.1951 66.8414 53.0942 68.6827Z" stroke="#192239" stroke-width="1.85801"/>
<path d="M50.6909 59.8117C40.825 61.0218 30.3397 55.5542 27.9949 44.0365C26.7119 34.5803 36.0026 30.5916 42.7274 28.3061C52.673 24.9258 59.5835 24.2278 62.8132 29.3368C66.0428 34.4458 63.8307 37.7623 61.9283 44.0365C60.0259 50.3107 60.5568 58.6017 50.6909 59.8117Z" stroke="#192239" stroke-width="1.85801"/>
</g>
<defs>
<clipPath id="clip0_2829_104753">
<rect width="93" height="86" fill="white"/>
</clipPath>
</defs>
</svg>
