<svg width="26" height="28" viewBox="0 0 26 28" fill="none" xmlns="http://www.w3.org/2000/svg">
    <path d="M3.76256 18.6143C4.05464 19.3623 4.34671 20.1103 5.04414 20.6578C6.2218 21.6274 7.52492 22.3798 8.79901 22.6809C10.1817 23.0446 11.4726 23.0657 12.7177 22.9154C15.2079 22.6149 17.2346 21.6123 18.7643 20.4676C20.2939 19.3228 21.0466 18.0192 21.4398 17.0874C21.8329 16.1556 21.8666 15.5956 21.8666 15.5956C21.8666 15.5956 21.7244 16.0929 21.2226 16.962C20.7208 17.8311 19.8137 18.9007 18.3009 19.7655C16.8966 20.6929 14.8868 21.4156 12.6934 21.4529C11.6196 21.5572 10.3914 21.4275 9.28861 21.0805C8.18584 20.7335 7.03719 20.2152 6.07671 19.3709C5.27069 18.7607 4.94959 17.5614 5.017 16.4415C5.0844 15.3216 5.58618 14.4525 6.35101 13.8802C6.75637 13.6796 7.2703 13.5418 7.72152 13.5126C8.00142 13.5294 8.17273 13.4835 8.45264 13.5002C8.73254 13.517 8.94974 13.6423 9.12105 13.5964C10.0066 13.818 10.47 14.5201 10.7621 15.2681C11.0542 16.0161 10.895 16.7934 10.69 17.3992C10.485 18.0051 9.95421 18.4229 9.61158 18.5148C9.09764 18.6526 8.70914 18.5732 8.49195 18.4478C8.27477 18.3224 8.16619 18.2597 8.16619 18.2597C8.16619 18.2597 8.27477 18.3224 8.49195 18.4478C8.70914 18.5732 9.03493 18.7613 9.65746 18.6861C10.1714 18.5483 10.8108 18.1932 11.1871 17.5414C11.5634 16.8896 11.7853 16.0037 11.6187 15.0384C11.4811 14.5244 11.3435 14.0104 11.0345 13.5424C10.7256 13.0743 10.1826 12.7608 9.63969 12.4473C9.31391 12.2592 9.034 12.2425 8.75409 12.2258C8.47418 12.209 8.08568 12.1295 7.80577 12.1128C7.13737 12.0166 6.45211 12.2003 5.81272 12.5554C5.17334 12.9105 4.57982 13.437 4.20349 14.0888C3.82716 14.7406 3.55944 15.4551 3.5716 16.1864C3.45833 17.135 3.47048 17.8662 3.76256 18.6143Z" fill="#99DAEA"/>
    <path d="M7.60738 7.9422C9.01159 7.01473 11.0215 6.2921 13.2776 6.14616C14.3513 6.04185 15.5796 6.17156 16.6823 6.51854C17.7851 6.86553 18.9338 7.38384 19.8942 8.22808C20.7003 8.83828 21.0214 10.0376 20.954 11.1575C20.8866 12.2774 20.3848 13.1465 19.6199 13.7189C19.2146 13.9194 18.8092 14.1199 18.2494 14.0864C17.9695 14.0696 17.7982 14.1156 17.5183 14.0988C17.2384 14.082 17.0212 13.9567 16.8499 14.0026C15.9643 13.781 15.5009 13.0789 15.2088 12.3309C14.9168 11.5829 15.0759 10.8057 15.2809 10.1998C15.4859 9.5939 16.0168 9.1761 16.3594 9.08421C16.7647 8.88369 17.2618 9.02584 17.479 9.15123C17.6962 9.27662 17.8048 9.33932 17.8048 9.33932C17.8048 9.33932 17.6962 9.27662 17.479 9.15123C17.2618 9.02584 16.8733 8.94639 16.3135 8.91289C15.7996 9.05071 15.1602 9.4058 14.7838 10.0576C14.4075 10.7094 14.1856 11.5953 14.3523 12.5606C14.4899 13.0746 14.6275 13.5886 14.9364 14.0567C15.2454 14.5247 15.7883 14.8382 16.3313 15.1517C16.657 15.3398 16.937 15.3565 17.2169 15.3733C17.4968 15.39 17.8853 15.4695 18.1652 15.4862C18.8336 15.5824 19.5188 15.3987 20.1582 15.0436C20.7976 14.6885 21.3911 14.1621 21.7675 13.5102C22.1438 12.8584 22.4115 12.1439 22.3993 11.4126C22.3872 10.6813 22.375 9.95007 22.1457 9.09341C21.8536 8.34538 21.3902 7.64327 20.8641 7.04982C19.6864 6.0802 18.3206 5.43649 17.0465 5.13544C15.6638 4.7717 14.3729 4.75063 13.1278 4.90088C10.6377 5.2014 8.61093 6.20399 7.18987 7.41143C5.7688 8.61887 4.90753 9.85983 4.62294 10.8543C4.22976 11.7861 4.19606 12.346 4.19606 12.346C4.19606 12.346 4.33835 11.8488 4.84012 10.9797C5.23331 10.0479 6.14044 8.97831 7.60738 7.9422Z" fill="#99DAEA"/>
</svg>
