<svg width="17" height="13" viewBox="0 0 17 13" fill="none" xmlns="http://www.w3.org/2000/svg">
<path d="M2.375 4.5C3.41053 4.5 4.25 3.66053 4.25 2.625C4.25 1.58947 3.41053 0.75 2.375 0.75C1.33947 0.75 0.5 1.58947 0.5 2.625C0.5 3.66053 1.33947 4.5 2.375 4.5Z" fill="#979C9E"/>
<path d="M2.375 12.25C3.41053 12.25 4.25 11.4105 4.25 10.375C4.25 9.33947 3.41053 8.5 2.375 8.5C1.33947 8.5 0.5 9.33947 0.5 10.375C0.5 11.4105 1.33947 12.25 2.375 12.25Z" fill="#979C9E"/>
<path d="M8 9.75H16.75V11H8V9.75ZM8 2H16.75V3.25H8V2Z" fill="#979C9E"/>
</svg>
