<svg width="21" height="20" viewBox="0 0 21 20" fill="none" xmlns="http://www.w3.org/2000/svg">
    <circle cx="10.5" cy="10.5" r="7.5" fill="white"/>
    <path d="M10.4996 1.66663C11.594 1.66663 12.6776 1.88217 13.6887 2.30096C14.6997 2.71975 15.6184 3.33358 16.3922 4.1074C17.955 5.67021 18.833 7.78982 18.833 9.99996C18.8402 11.9242 18.174 13.7904 16.9496 15.275L18.6163 16.9416C18.7319 17.0588 18.8103 17.2076 18.8414 17.3693C18.8725 17.5309 18.8551 17.6982 18.7913 17.85C18.7221 17.9999 18.6099 18.1259 18.4689 18.212C18.328 18.298 18.1646 18.3402 17.9996 18.3333H10.4996C8.28949 18.3333 6.16987 17.4553 4.60707 15.8925C3.04426 14.3297 2.16629 12.2101 2.16629 9.99996C2.16629 7.78982 3.04426 5.67021 4.60707 4.1074C6.16987 2.5446 8.28949 1.66663 10.4996 1.66663ZM10.4996 16.6666H15.9913L15.2163 15.8916C15.0611 15.7355 14.974 15.5243 14.974 15.3041C14.974 15.084 15.0611 14.8728 15.2163 14.7166C16.3075 13.6267 16.987 12.1921 17.139 10.6573C17.2911 9.1225 16.9063 7.58246 16.0503 6.29956C15.1942 5.01666 13.9198 4.07026 12.4442 3.6216C10.9686 3.17295 9.38307 3.2498 7.95778 3.83905C6.53248 4.42831 5.35558 5.49352 4.62759 6.8532C3.8996 8.21288 3.66556 9.78291 3.96535 11.2958C4.26514 12.8087 5.0802 14.1708 6.27168 15.1502C7.46315 16.1295 8.95732 16.6654 10.4996 16.6666ZM6.33296 9.16663H14.6663C14.8873 9.16663 15.0993 9.25442 15.2555 9.4107C15.4118 9.56698 15.4996 9.77895 15.4996 9.99996C15.4996 10.221 15.4118 10.4329 15.2555 10.5892C15.0993 10.7455 14.8873 10.8333 14.6663 10.8333H6.33296C6.11194 10.8333 5.89998 10.7455 5.7437 10.5892C5.58742 10.4329 5.49962 10.221 5.49962 9.99996C5.49962 9.77895 5.58742 9.56698 5.7437 9.4107C5.89998 9.25442 6.11194 9.16663 6.33296 9.16663ZM7.99962 12.5H12.9996C13.2206 12.5 13.4326 12.5878 13.5889 12.744C13.7452 12.9003 13.833 13.1123 13.833 13.3333C13.833 13.5543 13.7452 13.7663 13.5889 13.9225C13.4326 14.0788 13.2206 14.1666 12.9996 14.1666H7.99962C7.77861 14.1666 7.56665 14.0788 7.41037 13.9225C7.25409 13.7663 7.16629 13.5543 7.16629 13.3333C7.16629 13.1123 7.25409 12.9003 7.41037 12.744C7.56665 12.5878 7.77861 12.5 7.99962 12.5ZM12.9996 7.49996H7.99962C7.77861 7.49996 7.56665 7.41216 7.41037 7.25588C7.25409 7.0996 7.16629 6.88764 7.16629 6.66663C7.16629 6.44561 7.25409 6.23365 7.41037 6.07737C7.56665 5.92109 7.77861 5.83329 7.99962 5.83329H12.9996C13.2206 5.83329 13.4326 5.92109 13.5889 6.07737C13.7452 6.23365 13.833 6.44561 13.833 6.66663C13.833 6.88764 13.7452 7.0996 13.5889 7.25588C13.4326 7.41216 13.2206 7.49996 12.9996 7.49996Z" fill="white"/>
    <path d="M14.6667 9.16671H6.33333C6.11232 9.16671 5.90036 9.2545 5.74408 9.41079C5.5878 9.56707 5.5 9.77903 5.5 10C5.5 10.2211 5.5878 10.433 5.74408 10.5893C5.90036 10.7456 6.11232 10.8334 6.33333 10.8334H14.6667C14.8877 10.8334 15.0996 10.7456 15.2559 10.5893C15.4122 10.433 15.5 10.2211 15.5 10C15.5 9.77903 15.4122 9.56707 15.2559 9.41079C15.0996 9.2545 14.8877 9.16671 14.6667 9.16671Z" fill="#BCCDE1"/>
    <path d="M13 12.5H8C7.77899 12.5 7.56703 12.5878 7.41074 12.7441C7.25446 12.9004 7.16667 13.1124 7.16667 13.3334C7.16667 13.5544 7.25446 13.7663 7.41074 13.9226C7.56703 14.0789 7.77899 14.1667 8 14.1667H13C13.221 14.1667 13.433 14.0789 13.5893 13.9226C13.7455 13.7663 13.8333 13.5544 13.8333 13.3334C13.8333 13.1124 13.7455 12.9004 13.5893 12.7441C13.433 12.5878 13.221 12.5 13 12.5Z" fill="#BCCDE1"/>
    <path d="M8 7.50004H13C13.221 7.50004 13.433 7.41224 13.5893 7.25596C13.7455 7.09968 13.8333 6.88772 13.8333 6.66671C13.8333 6.44569 13.7455 6.23373 13.5893 6.07745C13.433 5.92117 13.221 5.83337 13 5.83337H8C7.77899 5.83337 7.56703 5.92117 7.41074 6.07745C7.25446 6.23373 7.16667 6.44569 7.16667 6.66671C7.16667 6.88772 7.25446 7.09968 7.41074 7.25596C7.56703 7.41224 7.77899 7.50004 8 7.50004Z" fill="#BCCDE1"/>
</svg>
