<svg width="19" height="18" viewBox="0 0 19 18" fill="none" xmlns="http://www.w3.org/2000/svg">
    <path d="M1.5 16.5V1.5C1.5 1.22386 1.72386 1 2 1H14.0929C14.2255 1 14.3527 1.05268 14.4464 1.14645L17.3536 4.05355C17.4473 4.14732 17.5 4.2745 17.5 4.40711V16.5C17.5 16.7761 17.2761 17 17 17H2C1.72386 17 1.5 16.7761 1.5 16.5Z" stroke="white" stroke-width="2" stroke-linecap="round"/>
    <path d="M5.05469 1V6.72222C5.05469 6.99837 5.27855 7.22222 5.55469 7.22222H13.4436C13.7197 7.22222 13.9436 6.99836 13.9436 6.72222V1M5.05469 17V11.2778C5.05469 11.0016 5.27855 10.7778 5.55469 10.7778H13.4436C13.7197 10.7778 13.9436 11.0016 13.9436 11.2778V17" stroke="white" stroke-width="2" stroke-linecap="round"/>
    <path d="M11.2793 3.66663V4.55551" stroke="white" stroke-width="2" stroke-linecap="round"/>
</svg>
