<svg width="21" height="20" viewBox="0 0 21 20" fill="none" xmlns="http://www.w3.org/2000/svg">
    <path d="M18 16.6666C18 16.8877 17.9122 17.0996 17.7559 17.2559C17.5996 17.4122 17.3877 17.5 17.1667 17.5H3.83333C3.61232 17.5 3.40036 17.4122 3.24408 17.2559C3.0878 17.0996 3 16.8877 3 16.6666V7.90831C2.99991 7.78133 3.02885 7.656 3.0846 7.5419C3.14035 7.4278 3.22143 7.32795 3.32167 7.24998L9.98833 2.06498C10.1346 1.95119 10.3147 1.8894 10.5 1.8894C10.6853 1.8894 10.8654 1.95119 11.0117 2.06498L17.6783 7.24998C17.7786 7.32795 17.8597 7.4278 17.9154 7.5419C17.9712 7.656 18.0001 7.78133 18 7.90831V16.6666ZM16.3333 15.8333V8.31498L10.5 3.77832L4.66667 8.31498V15.8333H16.3333Z" fill="#99DAEA"/>
</svg>
