<svg width="21" height="20" viewBox="0 0 21 20" fill="none" xmlns="http://www.w3.org/2000/svg">
    <path fill-rule="evenodd" clip-rule="evenodd" d="M11.4953 3.42925C11.4953 2.91604 11.0792 2.5 10.566 2.5C10.0528 2.5 9.6368 2.91604 9.6368 3.42925L9.63679 9.00472L3.92925 9.00471C3.41604 9.00471 3 9.42075 3 9.93396C3 10.4472 3.41604 10.8632 3.92925 10.8632H9.63679L9.63679 16.5708C9.63679 17.084 10.0528 17.5 10.566 17.5C11.0792 17.5 11.4953 17.084 11.4953 16.5708L11.4953 10.8632H17.0708C17.584 10.8632 18 10.4472 18 9.93396C18 9.42075 17.584 9.00472 17.0708 9.00472L11.4953 9.00472L11.4953 3.42925Z" fill="#99DAEA"/>
</svg>
