<svg width="21" height="20" viewBox="0 0 21 20" fill="none" xmlns="http://www.w3.org/2000/svg">
    <path d="M15.4999 11.6667C15.0075 11.67 14.522 11.7823 14.0782 11.9955C13.6344 12.2088 13.2434 12.5177 12.9332 12.9001L8.68321 10.9417C8.88304 10.3298 8.88304 9.67027 8.68321 9.05839L12.9332 7.10006C13.4346 7.70503 14.1335 8.11345 14.9067 8.25325C15.6798 8.39306 16.4776 8.25524 17.159 7.86414C17.8405 7.47304 18.3619 6.85379 18.6312 6.11567C18.9005 5.37756 18.9004 4.56804 18.631 3.82998C18.3615 3.09191 17.84 2.47276 17.1585 2.08178C16.477 1.6908 15.6792 1.55313 14.9061 1.69307C14.1329 1.83302 13.4341 2.24157 12.9328 2.84663C12.4316 3.4517 12.1602 4.21437 12.1665 5.00006C12.1691 5.19858 12.1886 5.39653 12.2249 5.59172L7.82488 7.61672C7.35578 7.15804 6.76175 6.84799 6.11722 6.72541C5.47269 6.60284 4.80631 6.67319 4.20159 6.92767C3.59687 7.18214 3.08068 7.60941 2.71771 8.15594C2.35475 8.70248 2.16113 9.34397 2.16113 10.0001C2.16113 10.6561 2.35475 11.2976 2.71771 11.8442C3.08068 12.3907 3.59687 12.818 4.20159 13.0724C4.80631 13.3269 5.47269 13.3973 6.11722 13.2747C6.76175 13.1521 7.35578 12.8421 7.82488 12.3834L12.2249 14.4084C12.1886 14.6036 12.1691 14.8015 12.1665 15.0001C12.1665 15.6593 12.362 16.3038 12.7283 16.852C13.0946 17.4001 13.6152 17.8274 14.2243 18.0797C14.8334 18.3319 15.5036 18.398 16.1502 18.2693C16.7968 18.1407 17.3907 17.8233 17.8569 17.3571C18.3231 16.8909 18.6405 16.297 18.7692 15.6504C18.8978 15.0038 18.8318 14.3335 18.5795 13.7244C18.3272 13.1154 17.8999 12.5948 17.3518 12.2285C16.8036 11.8622 16.1592 11.6667 15.4999 11.6667ZM15.4999 3.33339C15.8295 3.33339 16.1518 3.43114 16.4258 3.61427C16.6999 3.79741 16.9135 4.05771 17.0397 4.36225C17.1658 4.66679 17.1988 5.0019 17.1345 5.32521C17.0702 5.64851 16.9115 5.94548 16.6784 6.17857C16.4453 6.41165 16.1483 6.57039 15.825 6.6347C15.5017 6.69901 15.1666 6.666 14.8621 6.53985C14.5575 6.41371 14.2972 6.20009 14.1141 5.92601C13.931 5.65192 13.8332 5.32969 13.8332 5.00006C13.8332 4.55803 14.0088 4.1341 14.3214 3.82154C14.6339 3.50898 15.0579 3.33339 15.4999 3.33339ZM5.49988 11.6667C5.17025 11.6667 4.84801 11.569 4.57393 11.3858C4.29985 11.2027 4.08623 10.9424 3.96008 10.6379C3.83394 10.3333 3.80093 9.99821 3.86524 9.6749C3.92955 9.3516 4.08828 9.05463 4.32137 8.82154C4.55446 8.58846 4.85143 8.42972 5.17473 8.36541C5.49803 8.3011 5.83314 8.33411 6.13769 8.46026C6.44223 8.5864 6.70253 8.80002 6.88566 9.07411C7.0688 9.34819 7.16655 9.67042 7.16655 10.0001C7.16655 10.4421 6.99095 10.866 6.67839 11.1786C6.36583 11.4911 5.94191 11.6667 5.49988 11.6667ZM15.4999 16.6667C15.1702 16.6667 14.848 16.569 14.5739 16.3858C14.2998 16.2027 14.0862 15.9424 13.9601 15.6379C13.8339 15.3333 13.8009 14.9982 13.8652 14.6749C13.9295 14.3516 14.0883 14.0546 14.3214 13.8215C14.5545 13.5885 14.8514 13.4297 15.1747 13.3654C15.498 13.3011 15.8331 13.3341 16.1377 13.4603C16.4422 13.5864 16.7025 13.8 16.8857 14.0741C17.0688 14.3482 17.1665 14.6704 17.1665 15.0001C17.1665 15.4421 16.991 15.866 16.6784 16.1786C16.3658 16.4911 15.9419 16.6667 15.4999 16.6667Z" fill="#99DAEA"/>
</svg>
