<svg width="375" height="412" viewBox="0 0 375 412" fill="none" xmlns="http://www.w3.org/2000/svg">
    <circle cx="185.203" cy="212.151" r="145.5" fill="white"/>
    <circle cx="185.203" cy="212.151" r="145.5" fill="#FBFE72" fill-opacity="0.3"/>
    <circle cx="185.203" cy="212.151" r="145.5" stroke="#4569A4"/>
    <path d="M293.703 212.151C293.703 272.629 244.9 321.651 184.703 321.651C124.506 321.651 75.7031 272.629 75.7031 212.151C75.7031 151.674 124.506 102.651 184.703 102.651C244.9 102.651 293.703 151.674 293.703 212.151Z" fill="white" stroke="#4569A4"/>
    <circle cx="184.703" cy="211.652" r="73" fill="#E51A1A" fill-opacity="0.15" stroke="#4569A4"/>
    <circle cx="185.203" cy="212.152" r="35.5" fill="white" stroke="#4569A4"/>
    <rect x="185.203" y="53.1515" width="1" height="328" fill="#456AA5"/>
    <rect x="350.203" y="212.152" width="1.00001" height="328" transform="rotate(90 350.203 212.152)" fill="#456AA5"/>
    <rect x="328.555" y="294.073" width="1.29134" height="328" transform="rotate(120 328.555 294.073)" fill="#456AA5"/>
    <rect x="268.762" y="354.337" width="1.29134" height="328" transform="rotate(150 268.762 354.337)" fill="#456AA5"/>
    <rect x="104.762" y="354.982" width="1.29134" height="328" transform="rotate(-150 104.762 354.982)" fill="#456AA5"/>
    <rect x="44.5" y="295.192" width="1.29134" height="328" transform="rotate(-120 44.5 295.192)" fill="#456AA5"/>
    <circle cx="186.203" cy="213.152" r="5" fill="#456AA5"/>
    <path d="M195.613 183.372C195.613 183.918 195.469 184.388 195.183 184.782H195.193L192.933 188.152H191.883L193.543 185.702C193.343 185.715 193.229 185.722 193.203 185.722C192.496 185.722 191.916 185.505 191.463 185.072C191.016 184.632 190.793 184.065 190.793 183.372C190.793 182.672 191.016 182.108 191.463 181.682C191.909 181.242 192.489 181.022 193.203 181.022C193.903 181.022 194.479 181.242 194.933 181.682C195.386 182.115 195.613 182.678 195.613 183.372ZM193.203 181.912C192.763 181.912 192.403 182.045 192.123 182.312C191.849 182.578 191.713 182.932 191.713 183.372C191.713 183.812 191.849 184.168 192.123 184.442C192.403 184.708 192.763 184.842 193.203 184.842C193.643 184.842 193.999 184.708 194.273 184.442C194.553 184.168 194.693 183.812 194.693 183.372C194.693 182.932 194.556 182.578 194.283 182.312C194.009 182.045 193.649 181.912 193.203 181.912Z" fill="#456AA5"/>
    <path d="M172.453 181.52L174.661 180.752H175.621V189.152H174.517V181.952L172.729 182.48L172.453 181.52ZM182.73 188.12C182.171 188.912 181.375 189.308 180.343 189.308C179.311 189.308 178.515 188.912 177.955 188.12C177.387 187.32 177.103 186.264 177.103 184.952C177.103 183.64 177.387 182.584 177.955 181.784C178.515 180.992 179.311 180.596 180.343 180.596C181.375 180.596 182.171 180.992 182.73 181.784C183.299 182.584 183.583 183.64 183.583 184.952C183.583 186.264 183.299 187.32 182.73 188.12ZM178.219 184.952C178.219 185.992 178.403 186.796 178.771 187.364C179.139 187.932 179.663 188.216 180.343 188.216C181.023 188.216 181.547 187.932 181.915 187.364C182.291 186.796 182.479 185.992 182.479 184.952C182.479 183.912 182.291 183.108 181.915 182.54C181.547 181.964 181.023 181.676 180.343 181.676C179.663 181.676 179.139 181.96 178.771 182.528C178.403 183.096 178.219 183.904 178.219 184.952Z" fill="#456AA5"/>
    <path d="M154.424 201.792L156.264 201.152H157.064V208.152H156.144V202.152L154.654 202.592L154.424 201.792ZM162.729 208.152H158.209V207.392L160.679 204.872C161.339 204.212 161.669 203.645 161.669 203.172C161.669 202.785 161.549 202.482 161.309 202.262C161.075 202.035 160.782 201.922 160.429 201.922C159.769 201.922 159.289 202.235 158.989 202.862L158.209 202.402C158.422 201.955 158.722 201.615 159.109 201.382C159.495 201.142 159.932 201.022 160.419 201.022C161.012 201.022 161.522 201.215 161.949 201.602C162.382 201.995 162.599 202.515 162.599 203.162C162.599 203.868 162.182 204.638 161.349 205.472L159.559 207.252H162.729V208.152Z" fill="#456AA5"/>
    <path d="M210.432 205.032V204.152H214.802V204.982L212.252 211.152H211.282L213.812 205.032H210.432Z" fill="#456AA5"/>
    <path d="M207.51 194.532C208.236 194.905 208.6 195.472 208.6 196.232C208.6 196.872 208.376 197.375 207.93 197.742C207.476 198.102 206.9 198.282 206.2 198.282C205.5 198.282 204.926 198.102 204.48 197.742C204.033 197.375 203.81 196.872 203.81 196.232C203.81 195.472 204.173 194.905 204.9 194.532C204.326 194.172 204.04 193.662 204.04 193.002C204.04 192.368 204.25 191.882 204.67 191.542C205.096 191.195 205.606 191.022 206.2 191.022C206.806 191.022 207.316 191.195 207.73 191.542C208.156 191.882 208.37 192.368 208.37 193.002C208.37 193.662 208.083 194.172 207.51 194.532ZM206.2 191.912C205.833 191.912 205.533 192.008 205.3 192.202C205.073 192.395 204.96 192.668 204.96 193.022C204.96 193.368 205.076 193.642 205.31 193.842C205.543 194.042 205.84 194.142 206.2 194.142C206.56 194.142 206.856 194.042 207.09 193.842C207.323 193.642 207.44 193.368 207.44 193.022C207.44 192.668 207.326 192.395 207.1 192.202C206.873 192.008 206.573 191.912 206.2 191.912ZM206.2 197.392C206.653 197.392 207.013 197.285 207.28 197.072C207.546 196.858 207.68 196.558 207.68 196.172C207.68 195.792 207.546 195.495 207.28 195.282C207.013 195.068 206.653 194.962 206.2 194.962C205.753 194.962 205.396 195.068 205.13 195.282C204.863 195.495 204.73 195.792 204.73 196.172C204.73 196.558 204.863 196.858 205.13 197.072C205.396 197.285 205.753 197.392 206.2 197.392Z" fill="#456AA5"/>
    <path d="M205.168 232.882H206.188C206.848 232.882 207.405 233.078 207.858 233.472C208.318 233.865 208.548 234.402 208.548 235.082C208.548 235.768 208.315 236.305 207.848 236.692C207.375 237.085 206.808 237.282 206.148 237.282C205.602 237.282 205.118 237.152 204.698 236.892C204.285 236.625 203.998 236.255 203.838 235.782L204.628 235.332C204.722 235.665 204.902 235.922 205.168 236.102C205.435 236.282 205.762 236.372 206.148 236.372C206.595 236.372 206.952 236.258 207.218 236.032C207.492 235.798 207.628 235.482 207.628 235.082C207.628 234.682 207.492 234.365 207.218 234.132C206.952 233.898 206.602 233.782 206.168 233.782H204.188L204.448 230.152H208.278V231.022H205.288L205.168 232.882Z" fill="#456AA5"/>
    <path d="M161.779 191.792L163.619 191.152H164.419V198.152H163.499V192.152L162.009 192.592L161.779 191.792ZM165.343 191.792L167.183 191.152H167.983V198.152H167.063V192.152L165.573 192.592L165.343 191.792Z" fill="#456AA5"/>
    <path d="M167.446 237.152H162.926V236.392L165.396 233.872C166.056 233.212 166.386 232.645 166.386 232.172C166.386 231.785 166.266 231.482 166.026 231.262C165.793 231.035 165.5 230.922 165.146 230.922C164.486 230.922 164.006 231.235 163.706 231.862L162.926 231.402C163.14 230.955 163.44 230.615 163.826 230.382C164.213 230.142 164.65 230.022 165.136 230.022C165.73 230.022 166.24 230.215 166.666 230.602C167.1 230.995 167.316 231.515 167.316 232.162C167.316 232.868 166.9 233.638 166.066 234.472L164.276 236.252H167.446V237.152Z" fill="#456AA5"/>
    <path d="M156.561 217.792L158.401 217.152H159.201V224.152H158.281V218.152L156.791 218.592L156.561 217.792Z" fill="#456AA5"/>
    <path d="M212.203 219.572C212.903 219.572 213.479 219.792 213.933 220.232C214.386 220.665 214.613 221.228 214.613 221.922C214.613 222.615 214.386 223.182 213.933 223.622C213.479 224.062 212.903 224.282 212.203 224.282C211.489 224.282 210.909 224.062 210.463 223.622C210.016 223.182 209.793 222.615 209.793 221.922C209.793 221.375 209.933 220.908 210.213 220.522L212.463 217.152H213.523L211.873 219.592C212.073 219.578 212.183 219.572 212.203 219.572ZM212.203 220.462C211.756 220.462 211.396 220.595 211.123 220.862C210.849 221.128 210.713 221.482 210.713 221.922C210.713 222.362 210.849 222.718 211.123 222.992C211.403 223.258 211.763 223.392 212.203 223.392C212.643 223.392 212.999 223.258 213.273 222.992C213.553 222.718 213.693 222.362 213.693 221.922C213.693 221.482 213.553 221.128 213.273 220.862C212.999 220.595 212.643 220.462 212.203 220.462Z" fill="#456AA5"/>
    <path d="M195.043 242.952H195.893V243.822H195.043V245.152H194.113V243.822H190.543V242.952L193.053 238.152H194.053L191.543 242.952H194.113V240.972H195.043V242.952Z" fill="#456AA5"/>
    <path d="M180.207 238.972L178.687 241.022C179.234 241.122 179.674 241.355 180.007 241.722C180.341 242.088 180.507 242.542 180.507 243.082C180.507 243.768 180.274 244.305 179.807 244.692C179.334 245.085 178.767 245.282 178.107 245.282C177.561 245.282 177.084 245.158 176.677 244.912C176.271 244.665 175.981 244.315 175.807 243.862L176.587 243.402C176.794 244.048 177.301 244.372 178.107 244.372C178.547 244.372 178.901 244.258 179.167 244.032C179.441 243.798 179.577 243.482 179.577 243.082C179.577 242.682 179.441 242.365 179.167 242.132C178.901 241.898 178.547 241.782 178.107 241.782H177.867L177.497 241.212L179.117 239.022H176.007V238.152H180.207V238.972Z" fill="#456AA5"/>
    <g clip-path="url(#clip0_562_53816)">
        <path d="M225.723 41.5064C226.239 42.828 226.342 44.4226 226.335 46.2091C226.275 47.1983 226.024 48.0766 225.814 49.1064C221.161 48.082 217.66 47.7225 217.66 47.7225C217.66 47.7225 220.84 49.3036 225.312 50.8631C225.241 51.2064 225.131 51.3983 225.06 51.7415C223.683 55.6793 221.458 58.8712 219.553 60.8414C218.546 61.9225 217.719 62.4684 217.044 62.9738C216.328 63.3278 215.874 63.4494 215.874 63.4494C215.874 63.4494 216.369 63.4792 217.125 63.2765C217.881 63.0738 219.051 62.5981 220.251 61.6279C222.69 59.8387 225.41 56.6766 227.009 52.355C227.079 52.0118 227.149 51.6686 227.37 51.2848C227.905 51.4659 228.248 51.5361 228.783 51.7172C229.51 52.0091 230.197 52.1497 230.883 52.2902C230.672 53.32 230.613 54.3092 230.746 55.4092C230.93 57.3065 231.376 58.9713 231.741 60.3335C232.106 61.6957 232.541 62.7146 232.895 63.4308C233.249 64.147 233.481 64.4092 233.481 64.4092C233.481 64.4092 233.36 63.9551 233.157 63.1984C232.954 62.4416 232.822 61.3416 232.649 60.0903C232.435 58.6876 232.332 57.093 232.38 55.4578C232.329 54.6605 232.58 53.7822 232.68 52.9443C236.989 53.8985 240.147 54.1877 240.147 54.1877C240.147 54.1877 237.31 52.6768 233.182 51.1876C233.252 50.8443 233.473 50.4606 233.544 50.1173C234.348 48.2795 235.234 46.7444 236.312 45.3201C237.43 44.0471 238.589 42.9255 239.718 42.2985C240.807 41.5202 241.825 41.085 242.582 40.8823C243.338 40.6797 243.792 40.558 243.792 40.558C243.792 40.558 243.298 40.5283 242.652 40.5391C241.855 40.5904 240.755 40.7229 239.475 41.3904C238.154 41.9066 236.611 42.8066 235.342 44.1201C233.921 45.4741 232.773 47.2416 231.858 49.2713C231.636 49.6551 231.566 49.9984 231.385 50.5335C230.699 50.3929 229.972 50.101 229.286 49.9605C228.751 49.7794 228.256 49.7497 227.873 49.528C228.043 48.347 228.213 47.1659 228.12 46.2172C228.088 44.2794 227.601 42.4632 226.742 41.0713C225.923 39.8307 225.034 38.9334 224.418 38.4496C223.802 37.9658 223.267 37.7847 223.267 37.7847C223.267 37.7847 223.65 38.0063 224.156 38.682C224.51 39.3983 225.207 40.1848 225.723 41.5064Z" fill="white"/>
        <path d="M319.389 100.6C319.64 99.7217 319.7 98.7325 319.416 97.6731C319.172 96.7649 318.626 95.9379 318.081 95.1109C317.535 94.2838 316.878 93.6487 316.07 93.0541C315.262 92.4595 314.303 91.9054 313.425 91.654C312.355 91.2919 311.366 91.2324 310.418 91.3243C309.469 91.4161 308.521 91.508 307.654 91.9026C305.879 92.5404 304.447 93.2485 303.056 94.1079C302.491 94.4214 302.119 94.8457 301.554 95.1592C301.927 94.7349 302.108 94.1998 302.48 93.7755C303.256 92.4322 303.95 90.7863 304.452 89.0296C304.703 88.1512 304.762 87.162 304.821 86.1728C304.729 85.2242 304.597 84.1242 304.202 83.2566C303.767 82.2377 303.221 81.4106 302.564 80.7755C301.908 80.1403 301.1 79.5457 300.292 78.9511C299.525 78.5079 298.606 78.1051 297.617 78.0457C296.628 77.9862 295.68 78.0781 294.813 78.4726C293.946 78.8672 293.27 79.3726 292.635 80.0294C292.152 80.6456 291.709 81.4131 291.377 81.9888C290.794 83.4428 290.664 84.7753 290.686 86.0672C290.708 87.3591 291.184 88.5293 292.032 89.2753C292.456 89.6483 292.84 89.8699 293.334 89.8996C293.829 89.9294 294.172 89.9997 294.475 89.9186C295.08 89.7564 295.644 89.4429 295.947 89.3619C296.209 89.1294 296.36 89.0889 296.36 89.0889C296.36 89.0889 296.209 89.1294 295.906 89.2105C295.604 89.2916 295.15 89.4132 294.545 89.5753C293.899 89.5861 293.061 89.4861 292.556 88.8104C292.051 88.1348 291.807 87.2266 291.826 86.0861C291.845 84.9456 292.166 83.7239 292.871 82.724C293.384 81.6132 294.392 80.5321 295.602 80.2078C296.207 80.0456 296.812 79.8835 297.499 80.024C298.185 80.1646 298.76 80.497 299.487 80.7889C300.83 81.5646 301.952 82.7241 302.508 84.1971C303.065 85.6701 303.168 87.2647 302.736 88.6782C302.496 90.2025 301.913 91.6565 301.138 92.9998C299.89 95.6052 298.218 97.8376 296.919 99.6456C296.919 99.6456 296.919 99.6456 296.767 99.6862C295.125 101.424 293.896 102.889 293.04 103.929C292.184 104.97 291.851 105.546 291.851 105.546C291.851 105.546 292.375 105.081 293.464 104.302C294.512 103.373 295.974 102.17 297.616 100.432C297.616 100.432 297.767 100.392 297.727 100.24C299.45 98.8051 301.587 97.0971 304.107 95.6106C305.388 94.9431 306.82 94.235 308.332 93.8296C309.845 93.4242 311.439 93.3216 312.852 93.754C314.266 94.1865 315.69 95.2649 316.508 96.5054C316.973 97.0298 317.327 97.746 317.49 98.3514C317.652 98.9568 317.663 99.6028 317.674 100.249C317.352 101.47 316.496 102.511 315.407 103.289C314.319 104.068 313.108 104.392 312.049 104.676C310.95 104.808 309.961 104.749 309.194 104.305C308.426 103.862 308.223 103.105 308.213 102.459C308.202 101.813 308.383 101.278 308.453 100.935C308.523 100.592 308.634 100.4 308.634 100.4C308.634 100.4 308.523 100.592 308.453 100.935C308.383 101.278 308.161 101.662 308.021 102.349C307.95 102.692 308.032 102.994 308.153 103.449C308.275 103.903 308.548 104.316 308.972 104.689C309.821 105.435 311.001 105.605 312.293 105.584C313.584 105.562 314.946 105.197 316.226 104.53C316.942 104.176 317.466 103.711 318.101 103.054C318.544 102.287 318.987 101.519 319.389 100.6Z" fill="white"/>
        <path d="M359.801 180.614C359.912 180.422 359.982 180.079 359.861 179.625C359.739 179.171 359.577 178.565 359.304 178.152C358.99 177.587 358.525 177.062 357.909 176.579C356.828 175.571 355.253 174.533 353.748 173.152C352.283 171.922 351.04 170.308 350.664 168.3C350.543 167.846 350.572 167.351 350.602 166.857C350.561 166.706 350.632 166.362 350.742 166.17C350.702 166.019 350.853 165.979 350.813 165.827L350.772 165.676L350.731 165.524L350.691 165.373C350.761 165.03 350.942 164.495 351.163 164.111C351.385 163.727 351.566 163.192 351.787 162.808C352.784 161.081 353.781 159.354 353.98 157.679C354.08 156.841 354.028 156.043 353.523 155.368C353.21 154.803 352.634 154.47 352.25 154.249C351.483 153.806 350.989 153.776 350.989 153.776C350.989 153.776 351.372 153.997 351.988 154.481C352.221 154.743 352.645 155.116 352.767 155.57C352.888 156.024 352.899 156.67 352.759 157.357C352.619 158.043 352.135 158.66 351.692 159.427C351.249 160.195 350.614 160.851 350.061 161.811C349.839 162.195 349.467 162.619 349.134 163.195C348.802 163.77 348.621 164.305 348.44 164.841C348.44 164.841 348.33 165.033 348.37 165.184L348.411 165.335C348.411 165.335 348.451 165.487 348.3 165.527C348.027 165.114 347.603 164.741 347.219 164.519C345.563 163.178 343.574 162.414 341.596 162.295C339.619 162.176 337.763 162.511 336.331 163.219C334.748 163.967 333.589 165.089 332.733 166.13C331.917 167.321 331.404 168.432 331.042 169.502C330.831 170.532 330.772 171.521 330.824 172.319C330.875 173.116 331.037 173.721 331.119 174.024C331.24 174.478 331.281 174.63 331.281 174.63C331.281 174.63 331.078 173.873 331.167 172.389C331.307 171.702 331.366 170.713 331.769 169.794C332.171 168.875 332.684 167.765 333.581 166.876C334.478 165.986 335.526 165.057 336.847 164.54C338.168 164.024 339.722 163.77 341.397 163.97C342.921 164.211 344.566 164.905 345.839 166.024C347.111 167.143 348.163 168.646 348.498 170.503C348.985 172.319 348.826 174.146 348.132 175.792C347.438 177.438 346.319 178.711 345.12 179.681C343.769 180.692 342.256 181.097 340.854 181.311C339.412 181.373 338.08 181.243 336.818 180.77C335.556 180.297 334.597 179.743 333.9 178.957C333.051 178.211 332.546 177.535 332.232 176.97C331.413 175.73 331.321 174.781 331.321 174.781C331.321 174.781 331.362 174.932 331.484 175.386C331.605 175.84 331.727 176.294 332.081 177.011C332.435 177.727 332.83 178.594 333.527 179.381C334.224 180.167 335.264 181.024 336.567 181.649C337.869 182.273 339.433 182.665 341.068 182.713C342.702 182.762 344.669 182.235 346.171 181.184C347.824 180.092 349.205 178.587 350.12 176.557C350.523 175.638 350.884 174.568 350.903 173.427C351.327 173.8 351.752 174.173 352.176 174.546C353.792 175.735 355.478 176.581 356.669 177.398C357.245 177.73 357.861 178.214 358.285 178.587C358.71 178.96 358.982 179.373 359.104 179.827C359.639 180.008 359.72 180.311 359.801 180.614C359.691 180.806 359.731 180.957 359.731 180.957C359.731 180.957 359.691 180.806 359.801 180.614Z" fill="white"/>
        <path d="M131.654 52.9241C131.986 52.3484 132.469 51.7322 133.034 51.4187C133.296 51.1863 133.75 51.0647 134.052 50.9836C134.355 50.9025 134.658 50.8215 135.041 51.0431C135.384 51.1134 135.617 51.3755 136.041 51.7485C136.465 52.1215 136.738 52.535 137.314 52.8675C137.738 53.2404 138.354 53.7242 139.081 54.0161C139.424 54.0864 139.959 54.2675 140.262 54.1864C140.756 54.2162 141.059 54.1351 141.472 53.8621C141.623 53.8216 141.623 53.8216 141.775 53.781C141.926 53.7405 141.926 53.7405 142.037 53.5486C142.188 53.5081 142.45 53.2757 142.561 53.0838C142.823 52.8513 143.044 52.4676 143.266 52.0838C143.598 51.5081 143.889 50.7811 144.07 50.246C144.251 49.7108 144.624 49.2865 144.886 49.0541C145.148 48.8216 145.753 48.6595 145.904 48.619C146.248 48.6892 146.631 48.9109 147.015 49.1325C147.439 49.5055 148.015 49.8379 148.59 50.1704C148.933 50.2406 149.166 50.5028 149.66 50.5325C149.812 50.492 149.812 50.492 150.003 50.6028L150.155 50.5623L150.306 50.5217C150.457 50.4812 150.609 50.4407 150.76 50.4001C151.365 50.238 151.97 50.0758 152.383 49.8029C153.361 49.2164 154.107 48.3678 154.399 47.6407C154.841 46.8732 155.093 45.9948 155.082 45.3489C155.222 44.6624 155.211 44.0164 155.241 43.5218C155.3 42.5326 155.138 41.9272 155.138 41.9272C155.138 41.9272 155.108 42.4218 154.898 43.4516C154.868 43.9461 154.687 44.4813 154.547 45.1678C154.406 45.8542 154.074 46.4299 153.591 47.0461C153.107 47.6623 152.624 48.2785 151.716 48.5218C151.262 48.6434 150.959 48.7245 150.465 48.6947C150.314 48.7353 150.314 48.7353 150.122 48.6244L149.971 48.665C149.971 48.665 149.971 48.665 149.819 48.7055C149.627 48.5947 149.476 48.6352 149.284 48.5244C148.901 48.3028 148.476 47.9298 148.052 47.5568C147.82 47.2947 147.477 47.2244 147.244 46.9622C146.861 46.7406 146.517 46.6703 146.023 46.6406C145.831 46.5298 145.529 46.6108 145.377 46.6514C145.226 46.6919 145.075 46.7325 145.075 46.7325C144.923 46.773 144.923 46.773 144.772 46.8135C144.47 46.8946 144.056 47.1676 143.794 47.4C143.119 47.9054 142.676 48.673 142.344 49.2486C142.052 49.9756 141.871 50.5108 141.498 50.9351C141.277 51.3189 141.055 51.7027 140.753 51.7837C140.299 51.9053 139.996 51.9864 139.653 51.9161C139.31 51.8459 138.926 51.6242 138.502 51.2513C138.078 50.8783 137.654 50.5053 137.23 50.1323C136.805 49.7593 136.23 49.4269 135.543 49.2863C134.857 49.1458 134.252 49.3079 133.798 49.4296C133.385 49.7025 132.972 49.9755 132.558 50.2485C131.923 50.9052 131.481 51.6728 131.34 52.3592C131.049 53.0863 130.868 53.6214 130.797 53.9646C130.546 54.843 130.365 55.3781 130.365 55.3781C130.365 55.3781 130.738 54.9538 131.141 54.0349C130.989 54.0755 131.321 53.4998 131.654 52.9241Z" fill="white"/>
        <path d="M157.366 56.9028C157.185 57.438 156.894 58.165 156.41 58.7812C155.927 59.3974 155.443 60.0136 154.535 60.2568C154.081 60.3785 153.779 60.4595 153.284 60.4298C153.133 60.4703 153.133 60.4703 152.941 60.3595L152.79 60.4C152.79 60.4 152.79 60.4 152.639 60.4406C152.447 60.3298 152.296 60.3703 152.104 60.2595C151.72 60.0379 151.296 59.6649 150.872 59.2919C150.639 59.0297 150.296 58.9595 150.064 58.6973C149.68 58.4757 149.337 58.4054 148.842 58.3757C148.651 58.2648 148.348 58.3459 148.197 58.3865C148.045 58.427 147.894 58.4675 147.894 58.4675C147.743 58.5081 147.743 58.5081 147.592 58.5486C147.289 58.6297 146.876 58.9027 146.614 59.1351C145.938 59.6405 145.495 60.408 145.163 60.9837C144.871 61.7107 144.691 62.2459 144.318 62.6702C144.096 63.0539 143.875 63.4377 143.572 63.5188C143.118 63.6404 142.816 63.7215 142.473 63.6512C142.13 63.5809 141.746 63.3593 141.322 62.9863C140.897 62.6134 140.473 62.2404 140.049 61.8674C139.625 61.4944 139.049 61.162 138.363 61.0214C137.677 60.8809 137.071 61.043 136.618 61.1646C136.204 61.4376 135.791 61.7106 135.378 61.9835C134.743 62.6403 134.3 63.4078 134.16 64.0943C133.868 64.8213 133.687 65.3565 133.617 65.6997C133.366 66.5781 133.185 67.1132 133.185 67.1132C133.185 67.1132 133.558 66.6889 133.96 65.77C134.181 65.3862 134.514 64.8105 134.846 64.2349C135.178 63.6592 135.662 63.043 136.226 62.7295C136.488 62.4971 136.942 62.3754 137.245 62.2944C137.547 62.2133 137.85 62.1322 138.233 62.3539C138.577 62.4241 138.809 62.6863 139.233 63.0593C139.657 63.4323 139.93 63.8458 140.506 64.1782C140.93 64.5512 141.546 65.035 142.273 65.3269C142.616 65.3972 143.151 65.5783 143.454 65.4972C143.948 65.5269 144.251 65.4458 144.664 65.1729C144.815 65.1323 144.815 65.1323 144.967 65.0918C145.118 65.0513 145.118 65.0513 145.229 64.8594C145.38 64.8188 145.642 64.5864 145.753 64.3945C146.015 64.1621 146.236 63.7783 146.458 63.3945C146.79 62.8189 147.082 62.0918 147.262 61.5567C147.443 61.0216 147.816 60.5973 148.078 60.3648C148.34 60.1324 148.945 59.9703 149.097 59.9297C149.399 59.8486 149.823 60.2216 150.207 60.4432C150.631 60.8162 151.207 61.1487 151.782 61.4811C152.126 61.5514 152.358 61.8136 152.852 61.8433C153.004 61.8028 153.004 61.8028 153.196 61.9136L153.347 61.873L153.498 61.8325C153.649 61.792 153.801 61.7514 153.952 61.7109C154.557 61.5487 155.162 61.3866 155.576 61.1136C156.554 60.5271 157.299 59.6785 157.591 58.9515C158.034 58.1839 158.285 57.3056 158.274 56.6596C158.414 55.9731 158.403 55.3272 158.433 54.8326C158.492 53.8434 158.33 53.238 158.33 53.238C158.33 53.238 158.3 53.7326 158.09 54.7623C157.687 55.6812 157.506 56.2163 157.366 56.9028Z" fill="white"/>
        <path d="M299.338 339.243C300.256 339.645 301.175 340.048 302.275 339.916C304.171 339.732 305.987 339.246 307.378 338.386C308.921 337.486 310.079 336.365 311.046 335.132C312.98 332.667 313.885 329.992 314.225 327.63C314.565 325.267 314.078 323.451 313.602 322.281C313.127 321.111 312.662 320.586 312.662 320.586C312.662 320.586 312.975 321.151 313.3 322.362C313.624 323.573 313.768 325.319 313.195 327.419C312.774 329.478 311.637 331.892 309.733 333.862C308.877 334.902 307.677 335.873 306.397 336.54C305.116 337.208 303.644 337.764 302.05 337.867C300.799 338.04 299.456 337.264 298.527 336.216C297.597 335.167 297.273 333.956 297.443 332.775C297.624 332.24 297.956 331.664 298.329 331.24C298.591 331.008 298.701 330.816 298.963 330.583C299.225 330.351 299.528 330.27 299.639 330.078C300.617 329.491 301.646 329.702 302.565 330.105C303.483 330.508 304.029 331.335 304.383 332.051C304.737 332.767 304.638 333.605 304.416 333.989C304.084 334.564 303.671 334.837 303.368 334.918C303.065 335 302.914 335.04 302.914 335.04C302.914 335.04 303.065 335 303.368 334.918C303.671 334.837 304.124 334.716 304.608 334.1C304.94 333.524 305.191 332.646 304.948 331.737C304.705 330.829 304.118 329.851 303.118 329.146C302.543 328.813 301.967 328.481 301.281 328.34C300.595 328.2 299.838 328.402 299.082 328.605C298.628 328.727 298.366 328.959 298.104 329.191C297.842 329.424 297.429 329.697 297.167 329.929C296.491 330.435 296.048 331.202 295.797 332.081C295.546 332.959 295.487 333.948 295.73 334.856C295.973 335.764 296.368 336.632 297.025 337.267C297.763 338.205 298.419 338.84 299.338 339.243Z" fill="white"/>
        <path d="M293.308 326.421C293.729 324.362 294.866 321.948 296.73 319.827C297.586 318.786 298.785 317.816 300.066 317.148C301.346 316.481 302.819 315.924 304.413 315.821C305.664 315.648 307.006 316.424 307.936 317.473C308.866 318.522 309.19 319.732 309.02 320.913C308.839 321.449 308.658 321.984 308.134 322.449C307.872 322.681 307.761 322.873 307.499 323.105C307.237 323.338 306.935 323.419 306.824 323.611C305.846 324.197 304.817 323.986 303.898 323.584C302.979 323.181 302.434 322.354 302.08 321.638C301.725 320.921 301.825 320.084 302.047 319.7C302.228 319.165 302.792 318.851 303.095 318.77C303.397 318.689 303.549 318.648 303.549 318.648C303.549 318.648 303.397 318.689 303.095 318.77C302.792 318.851 302.379 319.124 301.855 319.589C301.523 320.165 301.272 321.043 301.515 321.951C301.758 322.859 302.345 323.838 303.344 324.543C303.92 324.875 304.496 325.208 305.182 325.348C305.868 325.489 306.625 325.286 307.381 325.084C307.835 324.962 308.097 324.73 308.359 324.497C308.621 324.265 309.034 323.992 309.296 323.759C309.972 323.254 310.415 322.486 310.666 321.608C310.917 320.73 310.976 319.74 310.733 318.832C310.489 317.924 310.095 317.057 309.438 316.422C308.781 315.786 308.125 315.151 307.166 314.597C306.247 314.194 305.217 313.984 304.229 313.924C302.332 314.108 300.557 314.746 299.166 315.605C297.623 316.505 296.465 317.627 295.498 318.859C293.564 321.324 292.659 324 292.47 326.321C292.282 328.643 292.617 330.5 293.244 331.629C293.72 332.8 294.185 333.324 294.185 333.324C294.185 333.324 293.871 332.759 293.547 331.548C293.071 330.378 292.927 328.632 293.308 326.421Z" fill="white"/>
        <path d="M218.016 369.793C218.673 370.428 219.44 370.871 220.016 371.203C220.248 371.466 220.4 371.425 220.591 371.536C220.783 371.647 220.935 371.606 221.086 371.566L221.429 371.636L221.086 371.566C220.935 371.606 220.743 371.495 220.551 371.385C220.359 371.274 220.167 371.163 220.127 371.012C219.551 370.679 218.935 370.195 218.43 369.52C217.773 368.884 217.338 367.866 217.165 366.614C216.992 365.363 217.272 363.99 218.088 362.798C218.42 362.222 219.055 361.566 219.62 361.252C220.295 360.747 221.051 360.544 221.697 360.533C222.494 360.482 223.221 360.774 223.837 361.258C224.221 361.479 224.453 361.741 224.726 362.155C224.767 362.306 224.999 362.568 225.04 362.72L225.272 362.982L225.313 363.133L225.353 363.285C225.394 363.436 225.434 363.587 225.515 363.89C225.556 364.041 225.637 364.344 225.526 364.536C225.648 364.99 225.618 365.485 225.589 365.979C225.681 366.928 225.662 368.068 225.643 369.209C225.757 371.449 225.871 373.69 226.177 376.041C226.35 377.293 226.674 378.504 227.301 379.633C227.615 380.198 228.12 380.874 228.736 381.358C229.352 381.841 230.231 382.093 231.068 382.193C232.057 382.252 232.924 381.858 233.681 381.655C234.396 381.301 235.112 380.947 235.788 380.442C236.463 379.936 237.138 379.431 237.581 378.663C238.024 377.896 238.275 377.017 238.183 376.069C238.132 375.271 237.889 374.363 237.575 373.798C237.221 373.082 236.907 372.517 236.594 371.952C235.775 370.712 235.037 369.774 234.259 368.685C233.521 367.747 232.743 366.658 232.005 365.72C231.267 364.782 230.681 363.804 230.438 362.896C230.194 361.987 230.102 361.039 230.545 360.271C230.767 359.887 230.988 359.504 231.401 359.231C231.815 358.958 232.077 358.725 232.49 358.452C233.206 358.098 234.003 358.047 234.619 358.531C235.235 359.015 235.549 359.579 235.903 360.296C236.419 361.617 236.138 362.99 235.544 363.798C235.171 364.223 234.717 364.344 234.415 364.425C233.961 364.547 233.618 364.477 233.426 364.366C232.932 364.336 232.548 364.114 232.548 364.114C232.548 364.114 232.74 364.225 233.426 364.366C233.769 364.436 234.112 364.506 234.415 364.425C234.869 364.304 235.323 364.182 235.695 363.758C236.068 363.333 236.4 362.758 236.541 362.071C236.681 361.385 236.63 360.588 236.427 359.831C236.224 359.074 235.829 358.206 235.021 357.612C234.597 357.239 234.062 357.058 233.568 357.028C233.073 356.998 232.468 357.16 232.014 357.282C231.561 357.404 230.996 357.717 230.623 358.141C230.21 358.414 229.686 358.879 229.505 359.414C229.173 359.99 228.992 360.525 228.851 361.212C228.862 361.858 228.873 362.504 229.036 363.109C229.36 364.32 229.987 365.45 230.573 366.428C231.2 367.558 231.938 368.496 232.716 369.585C233.495 370.674 234.233 371.612 234.86 372.742C235.487 373.871 236.114 375.001 236.054 375.99C236.025 376.485 235.995 376.979 235.622 377.404C235.401 377.788 234.877 378.252 234.463 378.525C233.899 378.839 233.375 379.304 232.77 379.466C232.205 379.779 231.6 379.941 231.106 379.912C230.611 379.882 230.268 379.812 230.036 379.55C229.652 379.328 229.379 378.914 229.106 378.501C228.56 377.674 228.276 376.614 228.144 375.514C227.727 373.355 227.613 371.114 227.348 368.914C227.215 367.814 227.275 366.825 227.142 365.725C227.172 365.231 227.009 364.625 227.039 364.131C226.958 363.828 226.917 363.677 226.836 363.374C226.755 363.071 226.674 362.768 226.593 362.466L226.552 362.314L226.512 362.163L226.471 362.012C226.431 361.86 226.239 361.75 226.239 361.75C226.007 361.487 225.966 361.336 225.734 361.074C225.461 360.66 225.036 360.287 224.612 359.914C223.764 359.168 222.583 358.998 221.594 358.939C220.495 359.071 219.627 359.466 218.993 360.122C218.317 360.628 217.723 361.436 217.24 362.052C216.505 363.547 216.265 365.071 216.478 366.474C216.581 368.068 217.319 369.006 218.016 369.793Z" fill="white"/>
        <path d="M337.597 244.8C337.619 246.092 337.722 247.687 337.562 249.514C336.382 249.343 335.544 249.243 335.544 249.243C335.544 249.243 336.271 249.535 337.382 250.049C337.241 250.735 337.141 251.573 337.001 252.26C336.75 253.138 336.65 253.976 336.358 254.703C333.119 254.111 330.798 253.922 330.798 253.922C330.798 253.922 332.827 254.838 335.886 255.965C335.886 255.965 335.926 256.116 335.775 256.157C335.262 257.268 334.557 258.268 333.922 258.924C333.288 259.581 332.653 260.238 332.239 260.511C331.826 260.784 331.564 261.016 331.564 261.016C331.564 261.016 331.867 260.935 332.472 260.773C333.077 260.611 333.793 260.257 334.771 259.67C335.597 259.124 336.646 258.195 337.421 256.851C337.531 256.66 337.531 256.66 337.642 256.468C339.247 257.011 341.195 257.625 343.294 258.198C343.829 258.379 344.364 258.56 344.859 258.589L345.202 258.66L345.394 258.771L345.545 258.73L345.737 258.841L346.231 258.871L347.261 259.081C347.947 259.222 348.441 259.252 349.128 259.392C350.308 259.563 351.338 259.773 352.175 259.873C352.327 259.833 352.367 259.984 352.519 259.944C352.419 260.781 352.359 261.771 352.452 262.719C352.706 264.273 353.222 265.595 353.96 266.533C354.698 267.471 355.465 267.914 356.04 268.246C356.616 268.579 356.959 268.649 356.959 268.649C356.959 268.649 356.727 268.387 356.302 268.014C355.878 267.641 355.222 267.006 354.786 265.987C354.392 265.119 354.067 263.909 354.046 262.617C353.994 261.819 354.134 261.133 354.385 260.254C354.729 260.325 354.88 260.284 354.88 260.284C354.88 260.284 354.688 260.173 354.496 260.063C354.677 259.527 354.817 258.841 354.998 258.306C355.36 257.236 355.722 256.165 356.276 255.206C359.667 255.757 361.987 255.947 361.987 255.947C361.987 255.947 359.958 255.03 356.748 253.944C357.413 252.792 357.966 251.833 358.561 251.025C359.709 249.257 360.948 248.438 360.948 248.438C360.948 248.438 359.587 248.803 357.904 250.39C357.118 251.087 356.11 252.168 355.295 253.36C355.295 253.36 355.295 253.36 355.184 253.552C353.387 252.898 351.288 252.325 349.037 251.792C345.373 250.827 341.791 250.165 339.429 249.825C339.459 249.33 339.448 248.684 339.326 248.23C339.264 246.787 338.94 245.576 338.504 244.557C337.826 242.63 337.048 241.541 337.048 241.541C337.239 241.651 337.564 242.862 337.597 244.8ZM348.616 253.852C350.715 254.425 352.582 254.736 354.298 255.087C353.855 255.854 353.453 256.773 353.091 257.844C352.91 258.379 352.729 258.914 352.699 259.409L352.508 259.298C351.781 259.006 350.711 258.644 349.641 258.281C349.106 258.1 348.571 257.919 347.844 257.627L346.966 257.376L346.431 257.195L346.239 257.084L345.512 256.792C344.977 256.611 344.442 256.43 343.948 256.4C342.04 255.938 340.133 255.476 338.609 255.235C338.901 254.508 339.152 253.63 339.292 252.943C339.433 252.257 339.573 251.57 339.562 250.924C341.742 251.8 344.952 252.887 348.616 253.852Z" fill="white"/>
        <path d="M85.0637 86.0093C84.4477 85.5256 83.791 84.8904 82.9129 84.639C82.0348 84.3877 81.0865 84.4796 80.3706 84.8336C79.6547 85.1876 78.9794 85.693 78.4959 86.3092C78.0124 86.9254 77.6802 87.5011 77.348 88.0768L77.1265 88.4606C77.0158 88.6525 76.905 88.8443 76.9456 88.9957C76.8754 89.3389 76.6539 89.7227 76.5838 90.066C76.4434 90.7524 76.4543 91.3984 76.4653 92.0443C76.5573 92.993 76.6088 93.7903 76.8116 94.547C76.3873 94.1741 75.7712 93.6903 75.347 93.3173C74.4579 92.42 73.4176 91.5632 72.5286 90.6659C71.6395 89.7686 70.7505 88.8713 69.7102 88.0145C68.8211 87.1172 67.8213 86.4118 66.7108 85.8982C66.1353 85.5658 65.6003 85.3847 64.9141 85.2441C64.2278 85.1036 63.6226 85.2657 63.058 85.5792C62.4934 85.8927 61.9694 86.3576 61.7479 86.7414C61.3752 87.1657 61.0429 87.7414 60.862 88.2765C60.5002 89.3468 60.5922 90.2954 60.6843 91.2441C60.7763 92.1927 60.9791 92.9495 61.3332 93.6657C61.4548 94.1197 61.6872 94.3819 61.8089 94.836C61.3846 94.463 60.8091 94.1305 60.3849 93.7576C59.8093 93.4251 59.2338 93.0927 58.6583 92.7602C58.3151 92.69 57.972 92.6197 57.6289 92.5494C57.4776 92.5899 57.2857 92.4791 56.9832 92.5602C56.8319 92.6007 56.5293 92.6818 56.378 92.7224C56.116 92.9548 55.8539 93.1872 55.7838 93.5305C55.7136 93.8737 55.7541 94.0251 55.6434 94.2169C55.6138 94.7115 55.6949 95.0142 55.776 95.3169C55.9382 95.9224 56.0193 96.2251 56.0193 96.2251C56.0193 96.2251 56.0895 95.8818 56.1191 95.3872C56.1893 95.044 56.1082 94.7413 56.3297 94.3575C56.4404 94.1656 56.3999 94.0143 56.5106 93.8224C56.6213 93.6305 56.6213 93.6305 56.7726 93.5899L56.9239 93.5494C56.9239 93.5494 57.0752 93.5089 57.1157 93.6602C57.3076 93.771 57.4994 93.8818 57.6913 93.9927C58.075 94.2143 58.5398 94.7386 58.964 95.1116C59.853 96.0089 60.9339 97.017 61.8635 98.0657C63.9146 100.274 65.8845 102.179 67.5003 103.368C69.0055 104.75 70.0052 105.455 70.0052 105.455C70.0052 105.455 69.3782 104.325 68.2864 102.671C67.1946 101.017 65.5974 98.6874 63.3951 96.5198C63.1222 96.1063 62.7385 95.8846 62.3548 95.663C62.0413 95.0981 61.8385 94.3414 61.6357 93.5846C61.433 92.8279 61.2302 92.0711 61.1787 91.2738C61.1272 90.4765 61.1865 89.4873 61.4781 88.7603C61.6996 88.3765 61.9211 87.9927 62.1831 87.7603C62.4451 87.5279 62.8179 87.1036 63.2717 86.9819C63.9876 86.6279 65.017 86.8387 65.825 87.4333C66.7842 87.9874 67.6327 88.7334 68.4811 89.4793C69.3296 90.2253 70.2187 91.1226 70.997 92.2118C71.886 93.1091 72.8156 94.1578 73.7047 95.0551C74.1695 95.5794 74.7855 96.0632 75.2098 96.4362C75.7853 96.7686 76.2501 97.293 76.9769 97.5849C77.423 99.2497 77.6773 100.804 77.891 102.207C78.2264 104.063 78.2186 105.85 77.5947 107.152C77.3031 107.879 76.9709 108.455 76.5981 108.879C76.2254 109.304 75.6608 109.617 75.2475 109.89C74.8341 110.163 74.3803 110.285 73.9264 110.406C73.4725 110.528 73.1294 110.458 72.9781 110.498C72.635 110.428 72.4431 110.317 72.2918 110.358C72.1406 110.398 72.1 110.247 72.1 110.247C72.1 110.247 72.1 110.247 72.2918 110.358C72.4837 110.469 72.635 110.428 72.8674 110.69C73.2105 110.76 73.5536 110.831 74.0075 110.709C74.4614 110.588 74.9152 110.466 75.3691 110.344C75.9743 110.182 76.3876 109.909 76.9116 109.444C77.4357 108.979 77.9192 108.363 78.2108 107.636C78.9454 106.142 79.1045 104.315 78.8798 102.266C78.858 100.974 78.493 99.6119 78.2793 98.2092C78.6224 98.2795 78.9656 98.3498 79.4194 98.2282C80.2164 98.1768 80.9027 98.3174 81.8104 98.0741C82.6074 98.0228 83.5152 97.7796 84.1905 97.2742C84.9064 96.9201 85.6925 96.2229 86.1354 95.4553C86.5784 94.6877 86.9807 93.7688 87.0805 92.931C87.1804 92.0932 87.1289 91.2959 86.8855 90.3878C86.8933 88.6013 86.1852 87.1688 85.0637 86.0093ZM85.2915 90.4904C85.616 91.7012 85.4865 93.0337 84.741 93.8823C84.1874 94.8418 83.0176 95.3174 81.7667 95.4904C81.1616 95.6525 80.5158 95.6633 79.8296 95.5228C79.4864 95.4525 79.1839 95.5336 78.8407 95.4633C78.6894 95.5038 78.6894 95.5038 78.6894 95.5038C78.6894 95.5038 78.5382 95.5444 78.4976 95.393C78.3463 95.4335 78.3058 95.2822 78.1545 95.3227L78.1139 95.1714C77.9813 94.0714 77.8487 92.9714 77.8269 91.6795C77.8159 91.0335 77.8456 90.5389 78.0265 90.0038C78.0967 89.6606 78.2074 89.4687 78.3181 89.2768C78.4289 89.0849 78.4289 89.0849 78.5396 88.893L78.7611 88.5092C79.3147 87.5498 80.171 86.5093 81.0787 86.266C81.5326 86.1444 81.9865 86.0228 82.5215 86.2039C83.0564 86.385 83.4401 86.6066 83.8644 86.9796C84.4914 88.1093 85.0077 89.431 85.2915 90.4904Z" fill="white"/>
        <path d="M24.6624 160.754L24.43 160.492C24.2382 160.381 24.0463 160.27 24.0058 160.119C23.6221 159.897 23.3897 159.635 23.1167 159.222L21.0361 157.508L21.0876 158.306L21.2311 160.051C21.3933 160.657 21.3231 161 21.2935 161.495C21.2639 161.989 21.2639 161.989 21.1937 162.333C21.2342 162.484 21.1235 162.676 21.0128 162.868C20.8724 163.554 20.5808 164.281 20.4404 164.968C19.9678 166.23 19.344 167.533 18.7498 168.341C18.1961 169.3 17.5613 169.957 17.148 170.23C16.6239 170.695 16.2808 170.624 16.2808 170.624C16.2808 170.624 16.6239 170.695 17.2291 170.533C17.8343 170.37 18.6609 169.824 19.5577 168.935C20.4545 168.046 21.3107 167.006 21.894 165.552C22.1857 164.824 22.6286 164.057 22.8797 163.179C22.8392 163.027 22.9905 162.987 22.9499 162.835C23.7906 165.368 25.4611 169.787 27.9396 174.8C26.1647 175.438 24.6923 175.995 23.5631 176.622C22.4339 177.249 21.6073 177.795 21.6073 177.795C21.6073 177.795 22.4043 177.743 23.8064 177.53C25.0573 177.357 26.762 177.062 28.7288 176.535C32.1072 183.092 35.3015 187.752 35.3015 187.752C35.3015 187.752 33.7308 182.495 30.655 175.857C31.9761 175.341 32.954 174.754 33.7806 174.208C34.8693 173.43 35.504 172.773 35.504 172.773C35.504 172.773 34.5963 173.017 33.3454 173.19C32.4377 173.433 31.1868 173.606 29.6739 174.011C29.6334 173.86 29.6334 173.86 29.5928 173.708C27.0333 168.392 24.2226 163.954 23.0092 161.846C23.0092 161.846 23.0092 161.846 23.0497 161.997L23.2416 162.108C24.0089 162.552 24.625 163.035 25.3518 163.327C26.8055 163.911 28.178 164.192 29.4289 164.019C30.569 164.038 31.4362 163.644 32.0008 163.33C32.5654 163.017 32.8274 162.784 32.8274 162.784C32.8274 162.784 32.5249 162.865 31.9197 163.027C31.3145 163.19 30.5175 163.241 29.4881 163.03C28.4587 162.819 27.3888 162.457 26.0864 161.833C25.8946 161.722 25.2785 161.238 24.6624 160.754Z" fill="white"/>
        <path d="M25.9749 238.268C26.5801 238.106 27.2258 238.095 28.0634 238.195C28.9009 238.295 29.7385 238.395 30.8084 238.757C31.7271 239.16 32.6863 239.714 33.2322 240.541C33.7781 241.368 33.7594 242.508 33.4382 243.73C33.368 244.073 33.2572 244.265 33.0358 244.649C32.925 244.841 32.7036 245.225 32.5928 245.416C32.2201 245.841 31.8473 246.265 31.1314 246.619C30.0022 247.246 28.5299 247.803 26.9764 248.057C24.5152 248.554 22.0135 248.9 19.7442 249.508C18.5338 249.832 17.4748 250.116 16.4969 250.703C16.1943 250.784 15.9323 251.016 15.781 251.057C15.6297 251.097 15.4784 251.138 15.3677 251.33L15.2164 251.37C15.0651 251.411 15.0651 251.411 14.9544 251.603C14.5411 251.876 14.279 252.108 14.017 252.34L13.6443 252.765L13.3822 252.997L13.2715 253.189C13.847 253.522 14.2713 253.895 14.8062 254.076L15.1899 254.297L15.5331 254.368L16.068 254.549C16.6436 254.881 17.3298 255.022 17.8648 255.203C18.9348 255.565 19.9642 255.776 20.953 255.835C21.1043 255.795 21.2962 255.905 21.4474 255.865C20.5803 256.259 19.9049 256.765 19.2296 257.27C18.8163 257.543 18.5948 257.927 18.1815 258.2L17.9195 258.432L17.5467 258.857C17.2847 259.089 17.0632 259.473 16.8012 259.705L17.3471 260.532C17.4282 260.835 17.6606 261.097 17.8524 261.208C18.0848 261.47 18.3172 261.732 18.5496 261.995C19.0144 262.519 19.59 262.851 20.0142 263.224C20.5897 263.557 21.276 263.697 21.811 263.878C21.0249 264.576 20.4307 265.384 20.2607 266.565C20.3013 266.716 20.1905 266.908 20.1905 266.908C20.1905 266.908 20.2311 267.059 20.1203 267.251L20.1609 267.403C20.2015 267.554 20.1313 267.897 20.1718 268.049C20.2935 268.503 20.4152 268.957 20.6881 269.37C20.9611 269.784 21.234 270.197 21.6177 270.419C22.0014 270.641 22.3445 270.711 22.8389 270.741C23.6765 270.841 24.2817 270.678 24.695 270.405C25.1488 270.284 25.5622 270.011 25.9755 269.738C26.6914 269.384 26.9128 269 26.9128 269C26.9128 269 26.4995 269.273 25.8944 269.435C25.5918 269.516 25.1379 269.638 24.6435 269.608C24.1491 269.578 23.5439 269.741 23.0089 269.559C22.474 269.378 22.0497 269.005 21.9281 268.551C21.8469 268.249 21.7658 267.946 21.836 267.603C21.7955 267.451 21.9062 267.259 21.8656 267.108L21.8251 266.957L21.9358 266.765C22.1167 266.23 22.6002 265.614 23.2756 265.108C23.9509 264.603 24.6262 264.097 25.4529 263.551C27.1467 262.611 28.7298 261.862 30.3128 261.114L34.4975 259.181C35.6672 258.706 36.6451 258.119 37.2097 257.806C37.9256 257.452 38.1877 257.219 38.1877 257.219C38.1877 257.219 37.7338 257.341 37.1286 257.503L34.0623 258.162C32.852 258.487 31.3391 258.892 29.6749 259.338C28.0513 259.935 26.2763 260.573 24.4312 261.554C23.8666 261.868 23.1913 262.373 22.6672 262.838C21.981 262.697 21.4054 262.365 20.7894 261.881C20.3651 261.508 20.0922 261.095 19.6679 260.722C19.4355 260.459 19.395 260.308 19.1626 260.046C19.122 259.895 19.122 259.895 19.122 259.895C19.122 259.895 19.122 259.895 19.2733 259.854L19.4246 259.814L19.6866 259.581C19.9486 259.349 20.362 259.076 20.624 258.843C21.2993 258.338 22.0152 257.984 22.8418 257.438C24.5356 256.497 26.1593 255.9 27.7829 255.303C29.4065 254.706 30.8789 254.149 32.0486 253.673C34.5395 252.681 35.8901 251.671 35.8901 251.671C35.8901 251.671 34.3772 252.076 31.7648 252.614C30.5544 252.938 29.001 253.192 27.3368 253.638C25.6726 254.084 24.049 254.681 22.1633 255.511C21.8202 255.441 21.4771 255.37 21.1339 255.3C20.2558 255.049 19.3777 254.797 18.4185 254.243C17.4998 253.84 15.9245 252.803 15.884 252.651L16.0353 252.611C16.1865 252.57 16.1865 252.57 16.3378 252.53L16.4891 252.489C16.6404 252.449 16.6404 252.449 16.7917 252.408C17.0943 252.327 17.2456 252.286 17.5076 252.054C18.3748 251.659 19.4338 251.376 20.5334 251.243C22.692 250.827 25.1937 250.481 27.8062 249.943C29.4704 249.497 30.9833 249.092 32.5258 248.192C33.2012 247.687 33.8765 247.181 34.4707 246.373C34.6922 245.989 34.9137 245.606 34.9838 245.262C35.2053 244.879 35.2755 244.535 35.3457 244.192C35.6373 243.465 35.5858 242.668 35.5343 241.871C35.4829 241.073 35.1288 240.357 34.664 239.833C34.1992 239.308 33.5831 238.825 33.0076 238.492C32.4321 238.16 31.8971 237.979 31.3621 237.798C30.3327 237.587 29.1926 237.568 28.3956 237.619C27.5986 237.67 26.8421 237.873 26.237 238.035C25.0266 238.36 24.5026 238.824 24.5026 238.824C24.1189 238.603 24.8754 238.4 25.9749 238.268Z" fill="white"/>
        <path d="M24.3657 235.292C23.8011 235.606 23.1258 236.111 22.4504 236.617L21.3618 237.395L20.9485 237.668C20.8377 237.86 20.5351 237.941 20.4244 238.133L19.0332 238.992L20.2248 239.808C20.649 240.181 21.184 240.362 21.5677 240.584L21.7596 240.695L21.9514 240.806L22.3351 241.027C22.8701 241.208 23.2538 241.43 23.7887 241.611C24.7074 242.014 25.545 242.114 26.2718 242.406C27.6443 242.687 28.5224 242.938 28.5224 242.938C28.5224 242.938 27.8658 242.303 26.6742 241.487C26.0581 241.003 25.2907 240.56 24.5233 240.117L23.3317 239.3L22.7562 238.968C22.7562 238.968 22.7562 238.968 22.8669 238.776C23.2397 238.352 23.5017 238.119 23.7232 237.736C24.3579 237.079 24.6901 236.503 25.0223 235.927C25.7273 234.927 26.3621 234.271 26.3621 234.271C26.2514 234.463 25.4949 234.665 24.3657 235.292Z" fill="white"/>
        <path d="M81.7544 335.09C81.1383 334.607 80.4411 333.82 79.7034 332.882C79.2792 332.509 78.9656 331.944 78.5008 331.42L77.7631 330.482C77.4901 330.069 77.0253 329.544 76.7118 328.979L76.5605 329.02L76.4093 329.061L76.0365 329.485C75.9258 329.677 75.9258 329.677 75.815 329.869L75.7043 330.061L75.5936 330.252C75.4828 330.444 75.3721 330.636 75.4126 330.788L75.3019 330.979C75.3019 330.979 75.3019 330.979 75.1912 331.171C75.0804 331.363 74.9697 331.555 74.859 331.747C74.3755 332.363 73.7001 332.869 72.7924 333.112C71.1282 333.558 68.837 332.874 67.2212 331.685C66.2214 330.979 65.5242 330.193 64.9377 329.214C64.3513 328.236 64.2592 327.287 64.3185 326.298C64.3777 325.309 64.7801 324.39 65.3743 323.582C65.5958 323.198 65.9686 322.774 66.19 322.39L66.4521 322.158L66.7141 321.925L66.9761 321.693L67.9135 320.955C67.4892 320.582 67.065 320.209 66.8326 319.947L66.1759 319.312L64.9032 318.193C64.0547 317.447 63.4386 316.963 62.8226 316.479C61.6309 315.663 60.8636 315.22 60.8636 315.22C60.8636 315.22 61.4796 315.704 62.5605 316.712C63.0253 317.236 63.682 317.871 64.3792 318.658L65.3899 320.009L65.6628 320.423C65.7034 320.574 65.8952 320.685 65.8952 320.685C65.9358 320.836 66.1276 320.947 66.1276 320.947L65.8656 321.179L65.6036 321.412C65.2308 321.836 64.8581 322.26 64.4853 322.685C63.7398 323.533 63.1159 324.836 62.9865 326.168C62.7058 327.541 62.9195 328.944 63.587 330.225C64.2546 331.506 65.1842 332.555 66.4164 333.523C67.4567 334.379 68.7185 334.852 69.9398 335.174C71.161 335.496 72.4524 335.474 73.6627 335.15C74.8731 334.825 75.9212 333.896 76.6261 332.896C76.7369 332.704 76.9583 332.32 77.0691 332.128L77.1798 331.936C77.1798 331.936 77.1798 331.936 77.1392 331.785C77.1392 331.785 77.0987 331.634 77.25 331.593L77.3607 331.401L77.5931 331.663L77.6337 331.815L77.8255 331.925L78.2498 332.298C78.7145 332.823 79.1388 333.196 79.7143 333.528C80.5628 334.274 81.3707 334.869 82.1381 335.312C83.5216 336.239 84.4402 336.642 84.4402 336.642C83.7945 336.653 83.0272 336.209 81.7544 335.09Z" fill="white"/>
        <path d="M87.563 332.56C87.563 332.56 82.9852 326.974 76.581 321.228C70.1363 315.33 64.2188 311.401 64.2188 311.401C64.2188 311.401 68.7965 316.987 75.2007 322.733C81.6049 328.479 87.563 332.56 87.563 332.56Z" fill="white"/>
        <path d="M131.986 362.185C131.019 363.418 130.244 364.761 129.852 366.326C129.712 367.012 129.612 367.85 129.623 368.496C129.553 368.839 129.675 369.293 129.756 369.596C129.837 369.899 129.918 370.202 130.04 370.656C130.405 372.018 131.072 373.299 132.072 374.004C132.648 374.337 133.223 374.669 133.758 374.85C134.293 375.031 134.939 375.021 135.393 374.899C135.998 374.737 136.603 374.575 137.016 374.302C136.987 374.796 136.957 375.291 136.927 375.786C136.828 376.623 136.879 377.421 136.93 378.218L137.012 378.521C137.052 378.672 137.093 378.823 136.982 379.015C137.063 379.318 136.993 379.661 137.074 379.964C137.155 380.267 137.196 380.418 137.277 380.721C137.317 380.872 137.398 381.175 137.59 381.286L138.83 380.467L139.354 380.002L139.616 379.769L139.727 379.577C140.14 379.304 140.513 378.88 140.926 378.607C141.713 377.91 142.347 377.253 142.871 376.788C142.912 376.94 142.801 377.132 142.842 377.283C142.742 378.121 142.793 378.918 142.845 379.715C142.967 380.169 142.896 380.513 143.018 380.967L143.099 381.269L143.221 381.723L143.464 382.632C143.807 382.702 144.11 382.621 144.453 382.691C144.604 382.651 144.756 382.61 144.947 382.721C145.099 382.68 145.25 382.64 145.401 382.599C145.704 382.518 146.158 382.397 146.46 382.315C147.176 381.961 147.741 381.648 148.265 381.183C148.678 380.91 148.9 380.526 149.121 380.142C149.202 380.445 149.435 380.707 149.667 380.97C149.708 381.121 149.859 381.08 149.899 381.232L150.091 381.343C150.283 381.453 150.324 381.605 150.515 381.715C151.132 382.199 152.05 382.602 152.888 382.702C153.685 382.651 154.401 382.297 154.925 381.832C155.449 381.367 155.63 380.832 155.851 380.448C156.073 380.064 156.102 379.57 156.213 379.378C156.353 378.691 156.272 378.389 156.272 378.389C156.272 378.389 156.202 378.732 155.87 379.307C155.759 379.499 155.538 379.883 155.276 380.116C155.054 380.499 154.641 380.772 154.228 381.045C153.814 381.318 153.36 381.44 152.977 381.218C152.634 381.148 152.058 380.816 151.785 380.402C151.744 380.251 151.553 380.14 151.512 379.988L151.472 379.837L151.431 379.686L151.39 379.534C151.309 379.232 151.117 379.121 151.036 378.818C150.874 378.213 150.823 377.416 150.812 376.77C150.901 375.286 151.141 373.761 151.381 372.237L152.002 368.502C152.212 367.472 152.271 366.483 152.452 365.948C152.441 365.302 152.512 364.959 152.512 364.959L152.109 365.878C151.928 366.413 151.485 367.18 151.124 368.251C150.762 369.321 150.249 370.432 149.817 371.845C149.385 373.259 148.993 374.824 148.985 376.61C148.996 377.256 149.007 377.902 149.169 378.507C148.797 378.932 148.424 379.356 147.859 379.669C147.446 379.942 146.881 380.256 146.428 380.378C146.125 380.459 145.974 380.499 145.63 380.429L145.59 380.278C145.509 379.975 145.579 379.632 145.498 379.329C145.487 378.683 145.435 377.886 145.425 377.24C145.584 375.413 145.743 373.586 145.942 371.91C146.142 370.234 146.382 368.71 146.511 367.378C146.77 364.713 146.516 363.159 146.516 363.159C146.516 363.159 146.276 364.683 145.482 367.167C145.161 368.388 144.729 369.802 144.186 371.407C143.905 372.78 143.473 374.194 143.384 375.678C143.274 375.869 143.122 375.91 142.86 376.142C142.336 376.607 141.661 377.113 140.794 377.507C140.381 377.78 139.967 378.053 139.362 378.215L139.211 378.256L139.059 378.296L138.908 378.337C138.757 378.377 138.757 378.377 138.606 378.418C138.606 378.418 138.606 378.418 138.565 378.267L138.524 378.115L138.484 377.964C138.484 377.964 138.484 377.964 138.443 377.813L138.403 377.661C138.392 377.015 138.492 376.177 138.592 375.34C138.832 373.815 139.031 372.14 139.231 370.464C139.301 370.121 139.412 369.929 139.412 369.929C139.412 369.929 139.412 369.929 139.301 370.121C139.49 367.799 139.678 365.477 139.605 363.388C139.473 362.288 139.532 361.299 139.248 360.24C139.167 359.937 139.045 359.483 138.964 359.18C139.267 359.099 139.377 358.907 139.68 358.826C141.868 357.915 143.986 357.348 145.883 357.164C147.779 356.98 149.263 357.07 150.141 357.321C151.17 357.532 151.746 357.864 151.746 357.864C151.746 357.864 151.321 357.491 150.251 357.129C149.333 356.726 147.768 356.334 145.791 356.215C143.854 356.248 141.463 356.402 139.123 357.353C138.82 357.434 138.518 357.515 138.256 357.748C137.983 357.334 137.599 357.113 137.216 356.891C136.832 356.669 136.337 356.64 136.035 356.721C135.389 356.731 134.825 357.045 134.371 357.167C133.503 357.561 133.131 357.985 133.131 357.985C133.131 357.985 133.544 357.712 134.452 357.469C134.906 357.348 135.36 357.226 136.046 357.367C136.54 357.396 136.964 357.769 137.389 358.142C136.824 358.456 136.259 358.769 135.544 359.123C134.304 359.942 133.104 360.912 131.986 362.185ZM137.916 360.11C137.956 360.261 138.038 360.564 137.927 360.756C138.019 361.704 137.96 362.694 137.9 363.683C137.822 365.813 137.593 367.983 137.294 370.496C137.194 371.334 137.135 372.323 137.035 373.161C136.47 373.475 135.865 373.637 135.219 373.648C134.422 373.699 133.544 373.448 132.888 372.812C132.231 372.177 131.796 371.158 131.512 370.099C131.379 368.999 131.247 367.899 131.568 366.677C131.93 365.607 132.594 364.456 133.299 363.456C134.156 362.415 135.244 361.637 136.182 360.899C136.938 360.696 137.503 360.383 137.916 360.11Z" fill="white"/>
    </g>
    <defs>
        <clipPath id="clip0_562_53816">
            <rect width="354.289" height="348.481" fill="white" transform="translate(-30 91.6967) rotate(-15)"/>
        </clipPath>
    </defs>
</svg>
