<svg width="332" height="331" viewBox="0 0 332 331" fill="none" xmlns="http://www.w3.org/2000/svg">
    <path d="M160.318 24.368L162.526 23.6H163.486V32H162.382V24.8L160.594 25.328L160.318 24.368ZM170.044 24.584L168.22 27.044C168.876 27.164 169.404 27.444 169.804 27.884C170.204 28.324 170.404 28.868 170.404 29.516C170.404 30.34 170.124 30.984 169.564 31.448C168.996 31.92 168.316 32.156 167.524 32.156C166.868 32.156 166.296 32.008 165.808 31.712C165.32 31.416 164.972 30.996 164.764 30.452L165.7 29.9C165.948 30.676 166.556 31.064 167.524 31.064C168.052 31.064 168.476 30.928 168.796 30.656C169.124 30.376 169.288 29.996 169.288 29.516C169.288 29.036 169.124 28.656 168.796 28.376C168.476 28.096 168.052 27.956 167.524 27.956H167.236L166.792 27.272L168.736 24.644H165.004V23.6H170.044V24.584Z" fill="#FFA8A8"/>
    <path d="M162.169 9.56V14.888H169.969V17H159.937V0.199999H169.849V2.312H162.169V7.472H169.249V9.56H162.169Z" fill="white"/>
    <path d="M161.016 331H158.424L153.6 314.2H155.952L159.792 328.024L163.872 314.2H166.128L170.208 328.024L174.048 314.2H176.4L171.576 331H168.984L165 317.584L161.016 331Z" fill="white"/>
    <path d="M165 42V292" stroke="black" stroke-width="2"/>
    <path d="M290 167L40 167" stroke="black" stroke-width="2"/>
    <path d="M112 114L218.066 220.066" stroke="black" stroke-width="2"/>
    <path d="M218.066 114L112 220.066" stroke="black" stroke-width="2"/>
    <path d="M325.287 176.312C323.719 176.312 322.375 175.952 321.255 175.232C320.151 174.496 319.375 173.48 318.927 172.184L320.847 171.08C321.487 173.112 322.983 174.128 325.335 174.128C326.471 174.128 327.343 173.896 327.951 173.432C328.575 172.968 328.887 172.336 328.887 171.536C328.887 170.752 328.583 170.152 327.975 169.736C327.431 169.368 326.415 168.944 324.927 168.464L323.319 167.936C322.967 167.792 322.503 167.584 321.927 167.312C321.367 167.024 320.959 166.736 320.703 166.448C319.999 165.68 319.646 164.744 319.646 163.64C319.646 162.168 320.159 161.016 321.183 160.184C322.207 159.32 323.455 158.888 324.927 158.888C326.239 158.888 327.391 159.216 328.383 159.872C329.375 160.528 330.119 161.424 330.615 162.56L328.743 163.64C328.023 161.912 326.751 161.048 324.927 161.048C324.015 161.048 323.279 161.272 322.719 161.72C322.159 162.168 321.879 162.776 321.879 163.544C321.879 164.28 322.143 164.84 322.671 165.224C323.215 165.624 324.127 166.024 325.407 166.424L326.391 166.736C326.935 166.944 327.231 167.056 327.279 167.072C327.791 167.264 328.351 167.528 328.959 167.864C329.391 168.104 329.823 168.472 330.255 168.968C330.815 169.528 331.095 170.368 331.095 171.488C331.095 172.96 330.559 174.136 329.487 175.016C328.399 175.88 326.999 176.312 325.287 176.312Z" fill="white"/>
    <path d="M10.6072 171.728V159.2H12.8392V176H11.0392L2.39919 163.448V176H0.167188V159.2H1.96719L10.6072 171.728Z" fill="white"/>
    <path d="M219.485 109.26C218.178 109.26 217.058 108.96 216.125 108.36C215.205 107.747 214.558 106.9 214.185 105.82L215.785 104.9C216.318 106.593 217.565 107.44 219.525 107.44C220.472 107.44 221.198 107.247 221.705 106.86C222.225 106.473 222.485 105.947 222.485 105.28C222.485 104.627 222.232 104.127 221.725 103.78C221.272 103.473 220.425 103.12 219.185 102.72L217.845 102.28C217.552 102.16 217.165 101.987 216.685 101.76C216.218 101.52 215.878 101.28 215.665 101.04C215.078 100.4 214.785 99.62 214.785 98.7C214.785 97.4733 215.212 96.5133 216.065 95.82C216.918 95.1 217.958 94.74 219.185 94.74C220.278 94.74 221.238 95.0133 222.065 95.56C222.892 96.1067 223.512 96.8533 223.925 97.8L222.365 98.7C221.765 97.26 220.705 96.54 219.185 96.54C218.425 96.54 217.812 96.7267 217.345 97.1C216.878 97.4733 216.645 97.98 216.645 98.62C216.645 99.2333 216.865 99.7 217.305 100.02C217.758 100.353 218.518 100.687 219.585 101.02L220.405 101.28C220.858 101.453 221.105 101.547 221.145 101.56C221.572 101.72 222.038 101.94 222.545 102.22C222.905 102.42 223.265 102.727 223.625 103.14C224.092 103.607 224.325 104.307 224.325 105.24C224.325 106.467 223.878 107.447 222.985 108.18C222.078 108.9 220.912 109.26 219.485 109.26ZM228.29 102.8V107.24H234.79V109H226.43V95H234.69V96.76H228.29V101.06H234.19V102.8H228.29Z" fill="white"/>
    <path d="M92.6199 105.44V95H94.4799V109H92.9799L85.7799 98.54V109H83.9199V95H85.4199L92.6199 105.44ZM99.3346 102.8V107.24H105.835V109H97.4746V95H105.735V96.76H99.3346V101.06H105.235V102.8H99.3346Z" fill="white"/>
    <path d="M218.434 240.26C217.127 240.26 216.007 239.96 215.074 239.36C214.154 238.747 213.507 237.9 213.134 236.82L214.734 235.9C215.267 237.593 216.514 238.44 218.474 238.44C219.421 238.44 220.147 238.247 220.654 237.86C221.174 237.473 221.434 236.947 221.434 236.28C221.434 235.627 221.181 235.127 220.674 234.78C220.221 234.473 219.374 234.12 218.134 233.72L216.794 233.28C216.501 233.16 216.114 232.987 215.634 232.76C215.167 232.52 214.827 232.28 214.614 232.04C214.027 231.4 213.734 230.62 213.734 229.7C213.734 228.473 214.161 227.513 215.014 226.82C215.867 226.1 216.907 225.74 218.134 225.74C219.227 225.74 220.187 226.013 221.014 226.56C221.841 227.107 222.461 227.853 222.874 228.8L221.314 229.7C220.714 228.26 219.654 227.54 218.134 227.54C217.374 227.54 216.761 227.727 216.294 228.1C215.827 228.473 215.594 228.98 215.594 229.62C215.594 230.233 215.814 230.7 216.254 231.02C216.707 231.353 217.467 231.687 218.534 232.02L219.354 232.28C219.807 232.453 220.054 232.547 220.094 232.56C220.521 232.72 220.987 232.94 221.494 233.22C221.854 233.42 222.214 233.727 222.574 234.14C223.041 234.607 223.274 235.307 223.274 236.24C223.274 237.467 222.827 238.447 221.934 239.18C221.027 239.9 219.861 240.26 218.434 240.26ZM230.266 240H228.106L224.086 226H226.046L229.246 237.52L232.646 226H234.526L237.926 237.52L241.126 226H243.086L239.066 240H236.906L233.586 228.82L230.266 240Z" fill="white"/>
    <path d="M93.4227 236.44V226H95.2827V240H93.7827L86.5827 229.54V240H84.7227V226H86.2227L93.4227 236.44ZM103.457 240H101.297L97.2773 226H99.2373L102.437 237.52L105.837 226H107.717L111.117 237.52L114.317 226H116.277L112.257 240H110.097L106.777 228.82L103.457 240Z" fill="white"/>
    <path d="M164.868 306H159.444V305.088L162.408 302.064C163.2 301.272 163.596 300.592 163.596 300.024C163.596 299.56 163.452 299.196 163.164 298.932C162.884 298.66 162.532 298.524 162.108 298.524C161.316 298.524 160.74 298.9 160.38 299.652L159.444 299.1C159.7 298.564 160.06 298.156 160.524 297.876C160.988 297.588 161.512 297.444 162.096 297.444C162.808 297.444 163.42 297.676 163.932 298.14C164.452 298.612 164.712 299.236 164.712 300.012C164.712 300.86 164.212 301.784 163.212 302.784L161.064 304.92H164.868V306ZM165.321 298.656V297.6H170.565V298.596L167.505 306H166.341L169.377 298.656H165.321Z" fill="#FFA8A8"/>
    <path d="M304.971 172H299.547V171.088L302.511 168.064C303.303 167.272 303.699 166.592 303.699 166.024C303.699 165.56 303.555 165.196 303.267 164.932C302.987 164.66 302.635 164.524 302.211 164.524C301.419 164.524 300.843 164.9 300.483 165.652L299.547 165.1C299.803 164.564 300.163 164.156 300.627 163.876C301.091 163.588 301.615 163.444 302.199 163.444C302.911 163.444 303.523 163.676 304.035 164.14C304.555 164.612 304.815 165.236 304.815 166.012C304.815 166.86 304.315 167.784 303.315 168.784L301.167 170.92H304.971V172ZM311.494 170.968C310.934 171.76 310.138 172.156 309.106 172.156C308.074 172.156 307.278 171.76 306.718 170.968C306.15 170.168 305.866 169.112 305.866 167.8C305.866 166.488 306.15 165.432 306.718 164.632C307.278 163.84 308.074 163.444 309.106 163.444C310.138 163.444 310.934 163.84 311.494 164.632C312.062 165.432 312.346 166.488 312.346 167.8C312.346 169.112 312.062 170.168 311.494 170.968ZM306.982 167.8C306.982 168.84 307.166 169.644 307.534 170.212C307.902 170.78 308.426 171.064 309.106 171.064C309.786 171.064 310.31 170.78 310.678 170.212C311.054 169.644 311.242 168.84 311.242 167.8C311.242 166.76 311.054 165.956 310.678 165.388C310.31 164.812 309.786 164.524 309.106 164.524C308.426 164.524 307.902 164.808 307.534 165.376C307.166 165.944 306.982 166.752 306.982 167.8Z" fill="#FFA8A8"/>
    <path d="M26.4995 166.504C27.3395 166.504 28.0315 166.768 28.5755 167.296C29.1195 167.816 29.3915 168.492 29.3915 169.324C29.3915 170.156 29.1195 170.836 28.5755 171.364C28.0315 171.892 27.3395 172.156 26.4995 172.156C25.6435 172.156 24.9475 171.892 24.4115 171.364C23.8755 170.836 23.6075 170.156 23.6075 169.324C23.6075 168.668 23.7755 168.108 24.1115 167.644L26.8115 163.6H28.0835L26.1035 166.528C26.3435 166.512 26.4755 166.504 26.4995 166.504ZM26.4995 167.572C25.9635 167.572 25.5315 167.732 25.2035 168.052C24.8755 168.372 24.7115 168.796 24.7115 169.324C24.7115 169.852 24.8755 170.28 25.2035 170.608C25.5395 170.928 25.9715 171.088 26.4995 171.088C27.0275 171.088 27.4555 170.928 27.7835 170.608C28.1195 170.28 28.2875 169.852 28.2875 169.324C28.2875 168.796 28.1195 168.372 27.7835 168.052C27.4555 167.732 27.0275 167.572 26.4995 167.572Z" fill="#FFA8A8"/>
    <path d="M301.301 111.368L303.509 110.6H304.469V119H303.365V111.8L301.577 112.328L301.301 111.368ZM311.53 113.264C311.53 113.92 311.358 114.484 311.014 114.956H311.026L308.314 119H307.054L309.046 116.06C308.806 116.076 308.67 116.084 308.638 116.084C307.79 116.084 307.094 115.824 306.55 115.304C306.014 114.776 305.746 114.096 305.746 113.264C305.746 112.424 306.014 111.748 306.55 111.236C307.086 110.708 307.782 110.444 308.638 110.444C309.478 110.444 310.17 110.708 310.714 111.236C311.258 111.756 311.53 112.432 311.53 113.264ZM308.638 111.512C308.11 111.512 307.678 111.672 307.342 111.992C307.014 112.312 306.85 112.736 306.85 113.264C306.85 113.792 307.014 114.22 307.342 114.548C307.678 114.868 308.11 115.028 308.638 115.028C309.166 115.028 309.594 114.868 309.922 114.548C310.258 114.22 310.426 113.792 310.426 113.264C310.426 112.736 310.262 112.312 309.934 111.992C309.606 111.672 309.174 111.512 308.638 111.512Z" fill="#FFA8A8"/>
    <path d="M23.2746 111.656V110.6H28.5186V111.596L25.4586 119H24.2946L27.3306 111.656H23.2746Z" fill="#FFA8A8"/>
    <path d="M307.083 225H301.659V224.088L304.623 221.064C305.415 220.272 305.811 219.592 305.811 219.024C305.811 218.56 305.667 218.196 305.379 217.932C305.099 217.66 304.747 217.524 304.323 217.524C303.531 217.524 302.955 217.9 302.595 218.652L301.659 218.1C301.915 217.564 302.275 217.156 302.739 216.876C303.203 216.588 303.727 216.444 304.311 216.444C305.023 216.444 305.635 216.676 306.147 217.14C306.667 217.612 306.927 218.236 306.927 219.012C306.927 219.86 306.427 220.784 305.427 221.784L303.279 223.92H307.083V225ZM307.664 217.368L309.872 216.6H310.832V225H309.728V217.8L307.94 218.328L307.664 217.368Z" fill="#FFA8A8"/>
    <path d="M25.2582 219.876H26.4822C27.2742 219.876 27.9422 220.112 28.4862 220.584C29.0382 221.056 29.3142 221.7 29.3142 222.516C29.3142 223.34 29.0342 223.984 28.4742 224.448C27.9062 224.92 27.2262 225.156 26.4342 225.156C25.7782 225.156 25.1982 225 24.6942 224.688C24.1982 224.368 23.8542 223.924 23.6622 223.356L24.6102 222.816C24.7222 223.216 24.9382 223.524 25.2582 223.74C25.5782 223.956 25.9702 224.064 26.4342 224.064C26.9702 224.064 27.3982 223.928 27.7182 223.656C28.0462 223.376 28.2102 222.996 28.2102 222.516C28.2102 222.036 28.0462 221.656 27.7182 221.376C27.3982 221.096 26.9782 220.956 26.4582 220.956H24.0822L24.3942 216.6H28.9902V217.644H25.4022L25.2582 219.876Z" fill="#FFA8A8"/>
    <path d="M106.365 24.368L108.573 23.6H109.533V32H108.429V24.8L106.641 25.328L106.365 24.368ZM116.331 32H110.907V31.088L113.871 28.064C114.663 27.272 115.059 26.592 115.059 26.024C115.059 25.56 114.915 25.196 114.627 24.932C114.347 24.66 113.995 24.524 113.571 24.524C112.779 24.524 112.203 24.9 111.843 25.652L110.907 25.1C111.163 24.564 111.523 24.156 111.987 23.876C112.451 23.588 112.975 23.444 113.559 23.444C114.271 23.444 114.883 23.676 115.395 24.14C115.915 24.612 116.175 25.236 116.175 26.012C116.175 26.86 115.675 27.784 114.675 28.784L112.527 30.92H116.331V32Z" fill="#FFA8A8"/>
    <path d="M135.391 100.368L137.599 99.6H138.559V108H137.455V100.8L135.667 101.328L135.391 100.368ZM139.668 100.368L141.876 99.6H142.836V108H141.732V100.8L139.944 101.328L139.668 100.368Z" fill="#FBFE72"/>
    <path d="M137.529 225.368L139.737 224.6H140.697V233H139.593V225.8L137.805 226.328L137.529 225.368Z" fill="#FBFE72"/>
    <path d="M186.272 100.368L188.48 99.6H189.44V108H188.336V100.8L186.548 101.328L186.272 100.368ZM192.397 102.876H193.621C194.413 102.876 195.081 103.112 195.625 103.584C196.177 104.056 196.453 104.7 196.453 105.516C196.453 106.34 196.173 106.984 195.613 107.448C195.045 107.92 194.365 108.156 193.573 108.156C192.917 108.156 192.337 108 191.833 107.688C191.337 107.368 190.993 106.924 190.801 106.356L191.749 105.816C191.861 106.216 192.077 106.524 192.397 106.74C192.717 106.956 193.109 107.064 193.573 107.064C194.109 107.064 194.537 106.928 194.857 106.656C195.185 106.376 195.349 105.996 195.349 105.516C195.349 105.036 195.185 104.656 194.857 104.376C194.537 104.096 194.117 103.956 193.597 103.956H191.221L191.533 99.6H196.129V100.644H192.541L192.397 102.876Z" fill="#FBFE72"/>
    <path d="M174.301 128.368L176.509 127.6H177.469V136H176.365V128.8L174.577 129.328L174.301 128.368ZM181.638 130.504C182.478 130.504 183.17 130.768 183.714 131.296C184.258 131.816 184.53 132.492 184.53 133.324C184.53 134.156 184.258 134.836 183.714 135.364C183.17 135.892 182.478 136.156 181.638 136.156C180.782 136.156 180.086 135.892 179.55 135.364C179.014 134.836 178.746 134.156 178.746 133.324C178.746 132.668 178.914 132.108 179.25 131.644L181.95 127.6H183.222L181.242 130.528C181.482 130.512 181.614 130.504 181.638 130.504ZM181.638 131.572C181.102 131.572 180.67 131.732 180.342 132.052C180.014 132.372 179.85 132.796 179.85 133.324C179.85 133.852 180.014 134.28 180.342 134.608C180.678 134.928 181.11 135.088 181.638 135.088C182.166 135.088 182.594 134.928 182.922 134.608C183.258 134.28 183.426 133.852 183.426 133.324C183.426 132.796 183.258 132.372 182.922 132.052C182.594 131.732 182.166 131.572 181.638 131.572Z" fill="#49BC5B"/>
    <path d="M133.391 151.264C133.391 151.92 133.219 152.484 132.875 152.956H132.887L130.175 157H128.915L130.907 154.06C130.667 154.076 130.531 154.084 130.499 154.084C129.651 154.084 128.955 153.824 128.411 153.304C127.875 152.776 127.607 152.096 127.607 151.264C127.607 150.424 127.875 149.748 128.411 149.236C128.947 148.708 129.643 148.444 130.499 148.444C131.339 148.444 132.031 148.708 132.575 149.236C133.119 149.756 133.391 150.432 133.391 151.264ZM130.499 149.512C129.971 149.512 129.539 149.672 129.203 149.992C128.875 150.312 128.711 150.736 128.711 151.264C128.711 151.792 128.875 152.22 129.203 152.548C129.539 152.868 129.971 153.028 130.499 153.028C131.027 153.028 131.455 152.868 131.783 152.548C132.119 152.22 132.287 151.792 132.287 151.264C132.287 150.736 132.123 150.312 131.795 149.992C131.467 149.672 131.035 149.512 130.499 149.512Z" fill="#49BC5B"/>
    <path d="M132.905 175.584L131.081 178.044C131.737 178.164 132.265 178.444 132.665 178.884C133.065 179.324 133.265 179.868 133.265 180.516C133.265 181.34 132.985 181.984 132.425 182.448C131.857 182.92 131.177 183.156 130.385 183.156C129.729 183.156 129.157 183.008 128.669 182.712C128.181 182.416 127.833 181.996 127.625 181.452L128.561 180.9C128.809 181.676 129.417 182.064 130.385 182.064C130.913 182.064 131.337 181.928 131.657 181.656C131.985 181.376 132.149 180.996 132.149 180.516C132.149 180.036 131.985 179.656 131.657 179.376C131.337 179.096 130.913 178.956 130.385 178.956H130.097L129.653 178.272L131.597 175.644H127.865V174.6H132.905V175.584Z" fill="#49BC5B"/>
    <path d="M195.588 149.368L197.796 148.6H198.756V157H197.652V149.8L195.864 150.328L195.588 149.368ZM199.913 149.656V148.6H205.157V149.596L202.097 157H200.933L203.969 149.656H199.913Z" fill="#49BC5B"/>
    <path d="M200.04 183H194.616V182.088L197.58 179.064C198.372 178.272 198.768 177.592 198.768 177.024C198.768 176.56 198.624 176.196 198.336 175.932C198.056 175.66 197.704 175.524 197.28 175.524C196.488 175.524 195.912 175.9 195.552 176.652L194.616 176.1C194.872 175.564 195.232 175.156 195.696 174.876C196.16 174.588 196.684 174.444 197.268 174.444C197.98 174.444 198.592 174.676 199.104 175.14C199.624 175.612 199.884 176.236 199.884 177.012C199.884 177.86 199.384 178.784 198.384 179.784L196.236 181.92H200.04V183ZM206.011 175.584L204.187 178.044C204.843 178.164 205.371 178.444 205.771 178.884C206.171 179.324 206.371 179.868 206.371 180.516C206.371 181.34 206.091 181.984 205.531 182.448C204.963 182.92 204.283 183.156 203.491 183.156C202.835 183.156 202.263 183.008 201.775 182.712C201.287 182.416 200.939 181.996 200.731 181.452L201.667 180.9C201.915 181.676 202.523 182.064 203.491 182.064C204.019 182.064 204.443 181.928 204.763 181.656C205.091 181.376 205.255 180.996 205.255 180.516C205.255 180.036 205.091 179.656 204.763 179.376C204.443 179.096 204.019 178.956 203.491 178.956H203.203L202.759 178.272L204.703 175.644H200.971V174.6H206.011V175.584Z" fill="#49BC5B"/>
    <path d="M146.25 128.368L148.458 127.6H149.418V136H148.314V128.8L146.526 129.328L146.25 128.368ZM156.527 134.968C155.967 135.76 155.171 136.156 154.139 136.156C153.107 136.156 152.311 135.76 151.751 134.968C151.183 134.168 150.899 133.112 150.899 131.8C150.899 130.488 151.183 129.432 151.751 128.632C152.311 127.84 153.107 127.444 154.139 127.444C155.171 127.444 155.967 127.84 156.527 128.632C157.095 129.432 157.379 130.488 157.379 131.8C157.379 133.112 157.095 134.168 156.527 134.968ZM152.015 131.8C152.015 132.84 152.199 133.644 152.567 134.212C152.935 134.78 153.459 135.064 154.139 135.064C154.819 135.064 155.343 134.78 155.711 134.212C156.087 133.644 156.275 132.84 156.275 131.8C156.275 130.76 156.087 129.956 155.711 129.388C155.343 128.812 154.819 128.524 154.139 128.524C153.459 128.524 152.935 128.808 152.567 129.376C152.199 129.944 152.015 130.752 152.015 131.8Z" fill="#49BC5B"/>
    <path d="M178.317 204H172.893V203.088L175.857 200.064C176.649 199.272 177.045 198.592 177.045 198.024C177.045 197.56 176.901 197.196 176.613 196.932C176.333 196.66 175.981 196.524 175.557 196.524C174.765 196.524 174.189 196.9 173.829 197.652L172.893 197.1C173.149 196.564 173.509 196.156 173.973 195.876C174.437 195.588 174.961 195.444 175.545 195.444C176.257 195.444 176.869 195.676 177.381 196.14C177.901 196.612 178.161 197.236 178.161 198.012C178.161 198.86 177.661 199.784 176.661 200.784L174.513 202.92H178.317V204ZM184.266 201.36H185.286V202.404H184.266V204H183.15V202.404H178.866V201.36L181.878 195.6H183.078L180.066 201.36H183.15V198.984H184.266V201.36Z" fill="#49BC5B"/>
    <path d="M155.192 204H149.768V203.088L152.732 200.064C153.524 199.272 153.92 198.592 153.92 198.024C153.92 197.56 153.776 197.196 153.488 196.932C153.208 196.66 152.856 196.524 152.432 196.524C151.64 196.524 151.064 196.9 150.704 197.652L149.768 197.1C150.024 196.564 150.384 196.156 150.848 195.876C151.312 195.588 151.836 195.444 152.42 195.444C153.132 195.444 153.744 195.676 154.256 196.14C154.776 196.612 155.036 197.236 155.036 198.012C155.036 198.86 154.536 199.784 153.536 200.784L151.388 202.92H155.192V204Z" fill="#49BC5B"/>
    <path d="M190.981 233H185.557V232.088L188.521 229.064C189.313 228.272 189.709 227.592 189.709 227.024C189.709 226.56 189.565 226.196 189.277 225.932C188.997 225.66 188.645 225.524 188.221 225.524C187.429 225.524 186.853 225.9 186.493 226.652L185.557 226.1C185.813 225.564 186.173 225.156 186.637 224.876C187.101 224.588 187.625 224.444 188.209 224.444C188.921 224.444 189.533 224.676 190.045 225.14C190.565 225.612 190.825 226.236 190.825 227.012C190.825 227.86 190.325 228.784 189.325 229.784L187.177 231.92H190.981V233ZM193.375 227.876H194.599C195.391 227.876 196.059 228.112 196.603 228.584C197.155 229.056 197.431 229.7 197.431 230.516C197.431 231.34 197.151 231.984 196.591 232.448C196.023 232.92 195.343 233.156 194.551 233.156C193.895 233.156 193.315 233 192.811 232.688C192.315 232.368 191.971 231.924 191.779 231.356L192.727 230.816C192.839 231.216 193.055 231.524 193.375 231.74C193.695 231.956 194.087 232.064 194.551 232.064C195.087 232.064 195.515 231.928 195.835 231.656C196.163 231.376 196.327 230.996 196.327 230.516C196.327 230.036 196.163 229.656 195.835 229.376C195.515 229.096 195.095 228.956 194.575 228.956H192.199L192.511 224.6H197.107V225.644H193.519L193.375 227.876Z" fill="#FBFE72"/>
    <path d="M228.028 196H222.604V195.088L225.568 192.064C226.36 191.272 226.756 190.592 226.756 190.024C226.756 189.56 226.612 189.196 226.324 188.932C226.044 188.66 225.692 188.524 225.268 188.524C224.476 188.524 223.9 188.9 223.54 189.652L222.604 189.1C222.86 188.564 223.22 188.156 223.684 187.876C224.148 187.588 224.672 187.444 225.256 187.444C225.968 187.444 226.58 187.676 227.092 188.14C227.612 188.612 227.872 189.236 227.872 190.012C227.872 190.86 227.372 191.784 226.372 192.784L224.224 194.92H228.028V196ZM234.356 196H228.932V195.088L231.896 192.064C232.688 191.272 233.084 190.592 233.084 190.024C233.084 189.56 232.94 189.196 232.652 188.932C232.372 188.66 232.02 188.524 231.596 188.524C230.804 188.524 230.228 188.9 229.868 189.652L228.932 189.1C229.188 188.564 229.548 188.156 230.012 187.876C230.476 187.588 231 187.444 231.584 187.444C232.296 187.444 232.908 187.676 233.42 188.14C233.94 188.612 234.2 189.236 234.2 190.012C234.2 190.86 233.7 191.784 232.7 192.784L230.552 194.92H234.356V196Z" fill="#FBFE72"/>
    <path d="M223.201 136.368L225.409 135.6H226.369V144H225.265V136.8L223.477 137.328L223.201 136.368ZM232.207 139.656C233.079 140.104 233.515 140.784 233.515 141.696C233.515 142.464 233.247 143.068 232.711 143.508C232.167 143.94 231.475 144.156 230.635 144.156C229.795 144.156 229.107 143.94 228.571 143.508C228.035 143.068 227.767 142.464 227.767 141.696C227.767 140.784 228.203 140.104 229.075 139.656C228.387 139.224 228.043 138.612 228.043 137.82C228.043 137.06 228.295 136.476 228.799 136.068C229.311 135.652 229.923 135.444 230.635 135.444C231.363 135.444 231.975 135.652 232.471 136.068C232.983 136.476 233.239 137.06 233.239 137.82C233.239 138.612 232.895 139.224 232.207 139.656ZM230.635 136.512C230.195 136.512 229.835 136.628 229.555 136.86C229.283 137.092 229.147 137.42 229.147 137.844C229.147 138.26 229.287 138.588 229.567 138.828C229.847 139.068 230.203 139.188 230.635 139.188C231.067 139.188 231.423 139.068 231.703 138.828C231.983 138.588 232.123 138.26 232.123 137.844C232.123 137.42 231.987 137.092 231.715 136.86C231.443 136.628 231.083 136.512 230.635 136.512ZM230.635 143.088C231.179 143.088 231.611 142.96 231.931 142.704C232.251 142.448 232.411 142.088 232.411 141.624C232.411 141.168 232.251 140.812 231.931 140.556C231.611 140.3 231.179 140.172 230.635 140.172C230.099 140.172 229.671 140.3 229.351 140.556C229.031 140.812 228.871 141.168 228.871 141.624C228.871 142.088 229.031 142.448 229.351 142.704C229.671 142.96 230.099 143.088 230.635 143.088Z" fill="#FBFE72"/>
    <path d="M104.708 193.36H105.728V194.404H104.708V196H103.592V194.404H99.3075V193.36L102.32 187.6H103.52L100.508 193.36H103.592V190.984H104.708V193.36Z" fill="#FBFE72"/>
    <path d="M104.068 139.656C104.94 140.104 105.376 140.784 105.376 141.696C105.376 142.464 105.108 143.068 104.572 143.508C104.028 143.94 103.336 144.156 102.496 144.156C101.656 144.156 100.968 143.94 100.432 143.508C99.8959 143.068 99.6279 142.464 99.6279 141.696C99.6279 140.784 100.064 140.104 100.936 139.656C100.248 139.224 99.9039 138.612 99.9039 137.82C99.9039 137.06 100.156 136.476 100.66 136.068C101.172 135.652 101.784 135.444 102.496 135.444C103.224 135.444 103.836 135.652 104.332 136.068C104.844 136.476 105.1 137.06 105.1 137.82C105.1 138.612 104.756 139.224 104.068 139.656ZM102.496 136.512C102.056 136.512 101.696 136.628 101.416 136.86C101.144 137.092 101.008 137.42 101.008 137.844C101.008 138.26 101.148 138.588 101.428 138.828C101.708 139.068 102.064 139.188 102.496 139.188C102.928 139.188 103.284 139.068 103.564 138.828C103.844 138.588 103.984 138.26 103.984 137.844C103.984 137.42 103.848 137.092 103.576 136.86C103.304 136.628 102.944 136.512 102.496 136.512ZM102.496 143.088C103.04 143.088 103.472 142.96 103.792 142.704C104.112 142.448 104.272 142.088 104.272 141.624C104.272 141.168 104.112 140.812 103.792 140.556C103.472 140.3 103.04 140.172 102.496 140.172C101.96 140.172 101.532 140.3 101.212 140.556C100.892 140.812 100.732 141.168 100.732 141.624C100.732 142.088 100.892 142.448 101.212 142.704C101.532 142.96 101.96 143.088 102.496 143.088Z" fill="#FBFE72"/>
    <path d="M110.893 306H105.469V305.088L108.433 302.064C109.225 301.272 109.621 300.592 109.621 300.024C109.621 299.56 109.477 299.196 109.189 298.932C108.909 298.66 108.557 298.524 108.133 298.524C107.341 298.524 106.765 298.9 106.405 299.652L105.469 299.1C105.725 298.564 106.085 298.156 106.549 297.876C107.013 297.588 107.537 297.444 108.121 297.444C108.833 297.444 109.445 297.676 109.957 298.14C110.477 298.612 110.737 299.236 110.737 300.012C110.737 300.86 110.237 301.784 109.237 302.784L107.089 304.92H110.893V306ZM116.203 301.656C117.075 302.104 117.511 302.784 117.511 303.696C117.511 304.464 117.243 305.068 116.707 305.508C116.163 305.94 115.471 306.156 114.631 306.156C113.791 306.156 113.103 305.94 112.567 305.508C112.031 305.068 111.763 304.464 111.763 303.696C111.763 302.784 112.199 302.104 113.071 301.656C112.383 301.224 112.039 300.612 112.039 299.82C112.039 299.06 112.291 298.476 112.795 298.068C113.307 297.652 113.919 297.444 114.631 297.444C115.359 297.444 115.971 297.652 116.467 298.068C116.979 298.476 117.235 299.06 117.235 299.82C117.235 300.612 116.891 301.224 116.203 301.656ZM114.631 298.512C114.191 298.512 113.831 298.628 113.551 298.86C113.279 299.092 113.143 299.42 113.143 299.844C113.143 300.26 113.283 300.588 113.563 300.828C113.843 301.068 114.199 301.188 114.631 301.188C115.063 301.188 115.419 301.068 115.699 300.828C115.979 300.588 116.119 300.26 116.119 299.844C116.119 299.42 115.983 299.092 115.711 298.86C115.439 298.628 115.079 298.512 114.631 298.512ZM114.631 305.088C115.175 305.088 115.607 304.96 115.927 304.704C116.247 304.448 116.407 304.088 116.407 303.624C116.407 303.168 116.247 302.812 115.927 302.556C115.607 302.3 115.175 302.172 114.631 302.172C114.095 302.172 113.667 302.3 113.347 302.556C113.027 302.812 112.867 303.168 112.867 303.624C112.867 304.088 113.027 304.448 113.347 304.704C113.667 304.96 114.095 305.088 114.631 305.088Z" fill="#FFA8A8"/>
    <path d="M213.549 24.368L215.757 23.6H216.717V32H215.613V24.8L213.825 25.328L213.549 24.368ZM223.346 29.36H224.366V30.404H223.346V32H222.23V30.404H217.946V29.36L220.958 23.6H222.158L219.146 29.36H222.23V26.984H223.346V29.36Z" fill="#FFA8A8"/>
    <path d="M219.069 306H213.645V305.088L216.609 302.064C217.401 301.272 217.797 300.592 217.797 300.024C217.797 299.56 217.653 299.196 217.365 298.932C217.085 298.66 216.733 298.524 216.309 298.524C215.517 298.524 214.941 298.9 214.581 299.652L213.645 299.1C213.901 298.564 214.261 298.156 214.725 297.876C215.189 297.588 215.713 297.444 216.297 297.444C217.009 297.444 217.621 297.676 218.133 298.14C218.653 298.612 218.913 299.236 218.913 300.012C218.913 300.86 218.413 301.784 217.413 302.784L215.265 304.92H219.069V306ZM222.558 300.504C223.398 300.504 224.09 300.768 224.634 301.296C225.178 301.816 225.45 302.492 225.45 303.324C225.45 304.156 225.178 304.836 224.634 305.364C224.09 305.892 223.398 306.156 222.558 306.156C221.702 306.156 221.006 305.892 220.47 305.364C219.934 304.836 219.666 304.156 219.666 303.324C219.666 302.668 219.834 302.108 220.17 301.644L222.87 297.6H224.142L222.162 300.528C222.402 300.512 222.534 300.504 222.558 300.504ZM222.558 301.572C222.022 301.572 221.59 301.732 221.262 302.052C220.934 302.372 220.77 302.796 220.77 303.324C220.77 303.852 220.934 304.28 221.262 304.608C221.598 304.928 222.03 305.088 222.558 305.088C223.086 305.088 223.514 304.928 223.842 304.608C224.178 304.28 224.346 303.852 224.346 303.324C224.346 302.796 224.178 302.372 223.842 302.052C223.514 301.732 223.086 301.572 222.558 301.572Z" fill="#FFA8A8"/>
    <rect x="110" y="112" width="110" height="110" rx="55" stroke="black" stroke-width="2"/>
    <path d="M29 113H30V113C59.8234 113 84 137.177 84 167V169C84 198.823 59.8234 223 30 223V223H29" stroke="black" stroke-width="2" stroke-linecap="round"/>
    <path d="M220 304L220 303V303C220 273.177 195.823 249 166 249L164 249C134.177 249 110 273.177 110 303V303L110 304" stroke="black" stroke-width="2" stroke-linecap="round"/>
    <path d="M220 32L220 33V33C220 62.8234 195.823 87 166 87L164 87C134.177 87 110 62.8234 110 33V33L110 32" stroke="black" stroke-width="2" stroke-linecap="round"/>
</svg>
