<svg width="332" height="335" viewBox="0 0 332 335" fill="none" xmlns="http://www.w3.org/2000/svg">
    <g opacity="0.15">
        <g clip-path="url(#clip0_562_53815)">
            <path d="M153.811 0.974685C162.193 -1.55963 174.475 0.58479 177.399 10.1372C171.161 6.8231 163.363 3.70395 156.54 7.60289C146.987 13.0614 144.843 24.9532 144.258 34.8955C142.894 49.3216 147.572 64.1376 156.93 75.2495C160.244 79.5384 165.897 78.3687 170.576 77.9788C166.287 84.2171 158.099 83.0474 153.226 78.3687C153.421 84.9969 151.471 92.4049 145.233 95.9139C134.901 102.932 120.865 100.398 110.532 107.611C103.124 113.459 100.98 123.401 99.0305 132.174C94.5467 153.228 91.2326 174.673 84.7993 195.337C80.7055 208.009 71.5429 218.146 64.135 228.868C49.124 247.973 44.0554 272.731 29.4344 292.226C22.2213 287.547 15.5931 293.59 11.8891 299.634C8.57502 302.753 10.5245 307.237 10.7194 310.941C13.4487 306.067 15.983 299.049 23.0011 300.024C18.3224 304.312 15.7881 310.356 11.3043 314.645C9.93965 317.569 8.57502 320.298 7.21039 323.222C5.26092 323.612 3.1165 323.807 1.16703 324.197C-0.977389 318.349 2.72661 313.865 6.4306 309.966C4.48113 301.193 10.9144 294.565 17.1527 289.496C20.2718 287.157 24.3657 288.132 27.8748 288.132C39.1817 275.265 45.8099 259.28 51.8533 243.294C58.6764 225.554 74.4671 212.687 79.7307 193.972C86.164 171.164 89.673 147.575 94.9366 124.376C96.8861 115.604 100.785 106.441 108.583 101.372C118.33 94.7443 130.807 96.1089 141.139 91.0403C147.377 88.1161 149.717 80.5131 148.937 74.0799C144.258 65.6971 138.215 57.8993 134.901 48.7367C132.366 42.4984 137.24 37.0399 137.435 30.8016C138.02 19.4947 141.724 5.45847 153.811 0.974685ZM4.67608 313.865C2.92155 315.424 2.33671 317.374 3.1165 319.518C6.8205 321.078 9.35481 311.525 4.67608 313.865Z" fill="white"/>
            <path d="M184.028 18.7148C187.732 23.5885 187.927 29.8268 188.706 35.4803C196.504 41.9136 192.41 58.2891 182.078 59.6537C185.197 54.3902 189.486 49.1266 189.291 42.4984C187.927 40.7439 185.002 39.5742 185.392 36.65C185.002 30.8016 184.417 24.7582 184.028 18.7148Z" fill="white"/>
            <path d="M183.834 92.9897C176.426 85.5818 179.74 74.0799 182.859 65.5022C184.224 73.495 181.884 84.0222 189.292 89.6756C199.234 96.4988 212.686 94.3544 222.823 100.788C230.816 105.271 235.3 114.044 237.249 122.817C242.903 146.99 246.412 171.748 253.43 195.532C259.083 213.467 274.289 225.944 280.917 243.294C286.961 259.085 293.589 275.07 304.896 288.132C314.448 285.403 321.076 293.785 325.755 300.608C327.315 304.312 324.39 309.381 328.094 312.11C331.604 315.23 332.578 319.713 331.409 324.197C329.264 323.807 327.315 323.417 325.17 323.027C323.806 320.298 322.441 317.374 321.076 314.645C316.593 310.161 314.058 304.312 309.38 300.024C316.593 298.854 318.932 306.067 321.856 311.136C322.246 308.211 322.441 305.287 322.831 302.363C318.542 298.074 315.618 290.276 308.405 290.666C307.04 291.056 304.311 291.836 302.946 292.421C292.419 278.19 286.376 261.619 278.773 246.023C269.805 227.698 253.04 214.052 246.996 194.362C240.173 172.333 237.054 149.329 231.791 126.911C229.841 119.113 226.917 110.535 219.314 106.441C208.202 100.008 193.386 102.542 183.834 92.9897ZM325.365 313.475C324.196 315.619 326.34 320.298 329.069 319.518C330.044 317.179 328.094 312.305 325.365 313.475Z" fill="white"/>
            <path d="M94.7431 220.095C104.295 197.871 108.779 173.893 115.992 150.889C118.332 160.831 119.696 171.164 122.426 181.106C125.545 193.972 130.029 206.644 131.198 219.9C132.368 233.742 123.205 246.218 112.678 254.016C93.7683 268.247 68.6202 271.561 51.0749 287.937C41.5225 296.709 35.6741 308.796 32.7499 321.273C47.9558 330.24 66.2808 330.825 83.2412 327.316C110.729 321.468 136.462 309.966 162.78 300.219C185.199 290.471 207.228 279.554 230.816 273.511C235.3 272.536 239.784 273.316 244.462 273.121C241.733 268.832 237.444 265.518 232.571 264.153C224.968 264.738 218.729 269.807 211.127 270.002C203.329 270.002 196.895 264.933 189.487 263.374C180.91 265.908 181.689 277.995 173.697 281.699C145.819 296.904 113.653 282.283 84.2159 288.717C75.8332 290.276 69.3999 295.93 62.1869 299.829C68.2303 286.962 83.826 283.648 96.6925 282.868C94.7431 280.724 92.7936 277.605 94.938 275.07C96.8875 272.146 100.786 272.146 103.711 271.171C108.974 270.392 112.483 265.908 117.357 264.153C123.985 262.204 128.664 268.637 134.902 269.417C142.31 268.832 147.184 261.619 154.397 260.644C164.144 260.839 164.729 274.096 174.087 275.46C177.596 270.002 179.935 262.594 186.563 260.059C195.336 258.11 202.354 266.103 211.127 265.908C216.78 265.518 222.044 262.789 227.307 260.839C214.051 253.431 201.379 241.539 199.43 225.749C198.845 213.857 203.329 202.355 206.448 190.853C210.737 177.792 213.466 164.145 216.195 150.694C218.535 156.737 219.314 163.171 221.264 169.214C228.672 191.438 232.571 215.611 246.217 235.301C256.159 249.532 267.076 262.984 276.239 277.605C284.427 285.013 293.004 292.421 297.488 302.948C301.582 313.28 308.21 322.442 315.618 330.63C313.084 325.172 309.77 320.103 308.015 314.255C315.813 316.789 315.618 327.706 323.026 331.605C320.102 324.782 316.203 318.544 313.864 311.525C321.662 315.424 321.467 325.757 327.9 331.02C327.705 329.266 327.12 325.562 326.925 323.807C327.9 324.197 329.654 325.172 330.629 325.757C331.019 328.096 331.409 330.435 331.994 332.775C328.68 333.165 325.366 333.749 322.441 334.919C321.467 334.334 319.322 332.97 318.152 332.385C317.178 332.97 315.423 333.749 314.448 334.334C311.524 331.8 308.99 328.876 306.651 325.757C302.557 332.385 294.369 333.554 287.156 333.165C266.491 332.385 246.022 328.681 226.527 322.442C209.567 317.374 193.581 308.991 176.036 305.287C161.805 302.558 148.743 310.356 136.072 315.035C116.187 322.442 95.9128 329.461 75.0534 333.554C58.8728 336.479 40.7427 334.334 27.2914 324.197C24.7571 327.706 22.0278 331.02 18.7137 333.944C15.7895 332.775 12.8653 333.554 10.136 334.724C7.01687 333.944 3.70277 333.165 0.388672 332.775C0.973513 330.435 1.36341 327.706 3.11793 325.757C4.67751 326.926 5.65224 328.681 6.23709 331.02C10.7209 324.977 11.5007 315.424 18.7137 312.305C16.3743 318.544 13.4501 324.782 9.74613 330.435C10.136 330.63 11.1108 331.02 11.5007 331.215C15.7895 326.146 18.1289 319.713 22.0278 314.45C23.7823 315.424 24.1722 316.789 23.1975 318.349C21.248 322.637 18.7137 326.536 16.7642 330.825C29.8257 319.713 30.6055 301.193 41.9124 288.912C47.3709 281.309 57.1183 277.995 61.6021 269.612C72.3242 252.846 86.5553 238.42 94.7431 220.095ZM209.372 210.738C206.643 221.655 206.838 234.521 215.025 243.099C230.426 259.28 253.235 263.763 271.365 275.85C261.423 260.059 247.972 246.998 238.809 230.817C228.087 212.492 224.188 191.438 217.755 171.553C216 184.81 212.686 197.676 209.372 210.738ZM97.8622 221.85C89.4795 240.565 74.4686 255.186 62.9667 271.951C80.317 262.204 100.786 257.33 115.018 242.709C122.621 235.301 123.79 223.799 122.036 213.857C119.501 200.211 115.602 186.759 114.238 173.113C108.194 189.099 105.27 206.254 97.8622 221.85ZM136.657 273.706C130.808 274.485 126.325 270.002 121.061 268.247C115.407 267.857 111.703 273.706 106.44 274.68C102.541 275.85 97.8622 275.46 94.938 278.969C109.169 278.969 122.621 283.648 136.657 284.428C147.964 285.013 159.271 282.673 169.798 278.774C163.364 276.045 162 267.857 155.956 265.128C148.743 265.323 144.065 272.731 136.657 273.706ZM247.777 268.637C246.607 270.587 249.921 277.02 245.827 276.825C236.47 275.85 227.112 277.41 218.535 281.309C235.495 281.504 253.235 277.8 269.416 284.233C274.874 286.767 280.723 290.276 282.867 296.125L281.307 298.269C275.459 295.93 271.95 289.301 265.517 287.937C247.192 282.283 227.697 286.962 208.982 285.597C197.09 290.471 185.393 295.54 173.697 300.608C198.65 306.847 222.044 318.154 247.387 323.417C260.448 325.952 273.705 327.511 286.961 328.681C291.835 329.266 296.708 328.486 301.387 327.121C300.022 314.06 295.344 300.608 285.596 291.446C274.874 281.114 261.228 274.485 247.777 268.637Z" fill="white"/>
        </g>
    </g>
    <path d="M169.192 60H163.768V59.088L166.732 56.064C167.524 55.272 167.92 54.592 167.92 54.024C167.92 53.56 167.776 53.196 167.488 52.932C167.208 52.66 166.856 52.524 166.432 52.524C165.64 52.524 165.064 52.9 164.704 53.652L163.768 53.1C164.024 52.564 164.384 52.156 164.848 51.876C165.312 51.588 165.836 51.444 166.42 51.444C167.132 51.444 167.744 51.676 168.256 52.14C168.776 52.612 169.036 53.236 169.036 54.012C169.036 54.86 168.536 55.784 167.536 56.784L165.388 58.92H169.192V60Z" fill="#49BC5B"/>
    <path d="M155.499 27.504C156.339 27.504 157.031 27.768 157.575 28.296C158.119 28.816 158.391 29.492 158.391 30.324C158.391 31.156 158.119 31.836 157.575 32.364C157.031 32.892 156.339 33.156 155.499 33.156C154.643 33.156 153.947 32.892 153.411 32.364C152.875 31.836 152.607 31.156 152.607 30.324C152.607 29.668 152.775 29.108 153.111 28.644L155.811 24.6H157.083L155.103 27.528C155.343 27.512 155.475 27.504 155.499 27.504ZM155.499 28.572C154.963 28.572 154.531 28.732 154.203 29.052C153.875 29.372 153.711 29.796 153.711 30.324C153.711 30.852 153.875 31.28 154.203 31.608C154.539 31.928 154.971 32.088 155.499 32.088C156.027 32.088 156.455 31.928 156.783 31.608C157.119 31.28 157.287 30.852 157.287 30.324C157.287 29.796 157.119 29.372 156.783 29.052C156.455 28.732 156.027 28.572 155.499 28.572Z" fill="#49BC5B"/>
    <path d="M158.391 124.264C158.391 124.92 158.219 125.484 157.875 125.956H157.887L155.175 130H153.915L155.907 127.06C155.667 127.076 155.531 127.084 155.499 127.084C154.651 127.084 153.955 126.824 153.411 126.304C152.875 125.776 152.607 125.096 152.607 124.264C152.607 123.424 152.875 122.748 153.411 122.236C153.947 121.708 154.643 121.444 155.499 121.444C156.339 121.444 157.031 121.708 157.575 122.236C158.119 122.756 158.391 123.432 158.391 124.264ZM155.499 122.512C154.971 122.512 154.539 122.672 154.203 122.992C153.875 123.312 153.711 123.736 153.711 124.264C153.711 124.792 153.875 125.22 154.203 125.548C154.539 125.868 154.971 126.028 155.499 126.028C156.027 126.028 156.455 125.868 156.783 125.548C157.119 125.22 157.287 124.792 157.287 124.264C157.287 123.736 157.123 123.312 156.795 122.992C156.467 122.672 156.035 122.512 155.499 122.512Z" fill="#49BC5B"/>
    <path d="M110.04 130H104.616V129.088L107.58 126.064C108.372 125.272 108.768 124.592 108.768 124.024C108.768 123.56 108.624 123.196 108.336 122.932C108.056 122.66 107.704 122.524 107.28 122.524C106.488 122.524 105.912 122.9 105.552 123.652L104.616 123.1C104.872 122.564 105.232 122.156 105.696 121.876C106.16 121.588 106.684 121.444 107.268 121.444C107.98 121.444 108.592 121.676 109.104 122.14C109.624 122.612 109.884 123.236 109.884 124.012C109.884 124.86 109.384 125.784 108.384 126.784L106.236 128.92H110.04V130ZM116.011 122.584L114.187 125.044C114.843 125.164 115.371 125.444 115.771 125.884C116.171 126.324 116.371 126.868 116.371 127.516C116.371 128.34 116.091 128.984 115.531 129.448C114.963 129.92 114.283 130.156 113.491 130.156C112.835 130.156 112.263 130.008 111.775 129.712C111.287 129.416 110.939 128.996 110.731 128.452L111.667 127.9C111.915 128.676 112.523 129.064 113.491 129.064C114.019 129.064 114.443 128.928 114.763 128.656C115.091 128.376 115.255 127.996 115.255 127.516C115.255 127.036 115.091 126.656 114.763 126.376C114.443 126.096 114.019 125.956 113.491 125.956H113.203L112.759 125.272L114.703 122.644H110.971V121.6H116.011V122.584Z" fill="#49BC5B"/>
    <path d="M188.905 52.584L187.081 55.044C187.737 55.164 188.265 55.444 188.665 55.884C189.065 56.324 189.265 56.868 189.265 57.516C189.265 58.34 188.985 58.984 188.425 59.448C187.857 59.92 187.177 60.156 186.385 60.156C185.729 60.156 185.157 60.008 184.669 59.712C184.181 59.416 183.833 58.996 183.625 58.452L184.561 57.9C184.809 58.676 185.417 59.064 186.385 59.064C186.913 59.064 187.337 58.928 187.657 58.656C187.985 58.376 188.149 57.996 188.149 57.516C188.149 57.036 187.985 56.656 187.657 56.376C187.337 56.096 186.913 55.956 186.385 55.956H186.097L185.653 55.272L187.597 52.644H183.865V51.6H188.905V52.584Z" fill="#49BC5B"/>
    <path d="M181.365 145.368L183.573 144.6H184.533V153H183.429V145.8L181.641 146.328L181.365 145.368ZM191.331 153H185.907V152.088L188.871 149.064C189.663 148.272 190.059 147.592 190.059 147.024C190.059 146.56 189.915 146.196 189.627 145.932C189.347 145.66 188.995 145.524 188.571 145.524C187.779 145.524 187.203 145.9 186.843 146.652L185.907 146.1C186.163 145.564 186.523 145.156 186.987 144.876C187.451 144.588 187.975 144.444 188.559 144.444C189.271 144.444 189.883 144.676 190.395 145.14C190.915 145.612 191.175 146.236 191.175 147.012C191.175 147.86 190.675 148.784 189.675 149.784L187.527 151.92H191.331V153Z" fill="#49BC5B"/>
    <path d="M227.549 168.368L229.757 167.6H230.717V176H229.613V168.8L227.825 169.328L227.549 168.368ZM237.346 173.36H238.366V174.404H237.346V176H236.23V174.404H231.946V173.36L234.958 167.6H236.158L233.146 173.36H236.23V170.984H237.346V173.36Z" fill="#FFA8A8"/>
    <path d="M254.272 221.368L256.48 220.6H257.44V229H256.336V221.8L254.548 222.328L254.272 221.368ZM260.397 223.876H261.621C262.413 223.876 263.081 224.112 263.625 224.584C264.177 225.056 264.453 225.7 264.453 226.516C264.453 227.34 264.173 227.984 263.613 228.448C263.045 228.92 262.365 229.156 261.573 229.156C260.917 229.156 260.337 229 259.833 228.688C259.337 228.368 258.993 227.924 258.801 227.356L259.749 226.816C259.861 227.216 260.077 227.524 260.397 227.74C260.717 227.956 261.109 228.064 261.573 228.064C262.109 228.064 262.537 227.928 262.857 227.656C263.185 227.376 263.349 226.996 263.349 226.516C263.349 226.036 263.185 225.656 262.857 225.376C262.537 225.096 262.117 224.956 261.597 224.956H259.221L259.533 220.6H264.129V221.644H260.541L260.397 223.876Z" fill="#FFA8A8"/>
    <path d="M308.301 298.368L310.509 297.6H311.469V306H310.365V298.8L308.577 299.328L308.301 298.368ZM315.638 300.504C316.478 300.504 317.17 300.768 317.714 301.296C318.258 301.816 318.53 302.492 318.53 303.324C318.53 304.156 318.258 304.836 317.714 305.364C317.17 305.892 316.478 306.156 315.638 306.156C314.782 306.156 314.086 305.892 313.55 305.364C313.014 304.836 312.746 304.156 312.746 303.324C312.746 302.668 312.914 302.108 313.25 301.644L315.95 297.6H317.222L315.242 300.528C315.482 300.512 315.614 300.504 315.638 300.504ZM315.638 301.572C315.102 301.572 314.67 301.732 314.342 302.052C314.014 302.372 313.85 302.796 313.85 303.324C313.85 303.852 314.014 304.28 314.342 304.608C314.678 304.928 315.11 305.088 315.638 305.088C316.166 305.088 316.594 304.928 316.922 304.608C317.258 304.28 317.426 303.852 317.426 303.324C317.426 302.796 317.258 302.372 316.922 302.052C316.594 301.732 316.166 301.572 315.638 301.572Z" fill="#FFA8A8"/>
    <path d="M274.588 298.368L276.796 297.6H277.756V306H276.652V298.8L274.864 299.328L274.588 298.368ZM278.913 298.656V297.6H284.157V298.596L281.097 306H279.933L282.969 298.656H278.913Z" fill="#FFA8A8"/>
    <path d="M215.201 286.368L217.409 285.6H218.369V294H217.265V286.8L215.477 287.328L215.201 286.368ZM224.207 289.656C225.079 290.104 225.515 290.784 225.515 291.696C225.515 292.464 225.247 293.068 224.711 293.508C224.167 293.94 223.475 294.156 222.635 294.156C221.795 294.156 221.107 293.94 220.571 293.508C220.035 293.068 219.767 292.464 219.767 291.696C219.767 290.784 220.203 290.104 221.075 289.656C220.387 289.224 220.043 288.612 220.043 287.82C220.043 287.06 220.295 286.476 220.799 286.068C221.311 285.652 221.923 285.444 222.635 285.444C223.363 285.444 223.975 285.652 224.471 286.068C224.983 286.476 225.239 287.06 225.239 287.82C225.239 288.612 224.895 289.224 224.207 289.656ZM222.635 286.512C222.195 286.512 221.835 286.628 221.555 286.86C221.283 287.092 221.147 287.42 221.147 287.844C221.147 288.26 221.287 288.588 221.567 288.828C221.847 289.068 222.203 289.188 222.635 289.188C223.067 289.188 223.423 289.068 223.703 288.828C223.983 288.588 224.123 288.26 224.123 287.844C224.123 287.42 223.987 287.092 223.715 286.86C223.443 286.628 223.083 286.512 222.635 286.512ZM222.635 293.088C223.179 293.088 223.611 292.96 223.931 292.704C224.251 292.448 224.411 292.088 224.411 291.624C224.411 291.168 224.251 290.812 223.931 290.556C223.611 290.3 223.179 290.172 222.635 290.172C222.099 290.172 221.671 290.3 221.351 290.556C221.031 290.812 220.871 291.168 220.871 291.624C220.871 292.088 221.031 292.448 221.351 292.704C221.671 292.96 222.099 293.088 222.635 293.088Z" fill="#FFA8A8"/>
    <path d="M120.083 294H114.659V293.088L117.623 290.064C118.415 289.272 118.811 288.592 118.811 288.024C118.811 287.56 118.667 287.196 118.379 286.932C118.099 286.66 117.747 286.524 117.323 286.524C116.531 286.524 115.955 286.9 115.595 287.652L114.659 287.1C114.915 286.564 115.275 286.156 115.739 285.876C116.203 285.588 116.727 285.444 117.311 285.444C118.023 285.444 118.635 285.676 119.147 286.14C119.667 286.612 119.927 287.236 119.927 288.012C119.927 288.86 119.427 289.784 118.427 290.784L116.279 292.92H120.083V294ZM120.664 286.368L122.872 285.6H123.832V294H122.728V286.8L120.94 287.328L120.664 286.368Z" fill="#49BC5B"/>
    <path d="M127.301 258.368L129.509 257.6H130.469V266H129.365V258.8L127.577 259.328L127.301 258.368ZM137.53 260.264C137.53 260.92 137.358 261.484 137.014 261.956H137.026L134.314 266H133.054L135.046 263.06C134.806 263.076 134.67 263.084 134.638 263.084C133.79 263.084 133.094 262.824 132.55 262.304C132.014 261.776 131.746 261.096 131.746 260.264C131.746 259.424 132.014 258.748 132.55 258.236C133.086 257.708 133.782 257.444 134.638 257.444C135.478 257.444 136.17 257.708 136.714 258.236C137.258 258.756 137.53 259.432 137.53 260.264ZM134.638 258.512C134.11 258.512 133.678 258.672 133.342 258.992C133.014 259.312 132.85 259.736 132.85 260.264C132.85 260.792 133.014 261.22 133.342 261.548C133.678 261.868 134.11 262.028 134.638 262.028C135.166 262.028 135.594 261.868 135.922 261.548C136.258 261.22 136.426 260.792 136.426 260.264C136.426 259.736 136.262 259.312 135.934 258.992C135.606 258.672 135.174 258.512 134.638 258.512Z" fill="#FFA8A8"/>
    <path d="M209.028 266H203.604V265.088L206.568 262.064C207.36 261.272 207.756 260.592 207.756 260.024C207.756 259.56 207.612 259.196 207.324 258.932C207.044 258.66 206.692 258.524 206.268 258.524C205.476 258.524 204.9 258.9 204.54 259.652L203.604 259.1C203.86 258.564 204.22 258.156 204.684 257.876C205.148 257.588 205.672 257.444 206.256 257.444C206.968 257.444 207.58 257.676 208.092 258.14C208.612 258.612 208.872 259.236 208.872 260.012C208.872 260.86 208.372 261.784 207.372 262.784L205.224 264.92H209.028V266ZM215.356 266H209.932V265.088L212.896 262.064C213.688 261.272 214.084 260.592 214.084 260.024C214.084 259.56 213.94 259.196 213.652 258.932C213.372 258.66 213.02 258.524 212.596 258.524C211.804 258.524 211.228 258.9 210.868 259.652L209.932 259.1C210.188 258.564 210.548 258.156 211.012 257.876C211.476 257.588 212 257.444 212.584 257.444C213.296 257.444 213.908 257.676 214.42 258.14C214.94 258.612 215.2 259.236 215.2 260.012C215.2 260.86 214.7 261.784 213.7 262.784L211.552 264.92H215.356V266Z" fill="#49BC5B"/>
    <path d="M173.708 237.36H174.728V238.404H173.708V240H172.592V238.404H168.308V237.36L171.32 231.6H172.52L169.508 237.36H172.592V234.984H173.708V237.36Z" fill="#FFA8A8"/>
    <path d="M170.258 252.876H171.482C172.274 252.876 172.942 253.112 173.486 253.584C174.038 254.056 174.314 254.7 174.314 255.516C174.314 256.34 174.034 256.984 173.474 257.448C172.906 257.92 172.226 258.156 171.434 258.156C170.778 258.156 170.198 258 169.694 257.688C169.198 257.368 168.854 256.924 168.662 256.356L169.61 255.816C169.722 256.216 169.938 256.524 170.258 256.74C170.578 256.956 170.97 257.064 171.434 257.064C171.97 257.064 172.398 256.928 172.718 256.656C173.046 256.376 173.21 255.996 173.21 255.516C173.21 255.036 173.046 254.656 172.718 254.376C172.398 254.096 171.978 253.956 171.458 253.956H169.082L169.394 249.6H173.99V250.644H170.402L170.258 252.876Z" fill="#FFA8A8"/>
    <path d="M172.275 25.656V24.6H177.519V25.596L174.459 33H173.295L176.331 25.656H172.275Z" fill="#49BC5B"/>
    <path d="M171.391 122.368L173.599 121.6H174.559V130H173.455V122.8L171.667 123.328L171.391 122.368ZM175.668 122.368L177.876 121.6H178.836V130H177.732V122.8L175.944 123.328L175.668 122.368Z" fill="#49BC5B"/>
    <path d="M215.318 122.368L217.526 121.6H218.486V130H217.382V122.8L215.594 123.328L215.318 122.368ZM225.044 122.584L223.22 125.044C223.876 125.164 224.404 125.444 224.804 125.884C225.204 126.324 225.404 126.868 225.404 127.516C225.404 128.34 225.124 128.984 224.564 129.448C223.996 129.92 223.316 130.156 222.524 130.156C221.868 130.156 221.296 130.008 220.808 129.712C220.32 129.416 219.972 128.996 219.764 128.452L220.7 127.9C220.948 128.676 221.556 129.064 222.524 129.064C223.052 129.064 223.476 128.928 223.796 128.656C224.124 128.376 224.288 127.996 224.288 127.516C224.288 127.036 224.124 126.656 223.796 126.376C223.476 126.096 223.052 125.956 222.524 125.956H222.236L221.792 125.272L223.736 122.644H220.004V121.6H225.044V122.584Z" fill="#FFA8A8"/>
    <path d="M163.868 13H158.444V12.088L161.408 9.064C162.2 8.272 162.596 7.592 162.596 7.024C162.596 6.56 162.452 6.196 162.164 5.932C161.884 5.66 161.532 5.524 161.108 5.524C160.316 5.524 159.74 5.9 159.38 6.652L158.444 6.1C158.7 5.564 159.06 5.156 159.524 4.876C159.988 4.588 160.512 4.444 161.096 4.444C161.808 4.444 162.42 4.676 162.932 5.14C163.452 5.612 163.712 6.236 163.712 7.012C163.712 7.86 163.212 8.784 162.212 9.784L160.064 11.92H163.868V13ZM164.321 5.656V4.6H169.565V5.596L166.505 13H165.341L168.377 5.656H164.321Z" fill="#FFA8A8"/>
    <path d="M158.25 102.368L160.458 101.6H161.418V110H160.314V102.8L158.526 103.328L158.25 102.368ZM168.527 108.968C167.967 109.76 167.171 110.156 166.139 110.156C165.107 110.156 164.311 109.76 163.751 108.968C163.183 108.168 162.899 107.112 162.899 105.8C162.899 104.488 163.183 103.432 163.751 102.632C164.311 101.84 165.107 101.444 166.139 101.444C167.171 101.444 167.967 101.84 168.527 102.632C169.095 103.432 169.379 104.488 169.379 105.8C169.379 107.112 169.095 108.168 168.527 108.968ZM164.015 105.8C164.015 106.84 164.199 107.644 164.567 108.212C164.935 108.78 165.459 109.064 166.139 109.064C166.819 109.064 167.343 108.78 167.711 108.212C168.087 107.644 168.275 106.84 168.275 105.8C168.275 104.76 168.087 103.956 167.711 103.388C167.343 102.812 166.819 102.524 166.139 102.524C165.459 102.524 164.935 102.808 164.567 103.376C164.199 103.944 164.015 104.752 164.015 105.8Z" fill="#49BC5B"/>
    <path d="M141.529 52.368L143.737 51.6H144.697V60H143.593V52.8L141.805 53.328L141.529 52.368Z" fill="#49BC5B"/>
    <path d="M145.068 148.656C145.94 149.104 146.376 149.784 146.376 150.696C146.376 151.464 146.108 152.068 145.572 152.508C145.028 152.94 144.336 153.156 143.496 153.156C142.656 153.156 141.968 152.94 141.432 152.508C140.896 152.068 140.628 151.464 140.628 150.696C140.628 149.784 141.064 149.104 141.936 148.656C141.248 148.224 140.904 147.612 140.904 146.82C140.904 146.06 141.156 145.476 141.66 145.068C142.172 144.652 142.784 144.444 143.496 144.444C144.224 144.444 144.836 144.652 145.332 145.068C145.844 145.476 146.1 146.06 146.1 146.82C146.1 147.612 145.756 148.224 145.068 148.656ZM143.496 145.512C143.056 145.512 142.696 145.628 142.416 145.86C142.144 146.092 142.008 146.42 142.008 146.844C142.008 147.26 142.148 147.588 142.428 147.828C142.708 148.068 143.064 148.188 143.496 148.188C143.928 148.188 144.284 148.068 144.564 147.828C144.844 147.588 144.984 147.26 144.984 146.844C144.984 146.42 144.848 146.092 144.576 145.86C144.304 145.628 143.944 145.512 143.496 145.512ZM143.496 152.088C144.04 152.088 144.472 151.96 144.792 151.704C145.112 151.448 145.272 151.088 145.272 150.624C145.272 150.168 145.112 149.812 144.792 149.556C144.472 149.3 144.04 149.172 143.496 149.172C142.96 149.172 142.532 149.3 142.212 149.556C141.892 149.812 141.732 150.168 141.732 150.624C141.732 151.088 141.892 151.448 142.212 151.704C142.532 151.96 142.96 152.088 143.496 152.088Z" fill="#49BC5B"/>
    <path d="M96.3169 176H90.8929V175.088L93.8569 172.064C94.6489 171.272 95.0449 170.592 95.0449 170.024C95.0449 169.56 94.9009 169.196 94.6129 168.932C94.3329 168.66 93.9809 168.524 93.5569 168.524C92.7649 168.524 92.1889 168.9 91.8289 169.652L90.8929 169.1C91.1489 168.564 91.5089 168.156 91.9729 167.876C92.4369 167.588 92.9609 167.444 93.5449 167.444C94.2569 167.444 94.8689 167.676 95.3809 168.14C95.9009 168.612 96.1609 169.236 96.1609 170.012C96.1609 170.86 95.6609 171.784 94.6609 172.784L92.5129 174.92H96.3169V176ZM102.266 173.36H103.286V174.404H102.266V176H101.15V174.404H96.8661V173.36L99.8781 167.6H101.078L98.0661 173.36H101.15V170.984H102.266V173.36Z" fill="#49BC5B"/>
    <path d="M71.981 229H66.557V228.088L69.521 225.064C70.313 224.272 70.709 223.592 70.709 223.024C70.709 222.56 70.565 222.196 70.277 221.932C69.997 221.66 69.645 221.524 69.221 221.524C68.429 221.524 67.853 221.9 67.493 222.652L66.557 222.1C66.813 221.564 67.173 221.156 67.637 220.876C68.101 220.588 68.625 220.444 69.209 220.444C69.921 220.444 70.533 220.676 71.045 221.14C71.565 221.612 71.825 222.236 71.825 223.012C71.825 223.86 71.325 224.784 70.325 225.784L68.177 227.92H71.981V229ZM74.3754 223.876H75.5994C76.3914 223.876 77.0594 224.112 77.6034 224.584C78.1554 225.056 78.4314 225.7 78.4314 226.516C78.4314 227.34 78.1514 227.984 77.5914 228.448C77.0234 228.92 76.3434 229.156 75.5514 229.156C74.8954 229.156 74.3154 229 73.8114 228.688C73.3154 228.368 72.9714 227.924 72.7794 227.356L73.7274 226.816C73.8394 227.216 74.0554 227.524 74.3754 227.74C74.6954 227.956 75.0874 228.064 75.5514 228.064C76.0874 228.064 76.5154 227.928 76.8354 227.656C77.1634 227.376 77.3274 226.996 77.3274 226.516C77.3274 226.036 77.1634 225.656 76.8354 225.376C76.5154 225.096 76.0954 224.956 75.5754 224.956H73.1994L73.5114 220.6H78.1074V221.644H74.5194L74.3754 223.876Z" fill="#49BC5B"/>
    <path d="M20.0689 302H14.6449V301.088L17.6089 298.064C18.4009 297.272 18.7969 296.592 18.7969 296.024C18.7969 295.56 18.6529 295.196 18.3649 294.932C18.0849 294.66 17.7329 294.524 17.3089 294.524C16.5169 294.524 15.9409 294.9 15.5809 295.652L14.6449 295.1C14.9009 294.564 15.2609 294.156 15.7249 293.876C16.1889 293.588 16.7129 293.444 17.2969 293.444C18.0089 293.444 18.6209 293.676 19.1329 294.14C19.6529 294.612 19.9129 295.236 19.9129 296.012C19.9129 296.86 19.4129 297.784 18.4129 298.784L16.2649 300.92H20.0689V302ZM23.5581 296.504C24.3981 296.504 25.0901 296.768 25.6341 297.296C26.1781 297.816 26.4501 298.492 26.4501 299.324C26.4501 300.156 26.1781 300.836 25.6341 301.364C25.0901 301.892 24.3981 302.156 23.5581 302.156C22.7021 302.156 22.0061 301.892 21.4701 301.364C20.9341 300.836 20.6661 300.156 20.6661 299.324C20.6661 298.668 20.8341 298.108 21.1701 297.644L23.8701 293.6H25.1421L23.1621 296.528C23.4021 296.512 23.5341 296.504 23.5581 296.504ZM23.5581 297.572C23.0221 297.572 22.5901 297.732 22.2621 298.052C21.9341 298.372 21.7701 298.796 21.7701 299.324C21.7701 299.852 21.9341 300.28 22.2621 300.608C22.5981 300.928 23.0301 301.088 23.5581 301.088C24.0861 301.088 24.5141 300.928 24.8421 300.608C25.1781 300.28 25.3461 299.852 25.3461 299.324C25.3461 298.796 25.1781 298.372 24.8421 298.052C24.5141 297.732 24.0861 297.572 23.5581 297.572Z" fill="#49BC5B"/>
    <path d="M50.9712 302H45.5472V301.088L48.5112 298.064C49.3032 297.272 49.6992 296.592 49.6992 296.024C49.6992 295.56 49.5552 295.196 49.2672 294.932C48.9872 294.66 48.6352 294.524 48.2112 294.524C47.4192 294.524 46.8432 294.9 46.4832 295.652L45.5472 295.1C45.8032 294.564 46.1632 294.156 46.6272 293.876C47.0912 293.588 47.6152 293.444 48.1992 293.444C48.9112 293.444 49.5232 293.676 50.0352 294.14C50.5552 294.612 50.8152 295.236 50.8152 296.012C50.8152 296.86 50.3152 297.784 49.3152 298.784L47.1672 300.92H50.9712V302ZM57.4942 300.968C56.9342 301.76 56.1382 302.156 55.1062 302.156C54.0742 302.156 53.2782 301.76 52.7182 300.968C52.1502 300.168 51.8662 299.112 51.8662 297.8C51.8662 296.488 52.1502 295.432 52.7182 294.632C53.2782 293.84 54.0742 293.444 55.1062 293.444C56.1382 293.444 56.9342 293.84 57.4942 294.632C58.0622 295.432 58.3462 296.488 58.3462 297.8C58.3462 299.112 58.0622 300.168 57.4942 300.968ZM52.9822 297.8C52.9822 298.84 53.1662 299.644 53.5342 300.212C53.9022 300.78 54.4262 301.064 55.1062 301.064C55.7862 301.064 56.3102 300.78 56.6782 300.212C57.0542 299.644 57.2422 298.84 57.2422 297.8C57.2422 296.76 57.0542 295.956 56.6782 295.388C56.3102 294.812 55.7862 294.524 55.1062 294.524C54.4262 294.524 53.9022 294.808 53.5342 295.376C53.1662 295.944 52.9822 296.752 52.9822 297.8Z" fill="#49BC5B"/>
    <defs>
        <clipPath id="clip0_562_53815">
            <rect width="331.8" height="334.724" fill="white"/>
        </clipPath>
    </defs>
</svg>
