<svg width="48" height="48" viewBox="40 40 48 48" fill="none" xmlns="http://www.w3.org/2000/svg">
    <rect x="40" y="40.0015" width="47.9618" height="47.9618" rx="10" fill="#F0F0F3"/>
    <rect x="40" y="40.0015" width="47.9618" height="47.9618" rx="10" fill="url(#paint0_linear_999_24142)"/>
    <g opacity="0.5">
        <rect x="64" y="40" width="33.9411" height="33.9411" rx="10" transform="rotate(45 64 40)" fill="#F0F0F3"/>
        <rect x="64" y="40" width="33.9411" height="33.9411" rx="10" transform="rotate(45 64 40)" fill="url(#paint1_linear_999_24142)"/>
    </g>
    <g opacity="0.5">
        <rect x="85" y="43" width="42" height="42" rx="10" transform="rotate(90 85 43)" fill="#F0F0F3"/>
        <rect x="85" y="43" width="42" height="42" rx="10" transform="rotate(90 85 43)" fill="url(#paint2_linear_999_24142)"/>
    </g>
    <path d="M64.417 53.9538V73.1385" stroke="white" stroke-width="2" stroke-linecap="round"/>
    <path d="M74.0088 63.5462L54.8241 63.5462" stroke="white" stroke-width="2" stroke-linecap="round"/>
    <g opacity="0.5" filter="url(#filter0_f_999_24142)">
        <rect x="88" y="88" width="48" height="48" transform="rotate(-180 88 88)" fill="#C4C4C4"/>
        <rect x="88" y="88" width="48" height="48" transform="rotate(-180 88 88)" fill="url(#paint3_linear_999_24142)"/>
    </g>
    <defs>
        <filter id="filter0_f_999_24142" x="0" y="0" width="128" height="128" filterUnits="userSpaceOnUse" color-interpolation-filters="sRGB">
            <feFlood flood-opacity="0" result="BackgroundImageFix"/>
            <feBlend mode="normal" in="SourceGraphic" in2="BackgroundImageFix" result="shape"/>
            <feGaussianBlur stdDeviation="20" result="effect1_foregroundBlur_999_24142"/>
        </filter>
        <linearGradient id="paint0_linear_999_24142" x1="40" y1="83.3003" x2="87.9161" y2="81.8212" gradientUnits="userSpaceOnUse">
            <stop stop-color="#37366B"/>
            <stop offset="0.431784" stop-color="#5C5B9F"/>
            <stop offset="1" stop-color="#59ABDA"/>
        </linearGradient>
        <linearGradient id="paint1_linear_999_24142" x1="64" y1="70.6413" x2="97.9088" y2="69.5946" gradientUnits="userSpaceOnUse">
            <stop stop-color="#37366B"/>
            <stop offset="0.431784" stop-color="#5C5B9F"/>
            <stop offset="1" stop-color="#59ABDA"/>
        </linearGradient>
        <linearGradient id="paint2_linear_999_24142" x1="85" y1="80.9167" x2="126.96" y2="79.6214" gradientUnits="userSpaceOnUse">
            <stop stop-color="#37366B"/>
            <stop offset="0.431784" stop-color="#5C5B9F"/>
            <stop offset="1" stop-color="#59ABDA"/>
        </linearGradient>
        <linearGradient id="paint3_linear_999_24142" x1="136" y1="131.333" x2="88.0457" y2="132.814" gradientUnits="userSpaceOnUse">
            <stop stop-color="#B5B4FF"/>
            <stop offset="1" stop-color="#4ABEFF"/>
        </linearGradient>
    </defs>
</svg>
