<svg width="33" height="34" viewBox="0 0 33 34" fill="none" xmlns="http://www.w3.org/2000/svg">
    <path d="M5.29492 1.39349V3.34431L10.0326 8.08201V10.5902" stroke="#9C9EA8"/>
    <path d="M12.2624 10.5902V6.40988L10.3116 4.45906V2.22955M14.4919 3.34431V10.5902M16.7214 10.5902V3.90168L18.3935 2.22955M18.9509 6.13119V10.5902M20.6231 10.5902V6.68857L23.1312 4.18037V2.50824M22.8526 10.5902V7.80332L25.9181 4.73775H27.0329M23.4099 11.1476H25.6394L30.6558 6.13119M23.4099 13.0984H26.1968M23.4099 15.0492H28.9837L31.4919 12.541M23.4099 17.2787H30.0985M23.4099 19.5082H27.869L30.6558 22.2951M23.4099 21.4591H25.6394L30.0985 25.9181H31.2132M23.4099 23.4099H25.0821L30.9345 29.2623V30.6558M22.5739 23.9672V26.4754L25.0821 28.9836V31.2131M20.6231 24.5246V28.4263M18.3935 24.5246V26.1968M16.4427 24.2459V29.2623L19.5083 32.3279M14.4919 23.9672V31.7705M12.2624 23.9672V28.4263L9.47552 31.2131M10.0329 23.9672V25.6394L5.0165 30.6558V31.7705M9.47552 23.4099H7.5247L3.06569 27.8689H1.95093M9.47552 21.1804H6.13126L4.45913 22.8525H2.787M9.47552 19.2295H2.787L1.39355 17.8361M9.47552 17.2787H6.68863M9.47552 15.0492H5.0165L3.62306 13.6558M9.47552 12.8197H6.96732L3.90175 9.75414H1.95093M9.47552 11.1476H8.36076L3.34437 6.13119" stroke="#9C9EA8"/>
    <rect x="11.002" y="12.0901" width="10.9081" height="10.9081" rx="3.5" fill="#9C9EA8" stroke="#9C9EA8" stroke-width="3"/>
    <rect x="3.90137" width="2.22951" height="2.22951" rx="1.11475" fill="#9C9EA8"/>
    <rect x="8.91797" y="0.557373" width="2.22951" height="2.22951" rx="1.11475" fill="#9C9EA8"/>
    <rect x="12.8193" y="1.11475" width="2.22951" height="2.22951" rx="1.11475" fill="#9C9EA8"/>
    <rect x="17.8359" width="2.22951" height="2.22951" rx="1.11475" fill="#9C9EA8"/>
    <rect x="17.8359" y="4.45898" width="2.22951" height="2.22951" rx="1.11475" fill="#9C9EA8"/>
    <rect x="22.2949" y="0.557373" width="2.22951" height="2.22951" rx="1.11475" fill="#9C9EA8"/>
    <rect x="26.7539" y="3.34424" width="2.22951" height="2.22951" rx="1.11475" fill="#9C9EA8"/>
    <rect x="30.0986" y="4.45898" width="2.22951" height="2.22951" rx="1.11475" fill="#9C9EA8"/>
    <rect x="25.6396" y="11.705" width="2.22951" height="2.22951" rx="1.11475" fill="#9C9EA8"/>
    <rect x="30.6553" y="11.1476" width="2.22951" height="2.22951" rx="1.11475" fill="#9C9EA8"/>
    <rect x="29.541" y="16.1639" width="2.22951" height="2.22951" rx="1.11475" fill="#9C9EA8"/>
    <rect x="29.541" y="21.1804" width="2.22951" height="2.22951" rx="1.11475" fill="#9C9EA8"/>
    <rect x="30.6553" y="25.0819" width="2.22951" height="2.22951" rx="1.11475" fill="#9C9EA8"/>
    <rect x="30.0986" y="30.0984" width="2.22951" height="2.22951" rx="1.11475" fill="#9C9EA8"/>
    <rect x="23.9668" y="30.0984" width="2.22951" height="2.22951" rx="1.11475" fill="#9C9EA8"/>
    <rect x="19.5078" y="27.8688" width="2.22951" height="2.22951" rx="1.11475" fill="#9C9EA8"/>
    <rect x="13.377" y="31.2131" width="2.22951" height="2.22951" rx="1.11475" fill="#9C9EA8"/>
    <rect x="7.80371" y="30.6558" width="2.22951" height="2.22951" rx="1.11475" fill="#9C9EA8"/>
    <rect x="3.90137" y="31.2131" width="2.22951" height="2.22951" rx="1.11475" fill="#9C9EA8"/>
    <rect x="0.557617" y="26.7541" width="2.22951" height="2.22951" rx="1.11475" fill="#9C9EA8"/>
    <rect x="1.11426" y="21.7377" width="2.22951" height="2.22951" rx="1.11475" fill="#9C9EA8"/>
    <rect y="16.1639" width="2.22951" height="2.22951" rx="1.11475" fill="#9C9EA8"/>
    <rect x="5.0166" y="16.1639" width="2.22951" height="2.22951" rx="1.11475" fill="#9C9EA8"/>
    <rect x="2.22949" y="12.2623" width="2.22951" height="2.22951" rx="1.11475" fill="#9C9EA8"/>
    <rect y="8.91803" width="2.22951" height="2.22951" rx="1.11475" fill="#9C9EA8"/>
    <rect x="1.67188" y="4.45898" width="2.22951" height="2.22951" rx="1.11475" fill="#9C9EA8"/>
    <rect x="17.2783" y="25.0819" width="2.22951" height="2.22951" rx="1.11475" fill="#9C9EA8"/>
    <rect x="18.9512" y="31.7705" width="2.22951" height="2.22951" rx="1.11475" fill="#9C9EA8"/>
    <path d="M21.2905 22.0938H19.1905L18.6025 20.3297H14.6965L14.1085 22.0938H12.0225L15.4525 12.2937H17.8465L21.2905 22.0938ZM16.6565 14.5197L15.3125 18.5237H18.0005L16.6565 14.5197Z" fill="#E9E9EE"/>
</svg>
