<svg width="30" height="30" viewBox="0 0 30 30" fill="none" xmlns="http://www.w3.org/2000/svg">
    <g opacity="0.7" filter="url(#filter0_d_999_24119)">
        <path d="M20.8438 26H9.15625C6.31309 26 4 23.6869 4 20.8438V9.15625C4 6.31309 6.31309 4 9.15625 4H20.8438C23.6869 4 26 6.31309 26 9.15625V20.8438C26 23.6869 23.6869 26 20.8438 26ZM9.15625 5.71875C7.26081 5.71875 5.71875 7.26081 5.71875 9.15625V20.8438C5.71875 22.7392 7.26081 24.2812 9.15625 24.2812H20.8438C22.7392 24.2812 24.2812 22.7392 24.2812 20.8438V9.15625C24.2812 7.26081 22.7392 5.71875 20.8438 5.71875H9.15625ZM22.2188 15C22.2188 14.5254 21.834 14.1406 21.3594 14.1406H15.3008C14.8261 14.1406 14.4414 14.5254 14.4414 15C14.4414 15.4746 14.8261 15.8594 15.3008 15.8594H21.3594C21.834 15.8594 22.2188 15.4746 22.2188 15ZM19.2109 11.6914C19.2109 11.2168 18.8262 10.832 18.3516 10.832H10.3164C9.84177 10.832 9.45703 11.2168 9.45703 11.6914C9.45703 12.166 9.84177 12.5508 10.3164 12.5508H18.3516C18.8262 12.5508 19.2109 12.166 19.2109 11.6914ZM13.0664 8.33984C13.0664 7.86521 12.6817 7.48047 12.207 7.48047H8.59766C8.12302 7.48047 7.73828 7.86521 7.73828 8.33984C7.73828 8.81448 8.12302 9.19922 8.59766 9.19922H12.207C12.6817 9.19922 13.0664 8.81448 13.0664 8.33984ZM20.9297 18.3516C20.9297 17.8769 20.5449 17.4922 20.0703 17.4922H12.8945C12.4199 17.4922 12.0352 17.8769 12.0352 18.3516C12.0352 18.8262 12.4199 19.2109 12.8945 19.2109H20.0703C20.5449 19.2109 20.9297 18.8262 20.9297 18.3516ZM22.0898 21.7031C22.0898 21.2285 21.7051 20.8438 21.2305 20.8438H19.3398C18.8652 20.8438 18.4805 21.2285 18.4805 21.7031C18.4805 22.1778 18.8652 22.5625 19.3398 22.5625H21.2305C21.7051 22.5625 22.0898 22.1778 22.0898 21.7031Z" fill="#9C9EA8"/>
    </g>
    <defs>
        <filter id="filter0_d_999_24119" x="0" y="0" width="30" height="30" filterUnits="userSpaceOnUse" color-interpolation-filters="sRGB">
            <feFlood flood-opacity="0" result="BackgroundImageFix"/>
            <feColorMatrix in="SourceAlpha" type="matrix" values="0 0 0 0 0 0 0 0 0 0 0 0 0 0 0 0 0 0 127 0" result="hardAlpha"/>
            <feOffset/>
            <feGaussianBlur stdDeviation="2"/>
            <feComposite in2="hardAlpha" operator="out"/>
            <feColorMatrix type="matrix" values="0 0 0 0 0.352941 0 0 0 0 0.631373 0 0 0 0 0.823529 0 0 0 0.5 0"/>
            <feBlend mode="normal" in2="BackgroundImageFix" result="effect1_dropShadow_999_24119"/>
            <feBlend mode="normal" in="SourceGraphic" in2="effect1_dropShadow_999_24119" result="shape"/>
        </filter>
    </defs>
</svg>
