<svg width="22" height="22" viewBox="0 0 22 22" fill="none" xmlns="http://www.w3.org/2000/svg">
    <g opacity="0.7">
        <g clip-path="url(#clip0_999_24139)">
            <path d="M16.8438 22H5.15625C2.31309 22 0 19.6869 0 16.8438V9.58203C0 6.73887 2.31309 4.42578 5.15625 4.42578H8.59375C9.06838 4.42578 9.45312 4.81052 9.45312 5.28516C9.45312 5.75979 9.06838 6.14453 8.59375 6.14453H5.15625C3.26081 6.14453 1.71875 7.68659 1.71875 9.58203V16.8438C1.71875 18.7392 3.26081 20.2812 5.15625 20.2812H16.8438C18.7392 20.2812 20.2812 18.7392 20.2812 16.8438V11.9023C20.2812 11.4277 20.666 11.043 21.1406 11.043C21.6153 11.043 22 11.4277 22 11.9023V16.8438C22 19.6869 19.6869 22 16.8438 22ZM14.128 14.9273L15.5612 13.831C15.9381 13.5427 16.01 13.0033 15.7217 12.6264C15.4333 12.2494 14.894 12.1776 14.5169 12.4659L13.0847 13.5614C11.8573 14.4976 10.1427 14.4976 8.91434 13.5606L4.81705 10.4449C4.43927 10.1576 3.90014 10.2309 3.61281 10.6088C3.32552 10.9866 3.39887 11.5257 3.7767 11.813L7.87299 14.928C8.79343 15.6301 9.89648 15.9811 10.9997 15.9811C12.1032 15.9811 13.2068 15.6298 14.128 14.9273ZM22 5.41406C22 2.42872 19.5713 0 16.5859 0C13.6006 0 11.1719 2.42872 11.1719 5.41406C11.1719 8.3994 13.6006 10.8281 16.5859 10.8281C19.5713 10.8281 22 8.3994 22 5.41406ZM20.2812 5.41406C20.2812 7.45164 18.6235 9.10938 16.5859 9.10938C14.5484 9.10938 12.8906 7.45164 12.8906 5.41406C12.8906 3.37648 14.5484 1.71875 16.5859 1.71875C18.6235 1.71875 20.2812 3.37648 20.2812 5.41406ZM17.4453 6.74609V4.08203C17.4453 3.6074 17.0606 3.22266 16.5859 3.22266H15.7266C15.2519 3.22266 14.8672 3.6074 14.8672 4.08203C14.8672 4.55666 15.2519 4.94141 15.7266 4.94141V6.74609C15.7266 7.22073 16.1113 7.60547 16.5859 7.60547C17.0606 7.60547 17.4453 7.22073 17.4453 6.74609Z" fill="#9C9EA8"/>
        </g>
    </g>
    <defs>
        <clipPath id="clip0_999_24139">
            <rect width="22" height="22" fill="white"/>
        </clipPath>
    </defs>
</svg>
