<svg width="76" height="16" viewBox="0 0 76 16" fill="none" xmlns="http://www.w3.org/2000/svg">
<g clip-path="url(#clip0_3335_34956)">
<path d="M24.0825 2.54538C23.9468 2.06462 23.682 1.62632 23.3145 1.27415C22.9471 0.921969 22.4898 0.668198 21.9882 0.538106C20.1519 0.0581055 12.7611 0.0581055 12.7611 0.0581055C12.7611 0.0581055 5.3703 0.0726509 3.53399 0.552651C3.03238 0.682744 2.57508 0.936514 2.20763 1.28869C1.84019 1.64087 1.57541 2.07916 1.43968 2.55992C0.884231 5.6872 0.66873 10.4523 1.45485 13.4545C1.59059 13.9352 1.85536 14.3735 2.22281 14.7257C2.59026 15.0779 3.04756 15.3317 3.54916 15.4617C5.38548 15.9417 12.7763 15.9417 12.7763 15.9417C12.7763 15.9417 20.1671 15.9417 22.0034 15.4617C22.505 15.3317 22.9623 15.0779 23.3297 14.7257C23.6972 14.3735 23.9619 13.9352 24.0977 13.4545C24.6835 10.3228 24.8641 5.56065 24.0825 2.54538Z" fill="#FF0000"/>
<path d="M10.4082 11.4035L16.5394 7.99983L10.4082 4.59619V11.4035Z" fill="white"/>
<path d="M35.2516 14.502C34.7812 14.1965 34.4473 13.7311 34.25 13.0911C34.0527 12.4511 33.9617 11.6074 33.9617 10.5456V9.1056C33.9617 8.04378 34.0679 7.17105 34.2955 6.53105C34.5232 5.87651 34.8722 5.41105 35.3579 5.12014C35.8435 4.82923 36.4657 4.66923 37.2397 4.66923C37.9985 4.66923 38.6207 4.81469 39.076 5.12014C39.5313 5.4256 39.8804 5.89105 40.0928 6.53105C40.3053 7.17105 40.4115 8.02923 40.4115 9.09105V10.5311C40.4115 11.5929 40.3053 12.4365 40.0928 13.0765C39.8804 13.7165 39.5465 14.182 39.076 14.4874C38.6056 14.7783 37.9682 14.9383 37.179 14.9383C36.3595 14.9529 35.7221 14.7929 35.2516 14.502ZM37.8771 12.9456C38.0137 12.6256 38.0744 12.0874 38.0744 11.3601V8.26196C38.0744 7.54923 38.0137 7.0256 37.8771 6.7056C37.7405 6.37105 37.5129 6.21105 37.1942 6.21105C36.8755 6.21105 36.663 6.37105 36.5264 6.7056C36.3898 7.04014 36.3291 7.54923 36.3291 8.26196V11.3601C36.3291 12.0874 36.3898 12.6256 36.5113 12.9456C36.6327 13.2656 36.8603 13.4256 37.1942 13.4256C37.5129 13.4256 37.7405 13.2656 37.8771 12.9456ZM71.1432 10.5747V11.0838L71.2039 12.5238C71.2495 12.8438 71.3253 13.0765 71.4468 13.222C71.5682 13.3674 71.7655 13.4401 72.0235 13.4401C72.3725 13.4401 72.6153 13.3092 72.7367 13.0474C72.8733 12.7856 72.934 12.3492 72.9492 11.7529L74.9676 11.8692C74.9828 11.9565 74.9828 12.0729 74.9828 12.2183C74.9828 13.1347 74.7248 13.8183 74.1936 14.2692C73.6625 14.7201 72.934 14.9529 71.9779 14.9529C70.8245 14.9529 70.0202 14.6038 69.5649 13.9201C69.1096 13.2365 68.8668 12.1601 68.8668 10.7201V8.96014C68.9184 6.48742 69.3722 4.67651 72.0386 4.66923C72.843 4.66923 73.45 4.81469 73.8749 5.09105C74.2999 5.36742 74.6034 5.80378 74.7855 6.40014C74.9676 6.99651 75.0435 7.81105 75.0435 8.85832V10.5601H71.1432V10.5747ZM71.4468 6.3856C71.3253 6.53105 71.2495 6.74923 71.2039 7.06923C71.1584 7.38923 71.1432 8.52378 71.1432 8.52378V9.23651H72.843V8.52378C72.843 9.23651 72.8278 7.40378 72.7823 7.06923C72.7367 6.73469 72.6608 6.50196 72.5394 6.37105C72.418 6.24014 72.2359 6.16742 71.9931 6.16742C71.7351 6.18196 71.553 6.25469 71.4468 6.3856ZM29.5757 10.3856L26.9199 1.19287H29.2419C29.2419 1.19287 30.327 5.80378 30.6988 7.97105H30.7595C31.1814 5.66996 32.2468 1.19287 32.2468 1.19287H34.5687L31.8825 10.3711V14.7783H29.5909V10.3856H29.5757Z" fill="#282828"/>
<path d="M47.9387 4.85791V14.7925H46.1176L45.9203 13.5706H45.8748C45.374 14.487 44.6303 14.9525 43.6439 14.9525C41.8576 14.9481 41.6588 13.4979 41.6406 12.2761V4.85791H43.9778V12.1452C43.9778 12.5815 44.0233 12.9015 44.1295 13.0906C44.345 13.495 44.9035 13.3917 45.207 13.1925C45.3823 13.0789 45.5235 12.9235 45.6168 12.7415V4.85791H47.9387Z" fill="#282828"/>
<path d="M59.7629 4.85791V14.7925H57.9418L57.7445 13.5706H57.699C57.1982 14.487 56.4545 14.9525 55.4681 14.9525C53.6819 14.9481 53.4831 13.4979 53.4648 12.2761V4.85791H55.802V12.1452C55.802 12.5815 55.8475 12.9015 55.9537 13.0906C56.1692 13.495 56.7277 13.3917 57.0312 13.1925C57.2065 13.0789 57.3477 12.9235 57.441 12.7415V4.85791H59.7629Z" fill="#282828"/>
<path d="M54.2816 2.99632H51.9597V14.7927H49.6833V2.99632H47.3613V1.19268H54.2665V2.99632H54.2816ZM67.6215 6.4436C67.4849 5.81814 67.2573 5.36723 66.9386 5.07632C66.6199 4.79996 66.1949 4.6545 65.6334 4.6545C65.2064 4.6536 64.7888 4.77518 64.4345 5.0036C64.0551 5.23632 63.7819 5.54178 63.5695 5.91996H63.5543V0.683594H61.3082V14.7781H63.2356L63.4784 13.8327H63.5239C63.7095 14.1657 63.988 14.4426 64.3283 14.6327C64.6925 14.8218 65.0871 14.9236 65.5272 14.9236C66.3163 14.9236 66.893 14.5745 67.2724 13.8763C67.6367 13.1781 67.834 12.0872 67.834 10.6181V9.04723C67.834 7.94178 67.7581 7.06905 67.6215 6.4436ZM65.4817 10.5018C65.4817 11.2291 65.4513 11.7963 65.3906 12.2036C65.3299 12.6109 65.2237 12.9018 65.0719 13.0763C64.9201 13.2509 64.7228 13.3381 64.48 13.3381C64.0096 13.3236 63.7425 13.12 63.5543 12.8145V7.17087C63.6302 6.89451 63.7667 6.67632 63.964 6.50178C64.2979 6.1425 64.8685 6.13814 65.1326 6.50178C65.2692 6.67632 65.3451 6.98178 65.4058 7.4036C65.4513 7.82541 65.4817 8.42178 65.4817 9.20723V10.5018Z" fill="#282828"/>
</g>
<defs>
<clipPath id="clip0_3335_34956">
<rect width="74.6667" height="16" fill="white" transform="translate(0.666016)"/>
</clipPath>
</defs>
</svg>
