<svg width="41" height="42" viewBox="0 0 41 42" fill="none" xmlns="http://www.w3.org/2000/svg">
    <path fill-rule="evenodd" clip-rule="evenodd" d="M5.88477 1.72131H7.19727V3.85932L13.0497 9.71178V13.082H11.7372V10.2554L5.88477 4.40298V1.72131Z" fill="#39396F"/>
    <path fill-rule="evenodd" clip-rule="evenodd" d="M21.3125 5.09148L23.1859 3.21812L22.2578 2.29004L20 4.54782V13.0819H21.3125V5.09148ZM13.3945 5.23635V2.75408H12.082V5.78L14.4918 8.18984V13.0819H15.8043V7.64618L13.3945 5.23635ZM27.918 3.09834H29.2305V5.43574L26.1322 8.5341V13.0819H24.8197V7.99044L27.918 4.89208V3.09834ZM17.2459 13.0819V4.13113H18.5584V13.0819H17.2459ZM31.7451 5.19619H33.394V6.50869H32.2887L28.8863 9.91115V13.0819H27.5738V9.36749L31.7451 5.19619ZM10.6002 13.1142L4.59572 7.10971L3.66765 8.03779L10.0566 14.4267H11.7055V13.1142H10.6002ZM38.3334 8.03779L31.9445 14.4267H28.9186V13.1142H31.4008L37.4053 7.10971L38.3334 8.03779ZM22.7541 13.0819V7.57375H24.0666V13.0819H22.7541ZM2.41038 11.3929H5.09204L8.87892 15.1798H11.7055V16.4923H8.33527L4.54838 12.7054H2.41038V11.3929ZM39.3662 15.9558L36.0756 19.2464H28.9186V17.9339H35.532L38.4381 15.0277L39.3662 15.9558ZM32.3612 16.8366H28.9186V15.5241H32.3612V16.8366ZM6.46909 17.9339L4.93999 16.4048L4.01191 17.3329L5.92543 19.2464H11.7055V17.9339H6.46909ZM8.26283 20.688H11.7055V22.0005H8.26283V20.688ZM37.1809 22.0005H28.9186V20.688H37.1809V22.0005ZM3.71499 23.0978L2.18589 21.5687L1.25781 22.4968L3.17133 24.4103H11.7055V23.0978H3.71499ZM34.1549 24.7546H28.9186V23.4421H34.6986L38.3334 27.0769L37.4053 28.005L34.1549 24.7546ZM7.30248 25.5077H11.7055V26.8202H7.84614L5.78056 28.8857H3.44316V27.5732H5.23691L7.30248 25.5077ZM31.4008 27.1644H28.9186V25.8519H31.9445L37.4527 31.3601H38.5579V32.6726H36.909L31.4008 27.1644ZM9.02379 28.2618H11.7055V29.5743H9.56745L4.05925 35.0824H2.41038V33.7699H3.5156L9.02379 28.2618ZM30.7123 29.5743H28.9186V28.2618H31.256L38.8699 35.8757V37.8688H37.5574V36.4193L30.7123 29.5743ZM11.7377 31.4003V29.6065H13.0502V31.9439L6.85351 38.1406V39.2459H5.54101V37.597L11.7377 31.4003ZM14.4918 34.8429V29.6065H15.8043V35.3865L12.1695 39.0214L11.2414 38.0933L14.4918 34.8429ZM18.5584 39.2459H17.2459V29.6065H18.5584V39.2459ZM27.2295 29.6065H28.542V32.4331L31.6404 35.5314V38.5573H30.3279V36.0751L27.2295 32.9767V29.6065ZM19.6558 29.9508H20.9683V35.8757L24.5629 39.4704L23.6349 40.3984L19.6558 36.4193V29.9508ZM22.0656 32.3606V30.2951H23.3781V32.3606H22.0656ZM24.8197 35.1147V30.2951H26.1322V35.1147H24.8197Z" fill="#39396F"/>
    <path d="M11.7363 16.3632C11.7363 14.551 13.2054 13.0819 15.0176 13.0819H25.6357C27.4479 13.0819 28.9169 14.551 28.9169 16.3632V26.9813C28.9169 28.7935 27.4479 30.2625 25.6357 30.2625H15.0176C13.2054 30.2625 11.7363 28.7935 11.7363 26.9813V16.3632Z" fill="#39396F"/>
    <path fill-rule="evenodd" clip-rule="evenodd" d="M25.6357 15.0507H15.0176C14.2927 15.0507 13.7051 15.6383 13.7051 16.3632V26.9813C13.7051 27.7061 14.2927 28.2938 15.0176 28.2938H25.6357C26.3606 28.2938 26.9482 27.7061 26.9482 26.9813V16.3632C26.9482 15.6383 26.3606 15.0507 25.6357 15.0507ZM15.0176 13.0819C13.2054 13.0819 11.7363 14.551 11.7363 16.3632V26.9813C11.7363 28.7935 13.2054 30.2625 15.0176 30.2625H25.6357C27.4479 30.2625 28.9169 28.7935 28.9169 26.9813V16.3632C28.9169 14.551 27.4479 13.0819 25.6357 13.0819H15.0176Z" fill="#39396F"/>
    <path d="M4.82031 1.37705C4.82031 0.616526 5.43684 0 6.19736 0V0C6.95788 0 7.57441 0.616526 7.57441 1.37705V1.37705C7.57441 2.13757 6.95788 2.7541 6.19736 2.7541V2.7541C5.43684 2.7541 4.82031 2.13757 4.82031 1.37705V1.37705Z" fill="#39396F"/>
    <path d="M11.0156 2.06553C11.0156 1.305 11.6322 0.688477 12.3927 0.688477V0.688477C13.1532 0.688477 13.7697 1.305 13.7697 2.06553V2.06553C13.7697 2.82605 13.1532 3.44257 12.3927 3.44257V3.44257C11.6322 3.44257 11.0156 2.82605 11.0156 2.06553V2.06553Z" fill="#39396F"/>
    <path d="M15.8359 2.75412C15.8359 1.9936 16.4525 1.37708 17.213 1.37708V1.37708C17.9735 1.37708 18.59 1.9936 18.59 2.75412V2.75412C18.59 3.51465 17.9735 4.13117 17.213 4.13117V4.13117C16.4525 4.13117 15.8359 3.51465 15.8359 2.75412V2.75412Z" fill="#39396F"/>
    <path d="M22.0332 1.37705C22.0332 0.616526 22.6497 0 23.4103 0V0C24.1708 0 24.7873 0.616526 24.7873 1.37705V1.37705C24.7873 2.13757 24.1708 2.7541 23.4103 2.7541V2.7541C22.6497 2.7541 22.0332 2.13757 22.0332 1.37705V1.37705Z" fill="#39396F"/>
    <path d="M22.0332 6.88523C22.0332 6.1247 22.6497 5.50818 23.4103 5.50818V5.50818C24.1708 5.50818 24.7873 6.1247 24.7873 6.88523V6.88523C24.7873 7.64575 24.1708 8.26228 23.4103 8.26228V8.26228C22.6497 8.26228 22.0332 7.64575 22.0332 6.88523V6.88523Z" fill="#39396F"/>
    <path d="M27.541 2.06553C27.541 1.305 28.1575 0.688477 28.9181 0.688477V0.688477C29.6786 0.688477 30.2951 1.305 30.2951 2.06553V2.06553C30.2951 2.82605 29.6786 3.44257 28.9181 3.44257V3.44257C28.1575 3.44257 27.541 2.82605 27.541 2.06553V2.06553Z" fill="#39396F"/>
    <path d="M33.0488 5.50815C33.0488 4.74763 33.6654 4.1311 34.4259 4.1311V4.1311C35.1864 4.1311 35.8029 4.74763 35.8029 5.50815V5.50815C35.8029 6.26868 35.1864 6.8852 34.4259 6.8852V6.8852C33.6654 6.8852 33.0488 6.26868 33.0488 5.50815V5.50815Z" fill="#39396F"/>
    <path d="M37.1797 6.88523C37.1797 6.1247 37.7962 5.50818 38.5567 5.50818V5.50818C39.3173 5.50818 39.9338 6.1247 39.9338 6.88523V6.88523C39.9338 7.64575 39.3173 8.26228 38.5567 8.26228V8.26228C37.7962 8.26228 37.1797 7.64575 37.1797 6.88523V6.88523Z" fill="#39396F"/>
    <path d="M31.6719 15.836C31.6719 15.0755 32.2884 14.459 33.0489 14.459V14.459C33.8094 14.459 34.426 15.0755 34.426 15.836V15.836C34.426 16.5966 33.8094 17.2131 33.0489 17.2131V17.2131C32.2884 17.2131 31.6719 16.5966 31.6719 15.836V15.836Z" fill="#39396F"/>
    <path d="M37.8691 15.1476C37.8691 14.387 38.4857 13.7705 39.2462 13.7705V13.7705C40.0067 13.7705 40.6232 14.387 40.6232 15.1476V15.1476C40.6232 15.9081 40.0067 16.5246 39.2462 16.5246V16.5246C38.4857 16.5246 37.8691 15.9081 37.8691 15.1476V15.1476Z" fill="#39396F"/>
    <path d="M36.4922 21.3442C36.4922 20.5837 37.1087 19.9672 37.8692 19.9672V19.9672C38.6298 19.9672 39.2463 20.5837 39.2463 21.3442V21.3442C39.2463 22.1047 38.6298 22.7213 37.8692 22.7213V22.7213C37.1087 22.7213 36.4922 22.1047 36.4922 21.3442V21.3442Z" fill="#39396F"/>
    <path d="M36.4922 27.541C36.4922 26.7805 37.1087 26.1639 37.8692 26.1639V26.1639C38.6298 26.1639 39.2463 26.7805 39.2463 27.541V27.541C39.2463 28.3015 38.6298 28.918 37.8692 28.918V28.918C37.1087 28.918 36.4922 28.3015 36.4922 27.541V27.541Z" fill="#39396F"/>
    <path d="M37.8691 32.3606C37.8691 31.6001 38.4857 30.9836 39.2462 30.9836V30.9836C40.0067 30.9836 40.6232 31.6001 40.6232 32.3606V32.3606C40.6232 33.1212 40.0067 33.7377 39.2462 33.7377V33.7377C38.4857 33.7377 37.8691 33.1212 37.8691 32.3606V32.3606Z" fill="#39396F"/>
    <path d="M37.1797 38.5574C37.1797 37.7969 37.7962 37.1804 38.5567 37.1804V37.1804C39.3173 37.1804 39.9338 37.7969 39.9338 38.5574V38.5574C39.9338 39.3179 39.3173 39.9345 38.5567 39.9345V39.9345C37.7962 39.9345 37.1797 39.3179 37.1797 38.5574V38.5574Z" fill="#39396F"/>
    <path d="M29.6074 38.5574C29.6074 37.7969 30.2239 37.1804 30.9845 37.1804V37.1804C31.745 37.1804 32.3615 37.7969 32.3615 38.5574V38.5574C32.3615 39.3179 31.745 39.9345 30.9845 39.9345V39.9345C30.2239 39.9345 29.6074 39.3179 29.6074 38.5574V38.5574Z" fill="#39396F"/>
    <path d="M24.0977 35.8033C24.0977 35.0427 24.7142 34.4262 25.4747 34.4262V34.4262C26.2352 34.4262 26.8518 35.0427 26.8518 35.8033V35.8033C26.8518 36.5638 26.2352 37.1803 25.4747 37.1803V37.1803C24.7142 37.1803 24.0977 36.5638 24.0977 35.8033V35.8033Z" fill="#39396F"/>
    <path d="M16.5254 39.9344C16.5254 39.1739 17.1419 38.5574 17.9024 38.5574V38.5574C18.663 38.5574 19.2795 39.1739 19.2795 39.9344V39.9344C19.2795 40.6949 18.663 41.3115 17.9024 41.3115V41.3115C17.1419 41.3115 16.5254 40.6949 16.5254 39.9344V39.9344Z" fill="#39396F"/>
    <path d="M9.63867 39.2459C9.63867 38.4854 10.2552 37.8688 11.0157 37.8688V37.8688C11.7762 37.8688 12.3928 38.4854 12.3928 39.2459V39.2459C12.3928 40.0064 11.7762 40.6229 11.0157 40.6229V40.6229C10.2552 40.6229 9.63867 40.0064 9.63867 39.2459V39.2459Z" fill="#39396F"/>
    <path d="M4.82031 39.9344C4.82031 39.1739 5.43684 38.5574 6.19736 38.5574V38.5574C6.95788 38.5574 7.57441 39.1739 7.57441 39.9344V39.9344C7.57441 40.6949 6.95788 41.3115 6.19736 41.3115V41.3115C5.43684 41.3115 4.82031 40.6949 4.82031 39.9344V39.9344Z" fill="#39396F"/>
    <path d="M0.689453 34.4262C0.689453 33.6657 1.30598 33.0492 2.0665 33.0492V33.0492C2.82702 33.0492 3.44355 33.6657 3.44355 34.4262V34.4262C3.44355 35.1868 2.82702 35.8033 2.0665 35.8033V35.8033C1.30598 35.8033 0.689453 35.1868 0.689453 34.4262V34.4262Z" fill="#39396F"/>
    <path d="M1.37695 28.2295C1.37695 27.4689 1.99348 26.8524 2.754 26.8524V26.8524C3.51452 26.8524 4.13105 27.4689 4.13105 28.2295V28.2295C4.13105 28.99 3.51452 29.6065 2.754 29.6065V29.6065C1.99348 29.6065 1.37695 28.99 1.37695 28.2295V28.2295Z" fill="#39396F"/>
    <path d="M0 21.3442C0 20.5837 0.616526 19.9672 1.37705 19.9672V19.9672C2.13757 19.9672 2.7541 20.5837 2.7541 21.3442V21.3442C2.7541 22.1047 2.13757 22.7213 1.37705 22.7213V22.7213C0.616526 22.7213 0 22.1047 0 21.3442V21.3442Z" fill="#39396F"/>
    <path d="M6.19727 21.3442C6.19727 20.5837 6.81379 19.9672 7.57431 19.9672V19.9672C8.33484 19.9672 8.95136 20.5837 8.95136 21.3442V21.3442C8.95136 22.1047 8.33484 22.7213 7.57431 22.7213V22.7213C6.81379 22.7213 6.19727 22.1047 6.19727 21.3442V21.3442Z" fill="#39396F"/>
    <path d="M2.75391 16.5246C2.75391 15.7641 3.37043 15.1476 4.13095 15.1476V15.1476C4.89148 15.1476 5.508 15.7641 5.508 16.5246V16.5246C5.508 17.2852 4.89148 17.9017 4.13095 17.9017V17.9017C3.37043 17.9017 2.75391 17.2852 2.75391 16.5246V16.5246Z" fill="#39396F"/>
    <path d="M0 12.3934C0 11.6329 0.616526 11.0164 1.37705 11.0164V11.0164C2.13757 11.0164 2.7541 11.6329 2.7541 12.3934V12.3934C2.7541 13.1539 2.13757 13.7705 1.37705 13.7705V13.7705C0.616526 13.7705 0 13.1539 0 12.3934V12.3934Z" fill="#39396F"/>
    <path d="M2.06641 6.88523C2.06641 6.1247 2.68293 5.50818 3.44345 5.50818V5.50818C4.20398 5.50818 4.8205 6.1247 4.8205 6.88523V6.88523C4.8205 7.64575 4.20398 8.26228 3.44345 8.26228V8.26228C2.68293 8.26228 2.06641 7.64575 2.06641 6.88523V6.88523Z" fill="#39396F"/>
    <path d="M21.3438 32.3606C21.3438 31.6001 21.9603 30.9836 22.7208 30.9836V30.9836C23.4813 30.9836 24.0978 31.6001 24.0978 32.3606V32.3606C24.0978 33.1212 23.4813 33.7377 22.7208 33.7377V33.7377C21.9603 33.7377 21.3438 33.1212 21.3438 32.3606V32.3606Z" fill="#39396F"/>
    <path d="M23.4102 40.623C23.4102 39.8624 24.0267 39.2459 24.7872 39.2459V39.2459C25.5477 39.2459 26.1643 39.8624 26.1643 40.623V40.623C26.1643 41.3835 25.5477 42 24.7872 42V42C24.0267 42 23.4102 41.3835 23.4102 40.623V40.623Z" fill="#39396F"/>
    <path d="M24.763 26.25H22.7942L22.243 24.5962H18.5811L18.0298 26.25H16.0742L19.2898 17.0625H21.5342L24.763 26.25ZM20.4186 19.1494L19.1586 22.9031H21.6786L20.4186 19.1494Z" fill="white"/>
</svg>
