<svg width="58" height="59" viewBox="0 0 58 59" fill="none" xmlns="http://www.w3.org/2000/svg">
    <rect x="1.5" y="7.5" width="55" height="50" rx="3.5" stroke="#F1D5FF" stroke-width="3"/>
    <mask id="path-2-inside-1_829_52163" fill="white">
        <rect x="7" y="27" width="12" height="12" rx="2"/>
    </mask>
    <rect x="7" y="27" width="12" height="12" rx="2" fill="#F1D4FF" stroke="#F1D5FF" stroke-width="6" mask="url(#path-2-inside-1_829_52163)"/>
    <mask id="path-3-inside-2_829_52163" fill="white">
        <rect x="23" y="27" width="12" height="12" rx="2"/>
    </mask>
    <rect x="23" y="27" width="12" height="12" rx="2" fill="#F1D4FF" stroke="#F1D5FF" stroke-width="6" mask="url(#path-3-inside-2_829_52163)"/>
    <mask id="path-4-inside-3_829_52163" fill="white">
        <rect x="39" y="27" width="12" height="12" rx="2"/>
    </mask>
    <rect x="39" y="27" width="12" height="12" rx="2" fill="#F1D4FF" stroke="#F1D5FF" stroke-width="6" mask="url(#path-4-inside-3_829_52163)"/>
    <mask id="path-5-inside-4_829_52163" fill="white">
        <rect x="7" y="41" width="12" height="12" rx="2"/>
    </mask>
    <rect x="7" y="41" width="12" height="12" rx="2" fill="#F1D4FF" stroke="#F1D5FF" stroke-width="6" mask="url(#path-5-inside-4_829_52163)"/>
    <mask id="path-6-inside-5_829_52163" fill="white">
        <rect x="23" y="41" width="12" height="12" rx="2"/>
    </mask>
    <rect x="23" y="41" width="12" height="12" rx="2" fill="#F1D4FF" stroke="#F1D5FF" stroke-width="6" mask="url(#path-6-inside-5_829_52163)"/>
    <mask id="path-7-inside-6_829_52163" fill="white">
        <rect x="39" y="41" width="12" height="12" rx="2"/>
    </mask>
    <rect x="39" y="41" width="12" height="12" rx="2" fill="#F1D4FF" stroke="#F1D5FF" stroke-width="6" mask="url(#path-7-inside-6_829_52163)"/>
    <path d="M13.5 23H45" stroke="#F1D5FF" stroke-width="3" stroke-linecap="round"/>
    <path d="M2 17L56 17" stroke="#F1D5FF" stroke-width="3" stroke-linecap="round"/>
    <path d="M12 7V4.5C12 3.11929 10.8807 2 9.5 2V2C8.11929 2 7 3.11929 7 4.5V8.78571C7 10.5609 8.43908 12 10.2143 12V12" stroke="#F1D5FF" stroke-width="3" stroke-linecap="round" stroke-linejoin="round"/>
    <path d="M25 7V4.5C25 3.11929 23.8807 2 22.5 2V2C21.1193 2 20 3.11929 20 4.5V8.78571C20 10.5609 21.4391 12 23.2143 12V12" stroke="#F1D5FF" stroke-width="3" stroke-linecap="round" stroke-linejoin="round"/>
    <path d="M38 7V4.5C38 3.11929 36.8807 2 35.5 2V2C34.1193 2 33 3.11929 33 4.5V8.78571C33 10.5609 34.4391 12 36.2143 12V12" stroke="#F1D5FF" stroke-width="3" stroke-linecap="round" stroke-linejoin="round"/>
    <path d="M51 7V4.5C51 3.11929 49.8807 2 48.5 2V2C47.1193 2 46 3.11929 46 4.5V8.78571C46 10.5609 47.4391 12 49.2143 12V12" stroke="#F1D5FF" stroke-width="3" stroke-linecap="round" stroke-linejoin="round"/>
</svg>
