<svg width="532" height="532" viewBox="0 0 532 532" fill="none" xmlns="http://www.w3.org/2000/svg">
    <rect x="29" y="389" width="120" height="120" rx="60" stroke="white" stroke-width="15"/>
    <path fill-rule="evenodd" clip-rule="evenodd" d="M20 266C20 130.138 130.138 20 266 20C401.862 20 512 130.138 512 266C512 401.862 401.862 512 266 512C220.547 512 177.973 499.673 141.439 478.179C138.126 484.12 133.833 489.44 128.778 493.92C168.842 518.092 215.797 532 266 532C412.908 532 532 412.908 532 266C532 119.092 412.908 0 266 0C119.092 0 0 119.092 0 266C0 319.375 15.7209 369.079 42.7849 410.733C47.0996 405.528 52.2767 401.064 58.0973 397.56C33.9702 359.512 20 314.387 20 266Z" fill="white"/>
</svg>
