<svg width="16" height="16" viewBox="0 0 16 16" fill="none" xmlns="http://www.w3.org/2000/svg">
<path d="M2.49182 0.655884V1.57392L4.72133 3.80342V4.98375" stroke="#37366B" stroke-width="0.8"/>
<path d="M5.77051 4.98362V3.01641L4.85248 2.09837V1.04919M6.81969 1.57378V4.98362M7.86887 4.98362V1.83608L8.65576 1.04919M8.91805 2.88526V4.98362M9.70494 4.98362V3.14755L10.8853 1.96723V1.18034M10.7541 4.98362V3.67214L12.1967 2.22952H12.7213M11.0164 5.24591H12.0656L14.4262 2.88526M11.0164 6.16395H12.3279M11.0164 7.08198H13.6394L14.8197 5.90165M11.0164 8.13116H14.164M11.0164 9.18034H13.1148L14.4262 10.4918M11.0164 10.0984H12.0656L14.164 12.1967H14.6885M11.0164 11.0164H11.8033L14.5574 13.7705V14.4262M10.623 11.2787V12.459L11.8033 13.6394V14.6885M9.70494 11.541V13.3771M8.65576 11.541V12.3279M7.73773 11.4098V13.7705L9.18035 15.2131M6.81969 11.2787V14.9508M5.77051 11.2787V13.3771L4.45904 14.6885M4.72133 11.2787V12.0656L2.36068 14.4262V14.9508M4.45904 11.0164H3.54101L1.44265 13.1148H0.918057M4.45904 9.96722H2.88527L2.09838 10.7541H1.3115M4.45904 9.04919H1.3115L0.655762 8.39345M4.45904 8.13116H3.14756M4.45904 7.08198H2.36068L1.70494 6.42624M4.45904 6.0328H3.27871L1.83609 4.59018H0.918057M4.45904 5.24591H3.93445L1.57379 2.88526" stroke="#37366B" stroke-width="0.8"/>
<rect x="5.97125" y="6.48358" width="3.545" height="3.545" fill="#37366B" stroke="#37366B" stroke-width="3"/>
<rect x="1.83606" width="1.04918" height="1.04918" rx="0.52459" fill="#37366B"/>
<rect x="4.19672" y="0.262207" width="1.04918" height="1.04918" rx="0.52459" fill="#37366B"/>
<rect x="6.03284" y="0.524658" width="1.04918" height="1.04918" rx="0.52459" fill="#37366B"/>
<rect x="8.39362" width="1.04918" height="1.04918" rx="0.52459" fill="#37366B"/>
<rect x="8.39362" y="2.09833" width="1.04918" height="1.04918" rx="0.52459" fill="#37366B"/>
<rect x="10.4918" y="0.262207" width="1.04918" height="1.04918" rx="0.52459" fill="#37366B"/>
<rect x="12.5903" y="1.57379" width="1.04918" height="1.04918" rx="0.52459" fill="#37366B"/>
<rect x="14.1639" y="2.09833" width="1.04918" height="1.04918" rx="0.52459" fill="#37366B"/>
<rect x="12.0656" y="5.50824" width="1.04918" height="1.04918" rx="0.52459" fill="#37366B"/>
<rect x="14.4263" y="5.24585" width="1.04918" height="1.04918" rx="0.52459" fill="#37366B"/>
<rect x="13.9017" y="7.60657" width="1.04918" height="1.04918" rx="0.52459" fill="#37366B"/>
<rect x="13.9017" y="9.96729" width="1.04918" height="1.04918" rx="0.52459" fill="#37366B"/>
<rect x="14.4263" y="11.8033" width="1.04918" height="1.04918" rx="0.52459" fill="#37366B"/>
<rect x="14.1639" y="14.1639" width="1.04918" height="1.04918" rx="0.52459" fill="#37366B"/>
<rect x="11.2787" y="14.1639" width="1.04918" height="1.04918" rx="0.52459" fill="#37366B"/>
<rect x="9.18036" y="13.1147" width="1.04918" height="1.04918" rx="0.52459" fill="#37366B"/>
<rect x="6.29517" y="14.6886" width="1.04918" height="1.04918" rx="0.52459" fill="#37366B"/>
<rect x="3.67224" y="14.4262" width="1.04918" height="1.04918" rx="0.52459" fill="#37366B"/>
<rect x="1.83606" y="14.6886" width="1.04918" height="1.04918" rx="0.52459" fill="#37366B"/>
<rect x="0.26239" y="12.5903" width="1.04918" height="1.04918" rx="0.52459" fill="#37366B"/>
<rect x="0.524719" y="10.2296" width="1.04918" height="1.04918" rx="0.52459" fill="#37366B"/>
<rect y="7.60657" width="1.04918" height="1.04918" rx="0.52459" fill="#37366B"/>
<rect x="2.36078" y="7.60657" width="1.04918" height="1.04918" rx="0.52459" fill="#37366B"/>
<rect x="1.04919" y="5.77045" width="1.04918" height="1.04918" rx="0.52459" fill="#37366B"/>
<rect y="4.19666" width="1.04918" height="1.04918" rx="0.52459" fill="#37366B"/>
<rect x="0.786865" y="2.09833" width="1.04918" height="1.04918" rx="0.52459" fill="#37366B"/>
<rect x="8.1311" y="11.8033" width="1.04918" height="1.04918" rx="0.52459" fill="#37366B"/>
<rect x="8.91797" y="14.9508" width="1.04918" height="1.04918" rx="0.52459" fill="#37366B"/>
<path d="M10.155 10.75H9.105L8.811 9.868H6.858L6.564 10.75H5.521L7.236 5.85H8.433L10.155 10.75ZM7.838 6.963L7.166 8.965H8.51L7.838 6.963Z" fill="#E9E9EE"/>
</svg>
