<svg width="18" height="14" viewBox="0 0 18 14" fill="none" xmlns="http://www.w3.org/2000/svg">
<g clip-path="url(#clip0_2860_104750)">
<path d="M10.7678 8.76777C11.2366 8.29893 11.5 7.66304 11.5 7C11.5 6.33696 11.2366 5.70107 10.7678 5.23223C10.2989 4.76339 9.66304 4.5 9 4.5C8.33696 4.5 7.70107 4.76339 7.23223 5.23223C6.76339 5.70107 6.5 6.33696 6.5 7C6.5 7.66304 6.76339 8.29893 7.23223 8.76777C7.70107 9.23661 8.33696 9.5 9 9.5C9.66304 9.5 10.2989 9.23661 10.7678 8.76777Z" stroke="#3F3F46" stroke-width="2" stroke-linecap="round" stroke-linejoin="round"/>
<path d="M1.04834 7.00002C2.11001 3.61919 5.26917 1.16669 9.00001 1.16669C12.7317 1.16669 15.89 3.61919 16.9517 7.00002C15.89 10.3809 12.7317 12.8334 9.00001 12.8334C5.26917 12.8334 2.11001 10.3809 1.04834 7.00002Z" stroke="#3F3F46" stroke-width="2" stroke-linecap="round" stroke-linejoin="round"/>
</g>
<defs>
<clipPath id="clip0_2860_104750">
<rect width="18" height="14" fill="white"/>
</clipPath>
</defs>
</svg>
