<svg width="16" height="15" viewBox="0 0 16 15" fill="none" xmlns="http://www.w3.org/2000/svg">
<path d="M0.5 13.25H15.5V14.5H0.5V13.25ZM8 12C6.83968 12 5.72688 11.5391 4.90641 10.7186C4.08594 9.89812 3.625 8.78532 3.625 7.625V0.75H4.875V7.625C4.875 8.4538 5.20424 9.24866 5.79029 9.83471C6.37634 10.4208 7.1712 10.75 8 10.75C8.8288 10.75 9.62366 10.4208 10.2097 9.83471C10.7958 9.24866 11.125 8.4538 11.125 7.625V0.75H12.375V7.625C12.375 8.78532 11.9141 9.89812 11.0936 10.7186C10.2731 11.5391 9.16032 12 8 12Z" fill="#979C9E"/>
</svg>
