<svg width="355" height="362" viewBox="22 20 310 320" fill="none" xmlns="http://www.w3.org/2000/svg">
    <g filter="url(#filter0_dd_670_39286)">
        <rect x="20" y="20" width="315" height="315" rx="10" fill="url(#paint0_radial_670_39286)"/>
        <rect x="20" y="20" width="315" height="315" rx="10" fill="white"/>
    </g>
    <g opacity="0.5">
        <svg>
            <circle cx="282.983" cy="282.708" r="6.92652" fill="#F3F3F5" stroke="#261C5C" stroke-width="1"/>
            <rect x="274.600" y="280.738" width="3.67971" height="3.67971" rx="1.83986" fill="#F3F3F5" stroke="#261C5C"/>
        </svg>
    </g>
    <g opacity="0.5">
        <path d="M293.815 296.852L293.85 296.887C293.96 296.997 294.064 297.002 294.165 296.902C294.204 296.862 294.236 296.815 294.26 296.765L295.304 294.489L294.105 293.29L291.876 294.326C291.831 294.346 291.789 294.374 291.753 294.409C291.699 294.457 291.666 294.524 291.661 294.596C291.658 294.624 291.662 294.652 291.67 294.679C291.679 294.706 291.694 294.73 291.713 294.751L291.747 294.785L291.679 294.853L290.919 294.093L290.987 294.025L291.023 294.061C291.062 294.093 291.107 294.116 291.156 294.128C291.204 294.139 291.255 294.14 291.304 294.13C291.439 294.114 291.571 294.076 291.695 294.019L297.431 291.423L294.832 297.081C294.771 297.208 294.726 297.342 294.699 297.481C294.683 297.542 294.683 297.606 294.699 297.667C294.715 297.729 294.747 297.784 294.792 297.83L294.826 297.863L294.758 297.932L293.746 296.921L293.815 296.852ZM294.402 293.124L295.459 294.18L296.36 292.225L294.402 293.124Z" fill="#261C5C"/>
        <path d="M295.198 298.372L295.266 298.303C295.284 298.321 295.305 298.335 295.329 298.345C295.352 298.354 295.377 298.359 295.402 298.358C295.459 298.358 295.516 298.35 295.57 298.334C295.629 298.318 295.684 298.292 295.735 298.259C295.782 298.228 295.827 298.193 295.868 298.153L299.364 294.656C299.439 294.583 299.501 294.498 299.549 294.404C299.594 294.312 299.562 294.208 299.453 294.089L299.521 294.021L300.423 294.5L296.319 298.604C296.279 298.645 296.244 298.69 296.213 298.738C296.18 298.788 296.154 298.844 296.138 298.902C296.122 298.955 296.113 299.01 296.11 299.066C296.109 299.091 296.113 299.115 296.122 299.138C296.131 299.162 296.145 299.182 296.162 299.2L296.094 299.268L295.198 298.372Z" fill="#261C5C"/>
        <path d="M301.127 298.468C301.352 298.683 301.528 298.944 301.642 299.234C301.735 299.484 301.776 299.75 301.762 300.017C301.746 300.275 301.678 300.528 301.561 300.759C301.444 300.994 301.289 301.208 301.103 301.394C300.92 301.577 300.709 301.73 300.478 301.848C300.249 301.967 299.998 302.041 299.74 302.066C299.478 302.09 299.213 302.058 298.964 301.973C298.681 301.871 298.426 301.704 298.218 301.486C298.069 301.332 297.959 301.144 297.896 300.939C297.823 300.718 297.783 300.487 297.779 300.255L296.441 301.593C296.401 301.634 296.365 301.679 296.335 301.727C296.301 301.777 296.275 301.833 296.258 301.891C296.243 301.945 296.234 302 296.231 302.055C296.229 302.08 296.233 302.105 296.242 302.128C296.251 302.151 296.265 302.171 296.283 302.188L296.214 302.257L295.325 301.367L295.393 301.299C295.41 301.315 295.431 301.328 295.453 301.336C295.475 301.344 295.499 301.348 295.522 301.347C295.58 301.348 295.637 301.341 295.693 301.326C295.751 301.309 295.807 301.284 295.857 301.251C295.905 301.22 295.95 301.184 295.99 301.144L299.448 297.687C299.488 297.646 299.529 297.606 299.567 297.567C299.601 297.53 299.628 297.487 299.646 297.441C299.662 297.397 299.666 297.349 299.658 297.303C299.643 297.242 299.613 297.186 299.57 297.14L299.636 297.073L300.307 297.744L300.007 298.045C300.206 298.026 300.407 298.052 300.595 298.121C300.795 298.197 300.977 298.315 301.127 298.468V298.468ZM298.458 301.263C298.605 301.408 298.786 301.513 298.984 301.571C299.167 301.621 299.359 301.631 299.545 301.599C299.734 301.566 299.916 301.501 300.082 301.405C300.256 301.305 300.415 301.182 300.556 301.04C300.72 300.876 300.86 300.689 300.973 300.486C301.083 300.292 301.16 300.081 301.201 299.861C301.24 299.654 301.236 299.441 301.19 299.235C301.15 299.065 301.07 298.906 300.957 298.771C300.844 298.637 300.702 298.53 300.541 298.46C300.414 298.404 300.276 298.374 300.137 298.371C299.996 298.369 299.856 298.393 299.723 298.442C299.581 298.497 299.453 298.583 299.347 298.693L298.459 299.581C298.341 299.696 298.251 299.838 298.197 299.994C298.145 300.142 298.121 300.298 298.125 300.455C298.129 300.608 298.162 300.759 298.221 300.9C298.276 301.035 298.356 301.158 298.456 301.262L298.458 301.263Z" fill="#261C5C"/>
        <path d="M303.474 305.759C303.434 305.799 303.398 305.844 303.368 305.892C303.334 305.943 303.309 305.998 303.293 306.056C303.277 306.11 303.268 306.165 303.265 306.221C303.264 306.245 303.268 306.27 303.277 306.293C303.286 306.316 303.299 306.337 303.317 306.354L303.249 306.422L302.366 305.539L302.434 305.471C302.451 305.487 302.472 305.499 302.494 305.508C302.516 305.516 302.54 305.52 302.563 305.519C302.62 305.518 302.677 305.51 302.731 305.495C302.79 305.478 302.845 305.453 302.896 305.42C302.943 305.389 302.988 305.354 303.029 305.314L304.3 304.043C304.449 303.899 304.572 303.73 304.662 303.544C304.736 303.39 304.777 303.222 304.784 303.051C304.79 302.899 304.762 302.747 304.702 302.607C304.589 302.338 304.375 302.124 304.106 302.011C303.973 301.953 303.831 301.919 303.686 301.911C303.538 301.905 303.39 301.928 303.25 301.977C303.1 302.03 302.965 302.116 302.854 302.23L301.399 303.684C301.36 303.725 301.324 303.77 301.293 303.818C301.26 303.868 301.235 303.924 301.218 303.982C301.203 304.035 301.194 304.091 301.191 304.146C301.189 304.171 301.193 304.195 301.202 304.218C301.211 304.241 301.225 304.262 301.242 304.279L301.174 304.348L300.284 303.458L300.352 303.389C300.37 303.406 300.39 303.418 300.412 303.427C300.435 303.435 300.459 303.439 300.482 303.438C300.539 303.437 300.595 303.429 300.65 303.413C300.708 303.397 300.764 303.372 300.814 303.338C300.862 303.308 300.907 303.272 300.948 303.233L304.437 299.743C304.512 299.669 304.574 299.584 304.621 299.49C304.667 299.399 304.637 299.297 304.532 299.182L304.601 299.113L305.497 299.586L303.523 301.561C303.604 301.557 303.686 301.559 303.768 301.566C303.872 301.574 303.974 301.592 304.074 301.622C304.193 301.659 304.307 301.71 304.413 301.774C304.548 301.856 304.673 301.955 304.782 302.068C304.976 302.251 305.126 302.476 305.221 302.725C305.296 302.934 305.326 303.157 305.307 303.379C305.288 303.585 305.23 303.786 305.134 303.97C305.044 304.143 304.928 304.301 304.79 304.44L303.474 305.759Z" fill="#261C5C"/>
        <path d="M305.725 308.901L306.074 308.552L306.005 308.552C305.779 308.552 305.555 308.509 305.345 308.425C304.929 308.232 304.584 307.915 304.356 307.518C304.283 307.384 304.24 307.236 304.229 307.084C304.221 306.95 304.244 306.817 304.297 306.694C304.349 306.573 304.425 306.462 304.519 306.369C304.662 306.22 304.85 306.121 305.054 306.085C305.281 306.053 305.513 306.071 305.733 306.138C306.022 306.221 306.303 306.334 306.569 306.473C306.875 306.628 307.213 306.818 307.582 307.042C307.73 306.89 307.84 306.704 307.903 306.501C307.947 306.345 307.957 306.181 307.933 306.02C307.911 305.878 307.861 305.743 307.784 305.621C307.722 305.521 307.65 305.428 307.569 305.343C307.464 305.233 307.338 305.145 307.199 305.084C307.081 305.033 306.956 305.002 306.827 304.991C306.71 304.982 306.591 304.987 306.475 305.008C306.374 305.026 306.275 305.052 306.178 305.086L306.115 305.023L306.616 304.522C306.657 304.554 306.703 304.577 306.753 304.591C306.812 304.611 306.869 304.635 306.924 304.663C307.02 304.704 307.153 304.758 307.325 304.824C307.543 304.925 307.74 305.068 307.902 305.245C308.117 305.446 308.292 305.685 308.417 305.951C308.504 306.142 308.541 306.351 308.526 306.56C308.505 306.749 308.44 306.929 308.335 307.087C308.226 307.25 308.101 307.402 307.963 307.54L306.611 308.893C306.521 308.982 306.455 309.091 306.417 309.212C306.397 309.258 306.39 309.31 306.398 309.36C306.406 309.411 306.428 309.458 306.462 309.496L306.394 309.564L305.725 308.901ZM306.375 308.252L307.351 307.275L307.268 307.221C307.132 307.138 306.963 307.04 306.759 306.929C306.559 306.819 306.35 306.728 306.133 306.658C305.932 306.592 305.722 306.557 305.51 306.555C305.418 306.552 305.326 306.568 305.24 306.602C305.155 306.636 305.077 306.687 305.012 306.753C304.941 306.822 304.887 306.907 304.855 307C304.823 307.094 304.814 307.194 304.828 307.293C304.861 307.527 304.975 307.742 305.15 307.901C305.285 308.043 305.457 308.146 305.645 308.199C305.832 308.248 306.024 308.267 306.216 308.257L306.375 308.252Z" fill="#261C5C"/>
    </g>
    <rect x="177.5" y="20" width="222.739" height="222.739" transform="rotate(45 177.5 20)" stroke="#5C5B9F" stroke-opacity="0.2"/>
    <path d="M20.0234 20L273.023 273" stroke="#5C5B9F" stroke-opacity="0.2"/>
    <path d="M311.023 311L335.023 335" stroke="#5C5B9F" stroke-opacity="0.2"/>
    <path d="M335.023 20L20.0234 335" stroke="#5C5B9F" stroke-opacity="0.2"/>
    <defs>
        <filter id="filter0_dd_670_39286" x="0" y="0" width="355" height="362" filterUnits="userSpaceOnUse" color-interpolation-filters="sRGB">
            <feFlood flood-opacity="0" result="BackgroundImageFix"/>
            <feColorMatrix in="SourceAlpha" type="matrix" values="0 0 0 0 0 0 0 0 0 0 0 0 0 0 0 0 0 0 127 0" result="hardAlpha"/>
            <feGaussianBlur stdDeviation="10"/>
            <feColorMatrix type="matrix" values="0 0 0 0 0.215922 0 0 0 0 0.211765 0 0 0 0 0.419608 0 0 0 1 0"/>
            <feBlend mode="normal" in2="BackgroundImageFix" result="effect1_dropShadow_670_39286"/>
            <feColorMatrix in="SourceAlpha" type="matrix" values="0 0 0 0 0 0 0 0 0 0 0 0 0 0 0 0 0 0 127 0" result="hardAlpha"/>
            <feColorMatrix type="matrix" values="0 0 0 0 0.839216 0 0 0 0 0.847059 0 0 0 0 0.992157 0 0 0 1 0"/>
            <feBlend mode="normal" in2="effect1_dropShadow_670_39286" result="effect2_dropShadow_670_39286"/>
            <feBlend mode="normal" in="SourceGraphic" in2="effect2_dropShadow_670_39286" result="shape"/>
        </filter>
        <radialGradient id="paint0_radial_670_39286" cx="0" cy="0" r="1" gradientUnits="userSpaceOnUse" gradientTransform="translate(177.5 177.5) rotate(90) scale(157.5)">
            <stop offset="0.364583" stop-color="white"/>
            <stop offset="1" stop-color="#D6D7FD"/>
        </radialGradient>
    </defs>
</svg>
