<svg width="317" height="317" viewBox="0 0 317 317" fill="none" xmlns="http://www.w3.org/2000/svg">
    <rect x="1" y="1" width="315" height="315" fill="white"/>
    <g opacity="0.5">
        <circle cx="144.979" cy="177.208" r="6.92652" stroke="#261C5C" stroke-width="1"/>
        <rect x="138.269" y="180.238" width="3.67971" height="3.67971" rx="1.83986" fill="#F3F3F5" stroke="#261C5C"/>
    </g>
    <g opacity="0.5">
        <path d="M161.297 181.629H161.346C161.502 181.629 161.579 181.558 161.579 181.416C161.578 181.36 161.569 181.305 161.55 181.252L160.678 178.905H158.983L158.14 181.213C158.122 181.259 158.113 181.309 158.111 181.358C158.107 181.43 158.132 181.501 158.179 181.556C158.197 181.578 158.219 181.595 158.244 181.608C158.269 181.621 158.297 181.628 158.325 181.629H158.373V181.725H157.298V181.629H157.349C157.399 181.624 157.447 181.608 157.49 181.582C157.533 181.556 157.569 181.521 157.596 181.479C157.68 181.372 157.747 181.252 157.794 181.124L160.015 175.232L162.178 181.071C162.225 181.204 162.288 181.33 162.366 181.448C162.398 181.502 162.444 181.548 162.498 181.58C162.553 181.611 162.615 181.628 162.679 181.629H162.727V181.725H161.297V181.629ZM159.076 178.577H160.57L159.825 176.557L159.076 178.577Z" fill="#261C5C"/>
        <path d="M163.349 181.725V181.629C163.374 181.629 163.399 181.624 163.422 181.614C163.445 181.604 163.466 181.59 163.484 181.571C163.524 181.531 163.558 181.485 163.586 181.436C163.615 181.383 163.636 181.326 163.649 181.266C163.661 181.211 163.667 181.154 163.668 181.097V176.153C163.668 176.048 163.652 175.943 163.62 175.843C163.587 175.747 163.49 175.695 163.329 175.688V175.592L164.306 175.293V181.097C164.307 181.154 164.313 181.211 164.326 181.266C164.338 181.326 164.359 181.383 164.388 181.436C164.415 181.484 164.448 181.53 164.485 181.571C164.501 181.59 164.521 181.604 164.544 181.614C164.567 181.624 164.591 181.629 164.616 181.629V181.725H163.349Z" fill="#261C5C"/>
        <path d="M167.609 177.601C167.92 177.594 168.229 177.654 168.514 177.778C168.757 177.889 168.975 178.049 169.153 178.247C169.325 178.441 169.455 178.668 169.536 178.914C169.619 179.163 169.661 179.424 169.661 179.686C169.661 179.945 169.62 180.203 169.54 180.449C169.462 180.696 169.337 180.926 169.173 181.125C169.004 181.328 168.795 181.493 168.558 181.608C168.286 181.736 167.987 181.799 167.687 181.792C167.472 181.788 167.261 181.733 167.072 181.632C166.864 181.528 166.673 181.393 166.505 181.232V183.125C166.506 183.182 166.512 183.238 166.525 183.294C166.536 183.353 166.557 183.411 166.587 183.464C166.614 183.513 166.646 183.558 166.684 183.6C166.7 183.618 166.72 183.633 166.743 183.643C166.765 183.653 166.79 183.658 166.814 183.657V183.754H165.557V183.657C165.58 183.656 165.604 183.651 165.625 183.641C165.647 183.631 165.666 183.617 165.682 183.6C165.723 183.559 165.759 183.514 165.788 183.464C165.817 183.411 165.838 183.354 165.851 183.295C165.863 183.239 165.869 183.182 165.869 183.125V178.236C165.869 178.178 165.869 178.121 165.869 178.066C165.867 178.017 165.856 177.968 165.836 177.922C165.816 177.879 165.785 177.843 165.747 177.816C165.693 177.783 165.632 177.764 165.569 177.763V177.669H166.518V178.094C166.645 177.94 166.806 177.816 166.988 177.732C167.183 177.643 167.395 177.599 167.609 177.601V177.601ZM167.698 181.465C167.905 181.463 168.107 181.409 168.288 181.31C168.453 181.216 168.595 181.088 168.705 180.933C168.815 180.777 168.897 180.602 168.947 180.417C168.999 180.223 169.025 180.023 169.024 179.823C169.024 179.591 168.991 179.36 168.928 179.137C168.868 178.922 168.773 178.718 168.647 178.533C168.528 178.36 168.375 178.211 168.196 178.098C168.047 178.007 167.878 177.951 167.703 177.936C167.529 177.92 167.353 177.946 167.189 178.01C167.059 178.06 166.941 178.136 166.841 178.232C166.739 178.33 166.657 178.447 166.599 178.575C166.537 178.714 166.506 178.866 166.51 179.018V180.274C166.508 180.439 166.544 180.603 166.616 180.751C166.684 180.893 166.778 181.021 166.892 181.129C167.003 181.234 167.133 181.317 167.274 181.375C167.408 181.432 167.551 181.462 167.696 181.465H167.698Z" fill="#261C5C"/>
        <path d="M174.424 181.096C174.425 181.153 174.431 181.21 174.444 181.265C174.456 181.325 174.477 181.382 174.507 181.435C174.534 181.483 174.566 181.529 174.604 181.57C174.62 181.589 174.64 181.603 174.663 181.613C174.685 181.623 174.71 181.628 174.734 181.628V181.724H173.486V181.628C173.509 181.627 173.533 181.622 173.554 181.612C173.576 181.602 173.595 181.588 173.611 181.57C173.651 181.53 173.685 181.484 173.713 181.435C173.743 181.382 173.764 181.325 173.776 181.265C173.788 181.21 173.795 181.153 173.796 181.096V179.298C173.799 179.091 173.767 178.885 173.699 178.689C173.642 178.528 173.553 178.381 173.437 178.255C173.333 178.143 173.206 178.056 173.065 177.999C172.794 177.889 172.492 177.889 172.222 177.999C172.086 178.052 171.962 178.129 171.854 178.226C171.745 178.326 171.656 178.447 171.593 178.58C171.524 178.724 171.489 178.881 171.491 179.039V181.096C171.491 181.153 171.498 181.21 171.51 181.265C171.522 181.325 171.544 181.382 171.573 181.435C171.6 181.483 171.633 181.529 171.67 181.57C171.686 181.589 171.707 181.603 171.729 181.613C171.752 181.623 171.776 181.628 171.801 181.628V181.724H170.542V181.628C170.566 181.627 170.589 181.622 170.611 181.612C170.633 181.602 170.652 181.588 170.668 181.57C170.708 181.53 170.742 181.484 170.769 181.435C170.799 181.382 170.821 181.325 170.832 181.265C170.845 181.21 170.852 181.153 170.852 181.096V176.161C170.853 176.056 170.836 175.952 170.803 175.852C170.771 175.755 170.678 175.704 170.522 175.697V175.6L171.491 175.301V178.093C171.546 178.032 171.605 177.976 171.668 177.924C171.747 177.856 171.833 177.796 171.924 177.747C172.034 177.689 172.151 177.645 172.271 177.614C172.425 177.577 172.582 177.559 172.74 177.561C173.007 177.554 173.272 177.606 173.515 177.716C173.716 177.81 173.895 177.947 174.038 178.117C174.171 178.276 174.271 178.46 174.334 178.657C174.392 178.844 174.422 179.038 174.423 179.233L174.424 181.096Z" fill="#261C5C"/>
        <path d="M178.239 181.725V181.233L178.19 181.281C178.03 181.441 177.841 181.569 177.634 181.658C177.203 181.815 176.735 181.835 176.293 181.716C176.147 181.672 176.011 181.598 175.896 181.499C175.796 181.41 175.718 181.299 175.669 181.175C175.62 181.052 175.595 180.921 175.596 180.789C175.592 180.582 175.654 180.379 175.774 180.209C175.912 180.026 176.089 179.875 176.291 179.766C176.555 179.621 176.832 179.502 177.119 179.412C177.445 179.305 177.818 179.201 178.238 179.098C178.235 178.886 178.181 178.677 178.082 178.489C178.003 178.347 177.894 178.224 177.763 178.128C177.648 178.043 177.516 177.982 177.376 177.95C177.261 177.924 177.144 177.909 177.027 177.906C176.875 177.903 176.724 177.929 176.583 177.984C176.463 178.032 176.352 178.099 176.254 178.182C176.164 178.258 176.084 178.345 176.017 178.442C175.958 178.526 175.906 178.615 175.861 178.708H175.773V177.999C175.824 177.993 175.873 177.977 175.918 177.951C175.974 177.924 176.032 177.9 176.091 177.881C176.187 177.842 176.32 177.787 176.488 177.712C176.713 177.629 176.953 177.591 177.194 177.601C177.487 177.591 177.78 177.637 178.056 177.736C178.253 177.809 178.428 177.931 178.564 178.09C178.683 178.238 178.764 178.412 178.802 178.597C178.84 178.79 178.859 178.985 178.859 179.181V181.094C178.859 181.22 178.89 181.344 178.948 181.456C178.967 181.504 178.998 181.545 179.04 181.575C179.081 181.605 179.13 181.622 179.181 181.625V181.722L178.239 181.725ZM178.239 180.807V179.427L178.142 179.446C177.987 179.484 177.799 179.535 177.576 179.6C177.357 179.663 177.144 179.747 176.942 179.851C176.753 179.947 176.579 180.071 176.428 180.219C176.361 180.282 176.307 180.358 176.271 180.443C176.234 180.527 176.216 180.619 176.216 180.711C176.214 180.81 176.236 180.908 176.28 180.997C176.324 181.086 176.388 181.163 176.467 181.223C176.656 181.365 176.889 181.437 177.125 181.426C177.322 181.43 177.516 181.382 177.687 181.286C177.853 181.188 178.002 181.066 178.131 180.923L178.239 180.807Z" fill="#261C5C"/>
    </g>
    <rect x="158" y="80" width="79" height="0.999992" transform="rotate(-90 158 80)" fill="#5C5B9F" fill-opacity="0.2"/>
    <rect x="158" y="316" width="79" height="0.999992" transform="rotate(-90 158 316)" fill="#5C5B9F" fill-opacity="0.2"/>
    <rect x="237" y="316" width="315" height="0.999967" transform="rotate(-90 237 316)" fill="#5C5B9F" fill-opacity="0.2"/>
    <rect x="1" y="79" width="315" height="0.999953" fill="#5C5B9F" fill-opacity="0.2"/>
    <rect x="1" y="158" width="79" height="0.999988" fill="#5C5B9F" fill-opacity="0.2"/>
    <rect x="1" y="158" width="79" height="0.999988" fill="white"/>
    <rect x="237" y="158" width="79" height="0.999988" fill="#5C5B9F" fill-opacity="0.2"/>
    <rect x="1" y="237" width="79" height="0.999988" fill="white"/>
    <rect x="79" y="237" width="79" height="0.999988" transform="rotate(-90 79 237)" fill="white"/>
    <rect x="1" y="237" width="315" height="0.999953" fill="#5C5B9F" fill-opacity="0.2"/>
    <rect y="158" width="79" height="0.999988" fill="#5C5B9F" fill-opacity="0.2"/>
    <rect x="79" y="316" width="315" height="0.999967" transform="rotate(-90 79 316)" fill="#5C5B9F" fill-opacity="0.2"/>
    <rect y="312.148" width="308.149" height="1" transform="rotate(-90 0 312.148)" fill="#5C5B9F" fill-opacity="0.2"/>
    <rect x="316" y="312.148" width="308.149" height="1" transform="rotate(-90 316 312.148)" fill="#5C5B9F" fill-opacity="0.2"/>
    <rect x="3.85156" width="308.149" height="1" fill="#5C5B9F" fill-opacity="0.2"/>
    <rect x="3.85156" y="316" width="308.149" height="1" fill="#5C5B9F" fill-opacity="0.2"/>
</svg>
