<svg width="22" height="21" viewBox="0 0 22 21" fill="none" xmlns="http://www.w3.org/2000/svg">
    <rect x="2" y="3.224" width="18" height="16.2759" rx="2" stroke="#C3C9CD" stroke-width="2"/>
    <mask id="path-2-inside-1_1458_35767" fill="white">
        <rect x="4.33301" y="13.8334" width="3.33333" height="3.33333" rx="1"/>
    </mask>
    <rect x="4.33301" y="13.8334" width="3.33333" height="3.33333" rx="1" fill="#C3C9CD" stroke="#C3C9CD" stroke-width="3.33333" mask="url(#path-2-inside-1_1458_35767)"/>
    <mask id="path-3-inside-2_1458_35767" fill="white">
        <rect x="9.33301" y="13.8334" width="3.33333" height="3.33333" rx="1"/>
    </mask>
    <rect x="9.33301" y="13.8334" width="3.33333" height="3.33333" rx="1" fill="#C3C9CD" stroke="#C3C9CD" stroke-width="3.33333" mask="url(#path-3-inside-2_1458_35767)"/>
    <mask id="path-4-inside-3_1458_35767" fill="white">
        <rect x="14.333" y="13.8334" width="3.33333" height="3.33333" rx="1"/>
    </mask>
    <rect x="14.333" y="13.8334" width="3.33333" height="3.33333" rx="1" fill="#C3C9CD" stroke="#C3C9CD" stroke-width="3.33333" mask="url(#path-4-inside-3_1458_35767)"/>
    <mask id="path-5-inside-4_1458_35767" fill="white">
        <rect x="4.33301" y="9.66675" width="3.33333" height="3.33333" rx="1"/>
    </mask>
    <rect x="4.33301" y="9.66675" width="3.33333" height="3.33333" rx="1" fill="#C3C9CD" stroke="#C3C9CD" stroke-width="3.33333" mask="url(#path-5-inside-4_1458_35767)"/>
    <mask id="path-6-inside-5_1458_35767" fill="white">
        <rect x="9.33301" y="9.66675" width="3.33333" height="3.33333" rx="1"/>
    </mask>
    <rect x="9.33301" y="9.66675" width="3.33333" height="3.33333" rx="1" fill="#C3C9CD" stroke="#C3C9CD" stroke-width="3.33333" mask="url(#path-6-inside-5_1458_35767)"/>
    <mask id="path-7-inside-6_1458_35767" fill="white">
        <rect x="14.333" y="9.66675" width="3.33333" height="3.33333" rx="1"/>
    </mask>
    <rect x="14.333" y="9.66675" width="3.33333" height="3.33333" rx="1" fill="#C3C9CD" stroke="#C3C9CD" stroke-width="3.33333" mask="url(#path-7-inside-6_1458_35767)"/>
    <path d="M1.83301 6.16675C1.28072 6.16675 0.833008 6.61446 0.833008 7.16675C0.833008 7.71903 1.28072 8.16675 1.83301 8.16675L1.83301 6.16675ZM20.1663 8.16675C20.7186 8.16675 21.1663 7.71903 21.1663 7.16675C21.1663 6.61447 20.7186 6.16675 20.1663 6.16675L20.1663 8.16675ZM1.83301 8.16675L20.1663 8.16675L20.1663 6.16675L1.83301 6.16675L1.83301 8.16675Z" fill="#C3C9CD"/>
    <path d="M4.1382 3.05751C4.1382 3.6098 4.58592 4.05751 5.1382 4.05751C5.69049 4.05751 6.1382 3.6098 6.1382 3.05751H4.1382ZM4.41406 3.67328V2.19544H2.41406V3.67328H4.41406ZM4.1382 2.19544V3.05751H6.1382V2.19544H4.1382ZM2.41406 3.67328C2.41406 4.8377 3.35801 5.78165 4.52244 5.78165V3.78165C4.46258 3.78165 4.41406 3.73313 4.41406 3.67328H2.41406ZM4.27613 2.33337C4.19995 2.33337 4.1382 2.27162 4.1382 2.19544H6.1382C6.1382 1.16705 5.30452 0.333374 4.27613 0.333374V2.33337ZM4.27613 0.333374C3.24774 0.333374 2.41406 1.16705 2.41406 2.19544H4.41406C4.41406 2.27162 4.35231 2.33337 4.27613 2.33337V0.333374Z" fill="#C3C9CD"/>
    <path d="M8.62062 3.05751C8.62062 3.6098 9.06834 4.05751 9.62062 4.05751C10.1729 4.05751 10.6206 3.6098 10.6206 3.05751H8.62062ZM8.89648 3.67328V2.19544H6.89648V3.67328H8.89648ZM8.62062 2.19544V3.05751H10.6206V2.19544H8.62062ZM6.89648 3.67328C6.89648 4.8377 7.84044 5.78165 9.00486 5.78165V3.78165C8.945 3.78165 8.89648 3.73313 8.89648 3.67328H6.89648ZM8.75855 2.33337C8.68238 2.33337 8.62062 2.27162 8.62062 2.19544H10.6206C10.6206 1.16705 9.78694 0.333374 8.75855 0.333374V2.33337ZM8.75855 0.333374C7.73016 0.333374 6.89648 1.16705 6.89648 2.19544H8.89648C8.89648 2.27162 8.83473 2.33337 8.75855 2.33337V0.333374Z" fill="#C3C9CD"/>
    <path d="M13.103 3.05751C13.103 3.6098 13.5508 4.05751 14.103 4.05751C14.6553 4.05751 15.103 3.6098 15.103 3.05751H13.103ZM13.3789 3.67327V2.19544H11.3789V3.67327H13.3789ZM13.103 2.19544V3.05751H15.103V2.19544H13.103ZM11.3789 3.67327C11.3789 4.8377 12.3229 5.78165 13.4873 5.78165V3.78165C13.4274 3.78165 13.3789 3.73313 13.3789 3.67327H11.3789ZM13.241 2.33337C13.1648 2.33337 13.103 2.27162 13.103 2.19544H15.103C15.103 1.16705 14.2694 0.333374 13.241 0.333374V2.33337ZM13.241 0.333374C12.2126 0.333374 11.3789 1.16705 11.3789 2.19544H13.3789C13.3789 2.27162 13.3172 2.33337 13.241 2.33337V0.333374Z" fill="#C3C9CD"/>
    <path d="M17.5864 3.05751C17.5864 3.6098 18.0342 4.05751 18.5864 4.05751C19.1387 4.05751 19.5864 3.6098 19.5864 3.05751H17.5864ZM17.8623 3.67327V2.19544H15.8623V3.67327H17.8623ZM17.5864 2.19544V3.05751H19.5864V2.19544H17.5864ZM15.8623 3.67327C15.8623 4.8377 16.8063 5.78165 17.9707 5.78165V3.78165C17.9108 3.78165 17.8623 3.73313 17.8623 3.67327H15.8623ZM17.7244 2.33337C17.6482 2.33337 17.5864 2.27162 17.5864 2.19544H19.5864C19.5864 1.16705 18.7528 0.333374 17.7244 0.333374V2.33337ZM17.7244 0.333374C16.696 0.333374 15.8623 1.16705 15.8623 2.19544H17.8623C17.8623 2.27162 17.8006 2.33337 17.7244 2.33337V0.333374Z" fill="#C3C9CD"/>
</svg>
