<svg width="355" height="362" viewBox="22 20 310 320" fill="none" xmlns="http://www.w3.org/2000/svg">
    <g filter="url(#filter0_dd_670_39286)">
        <rect x="20" y="20" width="315" height="315" rx="10" fill="url(#paint0_radial_670_39286)"/>
        <rect x="20" y="20" width="315" height="315" rx="10" fill="white"/>
    </g>
    <g opacity="0.5">
        <path d="M284.871 279.385C280.152 279.385 276.297 276.784 276.038 273.507C276.029 273.624 276.023 273.74 276.023 273.857C276.023 277.297 279.985 280.086 284.871 280.086C289.757 280.086 293.718 277.297 293.718 273.857C293.718 273.74 293.713 273.624 293.704 273.507C293.445 276.784 289.589 279.385 284.871 279.385Z" fill="#261C5C"/>
        <path d="M281.313 278.846C282.363 278.137 283.602 277.757 284.87 277.757C286.138 277.757 287.377 278.137 288.427 278.846C288.634 278.782 288.836 278.713 289.034 278.638C287.838 277.727 286.375 277.233 284.87 277.233C283.365 277.233 281.902 277.727 280.705 278.638C280.903 278.713 281.106 278.782 281.313 278.846Z" fill="#261C5C"/>
        <path d="M293.345 272L293.98 272.98L295.005 272.417L294.472 273.456L295.473 274.06L294.305 274.119L294.282 275.286L293.646 274.305L292.621 274.869L293.154 273.83L292.152 273.226L293.321 273.167L293.345 272Z" fill="#261C5C"/>
        <path d="M280.269 290.543C279.93 290.543 279.6 290.444 279.318 290.256C279.037 290.069 278.817 289.803 278.687 289.491C278.558 289.179 278.523 288.836 278.589 288.505C278.655 288.174 278.818 287.869 279.057 287.631C279.296 287.392 279.601 287.229 279.933 287.163C280.265 287.097 280.609 287.131 280.921 287.26C281.234 287.389 281.501 287.608 281.689 287.888C281.877 288.169 281.978 288.499 281.978 288.837C281.977 289.289 281.797 289.722 281.477 290.042C281.156 290.362 280.722 290.542 280.269 290.543V290.543ZM280.269 287.48C280 287.479 279.737 287.559 279.513 287.707C279.289 287.856 279.114 288.068 279.011 288.316C278.908 288.564 278.88 288.837 278.933 289.1C278.985 289.364 279.114 289.606 279.305 289.796C279.495 289.986 279.737 290.115 280.001 290.168C280.265 290.22 280.539 290.193 280.787 290.091C281.036 289.988 281.248 289.814 281.398 289.591C281.548 289.368 281.627 289.105 281.627 288.837C281.627 288.477 281.484 288.133 281.229 287.878C280.974 287.624 280.629 287.48 280.269 287.48Z" fill="#261C5C"/>
        <path d="M279.514 287.502C278.758 286.322 278.417 284.924 278.543 283.53C278.669 282.135 279.255 280.821 280.209 279.794C280.04 279.72 279.875 279.642 279.713 279.561C278.719 280.684 278.12 282.101 278.011 283.596C277.901 285.091 278.285 286.58 279.105 287.836C279.221 287.702 279.36 287.589 279.514 287.502V287.502Z" fill="#261C5C"/>
        <path d="M290.029 279.56C289.868 279.643 289.703 279.72 289.533 279.793C290.573 280.911 291.174 282.365 291.226 283.888C291.278 285.412 290.778 286.904 289.817 288.089C288.856 289.275 287.498 290.075 285.994 290.342C284.489 290.61 282.938 290.327 281.625 289.546C281.543 289.703 281.434 289.845 281.303 289.965C282.708 290.819 284.375 291.141 285.998 290.873C287.622 290.606 289.096 289.766 290.152 288.507C291.208 287.248 291.776 285.653 291.754 284.011C291.731 282.369 291.119 280.79 290.029 279.56V279.56Z" fill="#261C5C"/>
        <path d="M293.815 296.852L293.85 296.887C293.96 296.997 294.064 297.002 294.165 296.902C294.204 296.862 294.236 296.815 294.26 296.765L295.304 294.489L294.105 293.29L291.876 294.326C291.831 294.346 291.789 294.374 291.753 294.409C291.699 294.457 291.666 294.524 291.661 294.596C291.658 294.624 291.662 294.652 291.67 294.679C291.679 294.706 291.694 294.73 291.713 294.751L291.747 294.785L291.679 294.853L290.919 294.093L290.987 294.025L291.023 294.061C291.062 294.093 291.107 294.116 291.156 294.128C291.204 294.139 291.255 294.14 291.304 294.13C291.439 294.114 291.571 294.076 291.695 294.019L297.431 291.423L294.832 297.081C294.771 297.208 294.726 297.342 294.699 297.481C294.683 297.542 294.683 297.606 294.699 297.667C294.715 297.729 294.747 297.784 294.792 297.83L294.826 297.863L294.758 297.932L293.746 296.921L293.815 296.852ZM294.402 293.124L295.459 294.18L296.36 292.225L294.402 293.124Z" fill="#261C5C"/>
        <path d="M295.198 298.372L295.266 298.303C295.284 298.321 295.305 298.335 295.329 298.345C295.352 298.354 295.377 298.359 295.402 298.358C295.459 298.358 295.516 298.35 295.57 298.334C295.629 298.318 295.684 298.292 295.735 298.259C295.782 298.228 295.827 298.193 295.868 298.153L299.364 294.656C299.439 294.583 299.501 294.498 299.549 294.404C299.594 294.312 299.562 294.208 299.453 294.089L299.521 294.021L300.423 294.5L296.319 298.604C296.279 298.645 296.244 298.69 296.213 298.738C296.18 298.788 296.154 298.844 296.138 298.902C296.122 298.955 296.113 299.01 296.11 299.066C296.109 299.091 296.113 299.115 296.122 299.138C296.131 299.162 296.145 299.182 296.162 299.2L296.094 299.268L295.198 298.372Z" fill="#261C5C"/>
        <path d="M301.127 298.468C301.352 298.683 301.528 298.944 301.642 299.234C301.735 299.484 301.776 299.75 301.762 300.017C301.746 300.275 301.678 300.528 301.561 300.759C301.444 300.994 301.289 301.208 301.103 301.394C300.92 301.577 300.709 301.73 300.478 301.848C300.249 301.967 299.998 302.041 299.74 302.066C299.478 302.09 299.213 302.058 298.964 301.973C298.681 301.871 298.426 301.704 298.218 301.486C298.069 301.332 297.959 301.144 297.896 300.939C297.823 300.718 297.783 300.487 297.779 300.255L296.441 301.593C296.401 301.634 296.365 301.679 296.335 301.727C296.301 301.777 296.275 301.833 296.258 301.891C296.243 301.945 296.234 302 296.231 302.055C296.229 302.08 296.233 302.105 296.242 302.128C296.251 302.151 296.265 302.171 296.283 302.188L296.214 302.257L295.325 301.367L295.393 301.299C295.41 301.315 295.431 301.328 295.453 301.336C295.475 301.344 295.499 301.348 295.522 301.347C295.58 301.348 295.637 301.341 295.693 301.326C295.751 301.309 295.807 301.284 295.857 301.251C295.905 301.22 295.95 301.184 295.99 301.144L299.448 297.687C299.488 297.646 299.529 297.606 299.567 297.567C299.601 297.53 299.628 297.487 299.646 297.441C299.662 297.397 299.666 297.349 299.658 297.303C299.643 297.242 299.613 297.186 299.57 297.14L299.636 297.073L300.307 297.744L300.007 298.045C300.206 298.026 300.407 298.052 300.595 298.121C300.795 298.197 300.977 298.315 301.127 298.468V298.468ZM298.458 301.263C298.605 301.408 298.786 301.513 298.984 301.571C299.167 301.621 299.359 301.631 299.545 301.599C299.734 301.566 299.916 301.501 300.082 301.405C300.256 301.305 300.415 301.182 300.556 301.04C300.72 300.876 300.86 300.689 300.973 300.486C301.083 300.292 301.16 300.081 301.201 299.861C301.24 299.654 301.236 299.441 301.19 299.235C301.15 299.065 301.07 298.906 300.957 298.771C300.844 298.637 300.702 298.53 300.541 298.46C300.414 298.404 300.276 298.374 300.137 298.371C299.996 298.369 299.856 298.393 299.723 298.442C299.581 298.497 299.453 298.583 299.347 298.693L298.459 299.581C298.341 299.696 298.251 299.838 298.197 299.994C298.145 300.142 298.121 300.298 298.125 300.455C298.129 300.608 298.162 300.759 298.221 300.9C298.276 301.035 298.356 301.158 298.456 301.262L298.458 301.263Z" fill="#261C5C"/>
        <path d="M303.474 305.759C303.434 305.799 303.398 305.844 303.368 305.892C303.334 305.943 303.309 305.998 303.293 306.056C303.277 306.11 303.268 306.165 303.265 306.221C303.264 306.245 303.268 306.27 303.277 306.293C303.286 306.316 303.299 306.337 303.317 306.354L303.249 306.422L302.366 305.539L302.434 305.471C302.451 305.487 302.472 305.499 302.494 305.508C302.516 305.516 302.54 305.52 302.563 305.519C302.62 305.518 302.677 305.51 302.731 305.495C302.79 305.478 302.845 305.453 302.896 305.42C302.943 305.389 302.988 305.354 303.029 305.314L304.3 304.043C304.449 303.899 304.572 303.73 304.662 303.544C304.736 303.39 304.777 303.222 304.784 303.051C304.79 302.899 304.762 302.747 304.702 302.607C304.589 302.338 304.375 302.124 304.106 302.011C303.973 301.953 303.831 301.919 303.686 301.911C303.538 301.905 303.39 301.928 303.25 301.977C303.1 302.03 302.965 302.116 302.854 302.23L301.399 303.684C301.36 303.725 301.324 303.77 301.293 303.818C301.26 303.868 301.235 303.924 301.218 303.982C301.203 304.035 301.194 304.091 301.191 304.146C301.189 304.171 301.193 304.195 301.202 304.218C301.211 304.241 301.225 304.262 301.242 304.279L301.174 304.348L300.284 303.458L300.352 303.389C300.37 303.406 300.39 303.418 300.412 303.427C300.435 303.435 300.459 303.439 300.482 303.438C300.539 303.437 300.595 303.429 300.65 303.413C300.708 303.397 300.764 303.372 300.814 303.338C300.862 303.308 300.907 303.272 300.948 303.233L304.437 299.743C304.512 299.669 304.574 299.584 304.621 299.49C304.667 299.399 304.637 299.297 304.532 299.182L304.601 299.113L305.497 299.586L303.523 301.561C303.604 301.557 303.686 301.559 303.768 301.566C303.872 301.574 303.974 301.592 304.074 301.622C304.193 301.659 304.307 301.71 304.413 301.774C304.548 301.856 304.673 301.955 304.782 302.068C304.976 302.251 305.126 302.476 305.221 302.725C305.296 302.934 305.326 303.157 305.307 303.379C305.288 303.585 305.23 303.786 305.134 303.97C305.044 304.143 304.928 304.301 304.79 304.44L303.474 305.759Z" fill="#261C5C"/>
        <path d="M305.725 308.901L306.074 308.552L306.005 308.552C305.779 308.552 305.555 308.509 305.345 308.425C304.929 308.232 304.584 307.915 304.356 307.518C304.283 307.384 304.24 307.236 304.229 307.084C304.221 306.95 304.244 306.817 304.297 306.694C304.349 306.573 304.425 306.462 304.519 306.369C304.662 306.22 304.85 306.121 305.054 306.085C305.281 306.053 305.513 306.071 305.733 306.138C306.022 306.221 306.303 306.334 306.569 306.473C306.875 306.628 307.213 306.818 307.582 307.042C307.73 306.89 307.84 306.704 307.903 306.501C307.947 306.345 307.957 306.181 307.933 306.02C307.911 305.878 307.861 305.743 307.784 305.621C307.722 305.521 307.65 305.428 307.569 305.343C307.464 305.233 307.338 305.145 307.199 305.084C307.081 305.033 306.956 305.002 306.827 304.991C306.71 304.982 306.591 304.987 306.475 305.008C306.374 305.026 306.275 305.052 306.178 305.086L306.115 305.023L306.616 304.522C306.657 304.554 306.703 304.577 306.753 304.591C306.812 304.611 306.869 304.635 306.924 304.663C307.02 304.704 307.153 304.758 307.325 304.824C307.543 304.925 307.74 305.068 307.902 305.245C308.117 305.446 308.292 305.685 308.417 305.951C308.504 306.142 308.541 306.351 308.526 306.56C308.505 306.749 308.44 306.929 308.335 307.087C308.226 307.25 308.101 307.402 307.963 307.54L306.611 308.893C306.521 308.982 306.455 309.091 306.417 309.212C306.397 309.258 306.39 309.31 306.398 309.36C306.406 309.411 306.428 309.458 306.462 309.496L306.394 309.564L305.725 308.901ZM306.375 308.252L307.351 307.275L307.268 307.221C307.132 307.138 306.963 307.04 306.759 306.929C306.559 306.819 306.35 306.728 306.133 306.658C305.932 306.592 305.722 306.557 305.51 306.555C305.418 306.552 305.326 306.568 305.24 306.602C305.155 306.636 305.077 306.687 305.012 306.753C304.941 306.822 304.887 306.907 304.855 307C304.823 307.094 304.814 307.194 304.828 307.293C304.861 307.527 304.975 307.742 305.15 307.901C305.285 308.043 305.457 308.146 305.645 308.199C305.832 308.248 306.024 308.267 306.216 308.257L306.375 308.252Z" fill="#261C5C"/>
    </g>
    <rect x="177.5" y="20" width="222.739" height="222.739" transform="rotate(45 177.5 20)" stroke="#5C5B9F" stroke-opacity="0.2"/>
    <path d="M20.0234 20L273.023 273" stroke="#5C5B9F" stroke-opacity="0.2"/>
    <path d="M311.023 311L335.023 335" stroke="#5C5B9F" stroke-opacity="0.2"/>
    <path d="M335.023 20L20.0234 335" stroke="#5C5B9F" stroke-opacity="0.2"/>
    <path d="M176.787 76.108L173.905 79.848C174.975 80.156 175.826 80.6987 176.457 81.476C177.102 82.2533 177.425 83.1773 177.425 84.248C177.425 85.832 176.889 87.0713 175.819 87.966C174.777 88.8607 173.479 89.308 171.925 89.308C170.707 89.308 169.629 89.0293 168.691 88.472C167.752 87.9 167.07 87.0933 166.645 86.052L169.241 84.556C169.607 85.744 170.502 86.338 171.925 86.338C172.702 86.338 173.303 86.1547 173.729 85.788C174.169 85.4067 174.389 84.8933 174.389 84.248C174.389 83.6173 174.169 83.1113 173.729 82.73C173.303 82.3487 172.702 82.158 171.925 82.158H171.265L170.099 80.398L173.135 76.438H167.107V73.6H176.787V76.108ZM177.596 75.03L181.644 73.6H184.284V89H181.248V76.812L178.344 77.626L177.596 75.03Z" fill="#37366B"/>
    <path d="M171.393 131.504V128.6H181.337V131.174L176.123 144H172.911L177.971 131.504H171.393Z" fill="#17BB6D"/>
    <path d="M309.992 103.566H311.642V106.382H309.992V109H306.934V106.382H299.652V103.566L304.778 93.6H308.034L302.93 103.566H306.934V99.914H309.992V103.566ZM318.882 109.308C316.961 109.308 315.45 108.582 314.35 107.13C313.265 105.649 312.722 103.705 312.722 101.3C312.722 98.8947 313.265 96.9587 314.35 95.492C315.45 94.0253 316.961 93.292 318.882 93.292C320.833 93.292 322.343 94.0253 323.414 95.492C324.499 96.9587 325.042 98.8947 325.042 101.3C325.042 103.705 324.499 105.649 323.414 107.13C322.343 108.582 320.833 109.308 318.882 109.308ZM322.028 101.3C322.028 99.6573 321.757 98.4033 321.214 97.538C320.686 96.6727 319.909 96.24 318.882 96.24C317.855 96.24 317.078 96.6727 316.55 97.538C316.022 98.4033 315.758 99.6573 315.758 101.3C315.758 102.943 316.022 104.197 316.55 105.062C317.078 105.913 317.855 106.338 318.882 106.338C319.909 106.338 320.686 105.905 321.214 105.04C321.757 104.175 322.028 102.928 322.028 101.3Z" fill="#37366B"/>
    <path d="M42.3685 109H32.0725V106.734L37.3305 101.322C38.5038 100.075 39.0905 99.0487 39.0905 98.242C39.0905 97.6407 38.8998 97.1567 38.5185 96.79C38.1518 96.4233 37.6752 96.24 37.0885 96.24C35.9152 96.24 35.0572 96.8413 34.5145 98.044L31.9625 96.548C32.4318 95.5067 33.1138 94.7073 34.0085 94.15C34.9178 93.578 35.9298 93.292 37.0445 93.292C38.4378 93.292 39.6332 93.732 40.6305 94.612C41.6278 95.4773 42.1265 96.6507 42.1265 98.132C42.1265 99.7307 41.2832 101.373 39.5965 103.06L36.5825 106.074H42.3685V109ZM43.0223 96.504V93.6H52.9663V96.174L47.7523 109H44.5403L49.6003 96.504H43.0223Z" fill="#37366B"/>
    <path d="M176.953 265H166.657V262.734L171.915 257.322C173.089 256.075 173.675 255.049 173.675 254.242C173.675 253.641 173.485 253.157 173.103 252.79C172.737 252.423 172.26 252.24 171.673 252.24C170.5 252.24 169.642 252.841 169.099 254.044L166.547 252.548C167.017 251.507 167.699 250.707 168.593 250.15C169.503 249.578 170.515 249.292 171.629 249.292C173.023 249.292 174.218 249.732 175.215 250.612C176.213 251.477 176.711 252.651 176.711 254.132C176.711 255.731 175.868 257.373 174.181 259.06L171.167 262.074H176.953V265ZM177.671 251.03L181.719 249.6H184.359V265H181.323V252.812L178.419 253.626L177.671 251.03Z" fill="#37366B"/>
    <path d="M310.875 252.108L307.993 255.848C309.063 256.156 309.914 256.699 310.545 257.476C311.19 258.253 311.513 259.177 311.513 260.248C311.513 261.832 310.977 263.071 309.907 263.966C308.865 264.861 307.567 265.308 306.013 265.308C304.795 265.308 303.717 265.029 302.779 264.472C301.84 263.9 301.158 263.093 300.733 262.052L303.329 260.556C303.695 261.744 304.59 262.338 306.013 262.338C306.79 262.338 307.391 262.155 307.817 261.788C308.257 261.407 308.477 260.893 308.477 260.248C308.477 259.617 308.257 259.111 307.817 258.73C307.391 258.349 306.79 258.158 306.013 258.158H305.353L304.187 256.398L307.223 252.438H301.195V249.6H310.875V252.108ZM322.433 252.108L319.551 255.848C320.622 256.156 321.472 256.699 322.103 257.476C322.748 258.253 323.071 259.177 323.071 260.248C323.071 261.832 322.536 263.071 321.465 263.966C320.424 264.861 319.126 265.308 317.571 265.308C316.354 265.308 315.276 265.029 314.337 264.472C313.398 263.9 312.716 263.093 312.291 262.052L314.887 260.556C315.254 261.744 316.148 262.338 317.571 262.338C318.348 262.338 318.95 262.155 319.375 261.788C319.815 261.407 320.035 260.893 320.035 260.248C320.035 259.617 319.815 259.111 319.375 258.73C318.95 258.349 318.348 258.158 317.571 258.158H316.911L315.745 256.398L318.781 252.438H312.753V249.6H322.433V252.108Z" fill="#37366B"/>
    <path d="M41.1058 265H30.8098V262.734L36.0678 257.322C37.2412 256.075 37.8278 255.049 37.8278 254.242C37.8278 253.641 37.6372 253.157 37.2558 252.79C36.8892 252.423 36.4125 252.24 35.8258 252.24C34.6525 252.24 33.7945 252.841 33.2518 254.044L30.6998 252.548C31.1692 251.507 31.8512 250.707 32.7458 250.15C33.6552 249.578 34.6672 249.292 35.7818 249.292C37.1752 249.292 38.3705 249.732 39.3678 250.612C40.3652 251.477 40.8638 252.651 40.8638 254.132C40.8638 255.731 40.0205 257.373 38.3338 259.06L35.3198 262.074H41.1058V265ZM51.304 249.6L47.894 254.594C49.4927 254.638 50.7907 255.159 51.788 256.156C52.7854 257.153 53.284 258.415 53.284 259.94C53.284 261.509 52.7634 262.8 51.722 263.812C50.6807 264.809 49.3387 265.308 47.696 265.308C46.0534 265.308 44.7114 264.809 43.67 263.812C42.6434 262.829 42.13 261.539 42.13 259.94C42.13 258.781 42.4307 257.747 43.032 256.838L47.828 249.6H51.304ZM50.27 259.94C50.27 259.207 50.028 258.613 49.544 258.158C49.06 257.689 48.444 257.454 47.696 257.454C46.948 257.454 46.332 257.681 45.848 258.136C45.3787 258.591 45.144 259.192 45.144 259.94C45.144 260.688 45.3787 261.297 45.848 261.766C46.332 262.221 46.948 262.448 47.696 262.448C48.444 262.448 49.06 262.221 49.544 261.766C50.028 261.297 50.27 260.688 50.27 259.94Z" fill="#37366B"/>
    <path d="M254.16 55H243.864V52.734L249.122 47.322C250.295 46.0753 250.882 45.0487 250.882 44.242C250.882 43.6407 250.691 43.1567 250.31 42.79C249.943 42.4233 249.466 42.24 248.88 42.24C247.706 42.24 246.848 42.8413 246.306 44.044L243.754 42.548C244.223 41.5067 244.905 40.7073 245.8 40.15C246.709 39.578 247.721 39.292 248.836 39.292C250.229 39.292 251.424 39.732 252.422 40.612C253.419 41.4773 253.918 42.6507 253.918 44.132C253.918 45.7307 253.074 47.3733 251.388 49.06L248.374 52.074H254.16V55ZM259.254 45.21H260.838C262.334 45.21 263.58 45.6573 264.578 46.552C265.59 47.432 266.096 48.664 266.096 50.248C266.096 51.832 265.56 53.0713 264.49 53.966C263.448 54.8607 262.15 55.308 260.596 55.308C259.334 55.308 258.227 55.0293 257.274 54.472C256.335 53.9 255.653 53.0787 255.228 52.008L257.824 50.49C258.19 51.722 259.114 52.338 260.596 52.338C261.373 52.338 261.974 52.1547 262.4 51.788C262.84 51.4067 263.06 50.8933 263.06 50.248C263.06 49.6173 262.847 49.1113 262.422 48.73C261.996 48.3487 261.417 48.158 260.684 48.158H256.02L256.636 39.6H265.37V42.438H259.452L259.254 45.21Z" fill="#37366B"/>
    <path d="M253.875 173.108L250.993 176.848C252.063 177.156 252.914 177.699 253.545 178.476C254.19 179.253 254.513 180.177 254.513 181.248C254.513 182.832 253.977 184.071 252.907 184.966C251.865 185.861 250.567 186.308 249.013 186.308C247.795 186.308 246.717 186.029 245.779 185.472C244.84 184.9 244.158 184.093 243.733 183.052L246.329 181.556C246.695 182.744 247.59 183.338 249.013 183.338C249.79 183.338 250.391 183.155 250.817 182.788C251.257 182.407 251.477 181.893 251.477 181.248C251.477 180.617 251.257 180.111 250.817 179.73C250.391 179.349 249.79 179.158 249.013 179.158H248.353L247.187 177.398L250.223 173.438H244.195V170.6H253.875V173.108ZM265.433 173.108L262.551 176.848C263.622 177.156 264.472 177.699 265.103 178.476C265.748 179.253 266.071 180.177 266.071 181.248C266.071 182.832 265.536 184.071 264.465 184.966C263.424 185.861 262.126 186.308 260.571 186.308C259.354 186.308 258.276 186.029 257.337 185.472C256.398 184.9 255.716 184.093 255.291 183.052L257.887 181.556C258.254 182.744 259.148 183.338 260.571 183.338C261.348 183.338 261.95 183.155 262.375 182.788C262.815 182.407 263.035 181.893 263.035 181.248C263.035 180.617 262.815 180.111 262.375 179.73C261.95 179.349 261.348 179.158 260.571 179.158H259.911L258.745 177.398L261.781 173.438H255.753V170.6H265.433V173.108Z" fill="#37366B"/>
    <path d="M254.106 313H243.81V310.734L249.068 305.322C250.241 304.075 250.828 303.049 250.828 302.242C250.828 301.641 250.637 301.157 250.256 300.79C249.889 300.423 249.412 300.24 248.826 300.24C247.652 300.24 246.794 300.841 246.252 302.044L243.7 300.548C244.169 299.507 244.851 298.707 245.746 298.15C246.655 297.578 247.667 297.292 248.782 297.292C250.175 297.292 251.37 297.732 252.368 298.612C253.365 299.477 253.864 300.651 253.864 302.132C253.864 303.731 253.02 305.373 251.334 307.06L248.32 310.074H254.106V313ZM264.304 297.6L260.894 302.594C262.493 302.638 263.791 303.159 264.788 304.156C265.785 305.153 266.284 306.415 266.284 307.94C266.284 309.509 265.763 310.8 264.722 311.812C263.681 312.809 262.339 313.308 260.696 313.308C259.053 313.308 257.711 312.809 256.67 311.812C255.643 310.829 255.13 309.539 255.13 307.94C255.13 306.781 255.431 305.747 256.032 304.838L260.828 297.6H264.304ZM263.27 307.94C263.27 307.207 263.028 306.613 262.544 306.158C262.06 305.689 261.444 305.454 260.696 305.454C259.948 305.454 259.332 305.681 258.848 306.136C258.379 306.591 258.144 307.192 258.144 307.94C258.144 308.688 258.379 309.297 258.848 309.766C259.332 310.221 259.948 310.448 260.696 310.448C261.444 310.448 262.06 310.221 262.544 309.766C263.028 309.297 263.27 308.688 263.27 307.94Z" fill="#37366B"/>
    <path d="M84.408 41.03L88.456 39.6H91.096V55H88.06V42.812L85.156 43.626L84.408 41.03ZM104.334 44.638C104.334 45.826 104.026 46.8673 103.41 47.762H103.432L98.6358 55H95.1598L98.5918 49.984C96.9932 49.9693 95.6878 49.4633 94.6758 48.466C93.6785 47.4687 93.1798 46.1927 93.1798 44.638C93.1798 43.054 93.6932 41.7707 94.7198 40.788C95.7612 39.7907 97.1032 39.292 98.7458 39.292C100.388 39.292 101.73 39.7907 102.772 40.788C103.813 41.7853 104.334 43.0687 104.334 44.638ZM96.1938 44.638C96.1938 45.386 96.4358 45.9947 96.9198 46.464C97.4038 46.9187 98.0125 47.146 98.7458 47.146C99.5085 47.146 100.124 46.9187 100.594 46.464C101.078 45.9947 101.32 45.386 101.32 44.638C101.32 43.89 101.078 43.2887 100.594 42.834C100.124 42.3793 99.5085 42.152 98.7458 42.152C98.0125 42.152 97.4038 42.3867 96.9198 42.856C96.4358 43.3107 96.1938 43.9047 96.1938 44.638Z" fill="#37366B"/>
    <path d="M93.1058 186H82.8098V183.734L88.0678 178.322C89.2412 177.075 89.8278 176.049 89.8278 175.242C89.8278 174.641 89.6372 174.157 89.2558 173.79C88.8892 173.423 88.4125 173.24 87.8258 173.24C86.6525 173.24 85.7945 173.841 85.2518 175.044L82.6998 173.548C83.1692 172.507 83.8512 171.707 84.7458 171.15C85.6552 170.578 86.6672 170.292 87.7818 170.292C89.1752 170.292 90.3705 170.732 91.3678 171.612C92.3652 172.477 92.8638 173.651 92.8638 175.132C92.8638 176.731 92.0205 178.373 90.3338 180.06L87.3198 183.074H93.1058V186ZM103.304 170.6L99.894 175.594C101.493 175.638 102.791 176.159 103.788 177.156C104.785 178.153 105.284 179.415 105.284 180.94C105.284 182.509 104.763 183.8 103.722 184.812C102.681 185.809 101.339 186.308 99.696 186.308C98.0534 186.308 96.7114 185.809 95.67 184.812C94.6434 183.829 94.13 182.539 94.13 180.94C94.13 179.781 94.4307 178.747 95.032 177.838L99.828 170.6H103.304ZM102.27 180.94C102.27 180.207 102.028 179.613 101.544 179.158C101.06 178.689 100.444 178.454 99.696 178.454C98.948 178.454 98.332 178.681 97.848 179.136C97.3787 179.591 97.144 180.192 97.144 180.94C97.144 181.688 97.3787 182.297 97.848 182.766C98.332 183.221 98.948 183.448 99.696 183.448C100.444 183.448 101.06 183.221 101.544 182.766C102.028 182.297 102.27 181.688 102.27 180.94Z" fill="#37366B"/>
    <path d="M91.7251 300.108L88.8431 303.848C89.9138 304.156 90.7645 304.699 91.3951 305.476C92.0405 306.253 92.3631 307.177 92.3631 308.248C92.3631 309.832 91.8278 311.071 90.7571 311.966C89.7158 312.861 88.4178 313.308 86.8631 313.308C85.6458 313.308 84.5678 313.029 83.6291 312.472C82.6905 311.9 82.0085 311.093 81.5831 310.052L84.1791 308.556C84.5458 309.744 85.4405 310.338 86.8631 310.338C87.6405 310.338 88.2418 310.155 88.6671 309.788C89.1071 309.407 89.3271 308.893 89.3271 308.248C89.3271 307.617 89.1071 307.111 88.6671 306.73C88.2418 306.349 87.6405 306.158 86.8631 306.158H86.2031L85.0371 304.398L88.0731 300.438H82.0451V297.6H91.7251V300.108ZM99.9954 313.308C98.0741 313.308 96.5634 312.582 95.4634 311.13C94.3781 309.649 93.8354 307.705 93.8354 305.3C93.8354 302.895 94.3781 300.959 95.4634 299.492C96.5634 298.025 98.0741 297.292 99.9954 297.292C101.946 297.292 103.457 298.025 104.527 299.492C105.613 300.959 106.155 302.895 106.155 305.3C106.155 307.705 105.613 309.649 104.527 311.13C103.457 312.582 101.946 313.308 99.9954 313.308ZM103.141 305.3C103.141 303.657 102.87 302.403 102.327 301.538C101.799 300.673 101.022 300.24 99.9954 300.24C98.9688 300.24 98.1914 300.673 97.6634 301.538C97.1354 302.403 96.8714 303.657 96.8714 305.3C96.8714 306.943 97.1354 308.197 97.6634 309.062C98.1914 309.913 98.9688 310.338 99.9954 310.338C101.022 310.338 101.799 309.905 102.327 309.04C102.87 308.175 103.141 306.928 103.141 305.3Z" fill="#37366B"/>
    <path opacity="0.5" d="M256.5 99L335 20V176.5L256.5 99Z" fill="#FF0000" fill-opacity="0.3"/>
    <defs>
        <filter id="filter0_dd_670_39286" x="0" y="0" width="355" height="362" filterUnits="userSpaceOnUse" color-interpolation-filters="sRGB">
            <feFlood flood-opacity="0" result="BackgroundImageFix"/>
            <feColorMatrix in="SourceAlpha" type="matrix" values="0 0 0 0 0 0 0 0 0 0 0 0 0 0 0 0 0 0 127 0" result="hardAlpha"/>
            <feGaussianBlur stdDeviation="10"/>
            <feColorMatrix type="matrix" values="0 0 0 0 0.215922 0 0 0 0 0.211765 0 0 0 0 0.419608 0 0 0 1 0"/>
            <feBlend mode="normal" in2="BackgroundImageFix" result="effect1_dropShadow_670_39286"/>
            <feColorMatrix in="SourceAlpha" type="matrix" values="0 0 0 0 0 0 0 0 0 0 0 0 0 0 0 0 0 0 127 0" result="hardAlpha"/>
            <feColorMatrix type="matrix" values="0 0 0 0 0.839216 0 0 0 0 0.847059 0 0 0 0 0.992157 0 0 0 1 0"/>
            <feBlend mode="normal" in2="effect1_dropShadow_670_39286" result="effect2_dropShadow_670_39286"/>
            <feBlend mode="normal" in="SourceGraphic" in2="effect2_dropShadow_670_39286" result="shape"/>
        </filter>
        <radialGradient id="paint0_radial_670_39286" cx="0" cy="0" r="1" gradientUnits="userSpaceOnUse" gradientTransform="translate(177.5 177.5) rotate(90) scale(157.5)">
            <stop offset="0.364583" stop-color="white"/>
            <stop offset="1" stop-color="#D6D7FD"/>
        </radialGradient>
    </defs>
</svg>
