<svg width="30" height="30" viewBox="0 0 30 30" fill="none" xmlns="http://www.w3.org/2000/svg">
    <path fill-rule="evenodd" clip-rule="evenodd" d="M2.10622 16.6608C3.02343 23.7817 9.53958 28.8107 16.6605 27.8935C23.7813 26.9763 28.8104 20.4602 27.8932 13.3393C26.976 6.21841 20.4598 1.18935 13.3389 2.10656C13.1695 2.12838 13.0013 2.15337 12.8344 2.18146C19.215 1.61875 24.9561 6.19264 25.7818 12.603C26.6285 19.1761 21.9863 25.191 15.4131 26.0377C9.00281 26.8634 3.12336 22.4687 2.0508 16.1537C2.06594 16.3223 2.0844 16.4914 2.10622 16.6608Z" fill="#261C5C"/>
    <path d="M14.0828 10.6078C14.3952 10.2954 14.9017 10.2954 15.2141 10.6078L20.3053 15.6989C20.6177 16.0114 20.6177 16.5179 20.3053 16.8303C19.9929 17.1427 19.4863 17.1427 19.1739 16.8303L14.6484 12.3048L10.123 16.8303C9.81053 17.1427 9.304 17.1427 8.99158 16.8303C8.67916 16.5179 8.67916 16.0114 8.99158 15.6989L14.0828 10.6078ZM13.8484 11.6735L13.8484 11.1735L15.4484 11.1735L15.4484 11.6735L13.8484 11.6735Z" fill="#261C5C"/>
</svg>
