<svg width="30" height="30" viewBox="0 0 30 30" fill="none" xmlns="http://www.w3.org/2000/svg">
    <path d="M5 10.25H25C25.3315 10.25 25.6495 10.3817 25.8839 10.6161C26.1183 10.8505 26.25 11.1685 26.25 11.5C26.25 11.8315 26.1183 12.1495 25.8839 12.3839C25.6495 12.6183 25.3315 12.75 25 12.75H5C4.66848 12.75 4.35054 12.6183 4.11612 12.3839C3.8817 12.1495 3.75 11.8315 3.75 11.5C3.75 11.1685 3.8817 10.8505 4.11612 10.6161C4.35054 10.3817 4.66848 10.25 5 10.25ZM5 17.75H25C25.3315 17.75 25.6495 17.8817 25.8839 18.1161C26.1183 18.3505 26.25 18.6685 26.25 19C26.25 19.3315 26.1183 19.6495 25.8839 19.8839C25.6495 20.1183 25.3315 20.25 25 20.25H5C4.66848 20.25 4.35054 20.1183 4.11612 19.8839C3.8817 19.6495 3.75 19.3315 3.75 19C3.75 18.6685 3.8817 18.3505 4.11612 18.1161C4.35054 17.8817 4.66848 17.75 5 17.75Z" fill="#F0F0F3"/>
</svg>
