<svg width="29" height="28" viewBox="0 0 29 28" fill="none" xmlns="http://www.w3.org/2000/svg">
    <path d="M5.67126 27.9944C5.73619 27.9939 5.79966 27.9751 5.85445 27.9403C5.90924 27.9055 5.95313 27.8559 5.98112 27.7973L9.4274 20.6036C9.44702 20.5626 9.45837 20.5181 9.46081 20.4728C9.46325 20.4274 9.45673 20.382 9.44162 20.3392C9.42652 20.2963 9.40312 20.2569 9.37277 20.2231C9.34242 20.1893 9.3057 20.1618 9.26473 20.1422C9.22375 20.1226 9.17931 20.1112 9.13395 20.1088C9.08859 20.1063 9.04319 20.1129 9.00034 20.128C8.9575 20.1431 8.91805 20.1665 8.88425 20.1968C8.85045 20.2272 8.82296 20.2639 8.80334 20.3049L5.35954 27.498C5.3344 27.5506 5.32295 27.6087 5.32623 27.6669C5.32952 27.7251 5.34744 27.7815 5.37834 27.831C5.40924 27.8804 5.45211 27.9212 5.50299 27.9497C5.55387 27.9782 5.6111 27.9933 5.6694 27.9938L5.67126 27.9944Z" fill="#37366B"/>
    <path d="M18.6086 27.9944C18.6682 27.9948 18.727 27.9798 18.7791 27.9508C18.8313 27.9218 18.875 27.8799 18.9062 27.829C18.9374 27.7781 18.9549 27.7201 18.957 27.6605C18.9592 27.6009 18.9459 27.5417 18.9185 27.4887L12.3314 14.7844L12.3859 14.7627C12.6973 14.6394 12.9614 14.4201 13.1397 14.1366C13.318 13.8531 13.4013 13.5202 13.3775 13.1861L13.3391 12.6234L19.4973 10.4445L19.6305 10.7779C19.6562 10.8421 19.7004 10.8971 19.7577 10.9359C19.8149 10.9746 19.8824 10.9954 19.9515 10.9954C19.9867 10.9954 20.0216 10.99 20.055 10.9793L24.0832 9.72495C24.1692 9.69615 24.2404 9.63482 24.2816 9.55413C24.3229 9.47343 24.3308 9.37979 24.3038 9.29328C24.2768 9.20677 24.217 9.13428 24.1372 9.09137C24.0574 9.04845 23.9639 9.03852 23.8769 9.0637L20.1585 10.2232L18.2516 5.45629L22.7459 3.23519L23.1165 4.17779C23.1424 4.24193 23.1868 4.29689 23.2441 4.33564C23.3014 4.37439 23.3689 4.39517 23.4381 4.39532C23.4822 4.3952 23.526 4.38679 23.567 4.37053C23.6521 4.33622 23.7201 4.26964 23.7562 4.18533C23.7923 4.10103 23.7936 4.00585 23.7597 3.92061L22.6746 1.21675L23.7281 0.794098L23.8849 1.18576C23.9018 1.22796 23.9268 1.26642 23.9586 1.29894C23.9903 1.33146 24.0282 1.35742 24.07 1.37531C24.1118 1.39321 24.1566 1.4027 24.2021 1.40325C24.2475 1.4038 24.2927 1.39539 24.3348 1.3785C24.377 1.36161 24.4155 1.33658 24.448 1.30483C24.4806 1.27308 24.5065 1.23523 24.5244 1.19345C24.5423 1.15168 24.5518 1.10678 24.5523 1.06133C24.5529 1.01589 24.5445 0.970775 24.5276 0.928578L24.2425 0.215894C24.2083 0.132076 24.1427 0.0649455 24.0597 0.0288229C23.9767 -0.00729977 23.8828 -0.00955427 23.7982 0.0225404L22.0989 0.704238C22.0137 0.738541 21.9455 0.805226 21.9094 0.889679C21.8733 0.974131 21.8721 1.06946 21.9061 1.15478L22.4794 2.59316L17.6493 4.98096C17.5711 5.01939 17.5103 5.08598 17.4791 5.16736C17.448 5.24874 17.4488 5.33889 17.4813 5.41972L19.2351 9.80427L11.5276 12.5298C11.4445 12.563 11.3775 12.6271 11.3406 12.7087C11.3037 12.7902 11.2998 12.8828 11.3297 12.9672C11.3596 13.0515 11.4209 13.121 11.5009 13.1612C11.5809 13.2013 11.6733 13.2089 11.7588 13.1824L12.6555 12.8651L12.6809 13.2369C12.6942 13.4247 12.6472 13.6119 12.5469 13.7712C12.4467 13.9306 12.2982 14.0538 12.1232 14.1231L10.1816 14.8996C10.0517 14.9513 9.91358 14.9794 9.7738 14.9827H9.75211C9.49224 14.9833 9.23948 14.8978 9.03323 14.7398C8.96042 14.6839 8.86839 14.6592 8.77739 14.6712C8.68639 14.6832 8.60387 14.7308 8.54798 14.8036C8.4921 14.8764 8.46743 14.9684 8.4794 15.0594C8.49137 15.1504 8.539 15.233 8.61182 15.2888C8.80057 15.4328 9.01514 15.5392 9.24394 15.6024L3.59515 27.4993C3.57471 27.5405 3.56268 27.5854 3.55978 27.6313C3.55687 27.6772 3.56313 27.7232 3.5782 27.7667C3.59328 27.8101 3.61685 27.8502 3.64756 27.8844C3.67827 27.9187 3.7155 27.9465 3.75706 27.9662C3.79863 27.9859 3.8437 27.9971 3.88966 27.9992C3.93561 28.0013 3.98153 27.9943 4.02472 27.9784C4.06792 27.9626 4.10752 27.9383 4.14124 27.907C4.17495 27.8757 4.20209 27.838 4.22107 27.7961L9.98451 15.6576C10.1413 15.6386 10.295 15.5997 10.4419 15.5417L11.4954 15.1203V27.648C11.4954 27.7399 11.5319 27.828 11.5969 27.893C11.6618 27.9579 11.7499 27.9944 11.8418 27.9944C11.9337 27.9944 12.0218 27.9579 12.0868 27.893C12.1517 27.828 12.1882 27.7399 12.1882 27.648V16.0164L18.3012 27.8073C18.3303 27.8637 18.3744 27.9111 18.4286 27.9441C18.4828 27.9771 18.5451 27.9945 18.6086 27.9944Z" fill="#37366B"/>
    <path d="M13.0394 20.3954C12.9988 20.4162 12.9628 20.4448 12.9334 20.4796C12.9039 20.5144 12.8817 20.5547 12.8679 20.5981C12.854 20.6415 12.8489 20.6872 12.8528 20.7326C12.8567 20.778 12.8696 20.8222 12.8906 20.8626L16.5346 27.8085C16.5552 27.8497 16.5838 27.8864 16.6187 27.9164C16.6537 27.9464 16.6942 27.9692 16.7381 27.9833C16.7819 27.9974 16.8281 28.0027 16.874 27.9988C16.9199 27.9949 16.9645 27.9818 17.0053 27.9604C17.0461 27.9391 17.0822 27.9097 17.1116 27.8742C17.1409 27.8387 17.1628 27.7977 17.1761 27.7536C17.1894 27.7096 17.1938 27.6632 17.189 27.6174C17.1842 27.5716 17.1703 27.5273 17.1481 27.4869L13.5042 20.541C13.4617 20.4602 13.3889 20.3995 13.3018 20.3722C13.2147 20.3449 13.1204 20.3533 13.0394 20.3954Z" fill="#37366B"/>
    <path d="M10.536 27.6478V17.0165C10.5322 16.9272 10.4941 16.8429 10.4296 16.781C10.3651 16.7192 10.2792 16.6847 10.1899 16.6847C10.1005 16.6847 10.0146 16.7192 9.95014 16.781C9.88565 16.8429 9.84753 16.9272 9.84375 17.0165V27.6478C9.84753 27.7371 9.88565 27.8215 9.95014 27.8833C10.0146 27.9451 10.1005 27.9796 10.1899 27.9796C10.2792 27.9796 10.3651 27.9451 10.4296 27.8833C10.4941 27.8215 10.5322 27.7371 10.536 27.6478Z" fill="#37366B"/>
    <path d="M10.0869 13.7538C10.1264 13.7536 10.1656 13.7467 10.2028 13.7333L10.3069 13.6968C10.39 13.6636 10.457 13.5995 10.4939 13.518C10.5308 13.4364 10.5347 13.3438 10.5048 13.2594C10.475 13.1751 10.4136 13.1056 10.3336 13.0655C10.2536 13.0253 10.1612 13.0177 10.0757 13.0442L9.97162 13.0808C9.89461 13.108 9.82969 13.1616 9.78835 13.2321C9.74701 13.3025 9.7319 13.3853 9.7457 13.4659C9.75949 13.5464 9.80129 13.6194 9.86372 13.6721C9.92615 13.7248 10.0052 13.7537 10.0869 13.7538Z" fill="#37366B"/>
    <path d="M23.8446 5.07186C23.8023 5.08872 23.7638 5.11373 23.7313 5.14548C23.6988 5.17722 23.6728 5.21507 23.6549 5.25686C23.637 5.29865 23.6275 5.34355 23.627 5.38901C23.6264 5.43447 23.6349 5.47959 23.6518 5.52178L23.7008 5.64573C23.7349 5.73095 23.8014 5.79913 23.8858 5.83528C23.9702 5.87142 24.0655 5.87257 24.1507 5.83846C24.2359 5.80436 24.3041 5.73779 24.3402 5.65342C24.3764 5.56904 24.3775 5.47376 24.3434 5.38854L24.2945 5.2646C24.2776 5.22237 24.2526 5.18389 24.2209 5.15135C24.1891 5.1188 24.1513 5.09284 24.1095 5.07493C24.0677 5.05703 24.0228 5.04755 23.9773 5.04702C23.9319 5.04649 23.8867 5.05493 23.8446 5.07186Z" fill="#37366B"/>
    <path d="M25.9545 11.007C25.9976 11.0254 26.044 11.0349 26.0909 11.0349C26.1348 11.035 26.1784 11.0266 26.2191 11.0101L27.9184 10.3284C27.9606 10.3116 27.9991 10.2865 28.0317 10.2548C28.0642 10.223 28.0902 10.1852 28.1081 10.1434C28.126 10.1016 28.1355 10.0567 28.136 10.0113C28.1365 9.96579 28.1281 9.92068 28.1112 9.87848L24.9853 2.0681C24.9512 1.98287 24.8846 1.91469 24.8002 1.87855C24.7158 1.8424 24.6206 1.84126 24.5353 1.87536C24.4501 1.90947 24.3819 1.97603 24.3458 2.06041C24.3096 2.14478 24.3085 2.24006 24.3426 2.32528L27.3396 9.81651L26.2861 10.2385L24.8607 6.67637C24.8449 6.63264 24.8204 6.59253 24.7888 6.55845C24.7572 6.52437 24.719 6.497 24.6765 6.47799C24.6341 6.45898 24.5883 6.4487 24.5418 6.44778C24.4953 6.44686 24.4491 6.4553 24.4059 6.47262C24.3628 6.48993 24.3235 6.51576 24.2906 6.54856C24.2576 6.58136 24.2316 6.62046 24.214 6.66353C24.1965 6.7066 24.1878 6.75276 24.1885 6.79926C24.1892 6.84576 24.1992 6.89164 24.218 6.93417L25.7717 10.8174C25.8052 10.9023 25.8709 10.9704 25.9545 11.007Z" fill="#37366B"/>
    <path d="M1.79117 16.1026C1.83512 16.1026 1.87866 16.0942 1.91945 16.0778L5.03977 14.8297L5.17115 15.1588C5.19697 15.223 5.24139 15.278 5.2987 15.3167C5.35601 15.3555 5.4236 15.3762 5.49279 15.3763C5.53204 15.3761 5.57099 15.3694 5.60805 15.3565L8.86285 14.2081C8.9057 14.193 8.94514 14.1696 8.97894 14.1392C9.01273 14.1088 9.04021 14.0721 9.0598 14.0311C9.0794 13.9901 9.09073 13.9456 9.09314 13.9002C9.09555 13.8548 9.089 13.8094 9.07386 13.7666C9.05873 13.7237 9.0353 13.6843 9.00492 13.6505C8.97453 13.6167 8.93779 13.5892 8.89679 13.5696C8.85579 13.55 8.81133 13.5387 8.76595 13.5363C8.72057 13.5339 8.67516 13.5404 8.63231 13.5556L5.69358 14.5948L5.55724 14.254L4.76337 12.2709L16.8263 6.86749C16.9069 6.82797 16.969 6.75872 16.9995 6.67433C17.03 6.58995 17.0266 6.49701 16.99 6.41508C16.9534 6.33315 16.8864 6.26864 16.8031 6.23512C16.7199 6.2016 16.6269 6.20169 16.5437 6.23537L9.91638 9.19951L9.48815 8.11747C9.47255 8.07367 9.44828 8.03346 9.41681 7.99924C9.38533 7.96501 9.34729 7.93747 9.30495 7.91826C9.26261 7.89905 9.21683 7.88856 9.17035 7.88741C9.12386 7.88627 9.07762 7.89449 9.03439 7.9116C8.99115 7.9287 8.9518 7.95433 8.91868 7.98697C8.88556 8.0196 8.85934 8.05857 8.8416 8.10155C8.82386 8.14453 8.81495 8.19064 8.81541 8.23713C8.81586 8.28363 8.82567 8.32956 8.84426 8.37218L9.28364 9.48273L8.23817 9.95124L7.51743 8.15032L10.5807 6.71565C10.6607 6.67804 10.7234 6.6113 10.7559 6.52907C10.7883 6.44684 10.7882 6.35531 10.7555 6.27317L10.3762 5.32623C10.3593 5.28383 10.3343 5.24517 10.3024 5.21246C10.2706 5.17975 10.2326 5.15363 10.1907 5.13559C10.1488 5.11755 10.1037 5.10794 10.0581 5.10731C10.0125 5.10669 9.96715 5.11506 9.92475 5.13195C9.88235 5.14883 9.84369 5.17391 9.81098 5.20574C9.77826 5.23756 9.75214 5.27552 9.7341 5.31744C9.71606 5.35937 9.70646 5.40443 9.70583 5.45007C9.70521 5.4957 9.71358 5.54102 9.73046 5.58342L9.98765 6.22731L5.62727 8.2724L5.00382 6.71442L9.15598 4.14442L9.25637 4.39231C9.29048 4.47753 9.35704 4.54571 9.44142 4.58185C9.52579 4.618 9.62107 4.61914 9.70629 4.58504C9.79152 4.55094 9.8597 4.48437 9.89584 4.4C9.93199 4.31562 9.93313 4.22034 9.89903 4.13512L9.64556 3.50114C9.62674 3.45432 9.5979 3.41219 9.56107 3.3777C9.52424 3.34321 9.48031 3.31719 9.43236 3.30149C9.3844 3.28578 9.33359 3.28075 9.28349 3.28677C9.23339 3.29278 9.18522 3.30968 9.14234 3.33629L4.39463 6.27627C4.3254 6.31923 4.27349 6.38518 4.248 6.46257C4.22251 6.53995 4.22505 6.62384 4.2552 6.69954L5.12281 8.86858C5.14863 8.93277 5.19305 8.98777 5.25036 9.02653C5.30767 9.06529 5.37526 9.08604 5.44445 9.0861C5.49525 9.08632 5.54545 9.07509 5.59132 9.05326L6.88841 8.44593L7.60481 10.2357L4.17277 11.7726C4.09127 11.8094 4.02709 11.8761 3.99361 11.959C3.96013 12.0419 3.95993 12.1345 3.99305 12.2176L4.78258 14.1902L1.86492 15.359L0.984908 14.5471L3.36589 13.5946C3.40813 13.5777 3.44663 13.5526 3.47918 13.5208C3.51173 13.489 3.5377 13.4511 3.5556 13.4093C3.5735 13.3674 3.58298 13.3225 3.58349 13.277C3.58401 13.2315 3.57556 13.1863 3.55862 13.1441L2.38796 10.2152C2.35379 10.1301 2.28722 10.062 2.20287 10.0258C2.11852 9.98968 2.02327 9.98849 1.93804 10.0225L0.384395 10.6491C0.299225 10.6832 0.231065 10.7498 0.194828 10.8341C0.158592 10.9184 0.15723 11.0137 0.191041 11.099L0.758709 12.5175C0.774189 12.5616 0.798439 12.6022 0.829997 12.6367C0.861556 12.6712 0.89977 12.6989 0.942338 12.7182C0.984906 12.7376 1.03095 12.7481 1.07769 12.7492C1.12443 12.7502 1.1709 12.7418 1.21431 12.7244C1.25771 12.7071 1.29715 12.6811 1.33025 12.6481C1.36335 12.6151 1.38943 12.5757 1.4069 12.5323C1.42438 12.489 1.4329 12.4425 1.43195 12.3958C1.431 12.349 1.42059 12.303 1.40136 12.2603L0.962598 11.164L1.87359 10.7996L2.78955 13.0802L0.217689 14.1084C0.163374 14.13 0.115439 14.1651 0.0783678 14.2103C0.0412966 14.2556 0.0162994 14.3094 0.00571347 14.367C-0.00487246 14.4245 -0.00070136 14.4837 0.0178369 14.5392C0.0363751 14.5946 0.0686749 14.6445 0.111716 14.6841L1.55629 16.014C1.62085 16.0717 1.70458 16.1033 1.79117 16.1026Z" fill="#37366B"/>
</svg>
