<svg width="29" height="28" viewBox="0 0 29 28" fill="none" xmlns="http://www.w3.org/2000/svg">
    <path d="M14.5468 24.8101H13.7816V20.1158C13.7824 19.6568 13.7333 19.1992 13.6351 18.7508C13.6266 18.7062 13.6092 18.6637 13.5839 18.6259C13.5587 18.5881 13.5261 18.5557 13.4881 18.5308C13.4502 18.5058 13.4075 18.4887 13.3628 18.4805C13.3181 18.4722 13.2722 18.4731 13.2279 18.4829C13.1835 18.4928 13.1415 18.5114 13.1045 18.5378C13.0675 18.5641 13.0361 18.5976 13.0122 18.6363C12.9884 18.675 12.9725 18.7181 12.9656 18.763C12.9587 18.808 12.9609 18.8538 12.9721 18.8979C13.0604 19.297 13.105 19.7046 13.1052 20.1134V24.8077H11.9152C11.8694 24.8058 11.8237 24.8131 11.7808 24.8293C11.7379 24.8455 11.6988 24.8702 11.6657 24.9019C11.6326 24.9336 11.6063 24.9717 11.5883 25.0138C11.5703 25.056 11.5611 25.1013 11.5611 25.1471C11.5611 25.193 11.5703 25.2383 11.5883 25.2805C11.6063 25.3226 11.6326 25.3607 11.6657 25.3924C11.6988 25.4241 11.7379 25.4488 11.7808 25.465C11.8237 25.4812 11.8694 25.4885 11.9152 25.4866H14.2088V27.1755H0.815095V25.489H8.13735C8.22489 25.4853 8.30761 25.4479 8.36824 25.3847C8.42887 25.3214 8.46272 25.2372 8.46272 25.1496C8.46272 25.062 8.42887 24.9777 8.36824 24.9145C8.30761 24.8512 8.22489 24.8138 8.13735 24.8101H0.475359C0.385416 24.8101 0.299158 24.8459 0.235559 24.9095C0.17196 24.9731 0.13623 25.0593 0.13623 25.1493V27.5141C0.13623 27.604 0.17196 27.6903 0.235559 27.7539C0.299158 27.8175 0.385416 27.8532 0.475359 27.8532H14.5468C14.5913 27.8533 14.6355 27.8445 14.6767 27.8275C14.7179 27.8105 14.7554 27.7856 14.787 27.7541C14.8185 27.7226 14.8435 27.6852 14.8606 27.644C14.8777 27.6028 14.8865 27.5586 14.8865 27.5141V25.1493C14.8865 25.1047 14.8777 25.0605 14.8606 25.0193C14.8435 24.9782 14.8185 24.9408 14.787 24.9093C14.7554 24.8778 14.7179 24.8528 14.6767 24.8358C14.6355 24.8188 14.5913 24.8101 14.5468 24.8101Z" fill="#ABB0B2"/>
    <path d="M10.1097 25.4889C10.1555 25.4908 10.2012 25.4835 10.2441 25.4673C10.287 25.4511 10.3261 25.4264 10.3592 25.3947C10.3923 25.363 10.4186 25.3249 10.4366 25.2828C10.4546 25.2406 10.4638 25.1953 10.4638 25.1494C10.4638 25.1036 10.4546 25.0583 10.4366 25.0161C10.4186 24.974 10.3923 24.9359 10.3592 24.9042C10.3261 24.8725 10.287 24.8478 10.2441 24.8316C10.2012 24.8154 10.1555 24.8081 10.1097 24.81H10.0265C9.98068 24.8081 9.93498 24.8154 9.89211 24.8316C9.84924 24.8478 9.81008 24.8725 9.777 24.9042C9.74392 24.9359 9.7176 24.974 9.69962 25.0161C9.68163 25.0583 9.67236 25.1036 9.67236 25.1494C9.67236 25.1953 9.68163 25.2406 9.69962 25.2828C9.7176 25.3249 9.74392 25.363 9.777 25.3947C9.81008 25.4264 9.84924 25.4511 9.89211 25.4673C9.93498 25.4835 9.98068 25.4908 10.0265 25.4889H10.1097Z" fill="#ABB0B2"/>
    <path d="M1.242 20.1156V23.5756C1.24007 23.6213 1.24741 23.667 1.26359 23.7099C1.27978 23.7528 1.30447 23.7919 1.33618 23.825C1.36789 23.8581 1.40596 23.8844 1.44811 23.9024C1.49026 23.9204 1.53561 23.9297 1.58144 23.9297C1.62726 23.9297 1.67261 23.9204 1.71476 23.9024C1.75691 23.8844 1.79498 23.8581 1.82669 23.825C1.8584 23.7919 1.88309 23.7528 1.89928 23.7099C1.91546 23.667 1.92281 23.6213 1.92087 23.5756V20.1156C1.92163 19.2511 2.12268 18.3985 2.50825 17.6248C2.89382 16.8511 3.45343 16.1772 4.14316 15.656C4.8329 15.1349 5.634 14.7806 6.48363 14.621C7.33327 14.4615 8.20832 14.5009 9.04014 14.7363C9.08392 14.7514 9.13032 14.7573 9.17647 14.7537C9.22263 14.7502 9.26758 14.7373 9.30856 14.7157C9.34953 14.6942 9.38568 14.6645 9.41477 14.6285C9.44386 14.5925 9.46528 14.5509 9.47773 14.5063C9.49017 14.4617 9.49337 14.4151 9.48713 14.3692C9.48089 14.3233 9.46534 14.2792 9.44144 14.2396C9.41753 14.1999 9.38578 14.1656 9.34812 14.1387C9.31047 14.1117 9.26771 14.0928 9.22247 14.083C8.28984 13.8196 7.30888 13.7758 6.35649 13.9551C5.40411 14.1343 4.50618 14.5317 3.7331 15.1161C2.96001 15.7005 2.33279 16.456 1.9006 17.3234C1.4684 18.1908 1.24298 19.1465 1.242 20.1156Z" fill="#ABB0B2"/>
    <path d="M24.3083 9.03099C24.348 9.05142 24.3913 9.06385 24.4357 9.06755C24.4802 9.07125 24.525 9.06615 24.5675 9.05255C24.61 9.03895 24.6494 9.01711 24.6834 8.98828C24.7175 8.95945 24.7455 8.92419 24.766 8.88452C25.2349 7.97277 25.3791 6.92841 25.1747 5.9237C24.9703 4.919 24.4296 4.01397 23.6417 3.3579C22.8538 2.70184 21.8658 2.33393 20.8407 2.31487C19.8156 2.2958 18.8146 2.62672 18.0028 3.25304C17.9356 3.30942 17.8927 3.38964 17.8833 3.47689C17.8739 3.56415 17.8986 3.65166 17.9522 3.72111C18.0059 3.79056 18.0844 3.83655 18.1712 3.84945C18.258 3.86235 18.3464 3.84115 18.4179 3.79029C19.1073 3.25787 19.9576 2.97642 20.8285 2.9924C21.6994 3.00838 22.5389 3.32083 23.2083 3.87819C23.8777 4.43554 24.337 5.20448 24.5105 6.05808C24.6839 6.91168 24.5612 7.79892 24.1625 8.57335C24.1211 8.65338 24.1133 8.74655 24.1406 8.83236C24.168 8.91818 24.2283 8.98962 24.3083 9.03099Z" fill="#ABB0B2"/>
    <path d="M26.4703 9.55052C26.4347 9.57742 26.4048 9.61106 26.3822 9.64953C26.3596 9.688 26.3448 9.73055 26.3387 9.77474C26.3325 9.81893 26.3351 9.8639 26.3463 9.90707C26.3576 9.95025 26.3772 9.9908 26.4041 10.0264C27.5965 11.6066 27.4154 11.9992 27.413 12.0022C27.3558 12.0679 26.7578 12.1195 25.0536 11.1356C23.5792 10.2847 21.7797 8.95796 19.9874 7.40331C18.1951 5.84867 16.6283 4.25574 15.5799 2.91563C14.3644 1.36828 14.3316 0.768423 14.3887 0.702785C14.4459 0.637148 15.033 0.586096 16.7079 1.54878C16.7467 1.57303 16.7899 1.58921 16.8351 1.59635C16.8802 1.6035 16.9263 1.60145 16.9707 1.59035C17.015 1.57925 17.0567 1.55931 17.0931 1.53174C17.1296 1.50416 17.1601 1.46952 17.1828 1.42987C17.2056 1.39022 17.2201 1.3464 17.2255 1.30101C17.2309 1.25562 17.2271 1.20961 17.2143 1.16573C17.2015 1.12185 17.18 1.081 17.1511 1.04562C17.1221 1.01025 17.0863 0.981083 17.0458 0.959867C15.3472 -0.012545 14.3109 -0.245316 13.8727 0.257907C13.4345 0.76113 13.8174 1.77122 15.0427 3.33498C15.479 3.89047 16.0011 4.48972 16.5882 5.1072C16.2347 5.97091 16.1579 6.92299 16.3682 7.83222C16.5785 8.74144 17.0656 9.56306 17.7625 10.1838C18.4593 10.8046 19.3315 11.1939 20.2589 11.2982C21.1863 11.4025 22.1232 11.2166 22.9405 10.766C22.9854 10.7412 23.0238 10.7062 23.0529 10.6639C23.6358 11.0675 24.1949 11.4255 24.7145 11.7251C25.851 12.3815 26.6946 12.7109 27.2635 12.7109C27.5564 12.7109 27.7764 12.6246 27.9259 12.452C28.3477 11.9657 28.0365 11.0663 26.9456 9.62163C26.9191 9.58568 26.8858 9.55531 26.8476 9.53227C26.8093 9.50923 26.7669 9.49397 26.7227 9.48737C26.6786 9.48076 26.6335 9.48294 26.5902 9.49378C26.5469 9.50461 26.5062 9.5239 26.4703 9.55052ZM18.2486 9.71158C17.6799 9.22117 17.2687 8.57375 17.0665 7.85054C16.8643 7.12733 16.8802 6.36052 17.1121 5.64629C17.8493 6.3914 18.6692 7.15899 19.5431 7.91626C20.5325 8.77441 21.525 9.56328 22.4676 10.2464C21.79 10.5828 21.0282 10.7116 20.2777 10.6168C19.5271 10.522 18.8213 10.2077 18.2486 9.7134V9.71158Z" fill="#ABB0B2"/>
    <path d="M25.1443 15.9928C24.0272 15.5394 23.6249 13.893 23.6249 13.8772C23.6077 13.7992 23.5635 13.7298 23.5002 13.6811C23.4369 13.6324 23.3584 13.6076 23.2786 13.611C23.1988 13.6144 23.1228 13.6459 23.0638 13.6998C23.0049 13.7537 22.9668 13.8266 22.9563 13.9058C22.7163 15.5619 21.5166 15.9673 21.4679 15.9831C21.4034 16.003 21.3462 16.0418 21.3038 16.0944C21.2613 16.1471 21.2356 16.2111 21.2298 16.2785C21.224 16.3458 21.2384 16.4134 21.2712 16.4725C21.304 16.5316 21.3536 16.5796 21.4138 16.6103C21.7226 16.774 21.9948 16.999 22.2137 17.2715C22.2712 17.3408 22.3539 17.3843 22.4435 17.3926C22.5332 17.4008 22.6224 17.3731 22.6917 17.3156C22.7609 17.2581 22.8044 17.1754 22.8127 17.0857C22.8209 16.9961 22.7933 16.9068 22.7357 16.8376C22.5866 16.6568 22.4201 16.4911 22.2386 16.3429C22.7212 16.0184 23.1018 15.5636 23.3362 15.0313C23.5635 15.4866 23.9075 16.0038 24.4058 16.3556C23.9245 16.7847 23.1903 17.6149 23.0566 18.7836C23.0514 18.8279 23.0549 18.8728 23.067 18.9158C23.0792 18.9587 23.0997 18.9988 23.1273 19.0338C23.155 19.0688 23.1893 19.098 23.2283 19.1198C23.2672 19.1415 23.3101 19.1553 23.3544 19.1604H23.3939C23.4771 19.1604 23.5574 19.1298 23.6194 19.0744C23.6815 19.0191 23.7211 18.9428 23.7306 18.8602C23.8947 17.452 25.1892 16.5994 25.2002 16.5915C25.2525 16.5578 25.2946 16.5104 25.3218 16.4545C25.3491 16.3985 25.3604 16.3362 25.3546 16.2742C25.3489 16.2123 25.3262 16.1531 25.2891 16.1032C25.252 16.0532 25.2019 16.0144 25.1443 15.991V15.9928Z" fill="#ABB0B2"/>
    <path d="M9.84041 7.10443C9.82997 7.19388 9.85547 7.28382 9.91131 7.35448C9.96716 7.42514 10.0488 7.47073 10.1382 7.48124C10.1516 7.48124 10.165 7.48124 10.1783 7.48124C10.2615 7.48106 10.3416 7.4504 10.4037 7.39507C10.4657 7.33974 10.5054 7.26358 10.515 7.18101C10.6791 5.77283 11.9736 4.91954 11.984 4.91164C12.0363 4.87803 12.0784 4.83069 12.1057 4.77478C12.133 4.71888 12.1444 4.65655 12.1387 4.59461C12.133 4.53266 12.1104 4.47347 12.0734 4.42349C12.0363 4.37351 11.9863 4.33466 11.9287 4.31118C10.8116 3.85779 10.4093 2.21137 10.4093 2.19557C10.3921 2.11758 10.3479 2.04815 10.2846 1.99947C10.2213 1.95079 10.1428 1.92598 10.063 1.92939C9.98323 1.9328 9.90718 1.96421 9.84824 2.01811C9.78931 2.07202 9.75124 2.14496 9.74074 2.22414C9.5025 3.88271 8.30096 4.28808 8.25173 4.30388C8.18719 4.32391 8.13008 4.36274 8.08772 4.4154C8.04536 4.46805 8.01967 4.53215 8.01392 4.59949C8.00818 4.66682 8.02265 4.73434 8.05549 4.79341C8.08832 4.85248 8.13803 4.90042 8.19825 4.93109C8.50682 5.09515 8.77891 5.3201 8.99806 5.59233C9.0556 5.66148 9.13826 5.70494 9.22785 5.71314C9.31743 5.72135 9.40661 5.69363 9.47576 5.63609C9.54491 5.57854 9.58836 5.49589 9.59657 5.4063C9.60478 5.31671 9.57706 5.22754 9.51952 5.15839C9.37065 4.97758 9.20434 4.81187 9.02298 4.66367C9.50431 4.33873 9.88363 3.88396 10.1169 3.35213C10.3442 3.80734 10.6882 4.32455 11.1872 4.67644C10.7089 5.10551 9.97655 5.93571 9.84041 7.10443Z" fill="#ABB0B2"/>
    <path d="M15.2638 11.5639C15.1993 11.5041 15.1142 11.4716 15.0263 11.4733C14.9384 11.4749 14.8546 11.5105 14.7924 11.5727C14.7302 11.6349 14.6946 11.7187 14.6929 11.8066C14.6913 11.8945 14.7238 11.9796 14.7836 12.0441L16.85 14.1104L15.9761 14.9844L13.39 12.3984L12.8352 11.8435L13.7091 10.9696L13.9224 11.1829C13.9869 11.2427 14.072 11.2752 14.1599 11.2736C14.2478 11.2719 14.3316 11.2363 14.3938 11.1741C14.456 11.112 14.4916 11.0281 14.4933 10.9402C14.4949 10.8523 14.4624 10.7672 14.4026 10.7028L13.9492 10.2494C13.8855 10.1858 13.7991 10.15 13.7091 10.15C13.6191 10.15 13.5328 10.1858 13.4691 10.2494L12.1156 11.6016C12.084 11.6331 12.059 11.6705 12.0419 11.7117C12.0248 11.7529 12.016 11.7971 12.016 11.8417C12.016 11.8863 12.0248 11.9304 12.0419 11.9716C12.059 12.0128 12.084 12.0503 12.1156 12.0818L12.6705 12.6366L9.54234 15.7642C9.38311 15.6578 9.23846 15.5697 9.11691 15.5034C9.03821 15.4634 8.94699 15.4555 8.8626 15.4816C8.77821 15.5076 8.70728 15.5655 8.66484 15.6429C8.62241 15.7204 8.61179 15.8113 8.63526 15.8965C8.65872 15.9816 8.71442 16.0543 8.79054 16.099C9.57273 16.5275 11.1979 17.8293 11.5941 19.0381C11.6276 19.1163 11.6891 19.179 11.7666 19.214C11.8441 19.2489 11.9318 19.2536 12.0125 19.2271C12.0933 19.2005 12.1611 19.1446 12.2027 19.0705C12.2443 18.9964 12.2566 18.9094 12.2371 18.8266C12.1776 18.6491 12.1032 18.4769 12.0147 18.3119L14.4299 15.8966C14.4897 15.8322 14.5222 15.7471 14.5206 15.6592C14.519 15.5713 14.4833 15.4874 14.4212 15.4253C14.359 15.3631 14.2751 15.3275 14.1872 15.3258C14.0993 15.3242 14.0142 15.3567 13.9498 15.4165L11.6403 17.726C11.1991 17.1261 10.6199 16.584 10.093 16.1714L13.1488 13.1168L15.7348 15.7028C15.7663 15.7343 15.8037 15.7594 15.8449 15.7765C15.8861 15.7936 15.9302 15.8024 15.9748 15.8024C16.0194 15.8024 16.0636 15.7936 16.1048 15.7765C16.146 15.7594 16.1834 15.7343 16.2149 15.7028L17.5684 14.3517C17.5999 14.3202 17.625 14.2828 17.6421 14.2416C17.6592 14.2004 17.668 14.1563 17.668 14.1117C17.668 14.0671 17.6592 14.0229 17.6421 13.9817C17.625 13.9405 17.5999 13.9031 17.5684 13.8716L15.2638 11.5639Z" fill="#ABB0B2"/>
</svg>
