<svg width="29" height="28" viewBox="0 0 29 28" fill="none" xmlns="http://www.w3.org/2000/svg">
    <path d="M11.9849 7.65234L14.1152 9.78264M20.4878 16.1553L18.3578 14.0253" stroke="#ABB0B2" stroke-width="0.75" stroke-linecap="round"/>
    <path d="M19.1953 5.22386C19.4393 4.97978 19.8351 4.97978 20.0791 5.22386L22.9164 8.06111C23.1605 8.30519 23.1605 8.70091 22.9164 8.94499L15.5074 16.354C15.2098 16.6516 14.6618 16.5895 14.4102 16.1895C14.116 15.7216 13.7439 15.1942 13.345 14.7953C12.946 14.3963 12.4186 14.0243 11.9508 13.73C11.5508 13.4785 11.4887 12.9304 11.7862 12.6329L19.1953 5.22386Z" stroke="#ABB0B2" stroke-width="0.75"/>
    <rect x="27.6098" y="19.557" width="5.26248" height="7.66747" rx="0.625" transform="rotate(135 27.6098 19.557)" stroke="#ABB0B2" stroke-width="0.75"/>
    <rect x="14.0048" y="5.95203" width="5.26248" height="7.66747" rx="0.625" transform="rotate(135 14.0048 5.95203)" stroke="#ABB0B2" stroke-width="0.75"/>
    <path d="M7.73389 20.4072L3.48242 24.6587" stroke="#ABB0B2" stroke-width="0.75" stroke-linecap="round"/>
    <path d="M6.96813 23.7733C8.40479 24.9652 9.86027 25.8138 11.0591 26.1584C12.2579 26.5031 13.1168 26.3198 13.4733 25.6434C13.8297 24.967 13.659 23.8444 12.9934 22.488C12.3278 21.1316 11.2136 19.6356 9.8615 18.2831C8.50945 16.9307 7.01345 15.8157 5.65668 15.1491C4.29991 14.4825 3.17652 14.3107 2.49915 14.6661C1.82178 15.0216 1.63744 15.8796 1.98102 17.0778C2.3246 18.276 3.17226 19.7312 4.36354 21.168" stroke="#ABB0B2" stroke-width="0.75" stroke-linecap="round"/>
    <path d="M13.2598 25.9341C14.7256 24.4683 15.5491 22.4802 15.5491 20.4072C15.5491 18.3342 14.7256 16.3461 13.2598 14.8803C11.794 13.4145 9.8059 12.591 7.73291 12.591C5.65992 12.591 3.67183 13.4145 2.20601 14.8803" stroke="#ABB0B2" stroke-width="0.75"/>
    <path d="M3.14041 26.0178L2.12296 25.0003C1.99697 24.8743 2.08621 24.6589 2.26439 24.6589H3.28208C3.39256 24.6589 3.48211 24.7485 3.48208 24.8589L3.48183 25.8764C3.48179 26.0545 3.26639 26.1437 3.14041 26.0178Z" stroke="#ABB0B2" stroke-width="0.75" stroke-linecap="round"/>
    <path d="M10.3144 2.58071L6.91318 5.98188M23.919 16.1854L20.5179 19.5866M20.5179 16.1854L25.6196 21.2872M6.91318 2.58071L12.0149 7.68247M12.0149 4.2813L8.61377 7.68247M25.6196 17.886L22.2185 21.2872" stroke="#ABB0B2" stroke-width="0.75" stroke-linecap="round"/>
</svg>
