<svg width="36" height="36" viewBox="0 0 36 36" fill="none" xmlns="http://www.w3.org/2000/svg">
<g clip-path="url(#clip0_2019_78274)">
<path d="M35.3792 17.6896C35.3792 27.4631 27.4631 35.3792 17.6896 35.3792C7.91609 35.3792 0 27.4631 0 17.6896C0 7.91609 7.91609 0 17.6896 0C27.4631 0 35.3792 7.91609 35.3792 17.6896Z" fill="url(#paint0_linear_2019_78274)"/>
<path d="M14.4445 25.7956C13.8696 25.7956 13.9728 25.5745 13.7664 25.0291L12.0859 19.4864L22.5228 12.9707L23.7463 13.295L22.7292 16.0664L14.4445 25.7956Z" fill="#C8DAEA"/>
<path d="M14.4453 25.7977C14.8876 25.7977 15.0792 25.5914 15.3298 25.3555C15.7131 24.987 20.6367 20.196 20.6367 20.196L17.6147 19.459L14.8138 21.2279L14.4453 25.6503V25.7977Z" fill="#A9C9DD"/>
<path d="M14.7399 21.2867L21.8747 26.5493C22.6854 26.9916 23.2751 26.7705 23.4815 25.7975L26.3855 12.1176C26.6803 10.9235 25.9285 10.3929 25.1473 10.7466L8.10627 17.3213C6.9417 17.793 6.95644 18.4416 7.89989 18.7217L12.2781 20.0926L22.4054 13.7097C22.8771 13.4148 23.3193 13.577 22.9655 13.9013L14.7399 21.2867Z" fill="url(#paint1_linear_2019_78274)"/>
</g>
<defs>
<linearGradient id="paint0_linear_2019_78274" x1="22.8741" y1="5.59138" x2="14.0293" y2="26.2289" gradientUnits="userSpaceOnUse">
<stop stop-color="#37AEE2"/>
<stop offset="1" stop-color="#1E96C8"/>
</linearGradient>
<linearGradient id="paint1_linear_2019_78274" x1="19.0135" y1="18.2433" x2="22.6989" y2="24.1399" gradientUnits="userSpaceOnUse">
<stop stop-color="#EFF7FC"/>
<stop offset="1" stop-color="white"/>
</linearGradient>
<clipPath id="clip0_2019_78274">
<rect width="35.3792" height="35.3792" fill="white"/>
</clipPath>
</defs>
</svg>
