<svg width="169" height="156" viewBox="0 0 169 156" fill="none" xmlns="http://www.w3.org/2000/svg">
<path d="M104.774 154.26C59.9006 159.687 12.2102 135.167 1.54522 83.5152C-4.29032 41.1079 37.967 23.2207 68.5533 12.9709C113.789 -2.1881 145.22 -5.31863 159.91 17.5932C174.599 40.505 164.538 55.3778 155.885 83.5152C147.232 111.652 149.647 148.834 104.774 154.26Z" stroke="#192239" stroke-width="2"/>
<path d="M101.031 140.642C64.3164 145.1 25.297 124.959 16.5711 82.5303C11.7966 47.6958 46.3707 33.0027 71.3959 24.5832C108.407 12.1312 134.123 9.55969 146.142 28.3801C158.161 47.2005 149.929 59.4175 142.849 82.5303C135.77 105.643 137.745 136.185 101.031 140.642Z" stroke="#192239" stroke-width="2"/>
<path d="M96.9476 125.663C69.1336 129.054 39.5735 113.73 32.9629 81.447C29.3459 54.9425 55.5384 43.7629 74.4969 37.3568C102.536 27.8824 122.018 25.9259 131.123 40.2457C140.228 54.5656 133.991 63.8612 128.628 81.447C123.265 99.0328 124.762 122.271 96.9476 125.663Z" stroke="#192239" stroke-width="2"/>
<path d="M92.5241 109.321C74.3523 111.55 55.0397 101.479 50.7208 80.2652C48.3576 62.8479 65.4701 55.5013 77.8563 51.2916C96.175 45.0656 108.903 43.7798 114.852 53.1901C120.8 62.6003 116.726 68.7088 113.222 80.2652C109.718 91.8216 110.696 107.093 92.5241 109.321Z" stroke="#192239" stroke-width="2"/>
</svg>
