<svg width="199" height="234" viewBox="0 0 199 234" fill="none" xmlns="http://www.w3.org/2000/svg">
    <path d="M31.92 227.768V219.2H33.222V229H22.05V219.2H23.352V227.768H26.992V219.2H28.28V227.768H31.92ZM38.9654 223.96L43.4314 229H41.8354L37.6074 224.296V229H36.3054V219.2H37.6074V223.624L41.6954 219.2H43.2914L38.9654 223.96ZM44.2186 224.1C44.2186 222.681 44.7086 221.482 45.6886 220.502C46.6686 219.513 47.8679 219.018 49.2866 219.018C50.7052 219.018 51.9046 219.513 52.8846 220.502C53.8739 221.482 54.3686 222.681 54.3686 224.1C54.3686 225.509 53.8739 226.709 52.8846 227.698C51.9046 228.687 50.7052 229.182 49.2866 229.182C47.8679 229.182 46.6686 228.687 45.6886 227.698C44.7086 226.699 44.2186 225.5 44.2186 224.1ZM53.0666 224.1C53.0666 223.017 52.7026 222.112 51.9746 221.384C51.2652 220.647 50.3692 220.278 49.2866 220.278C48.2132 220.278 47.3126 220.647 46.5846 221.384C45.8659 222.121 45.5066 223.027 45.5066 224.1C45.5066 225.164 45.8659 226.069 46.5846 226.816C47.3126 227.544 48.2132 227.908 49.2866 227.908C50.3692 227.908 51.2652 227.544 51.9746 226.816C52.7026 226.069 53.0666 225.164 53.0666 224.1ZM55.4993 229V227.824C56.1619 227.917 56.6473 227.731 56.9553 227.264C57.2726 226.797 57.4313 225.962 57.4313 224.758V219.2H63.8993V229H62.5973V220.432H58.7333V224.758C58.7333 225.626 58.6493 226.359 58.4813 226.956C58.3226 227.553 58.0893 228.001 57.7813 228.3C57.4826 228.599 57.1466 228.804 56.7733 228.916C56.4093 229.019 55.9846 229.047 55.4993 229ZM74.8256 229H73.4396L72.6416 226.802H68.2316L67.4336 229H66.0476L69.7016 219.2H71.1716L74.8256 229ZM70.4296 220.754L68.6796 225.584H72.1936L70.4296 220.754ZM89.2817 229H87.8957L87.0977 226.802H82.6877L81.8897 229H80.5037L84.1577 219.2H85.6277L89.2817 229ZM84.8857 220.754L83.1357 225.584H86.6497L84.8857 220.754ZM95.6683 229.182C94.175 229.182 92.9477 228.692 91.9863 227.712C91.025 226.741 90.5443 225.537 90.5443 224.1C90.5443 222.663 91.025 221.459 91.9863 220.488C92.9477 219.508 94.175 219.018 95.6683 219.018C96.555 219.018 97.3763 219.233 98.1323 219.662C98.8883 220.091 99.4763 220.67 99.8963 221.398L98.7623 222.056C98.4823 221.515 98.0623 221.085 97.5023 220.768C96.9517 220.441 96.3403 220.278 95.6683 220.278C94.5297 220.278 93.6057 220.642 92.8963 221.37C92.187 222.089 91.8323 222.999 91.8323 224.1C91.8323 225.192 92.187 226.097 92.8963 226.816C93.6057 227.544 94.5297 227.908 95.6683 227.908C96.3403 227.908 96.9517 227.749 97.5023 227.432C98.0623 227.105 98.4823 226.676 98.7623 226.144L99.8963 226.788C99.4857 227.516 98.9023 228.099 98.1463 228.538C97.3997 228.967 96.5737 229.182 95.6683 229.182ZM101.444 219.2H108.514V220.432H105.616V229H104.328V220.432H101.444V219.2ZM110.782 219.2H114.338C115.234 219.2 115.985 219.503 116.592 220.11C117.199 220.717 117.502 221.463 117.502 222.35C117.502 223.237 117.199 223.983 116.592 224.59C115.985 225.197 115.234 225.5 114.338 225.5H112.084V229H110.782V219.2ZM112.084 224.282H114.338C114.889 224.282 115.337 224.1 115.682 223.736C116.037 223.353 116.214 222.891 116.214 222.35C116.214 221.79 116.037 221.328 115.682 220.964C115.327 220.6 114.879 220.418 114.338 220.418H112.084V224.282ZM119.434 224.1C119.434 222.681 119.924 221.482 120.904 220.502C121.884 219.513 123.083 219.018 124.502 219.018C125.92 219.018 127.12 219.513 128.1 220.502C129.089 221.482 129.584 222.681 129.584 224.1C129.584 225.509 129.089 226.709 128.1 227.698C127.12 228.687 125.92 229.182 124.502 229.182C123.083 229.182 121.884 228.687 120.904 227.698C119.924 226.699 119.434 225.5 119.434 224.1ZM128.282 224.1C128.282 223.017 127.918 222.112 127.19 221.384C126.48 220.647 125.584 220.278 124.502 220.278C123.428 220.278 122.528 220.647 121.8 221.384C121.081 222.121 120.722 223.027 120.722 224.1C120.722 225.164 121.081 226.069 121.8 226.816C122.528 227.544 123.428 227.908 124.502 227.908C125.584 227.908 126.48 227.544 127.19 226.816C127.918 226.069 128.282 225.164 128.282 224.1ZM130.714 229V227.824C131.377 227.917 131.862 227.731 132.17 227.264C132.488 226.797 132.646 225.962 132.646 224.758V219.2H139.114V229H137.812V220.432H133.948V224.758C133.948 225.626 133.864 226.359 133.696 226.956C133.538 227.553 133.304 228.001 132.996 228.3C132.698 228.599 132.362 228.804 131.988 228.916C131.624 229.019 131.2 229.047 130.714 229ZM141.683 224.1C141.683 222.681 142.173 221.482 143.153 220.502C144.133 219.513 145.332 219.018 146.751 219.018C148.169 219.018 149.369 219.513 150.349 220.502C151.338 221.482 151.833 222.681 151.833 224.1C151.833 225.509 151.338 226.709 150.349 227.698C149.369 228.687 148.169 229.182 146.751 229.182C145.332 229.182 144.133 228.687 143.153 227.698C142.173 226.699 141.683 225.5 141.683 224.1ZM150.531 224.1C150.531 223.017 150.167 222.112 149.439 221.384C148.729 220.647 147.833 220.278 146.751 220.278C145.677 220.278 144.777 220.647 144.049 221.384C143.33 222.121 142.971 223.027 142.971 224.1C142.971 225.164 143.33 226.069 144.049 226.816C144.777 227.544 145.677 227.908 146.751 227.908C147.833 227.908 148.729 227.544 149.439 226.816C150.167 226.069 150.531 225.164 150.531 224.1ZM154.378 219.2H159.88V220.432H155.68V229H154.378V219.2ZM169.545 229H168.243V221.692L163.203 229H162.153V219.2H163.455V226.522L168.495 219.2H169.545V229ZM180.013 229H178.711V221.692L173.671 229H172.621V219.2H173.923V226.522L178.963 219.2H180.013V229Z" fill="white"/>
    <g filter="url(#filter0_d_20_3637)">
        <path d="M38.9296 166.92L50.5935 196.968C51.0415 198.12 51.5375 198.92 52.0815 199.368C52.6575 199.784 53.1695 200.008 53.6175 200.04V201C52.6576 200.936 51.5216 200.904 50.2096 200.904C48.9296 200.872 47.6335 200.856 46.3215 200.856C44.8495 200.856 43.4575 200.872 42.1456 200.904C40.8335 200.904 39.7935 200.936 39.0255 201V200.04C40.6575 199.976 41.6816 199.704 42.0975 199.224C42.5455 198.712 42.4495 197.64 41.8096 196.008L33.6495 173.688L34.5135 172.44L27.2175 191.448C26.5135 193.208 26.0815 194.648 25.9215 195.768C25.7935 196.888 25.8735 197.752 26.1615 198.36C26.4815 198.968 26.9775 199.4 27.6495 199.656C28.3535 199.88 29.1855 200.008 30.1455 200.04V201C29.0895 200.936 28.0815 200.904 27.1215 200.904C26.1615 200.872 25.1855 200.856 24.1935 200.856C23.4895 200.856 22.8175 200.872 22.1775 200.904C21.5695 200.904 21.0255 200.936 20.5455 201V200.04C21.2175 199.912 21.9055 199.48 22.6095 198.744C23.3135 198.008 24.0015 196.76 24.6735 195L35.6175 166.92C36.1295 166.952 36.6735 166.968 37.2495 166.968C37.8575 166.968 38.4176 166.952 38.9296 166.92ZM42.2895 187.176V188.136H27.9855L28.4655 187.176H42.2895ZM81.8937 176.232V177.24C80.8697 177.24 80.1497 177.48 79.7337 177.96C79.3177 178.44 79.1097 179.352 79.1097 180.696V196.536C79.1097 197.88 79.3177 198.792 79.7337 199.272C80.1817 199.752 80.9017 199.992 81.8937 199.992V201C81.3177 200.968 80.4697 200.936 79.3497 200.904C78.2297 200.84 77.0297 200.808 75.7497 200.808C74.4697 200.808 73.1577 200.84 71.8137 200.904C70.4697 200.936 69.4457 200.968 68.7417 201V199.992C69.9257 199.992 70.7897 199.752 71.3337 199.272C71.9097 198.792 72.1977 197.88 72.1977 196.536V180.696C72.1977 179.352 72.0057 178.44 71.6217 177.96C71.2377 177.48 70.5657 177.24 69.6057 177.24H69.1737C68.3097 177.24 67.7657 177.496 67.5417 178.008C67.3497 178.488 67.1897 179.384 67.0617 180.696C66.8057 183.672 66.4857 186.536 66.1017 189.288C65.7497 192.04 65.1577 194.504 64.3257 196.68C63.9417 197.64 63.4777 198.504 62.9337 199.272C62.4217 200.008 61.8137 200.584 61.1097 201C60.4377 201.448 59.6537 201.672 58.7577 201.672C58.0537 201.672 57.3497 201.528 56.6457 201.24C55.9417 200.952 55.3497 200.488 54.8697 199.848C54.3897 199.176 54.1497 198.328 54.1497 197.304C54.1497 196.088 54.5017 195.144 55.2057 194.472C55.9417 193.768 56.8537 193.416 57.9417 193.416C59.0617 193.416 59.9257 193.752 60.5337 194.424C61.1417 195.096 61.4457 195.912 61.4457 196.872C61.4457 197.864 61.1577 198.664 60.5817 199.272C60.0057 199.88 59.2697 200.376 58.3737 200.76C58.4377 200.792 58.5337 200.824 58.6617 200.856C58.7897 200.856 58.9017 200.856 58.9977 200.856C59.7657 200.856 60.4217 200.632 60.9657 200.184C61.5097 199.736 61.9897 199.176 62.4057 198.504C62.8217 197.8 63.1737 197.112 63.4617 196.44C64.0057 195.064 64.4377 193.512 64.7577 191.784C65.1097 190.024 65.3977 188.184 65.6217 186.264C65.8457 184.344 66.0217 182.488 66.1497 180.696C66.2457 179.352 65.9577 178.44 65.2857 177.96C64.6457 177.48 63.6697 177.24 62.3577 177.24V176.232C62.6137 176.264 63.0137 176.296 63.5577 176.328C64.1337 176.328 64.7417 176.328 65.3817 176.328C66.0857 176.328 66.7577 176.328 67.3977 176.328C68.0377 176.296 68.8537 176.28 69.8457 176.28C70.7417 176.28 71.5097 176.296 72.1497 176.328C72.8217 176.328 73.4457 176.344 74.0217 176.376C74.6297 176.408 75.2857 176.424 75.9897 176.424C76.6937 176.424 77.4137 176.408 78.1497 176.376C78.9177 176.344 79.6377 176.312 80.3097 176.28C81.0137 176.248 81.5417 176.232 81.8937 176.232ZM98.3288 176.232V177.24C97.2088 177.24 96.4088 177.48 95.9288 177.96C95.4808 178.44 95.2568 179.352 95.2568 180.696V197.544C95.2568 198.504 95.4328 199.16 95.7848 199.512C96.1368 199.832 96.7928 199.992 97.7528 199.992C99.1608 199.992 100.233 199.704 100.969 199.128C101.737 198.552 102.265 197.8 102.553 196.872C102.841 195.912 102.985 194.904 102.985 193.848C102.985 191.608 102.457 189.992 101.401 189C100.377 188.008 98.6008 187.512 96.0728 187.512C95.4648 187.512 94.8248 187.528 94.1528 187.56C93.4808 187.592 92.8888 187.608 92.3768 187.608L92.2808 186.648C93.6248 186.648 94.8568 186.632 95.9768 186.6C97.1288 186.568 98.1848 186.552 99.1448 186.552C103.017 186.552 105.801 187.208 107.497 188.52C109.225 189.832 110.089 191.464 110.089 193.416C110.089 194.6 109.705 195.784 108.937 196.968C108.201 198.12 106.969 199.08 105.241 199.848C103.545 200.616 101.241 201 98.3288 201C97.3688 201 96.3608 200.968 95.3048 200.904C94.2488 200.84 93.0808 200.808 91.8008 200.808C90.6808 200.808 89.4968 200.84 88.2488 200.904C87.0328 200.936 86.1368 200.968 85.5608 201V199.992C86.5848 199.992 87.3048 199.752 87.7208 199.272C88.1368 198.792 88.3448 197.88 88.3448 196.536V180.696C88.3448 179.352 88.1528 178.44 87.7688 177.96C87.3848 177.48 86.7128 177.24 85.7528 177.24V176.232C86.2968 176.264 87.1288 176.312 88.2488 176.376C89.3688 176.408 90.5208 176.424 91.7048 176.424C92.9208 176.424 94.1688 176.408 95.4488 176.376C96.7288 176.312 97.6888 176.264 98.3288 176.232ZM135.701 166.44V204.936C135.701 206.44 136.053 207.432 136.757 207.912C137.461 208.424 138.421 208.68 139.637 208.68V209.688C138.901 209.656 137.861 209.608 136.517 209.544C135.173 209.512 133.749 209.496 132.245 209.496C130.773 209.496 129.365 209.512 128.021 209.544C126.677 209.608 125.621 209.656 124.853 209.688V208.68C126.101 208.68 127.061 208.424 127.733 207.912C128.437 207.432 128.789 206.44 128.789 204.936V172.2C128.789 170.76 128.565 169.704 128.117 169.032C127.701 168.328 126.901 167.976 125.717 167.976V166.968C126.229 167 126.725 167.032 127.205 167.064C127.717 167.096 128.293 167.112 128.933 167.112C130.149 167.112 131.333 167.064 132.485 166.968C133.637 166.84 134.709 166.664 135.701 166.44ZM124.037 175.512C125.445 175.512 126.661 175.784 127.685 176.328C128.709 176.84 129.541 177.72 130.181 178.968L129.509 179.064C129.061 178.296 128.485 177.752 127.781 177.432C127.109 177.08 126.437 176.904 125.765 176.904C124.197 176.904 123.013 177.864 122.213 179.784C121.445 181.672 121.061 184.6 121.061 188.568C121.061 191.352 121.253 193.576 121.637 195.24C122.021 196.904 122.581 198.104 123.317 198.84C124.053 199.544 124.933 199.896 125.957 199.896C126.693 199.896 127.397 199.752 128.069 199.464C128.741 199.176 129.189 198.792 129.413 198.312L129.653 199.032C129.205 199.896 128.453 200.552 127.397 201C126.341 201.448 125.157 201.672 123.845 201.672C121.925 201.672 120.197 201.208 118.661 200.28C117.157 199.352 115.973 197.928 115.109 196.008C114.245 194.088 113.813 191.64 113.813 188.664C113.813 185.688 114.245 183.224 115.109 181.272C115.973 179.32 117.173 177.88 118.709 176.952C120.245 175.992 122.021 175.512 124.037 175.512ZM141.701 175.512C144.485 175.512 146.677 176.52 148.277 178.536C149.877 180.52 150.677 183.56 150.677 187.656C150.677 189.928 150.421 191.944 149.909 193.704C149.429 195.432 148.725 196.888 147.797 198.072C146.869 199.256 145.733 200.152 144.389 200.76C143.077 201.368 141.605 201.672 139.973 201.672C138.885 201.672 137.877 201.512 136.949 201.192C136.021 200.904 135.237 200.376 134.597 199.608L134.981 198.84C135.365 199.384 135.829 199.784 136.373 200.04C136.949 200.264 137.541 200.376 138.149 200.376C139.461 200.376 140.501 199.896 141.269 198.936C142.037 197.976 142.581 196.6 142.901 194.808C143.253 192.984 143.429 190.808 143.429 188.28C143.429 185.496 143.253 183.304 142.901 181.704C142.549 180.104 142.021 178.968 141.317 178.296C140.645 177.624 139.813 177.288 138.821 177.288C138.085 177.288 137.333 177.464 136.565 177.816C135.797 178.168 135.301 178.696 135.077 179.4L134.741 178.776C135.125 178.04 135.685 177.432 136.421 176.952C137.157 176.472 137.989 176.12 138.917 175.896C139.877 175.64 140.805 175.512 141.701 175.512ZM161.272 201.336C159.832 201.336 158.632 201.064 157.672 200.52C156.712 199.976 156.008 199.256 155.56 198.36C155.112 197.432 154.888 196.424 154.888 195.336C154.888 193.96 155.192 192.84 155.8 191.976C156.44 191.112 157.256 190.408 158.248 189.864C159.24 189.32 160.28 188.872 161.368 188.52C162.488 188.168 163.544 187.832 164.536 187.512C165.56 187.16 166.376 186.76 166.984 186.312C167.624 185.832 167.944 185.224 167.944 184.488V180.744C167.944 179.912 167.8 179.176 167.512 178.536C167.256 177.864 166.84 177.352 166.264 177C165.72 176.648 165 176.472 164.104 176.472C163.464 176.472 162.824 176.568 162.184 176.76C161.544 176.92 161.016 177.208 160.6 177.624C161.496 177.944 162.184 178.44 162.664 179.112C163.176 179.752 163.432 180.488 163.432 181.32C163.432 182.408 163.048 183.272 162.28 183.912C161.544 184.552 160.664 184.872 159.64 184.872C158.488 184.872 157.608 184.52 157 183.816C156.424 183.08 156.136 182.2 156.136 181.176C156.136 180.248 156.36 179.48 156.808 178.872C157.288 178.264 157.944 177.688 158.776 177.144C159.672 176.632 160.744 176.232 161.992 175.944C163.272 175.656 164.648 175.512 166.12 175.512C167.592 175.512 168.92 175.672 170.104 175.992C171.288 176.28 172.28 176.824 173.08 177.624C173.816 178.36 174.296 179.272 174.52 180.36C174.744 181.416 174.856 182.76 174.856 184.392V197.448C174.856 198.248 174.936 198.808 175.096 199.128C175.256 199.416 175.528 199.56 175.912 199.56C176.2 199.56 176.472 199.48 176.728 199.32C177.016 199.16 177.32 198.968 177.64 198.744L178.12 199.56C177.448 200.136 176.664 200.584 175.768 200.904C174.904 201.192 173.928 201.336 172.84 201.336C171.656 201.336 170.712 201.176 170.008 200.856C169.304 200.504 168.792 200.04 168.472 199.464C168.184 198.888 168.04 198.216 168.04 197.448C167.272 198.664 166.344 199.624 165.256 200.328C164.168 201 162.84 201.336 161.272 201.336ZM164.68 198.264C165.32 198.264 165.896 198.12 166.408 197.832C166.952 197.512 167.464 197 167.944 196.296V186.456C167.656 186.936 167.256 187.368 166.744 187.752C166.232 188.136 165.688 188.536 165.112 188.952C164.536 189.336 163.976 189.768 163.432 190.248C162.92 190.728 162.504 191.32 162.184 192.024C161.864 192.728 161.704 193.576 161.704 194.568C161.704 195.816 161.976 196.744 162.52 197.352C163.064 197.96 163.784 198.264 164.68 198.264Z" fill="white"/>
    </g>
    <g filter="url(#filter1_dd_20_3637)">
        <path fill-rule="evenodd" clip-rule="evenodd" d="M90.0698 145.389C124.902 149.393 156.385 124.401 160.389 89.5686C164.393 54.7362 139.401 23.2532 104.569 19.2494C69.7363 15.2457 38.2533 40.2373 34.2496 75.0697C34.1579 75.8669 34.0815 76.6623 34.02 77.4557C38.8083 46.4036 67.3378 24.4371 98.8229 28.0561C131.075 31.7633 154.216 60.9142 150.508 93.1664C146.889 124.652 119.023 147.453 87.694 145.071C88.4806 145.191 89.2726 145.297 90.0698 145.389Z" fill="#F0FBFF"/>
    </g>
    <path d="M66.5 118C66.5 128.493 58.2173 137 48 137C37.7827 137 29.5 128.493 29.5 118C29.5 107.507 37.7827 99 48 99C58.2173 99 66.5 107.507 66.5 118Z" fill="white"/>
    <path d="M66.5 118C66.5 128.493 58.2173 137 48 137C37.7827 137 29.5 128.493 29.5 118C29.5 107.507 37.7827 99 48 99C58.2173 99 66.5 107.507 66.5 118Z" fill="white"/>
    <path d="M99.5 96C99.5 102.627 94.3513 108 88 108C81.6487 108 76.5 102.627 76.5 96C76.5 89.3726 81.6487 84 88 84C94.3513 84 99.5 89.3726 99.5 96Z" fill="white"/>
    <path d="M99.5 96C99.5 102.627 94.3513 108 88 108C81.6487 108 76.5 102.627 76.5 96C76.5 89.3726 81.6487 84 88 84C94.3513 84 99.5 89.3726 99.5 96Z" fill="white"/>
    <path d="M117.5 73C117.5 76.866 114.59 80 111 80C107.41 80 104.5 76.866 104.5 73C104.5 69.134 107.41 66 111 66C114.59 66 117.5 69.134 117.5 73Z" fill="white"/>
    <path d="M117.5 73C117.5 76.866 114.59 80 111 80C107.41 80 104.5 76.866 104.5 73C104.5 69.134 107.41 66 111 66C114.59 66 117.5 69.134 117.5 73Z" fill="white"/>
    <defs>
        <filter id="filter0_d_20_3637" x="0.545898" y="150.44" width="197.574" height="83.248" filterUnits="userSpaceOnUse" color-interpolation-filters="sRGB">
            <feFlood flood-opacity="0" result="BackgroundImageFix"/>
            <feColorMatrix in="SourceAlpha" type="matrix" values="0 0 0 0 0 0 0 0 0 0 0 0 0 0 0 0 0 0 127 0" result="hardAlpha"/>
            <feOffset dy="4"/>
            <feGaussianBlur stdDeviation="10"/>
            <feComposite in2="hardAlpha" operator="out"/>
            <feColorMatrix type="matrix" values="0 0 0 0 1 0 0 0 0 1 0 0 0 0 1 0 0 0 0.25 0"/>
            <feBlend mode="normal" in2="BackgroundImageFix" result="effect1_dropShadow_20_3637"/>
            <feBlend mode="normal" in="SourceGraphic" in2="effect1_dropShadow_20_3637" result="shape"/>
        </filter>
        <filter id="filter1_dd_20_3637" x="24.0195" y="0.828369" width="154.791" height="154.982" filterUnits="userSpaceOnUse" color-interpolation-filters="sRGB">
            <feFlood flood-opacity="0" result="BackgroundImageFix"/>
            <feColorMatrix in="SourceAlpha" type="matrix" values="0 0 0 0 0 0 0 0 0 0 0 0 0 0 0 0 0 0 127 0" result="hardAlpha"/>
            <feOffset dx="1" dy="-1"/>
            <feComposite in2="hardAlpha" operator="out"/>
            <feColorMatrix type="matrix" values="0 0 0 0 0.494118 0 0 0 0 0.870588 0 0 0 0 0.960784 0 0 0 1 0"/>
            <feBlend mode="normal" in2="BackgroundImageFix" result="effect1_dropShadow_20_3637"/>
            <feColorMatrix in="SourceAlpha" type="matrix" values="0 0 0 0 0 0 0 0 0 0 0 0 0 0 0 0 0 0 127 0" result="hardAlpha"/>
            <feOffset dx="4" dy="-4"/>
            <feGaussianBlur stdDeviation="7"/>
            <feComposite in2="hardAlpha" operator="out"/>
            <feColorMatrix type="matrix" values="0 0 0 0 0.494118 0 0 0 0 0.870588 0 0 0 0 0.960784 0 0 0 1 0"/>
            <feBlend mode="normal" in2="effect1_dropShadow_20_3637" result="effect2_dropShadow_20_3637"/>
            <feBlend mode="normal" in="SourceGraphic" in2="effect2_dropShadow_20_3637" result="shape"/>
        </filter>
    </defs>
</svg>
