<svg width="64" height="40" viewBox="0 0 64 40" fill="none" xmlns="http://www.w3.org/2000/svg">
    <path d="M31.9998 11.6118C20.6773 11.6118 11.4658 20.8232 11.4658 32.1458C11.4658 32.8498 12.0367 33.4207 12.7407 33.4207H27.0921C27.7961 33.4207 28.3669 32.8498 28.3669 32.1458C28.3669 30.1427 29.9967 28.5129 31.9998 28.5129C34.0029 28.5129 35.6327 30.1427 35.6327 32.1458C35.6327 32.8498 36.2036 33.4207 36.9076 33.4207H51.2589C51.9631 33.4207 52.5338 32.8498 52.5338 32.1458C52.5338 20.8232 43.3223 11.6118 31.9998 11.6118ZM38.0502 30.8709C37.4611 28.0714 34.9718 25.9632 31.9998 25.9632C29.0278 25.9632 26.5386 28.0713 25.9494 30.8709H14.0602C14.7163 21.5468 22.5118 14.1616 31.9998 14.1616C41.4878 14.1616 49.2834 21.5469 49.9394 30.8709H38.0502Z" fill="white"/>
    <path d="M54.6274 9.37275C48.5834 3.3285 40.5476 0 32 0C23.4524 0 15.4166 3.3285 9.37275 9.37262C3.3285 15.4166 0 23.4525 0 32V40H64V32C64 23.4525 60.6715 15.4166 54.6274 9.37275ZM61.4502 33.0793V37.8358H2.54975L2.54975 33.3404H4.99325C5.69725 33.3404 6.26813 32.7695 6.26813 32.0655C6.26813 31.3615 5.69725 30.7906 4.99325 30.7906H2.57662C2.70175 27.711 3.30062 24.7516 4.30462 21.9842L6.51113 22.8983C6.67075 22.9644 6.836 22.9958 6.9985 22.9958C7.49875 22.9958 7.97338 22.6994 8.17675 22.2084C8.44625 21.5577 8.13738 20.8121 7.48688 20.5428L5.27863 19.628C6.55225 16.8884 8.23363 14.3754 10.2465 12.1692L11.9095 13.8322C12.1585 14.0811 12.4848 14.2056 12.811 14.2056C13.1373 14.2056 13.4636 14.081 13.7125 13.8322C14.2104 13.3344 14.2104 12.5271 13.7125 12.0291L12.0451 10.3619C14.2385 8.33762 16.7389 6.64212 19.4681 5.35337L20.3664 7.52175C20.5697 8.01275 21.0444 8.30912 21.5446 8.30912C21.7071 8.30912 21.8725 8.27775 22.032 8.21163C22.6826 7.94225 22.9914 7.19638 22.7219 6.546L21.8185 4.365C24.5748 3.34637 27.5236 2.72925 30.5942 2.58437V4.92812C30.5942 5.63212 31.1651 6.203 31.8691 6.203C32.5731 6.203 33.144 5.63212 33.144 4.92812V2.57438C36.2173 2.69238 39.1711 3.28287 41.935 4.27637L41.0364 6.44613C40.767 7.09675 41.0759 7.84237 41.7264 8.11187C41.886 8.17787 42.0513 8.20925 42.2137 8.20925C42.714 8.20925 43.1886 7.91287 43.3921 7.42187L44.2948 5.24275C47.0361 6.5075 49.552 8.18013 51.7626 10.1845L50.1026 11.8444C49.6048 12.3422 49.6048 13.1495 50.1026 13.6475C50.3516 13.8964 50.6779 14.0209 51.0041 14.0209C51.3304 14.0209 51.6566 13.8964 51.9056 13.6475L53.5752 11.978C55.6081 14.167 57.313 16.664 58.6105 19.3913L56.4129 20.3015C55.7622 20.5709 55.4535 21.3167 55.723 21.9671C55.9264 22.4581 56.401 22.7545 56.9012 22.7545C57.0637 22.7545 57.229 22.7231 57.3886 22.657L59.6045 21.7391C60.6336 24.4987 61.261 27.4525 61.4131 30.5295H59.0062C58.3022 30.5295 57.7314 31.1004 57.7314 31.8044C57.7314 32.5084 58.3022 33.0793 59.0062 33.0793H61.4502Z" fill="white"/>
</svg>
