<svg width="67" height="64" viewBox="0 0 67 64" fill="none" xmlns="http://www.w3.org/2000/svg">
    <path d="M1 32C1 29.4863 1.28829 27.0443 1.83162 24.6969C3.56535 24.6558 5.2689 24.2038 6.80009 23.3728C8.57658 22.4087 10.0519 20.9721 11.0629 19.2219C12.0739 17.4717 12.5813 15.476 12.5289 13.4555C12.4838 11.7132 12.024 10.011 11.1928 8.48823C14.7912 5.11606 19.117 2.61626 23.8354 1.18226C24.7378 2.66513 25.9818 3.91608 27.4683 4.82775C29.1926 5.88524 31.1759 6.44496 33.1986 6.44496C35.2213 6.44496 37.2046 5.88524 38.9288 4.82775C40.4153 3.91608 41.6594 2.66513 42.5617 1.18227C47.28 2.61622 51.6057 5.11594 55.2041 8.488C54.3719 10.0112 53.9114 11.7141 53.8659 13.4571C53.8132 15.4786 54.3207 17.4752 55.3323 19.2262C56.3439 20.9771 57.8202 22.4141 59.5978 23.3781C61.13 24.2089 62.8346 24.6605 64.5692 24.7007C65.1123 27.0451 65.4005 29.4867 65.4005 32C65.4005 34.5136 65.1122 36.9555 64.5689 39.3028C62.8349 39.3433 61.131 39.795 59.5994 40.6257C57.8224 41.5895 56.3465 43.026 55.335 44.7764C54.3236 46.5267 53.8159 48.5227 53.8681 50.5436C53.9131 52.2861 54.3729 53.9887 55.2043 55.5118C51.6059 58.8839 47.2801 61.3837 42.5617 62.8177C41.6594 61.3349 40.4153 60.0839 38.9288 59.1722C37.2046 58.1148 35.2213 57.555 33.1986 57.555C31.1759 57.555 29.1926 58.1148 27.4683 59.1722C25.9818 60.0839 24.7378 61.3349 23.8354 62.8177C19.1171 61.3838 14.7914 58.884 11.1931 55.512C12.0253 53.9888 12.4858 52.2859 12.5312 50.5429C12.584 48.5214 12.0765 46.5248 11.0649 44.7738C10.0533 43.0229 8.57698 41.5859 6.79937 40.6219C5.26736 39.7912 3.56302 39.3396 1.82868 39.2994C1.2881 36.9574 1 34.5158 1 32Z" stroke="white" stroke-width="2"/>
    <rect x="24" y="23" width="18" height="18" rx="9" stroke="white" stroke-width="2"/>
</svg>
