<?xml version="1.0" encoding="utf-8"?>
<!-- Generator: Adobe Illustrator 22.1.0, SVG Export Plug-In . SVG Version: 6.00 Build 0)  -->
<svg version="1.1" id="Слой_1" xmlns="http://www.w3.org/2000/svg" xmlns:xlink="http://www.w3.org/1999/xlink" x="0px" y="0px"
	 viewBox="0 0 342 342" style="enable-background:new 0 0 342 342;" xml:space="preserve">
<style type="text/css">
	.st0{fill:url(#SVGID_1_);}
	.st1{opacity:0.5;}
	.st2{fill:#261C5C;}
	.st3{fill:none;stroke:#5C5B9F;stroke-opacity:0.2;}
</style>
<g>
	
		<radialGradient id="SVGID_1_" cx="161.916" cy="177.9749" r="1.0271" gradientTransform="matrix(1.030713e-14 168.3281 168.3281 -1.030713e-14 -29787.2012 -27084.0195)" gradientUnits="userSpaceOnUse">
		<stop  offset="0.3646" style="stop-color:#FFFFFF"/>
		<stop  offset="1" style="stop-color:#D6D7FD"/>
	</radialGradient>
	<rect x="-1.9" y="-1.9" class="st0" width="345.8" height="345.8"/>
</g>
<g class="st1">
    <g opacity="0.5">
        <svg>
            <circle cx="286.983" cy="285.708" r="6.92652" fill="#F3F3F5" stroke="#261C5C" stroke-width="1"/>
            <rect x="278.600" y="282.738" width="3.67971" height="3.67971" rx="1.83986" fill="#F3F3F5" stroke="#261C5C"/>
        </svg>
    </g>
    <path class="st2" d="M298.7,302L298.7,302c0.2,0.2,0.3,0.2,0.4,0.1c0,0,0.1-0.1,0.1-0.2l1.1-2.5l-1.3-1.3l-2.4,1.1
		c0,0-0.1,0.1-0.1,0.1c-0.1,0.1-0.1,0.1-0.1,0.2c0,0,0,0.1,0,0.1c0,0,0,0.1,0,0.1l0,0l-0.1,0.1l-0.8-0.8l0.1-0.1l0,0
		c0,0,0.1,0.1,0.1,0.1c0.1,0,0.1,0,0.2,0c0.1,0,0.3-0.1,0.4-0.1l6.3-2.8l-2.9,6.2c-0.1,0.1-0.1,0.3-0.1,0.4c0,0.1,0,0.1,0,0.2
		c0,0.1,0.1,0.1,0.1,0.2l0,0l-0.1,0.1L298.7,302L298.7,302z M299.3,297.9l1.2,1.2l1-2.1L299.3,297.9z"/>
	<path class="st2" d="M300.2,303.7L300.2,303.7c0.1-0.1,0.1,0,0.1,0c0,0,0.1,0,0.1,0c0.1,0,0.1,0,0.2,0c0.1,0,0.1,0,0.2-0.1
		c0.1,0,0.1-0.1,0.1-0.1l3.8-3.8c0.1-0.1,0.2-0.2,0.2-0.3c0-0.1,0-0.2-0.1-0.3l0.1-0.1l1,0.5l-4.5,4.5c0,0-0.1,0.1-0.1,0.1
		c0,0.1-0.1,0.1-0.1,0.2c0,0.1,0,0.1,0,0.2c0,0,0,0.1,0,0.1c0,0,0,0,0,0.1l-0.1,0.1L300.2,303.7z"/>
	<path class="st2" d="M306.7,303.8c0.2,0.2,0.4,0.5,0.6,0.8c0.1,0.3,0.1,0.6,0.1,0.9c0,0.3-0.1,0.6-0.2,0.8
		c-0.1,0.3-0.3,0.5-0.5,0.7c-0.2,0.2-0.4,0.4-0.7,0.5c-0.3,0.1-0.5,0.2-0.8,0.2c-0.3,0-0.6,0-0.9-0.1c-0.3-0.1-0.6-0.3-0.8-0.5
		c-0.2-0.2-0.3-0.4-0.4-0.6c-0.1-0.2-0.1-0.5-0.1-0.8l-1.5,1.5c0,0-0.1,0.1-0.1,0.1c0,0.1-0.1,0.1-0.1,0.2c0,0.1,0,0.1,0,0.2
		c0,0,0,0.1,0,0.1c0,0,0,0,0,0.1l-0.1,0.1l-1-1l0.1-0.1c0,0,0,0,0.1,0c0,0,0.1,0,0.1,0c0.1,0,0.1,0,0.2,0c0.1,0,0.1,0,0.2-0.1
		c0.1,0,0.1-0.1,0.1-0.1l3.8-3.8c0,0,0.1-0.1,0.1-0.1c0,0,0.1-0.1,0.1-0.1c0,0,0-0.1,0-0.2c0-0.1,0-0.1-0.1-0.2l0.1-0.1l0.7,0.7
		l-0.3,0.3c0.2,0,0.4,0,0.6,0.1C306.3,303.5,306.5,303.6,306.7,303.8z M303.8,306.9c0.2,0.2,0.4,0.3,0.6,0.3c0.2,0.1,0.4,0.1,0.6,0
		c0.2,0,0.4-0.1,0.6-0.2c0.2-0.1,0.4-0.2,0.5-0.4c0.2-0.2,0.3-0.4,0.5-0.6c0.1-0.2,0.2-0.4,0.3-0.7c0-0.2,0-0.5,0-0.7
		c0-0.2-0.1-0.4-0.3-0.5c-0.1-0.1-0.3-0.3-0.5-0.3c-0.1-0.1-0.3-0.1-0.4-0.1c-0.2,0-0.3,0-0.5,0.1c-0.2,0.1-0.3,0.2-0.4,0.3l-1,1
		c-0.1,0.1-0.2,0.3-0.3,0.5c-0.1,0.2-0.1,0.3-0.1,0.5c0,0.2,0,0.3,0.1,0.5C303.6,306.6,303.6,306.7,303.8,306.9L303.8,306.9z"/>
	<path class="st2" d="M309.3,311.8c0,0-0.1,0.1-0.1,0.1c0,0.1-0.1,0.1-0.1,0.2c0,0.1,0,0.1,0,0.2c0,0,0,0.1,0,0.1s0,0,0,0.1
		l-0.1,0.1l-1-1l0.1-0.1c0,0,0,0,0.1,0c0,0,0.1,0,0.1,0c0.1,0,0.1,0,0.2,0c0.1,0,0.1,0,0.2-0.1c0.1,0,0.1-0.1,0.1-0.1l1.4-1.4
		c0.2-0.2,0.3-0.3,0.4-0.5c0.1-0.2,0.1-0.4,0.1-0.5c0-0.2,0-0.3-0.1-0.5c-0.1-0.3-0.4-0.5-0.7-0.7c-0.1-0.1-0.3-0.1-0.5-0.1
		c-0.2,0-0.3,0-0.5,0.1c-0.2,0.1-0.3,0.2-0.4,0.3l-1.6,1.6c0,0-0.1,0.1-0.1,0.1c0,0.1-0.1,0.1-0.1,0.2c0,0.1,0,0.1,0,0.2
		c0,0,0,0.1,0,0.1c0,0,0,0,0,0.1l-0.1,0.1l-1-1l0.1-0.1c0,0,0,0,0.1,0c0,0,0.1,0,0.1,0c0.1,0,0.1,0,0.2,0c0.1,0,0.1,0,0.2-0.1
		c0.1,0,0.1-0.1,0.1-0.1l3.8-3.8c0.1-0.1,0.2-0.2,0.2-0.3c0.1-0.1,0-0.2-0.1-0.3l0.1-0.1l1,0.5l-2.2,2.2c0.1,0,0.2,0,0.3,0
		c0.1,0,0.2,0,0.3,0.1c0.1,0,0.3,0.1,0.4,0.2c0.1,0.1,0.3,0.2,0.4,0.3c0.2,0.2,0.4,0.4,0.5,0.7c0.1,0.2,0.1,0.5,0.1,0.7
		c0,0.2-0.1,0.4-0.2,0.6c-0.1,0.2-0.2,0.4-0.4,0.5L309.3,311.8z"/>
	<path class="st2" d="M311.7,315.2l0.4-0.4H312c-0.2,0-0.5,0-0.7-0.1c-0.5-0.2-0.8-0.6-1.1-1c-0.1-0.1-0.1-0.3-0.1-0.5
		c0-0.1,0-0.3,0.1-0.4c0.1-0.1,0.1-0.3,0.2-0.4c0.2-0.2,0.4-0.3,0.6-0.3c0.2,0,0.5,0,0.7,0.1c0.3,0.1,0.6,0.2,0.9,0.4
		c0.3,0.2,0.7,0.4,1.1,0.6c0.2-0.2,0.3-0.4,0.4-0.6c0-0.2,0.1-0.4,0-0.5c0-0.2-0.1-0.3-0.2-0.4c-0.1-0.1-0.1-0.2-0.2-0.3
		c-0.1-0.1-0.3-0.2-0.4-0.3c-0.1-0.1-0.3-0.1-0.4-0.1c-0.1,0-0.3,0-0.4,0c-0.1,0-0.2,0-0.3,0.1l-0.1-0.1l0.5-0.5
		c0,0,0.1,0.1,0.2,0.1c0.1,0,0.1,0,0.2,0.1c0.1,0,0.3,0.1,0.4,0.2c0.2,0.1,0.5,0.3,0.6,0.5c0.2,0.2,0.4,0.5,0.6,0.8
		c0.1,0.2,0.1,0.4,0.1,0.7c0,0.2-0.1,0.4-0.2,0.6c-0.1,0.2-0.3,0.3-0.4,0.5l-1.5,1.5c-0.1,0.1-0.2,0.2-0.2,0.4c0,0.1,0,0.1,0,0.2
		c0,0.1,0,0.1,0.1,0.1l-0.1,0.1L311.7,315.2z M312.5,314.5l1.1-1.1l-0.1-0.1c-0.1-0.1-0.3-0.2-0.6-0.3c-0.2-0.1-0.4-0.2-0.7-0.3
		c-0.2-0.1-0.5-0.1-0.7-0.1c-0.1,0-0.2,0-0.3,0.1c-0.1,0-0.2,0.1-0.3,0.2c-0.1,0.1-0.1,0.2-0.2,0.3c0,0.1,0,0.2,0,0.3
		c0,0.3,0.2,0.5,0.4,0.7c0.1,0.2,0.3,0.3,0.5,0.3c0.2,0.1,0.4,0.1,0.6,0.1L312.5,314.5z"/>
</g>
<rect x="48.7" y="48.8" transform="matrix(0.7071 -0.7071 0.7071 0.7071 -70.8342 170.9912)" class="st3" width="244.5" height="244.5"/>
<path class="st3" d="M-1.9-1.9l277.7,277.7"/>
<path class="st3" d="M317.6,317.5l26.3,26.3"/>
<path class="st3" d="M343.9-1.9L-1.9,343.9"/>
</svg>
