<svg width="316" height="315" viewBox="0 0 316 315" fill="none" xmlns="http://www.w3.org/2000/svg">
    <rect x="1" width="315" height="315" fill="url(#paint0_radial_20_3637)"/>
    <g opacity="0.5">
        <svg>
            <circle cx="144.979" cy="157.708" r="6.92652" stroke="#261C5C" stroke-width="1"/>
            <rect x="138.269" y="160.738" width="3.67971" height="3.67971" rx="1.83986" fill="#F3F3F5" stroke="#261C5C"/>
        </svg>
    </g>
    <g opacity="0.5">
        <path d="M161.297 162.129H161.346C161.502 162.129 161.579 162.058 161.579 161.916C161.578 161.86 161.569 161.805 161.55 161.752L160.678 159.405H158.983L158.14 161.713C158.122 161.759 158.113 161.809 158.111 161.858C158.107 161.93 158.132 162.001 158.179 162.056C158.197 162.078 158.219 162.095 158.244 162.108C158.269 162.121 158.297 162.128 158.325 162.129H158.373V162.225H157.298V162.129H157.349C157.399 162.124 157.447 162.108 157.49 162.082C157.533 162.056 157.569 162.021 157.596 161.979C157.68 161.872 157.747 161.752 157.794 161.624L160.015 155.732L162.178 161.571C162.225 161.704 162.288 161.83 162.366 161.948C162.398 162.002 162.444 162.048 162.498 162.08C162.553 162.111 162.615 162.128 162.679 162.129H162.727V162.225H161.297V162.129ZM159.076 159.077H160.57L159.825 157.057L159.076 159.077Z" fill="#261C5C"/>
        <path d="M163.349 162.225V162.129C163.374 162.129 163.399 162.124 163.422 162.114C163.445 162.104 163.466 162.09 163.484 162.071C163.524 162.031 163.558 161.985 163.586 161.936C163.615 161.883 163.636 161.826 163.649 161.766C163.661 161.711 163.667 161.654 163.668 161.597V156.653C163.668 156.548 163.652 156.443 163.62 156.343C163.587 156.247 163.49 156.195 163.329 156.188V156.092L164.306 155.793V161.597C164.307 161.654 164.313 161.711 164.326 161.766C164.338 161.826 164.359 161.883 164.388 161.936C164.415 161.984 164.448 162.03 164.485 162.071C164.501 162.09 164.521 162.104 164.544 162.114C164.567 162.124 164.591 162.129 164.616 162.129V162.225H163.349Z" fill="#261C5C"/>
        <path d="M167.609 158.101C167.92 158.094 168.229 158.154 168.514 158.278C168.757 158.389 168.975 158.549 169.153 158.747C169.325 158.941 169.455 159.168 169.536 159.414C169.619 159.663 169.661 159.924 169.661 160.186C169.661 160.445 169.62 160.703 169.54 160.949C169.462 161.196 169.337 161.426 169.173 161.625C169.004 161.828 168.795 161.993 168.558 162.108C168.286 162.236 167.987 162.299 167.687 162.292C167.472 162.288 167.261 162.233 167.072 162.132C166.864 162.028 166.673 161.893 166.505 161.732V163.625C166.506 163.682 166.512 163.738 166.525 163.794C166.536 163.853 166.557 163.911 166.587 163.964C166.614 164.013 166.646 164.058 166.684 164.1C166.7 164.118 166.72 164.133 166.743 164.143C166.765 164.153 166.79 164.158 166.814 164.157V164.254H165.557V164.157C165.58 164.156 165.604 164.151 165.625 164.141C165.647 164.131 165.666 164.117 165.682 164.1C165.723 164.059 165.759 164.014 165.788 163.964C165.817 163.911 165.838 163.854 165.851 163.795C165.863 163.739 165.869 163.682 165.869 163.625V158.736C165.869 158.678 165.869 158.621 165.869 158.566C165.867 158.517 165.856 158.468 165.836 158.422C165.816 158.379 165.785 158.343 165.747 158.316C165.693 158.283 165.632 158.264 165.569 158.263V158.169H166.518V158.594C166.645 158.44 166.806 158.316 166.988 158.232C167.183 158.143 167.395 158.099 167.609 158.101V158.101ZM167.698 161.965C167.905 161.963 168.107 161.909 168.288 161.81C168.453 161.716 168.595 161.588 168.705 161.433C168.815 161.277 168.897 161.102 168.947 160.917C168.999 160.723 169.025 160.523 169.024 160.323C169.024 160.091 168.991 159.86 168.928 159.637C168.868 159.422 168.773 159.218 168.647 159.033C168.528 158.86 168.375 158.711 168.196 158.598C168.047 158.507 167.878 158.451 167.703 158.436C167.529 158.42 167.353 158.446 167.189 158.51C167.059 158.56 166.941 158.636 166.841 158.732C166.739 158.83 166.657 158.947 166.599 159.075C166.537 159.214 166.506 159.366 166.51 159.518V160.774C166.508 160.939 166.544 161.103 166.616 161.251C166.684 161.393 166.778 161.521 166.892 161.629C167.003 161.734 167.133 161.817 167.274 161.875C167.408 161.932 167.551 161.962 167.696 161.965H167.698Z" fill="#261C5C"/>
        <path d="M174.424 161.596C174.425 161.653 174.431 161.71 174.444 161.765C174.456 161.825 174.477 161.882 174.507 161.935C174.534 161.983 174.566 162.029 174.604 162.07C174.62 162.089 174.64 162.103 174.663 162.113C174.685 162.123 174.71 162.128 174.734 162.128V162.224H173.486V162.128C173.509 162.127 173.533 162.122 173.554 162.112C173.576 162.102 173.595 162.088 173.611 162.07C173.651 162.03 173.685 161.984 173.713 161.935C173.743 161.882 173.764 161.825 173.776 161.765C173.788 161.71 173.795 161.653 173.796 161.596V159.798C173.799 159.591 173.767 159.385 173.699 159.189C173.642 159.028 173.553 158.881 173.437 158.755C173.333 158.643 173.206 158.556 173.065 158.499C172.794 158.389 172.492 158.389 172.222 158.499C172.086 158.552 171.962 158.629 171.854 158.726C171.745 158.826 171.656 158.947 171.593 159.08C171.524 159.224 171.489 159.381 171.491 159.539V161.596C171.491 161.653 171.498 161.71 171.51 161.765C171.522 161.825 171.544 161.882 171.573 161.935C171.6 161.983 171.633 162.029 171.67 162.07C171.686 162.089 171.707 162.103 171.729 162.113C171.752 162.123 171.776 162.128 171.801 162.128V162.224H170.542V162.128C170.566 162.127 170.589 162.122 170.611 162.112C170.633 162.102 170.652 162.088 170.668 162.07C170.708 162.03 170.742 161.984 170.769 161.935C170.799 161.882 170.821 161.825 170.832 161.765C170.845 161.71 170.852 161.653 170.852 161.596V156.661C170.853 156.556 170.836 156.452 170.803 156.352C170.771 156.255 170.678 156.204 170.522 156.197V156.1L171.491 155.801V158.593C171.546 158.532 171.605 158.476 171.668 158.424C171.747 158.356 171.833 158.296 171.924 158.247C172.034 158.189 172.151 158.145 172.271 158.114C172.425 158.077 172.582 158.059 172.74 158.061C173.007 158.054 173.272 158.106 173.515 158.216C173.716 158.31 173.895 158.447 174.038 158.617C174.171 158.776 174.271 158.96 174.334 159.157C174.392 159.344 174.422 159.538 174.423 159.733L174.424 161.596Z" fill="#261C5C"/>
        <path d="M178.239 162.225V161.733L178.19 161.781C178.03 161.941 177.841 162.069 177.634 162.158C177.203 162.315 176.735 162.335 176.293 162.216C176.147 162.172 176.011 162.098 175.896 161.999C175.796 161.91 175.718 161.799 175.669 161.675C175.62 161.552 175.595 161.421 175.596 161.289C175.592 161.082 175.654 160.879 175.774 160.709C175.912 160.526 176.089 160.375 176.291 160.266C176.555 160.121 176.832 160.002 177.119 159.912C177.445 159.805 177.818 159.701 178.238 159.598C178.235 159.386 178.181 159.177 178.082 158.989C178.003 158.847 177.894 158.724 177.763 158.628C177.648 158.543 177.516 158.482 177.376 158.45C177.261 158.424 177.144 158.409 177.027 158.406C176.875 158.403 176.724 158.429 176.583 158.484C176.463 158.532 176.352 158.599 176.254 158.682C176.164 158.758 176.084 158.845 176.017 158.942C175.958 159.026 175.906 159.115 175.861 159.208H175.773V158.499C175.824 158.493 175.873 158.477 175.918 158.451C175.974 158.424 176.032 158.4 176.091 158.381C176.187 158.342 176.32 158.287 176.488 158.212C176.713 158.129 176.953 158.091 177.194 158.101C177.487 158.091 177.78 158.137 178.056 158.236C178.253 158.309 178.428 158.431 178.564 158.59C178.683 158.738 178.764 158.912 178.802 159.097C178.84 159.29 178.859 159.485 178.859 159.681V161.594C178.859 161.72 178.89 161.844 178.948 161.956C178.967 162.004 178.998 162.045 179.04 162.075C179.081 162.105 179.13 162.122 179.181 162.125V162.222L178.239 162.225ZM178.239 161.307V159.927L178.142 159.946C177.987 159.984 177.799 160.035 177.576 160.1C177.357 160.163 177.144 160.247 176.942 160.351C176.753 160.447 176.579 160.571 176.428 160.719C176.361 160.782 176.307 160.858 176.271 160.943C176.234 161.027 176.216 161.119 176.216 161.211C176.214 161.31 176.236 161.408 176.28 161.497C176.324 161.586 176.388 161.663 176.467 161.723C176.656 161.865 176.889 161.937 177.125 161.926C177.322 161.93 177.516 161.882 177.687 161.786C177.853 161.688 178.002 161.566 178.131 161.423L178.239 161.307Z" fill="#261C5C"/>
    </g>
    <rect x="158" y="79" width="79" height="0.999992" transform="rotate(-90 158 79)" fill="#5C5B9F" fill-opacity="0.2"/>
    <rect x="158" y="315" width="79" height="0.999992" transform="rotate(-90 158 315)" fill="#5C5B9F" fill-opacity="0.2"/>
    <path d="M237 315L237 0L238 1.06146e-07L238 315L237 315Z" fill="#5C5B9F" fill-opacity="0.2"/>
    <rect x="1" y="78" width="315" height="0.999953" fill="#5C5B9F" fill-opacity="0.2"/>
    <rect x="1" y="157" width="79" height="0.999988" fill="#5C5B9F" fill-opacity="0.2"/>
    <rect x="1" y="157" width="79" height="0.999988" fill="white"/>
    <rect x="237" y="157" width="79" height="0.999988" fill="#5C5B9F" fill-opacity="0.2"/>
    <rect y="157" width="79" height="0.999988" fill="#5C5B9F" fill-opacity="0.2"/>
    <rect x="1" y="236" width="315" height="0.999953" fill="#5C5B9F" fill-opacity="0.2"/>
    <path opacity="0.3" d="M94.4783 17H93.7383L93.0883 15.28H89.7683L89.1183 17H88.3783L91.0683 10H91.7883L94.4783 17ZM91.4283 10.87L90.0183 14.62H92.8383L91.4283 10.87ZM95.9371 12V12.83C96.2438 12.2233 96.7705 11.92 97.5171 11.92V12.56C97.0371 12.56 96.6538 12.7 96.3671 12.98C96.0805 13.2533 95.9371 13.6667 95.9371 14.22V17H95.2771V12H95.9371Z" fill="#5C5B9F"/>
    <path d="M9.82051 10H12.3205C12.9472 10 13.4705 10.21 13.8905 10.63C14.3105 11.05 14.5205 11.5733 14.5205 12.2C14.5205 12.8267 14.3105 13.35 13.8905 13.77C13.4705 14.19 12.9472 14.4 12.3205 14.4H10.5205V17H9.82051V10ZM10.5205 13.74H12.3205C12.7538 13.74 13.1105 13.5967 13.3905 13.31C13.6772 13.0233 13.8205 12.6533 13.8205 12.2C13.8205 11.7533 13.6772 11.3867 13.3905 11.1C13.1105 10.8067 12.7538 10.66 12.3205 10.66H10.5205V13.74ZM16.4289 10.46C16.4289 10.5933 16.3823 10.7067 16.2889 10.8C16.1956 10.8933 16.0823 10.94 15.9489 10.94C15.8156 10.94 15.7023 10.8933 15.6089 10.8C15.5156 10.7067 15.4689 10.5933 15.4689 10.46C15.4689 10.3267 15.5156 10.2133 15.6089 10.12C15.7023 10.0267 15.8156 9.98 15.9489 9.98C16.0823 9.98 16.1956 10.0267 16.2889 10.12C16.3823 10.2133 16.4289 10.3267 16.4289 10.46ZM16.2789 17H15.6189V12H16.2789V17Z" fill="#5C5B9F" fill-opacity="0.3"/>
    <path opacity="0.3" d="M168.27 10H173.27V10.66H171.12V17H170.42V10.66H168.27V10ZM177.572 12.98V12H178.232V17H177.572V16.02C177.112 16.7533 176.439 17.12 175.552 17.12C174.839 17.12 174.229 16.8667 173.722 16.36C173.222 15.8533 172.972 15.2333 172.972 14.5C172.972 13.7667 173.222 13.1467 173.722 12.64C174.229 12.1333 174.839 11.88 175.552 11.88C176.439 11.88 177.112 12.2467 177.572 12.98ZM174.202 15.91C174.582 16.29 175.049 16.48 175.602 16.48C176.156 16.48 176.622 16.29 177.002 15.91C177.382 15.5167 177.572 15.0467 177.572 14.5C177.572 13.9467 177.382 13.48 177.002 13.1C176.622 12.7133 176.156 12.52 175.602 12.52C175.049 12.52 174.582 12.7133 174.202 13.1C173.822 13.48 173.632 13.9467 173.632 14.5C173.632 15.0467 173.822 15.5167 174.202 15.91Z" fill="#5C5B9F"/>
    <path opacity="0.3" d="M250.125 13.67H253.625V14.03C253.625 14.8967 253.315 15.63 252.695 16.23C252.068 16.8233 251.238 17.12 250.205 17.12C249.138 17.12 248.261 16.77 247.575 16.07C246.881 15.3633 246.535 14.5067 246.535 13.5C246.535 12.4933 246.881 11.6367 247.575 10.93C248.261 10.23 249.138 9.88 250.205 9.88C250.845 9.88 251.438 10.0367 251.985 10.35C252.525 10.6633 252.941 11.08 253.235 11.6L252.615 11.96C252.395 11.5333 252.068 11.1933 251.635 10.94C251.201 10.6867 250.725 10.56 250.205 10.56C249.325 10.56 248.611 10.8433 248.065 11.41C247.511 11.9833 247.235 12.68 247.235 13.5C247.235 14.32 247.511 15.0167 248.065 15.59C248.611 16.1567 249.325 16.44 250.205 16.44C250.991 16.44 251.621 16.2433 252.095 15.85C252.561 15.45 252.831 14.9433 252.905 14.33H250.125V13.67ZM257.035 11.88C257.782 11.88 258.379 12.1433 258.825 12.67C259.285 13.19 259.515 13.8067 259.515 14.52C259.515 14.5533 259.509 14.6567 259.495 14.83H255.105C255.172 15.33 255.385 15.73 255.745 16.03C256.105 16.33 256.555 16.48 257.095 16.48C257.855 16.48 258.392 16.1967 258.705 15.63L259.285 15.97C259.065 16.33 258.762 16.6133 258.375 16.82C257.995 17.02 257.565 17.12 257.085 17.12C256.299 17.12 255.659 16.8733 255.165 16.38C254.672 15.8867 254.425 15.26 254.425 14.5C254.425 13.7467 254.669 13.1233 255.155 12.63C255.642 12.13 256.269 11.88 257.035 11.88ZM257.035 12.52C256.515 12.52 256.079 12.6733 255.725 12.98C255.379 13.2867 255.172 13.69 255.105 14.19H258.835C258.762 13.6567 258.559 13.2467 258.225 12.96C257.879 12.6667 257.482 12.52 257.035 12.52Z" fill="#5C5B9F"/>
    <path opacity="0.3" d="M250.556 96.12C249.49 96.12 248.613 95.77 247.926 95.07C247.233 94.3633 246.886 93.5067 246.886 92.5C246.886 91.4933 247.233 90.6367 247.926 89.93C248.613 89.23 249.49 88.88 250.556 88.88C251.196 88.88 251.786 89.0367 252.326 89.35C252.866 89.6567 253.286 90.0733 253.586 90.6L252.966 90.96C252.746 90.5333 252.42 90.1933 251.986 89.94C251.553 89.6867 251.076 89.56 250.556 89.56C249.676 89.56 248.963 89.8433 248.416 90.41C247.863 90.9833 247.586 91.68 247.586 92.5C247.586 93.32 247.863 94.0167 248.416 94.59C248.963 95.1567 249.676 95.44 250.556 95.44C251.076 95.44 251.553 95.3133 251.986 95.06C252.42 94.8067 252.746 94.4667 252.966 94.04L253.586 94.39C253.3 94.9167 252.883 95.3367 252.336 95.65C251.79 95.9633 251.196 96.12 250.556 96.12ZM256.978 90.88C257.578 90.88 258.054 91.0667 258.408 91.44C258.761 91.8067 258.938 92.3033 258.938 92.93V96H258.278V92.93C258.278 92.4833 258.158 92.1367 257.918 91.89C257.684 91.6433 257.351 91.52 256.918 91.52C256.418 91.52 256.021 91.6767 255.728 91.99C255.441 92.3033 255.298 92.7667 255.298 93.38V96H254.638V91H255.298V91.78C255.671 91.18 256.231 90.88 256.978 90.88Z" fill="#5C5B9F"/>
    <path opacity="0.3" d="M247.756 168V174.34H250.956V175H247.056V168H247.756ZM253.914 169.88C254.661 169.88 255.258 170.143 255.704 170.67C256.164 171.19 256.394 171.807 256.394 172.52C256.394 172.553 256.388 172.657 256.374 172.83H251.984C252.051 173.33 252.264 173.73 252.624 174.03C252.984 174.33 253.434 174.48 253.974 174.48C254.734 174.48 255.271 174.197 255.584 173.63L256.164 173.97C255.944 174.33 255.641 174.613 255.254 174.82C254.874 175.02 254.444 175.12 253.964 175.12C253.178 175.12 252.538 174.873 252.044 174.38C251.551 173.887 251.304 173.26 251.304 172.5C251.304 171.747 251.548 171.123 252.034 170.63C252.521 170.13 253.148 169.88 253.914 169.88ZM253.914 170.52C253.394 170.52 252.958 170.673 252.604 170.98C252.258 171.287 252.051 171.69 251.984 172.19H255.714C255.641 171.657 255.438 171.247 255.104 170.96C254.758 170.667 254.361 170.52 253.914 170.52Z" fill="#5C5B9F"/>
    <path opacity="0.3" d="M249.425 254H248.705L246.125 247H246.885L249.065 253.07L251.245 247H252.005L249.425 254ZM253.424 247.46C253.424 247.593 253.377 247.707 253.284 247.8C253.191 247.893 253.077 247.94 252.944 247.94C252.811 247.94 252.697 247.893 252.604 247.8C252.511 247.707 252.464 247.593 252.464 247.46C252.464 247.327 252.511 247.213 252.604 247.12C252.697 247.027 252.811 246.98 252.944 246.98C253.077 246.98 253.191 247.027 253.284 247.12C253.377 247.213 253.424 247.327 253.424 247.46ZM253.274 254H252.614V249H253.274V254Z" fill="#5C5B9F"/>
    <path opacity="0.3" d="M167.519 247V253.34H170.719V254H166.819V247H167.519ZM172.431 247.46C172.431 247.593 172.384 247.707 172.291 247.8C172.198 247.893 172.084 247.94 171.951 247.94C171.818 247.94 171.704 247.893 171.611 247.8C171.518 247.707 171.471 247.593 171.471 247.46C171.471 247.327 171.518 247.213 171.611 247.12C171.704 247.027 171.818 246.98 171.951 246.98C172.084 246.98 172.198 247.027 172.291 247.12C172.384 247.213 172.431 247.327 172.431 247.46ZM172.281 254H171.621V249H172.281V254Z" fill="#5C5B9F"/>
    <path opacity="0.3" d="M91.3115 254.12C90.6715 254.12 90.1215 253.97 89.6615 253.67C89.2082 253.363 88.8915 252.943 88.7115 252.41L89.3115 252.06C89.4382 252.5 89.6715 252.84 90.0115 253.08C90.3582 253.32 90.7949 253.44 91.3215 253.44C91.8349 253.44 92.2382 253.327 92.5315 253.1C92.8249 252.873 92.9715 252.567 92.9715 252.18C92.9715 251.813 92.8382 251.537 92.5715 251.35C92.3115 251.163 91.8715 250.97 91.2515 250.77C90.5115 250.523 90.0315 250.33 89.8115 250.19C89.2782 249.87 89.0115 249.407 89.0115 248.8C89.0115 248.207 89.2182 247.74 89.6315 247.4C90.0382 247.053 90.5482 246.88 91.1615 246.88C91.6882 246.88 92.1549 247.02 92.5615 247.3C92.9682 247.573 93.2715 247.937 93.4715 248.39L92.8815 248.72C92.5615 247.947 91.9882 247.56 91.1615 247.56C90.7215 247.56 90.3682 247.67 90.1015 247.89C89.8415 248.103 89.7115 248.397 89.7115 248.77C89.7115 249.123 89.8315 249.383 90.0715 249.55C90.3182 249.723 90.7149 249.9 91.2615 250.08L91.8015 250.27C91.9149 250.303 92.0749 250.363 92.2815 250.45C92.5082 250.537 92.6649 250.61 92.7515 250.67C93.1049 250.883 93.3282 251.08 93.4215 251.26C93.5882 251.527 93.6715 251.827 93.6715 252.16C93.6715 252.753 93.4549 253.23 93.0215 253.59C92.5882 253.943 92.0182 254.12 91.3115 254.12ZM97.2009 254.12C96.4476 254.12 95.8209 253.87 95.3209 253.37C94.8209 252.857 94.5709 252.233 94.5709 251.5C94.5709 250.76 94.8209 250.14 95.3209 249.64C95.8209 249.133 96.4476 248.88 97.2009 248.88C97.6942 248.88 98.1376 249 98.5309 249.24C98.9242 249.473 99.2109 249.79 99.3909 250.19L98.8509 250.5C98.7176 250.2 98.5009 249.963 98.2009 249.79C97.9076 249.61 97.5742 249.52 97.2009 249.52C96.6476 249.52 96.1809 249.713 95.8009 250.1C95.4209 250.48 95.2309 250.947 95.2309 251.5C95.2309 252.047 95.4209 252.517 95.8009 252.91C96.1809 253.29 96.6476 253.48 97.2009 253.48C97.5676 253.48 97.8976 253.393 98.1909 253.22C98.4909 253.047 98.7242 252.807 98.8909 252.5L99.4409 252.82C99.2342 253.22 98.9309 253.537 98.5309 253.77C98.1309 254.003 97.6876 254.12 97.2009 254.12Z" fill="#5C5B9F"/>
    <path opacity="0.3" d="M12.3916 254.12C11.7516 254.12 11.2016 253.97 10.7416 253.67C10.2883 253.363 9.9716 252.943 9.7916 252.41L10.3916 252.06C10.5183 252.5 10.7516 252.84 11.0916 253.08C11.4383 253.32 11.8749 253.44 12.4016 253.44C12.9149 253.44 13.3183 253.327 13.6116 253.1C13.9049 252.873 14.0516 252.567 14.0516 252.18C14.0516 251.813 13.9183 251.537 13.6516 251.35C13.3916 251.163 12.9516 250.97 12.3316 250.77C11.5916 250.523 11.1116 250.33 10.8916 250.19C10.3583 249.87 10.0916 249.407 10.0916 248.8C10.0916 248.207 10.2983 247.74 10.7116 247.4C11.1183 247.053 11.6283 246.88 12.2416 246.88C12.7683 246.88 13.2349 247.02 13.6416 247.3C14.0483 247.573 14.3516 247.937 14.5516 248.39L13.9616 248.72C13.6416 247.947 13.0683 247.56 12.2416 247.56C11.8016 247.56 11.4483 247.67 11.1816 247.89C10.9216 248.103 10.7916 248.397 10.7916 248.77C10.7916 249.123 10.9116 249.383 11.1516 249.55C11.3983 249.723 11.7949 249.9 12.3416 250.08L12.8816 250.27C12.9949 250.303 13.1549 250.363 13.3616 250.45C13.5883 250.537 13.7449 250.61 13.8316 250.67C14.1849 250.883 14.4083 251.08 14.5016 251.26C14.6683 251.527 14.7516 251.827 14.7516 252.16C14.7516 252.753 14.5349 253.23 14.1016 253.59C13.6683 253.943 13.0983 254.12 12.3916 254.12ZM20.251 249.98V249H20.911V253.8C20.911 254.52 20.6643 255.087 20.171 255.5C19.6776 255.913 19.0876 256.12 18.401 256.12C17.2343 256.12 16.4443 255.713 16.031 254.9L16.611 254.57C16.911 255.177 17.5076 255.48 18.401 255.48C18.9743 255.48 19.4243 255.33 19.751 255.03C20.0843 254.73 20.251 254.32 20.251 253.8V253.02C19.791 253.753 19.1176 254.12 18.231 254.12C17.5176 254.12 16.9076 253.867 16.401 253.36C15.901 252.853 15.651 252.233 15.651 251.5C15.651 250.767 15.901 250.147 16.401 249.64C16.9076 249.133 17.5176 248.88 18.231 248.88C19.1176 248.88 19.791 249.247 20.251 249.98ZM16.881 252.91C17.261 253.29 17.7276 253.48 18.281 253.48C18.8343 253.48 19.301 253.29 19.681 252.91C20.061 252.517 20.251 252.047 20.251 251.5C20.251 250.947 20.061 250.48 19.681 250.1C19.301 249.713 18.8343 249.52 18.281 249.52C17.7276 249.52 17.261 249.713 16.881 250.1C16.501 250.48 16.311 250.947 16.311 251.5C16.311 252.047 16.501 252.517 16.881 252.91Z" fill="#5C5B9F"/>
    <path opacity="0.3" d="M13.1657 175.12C12.099 175.12 11.2224 174.77 10.5357 174.07C9.84237 173.363 9.4957 172.507 9.4957 171.5C9.4957 170.493 9.84237 169.637 10.5357 168.93C11.2224 168.23 12.099 167.88 13.1657 167.88C13.8057 167.88 14.3957 168.037 14.9357 168.35C15.4757 168.657 15.8957 169.073 16.1957 169.6L15.5757 169.96C15.3557 169.533 15.029 169.193 14.5957 168.94C14.1624 168.687 13.6857 168.56 13.1657 168.56C12.2857 168.56 11.5724 168.843 11.0257 169.41C10.4724 169.983 10.1957 170.68 10.1957 171.5C10.1957 172.32 10.4724 173.017 11.0257 173.59C11.5724 174.157 12.2857 174.44 13.1657 174.44C13.6857 174.44 14.1624 174.313 14.5957 174.06C15.029 173.807 15.3557 173.467 15.5757 173.04L16.1957 173.39C15.909 173.917 15.4924 174.337 14.9457 174.65C14.399 174.963 13.8057 175.12 13.1657 175.12ZM19.9269 169.88C20.6402 169.88 21.2469 170.133 21.7469 170.64C22.2535 171.147 22.5069 171.767 22.5069 172.5C22.5069 173.233 22.2535 173.853 21.7469 174.36C21.2469 174.867 20.6402 175.12 19.9269 175.12C19.0402 175.12 18.3669 174.753 17.9069 174.02V177H17.2469V170H17.9069V170.98C18.3669 170.247 19.0402 169.88 19.9269 169.88ZM18.4769 173.91C18.8569 174.29 19.3235 174.48 19.8769 174.48C20.4302 174.48 20.8969 174.29 21.2769 173.91C21.6569 173.517 21.8469 173.047 21.8469 172.5C21.8469 171.947 21.6569 171.48 21.2769 171.1C20.8969 170.713 20.4302 170.52 19.8769 170.52C19.3235 170.52 18.8569 170.713 18.4769 171.1C18.0969 171.48 17.9069 171.947 17.9069 172.5C17.9069 173.047 18.0969 173.517 18.4769 173.91Z" fill="#5C5B9F"/>
    <path opacity="0.3" d="M16.4207 96H15.6807L15.0307 94.28H11.7107L11.0607 96H10.3207L13.0107 89H13.7307L16.4207 96ZM13.3707 89.87L11.9607 93.62H14.7807L13.3707 89.87ZM21.4219 91.98V91H22.0819V98H21.4219V95.02C20.9619 95.7533 20.2885 96.12 19.4019 96.12C18.6885 96.12 18.0785 95.8667 17.5719 95.36C17.0719 94.8533 16.8219 94.2333 16.8219 93.5C16.8219 92.7667 17.0719 92.1467 17.5719 91.64C18.0785 91.1333 18.6885 90.88 19.4019 90.88C20.2885 90.88 20.9619 91.2467 21.4219 91.98ZM18.0519 94.91C18.4319 95.29 18.8985 95.48 19.4519 95.48C20.0052 95.48 20.4719 95.29 20.8519 94.91C21.2319 94.5167 21.4219 94.0467 21.4219 93.5C21.4219 92.9467 21.2319 92.48 20.8519 92.1C20.4719 91.7133 20.0052 91.52 19.4519 91.52C18.8985 91.52 18.4319 91.7133 18.0519 92.1C17.6719 92.48 17.4819 92.9467 17.4819 93.5C17.4819 94.0467 17.6719 94.5167 18.0519 94.91Z" fill="#5C5B9F"/>
    <path d="M79 315L79 0L80 1.06146e-07L80 315L79 315Z" fill="#5C5B9F" fill-opacity="0.2"/>
    <defs>
        <radialGradient id="paint0_radial_20_3637" cx="0" cy="0" r="1" gradientUnits="userSpaceOnUse" gradientTransform="translate(158.5 157.5) rotate(90) scale(157.5)">
            <stop offset="0.364583" stop-color="white"/>
            <stop offset="1" stop-color="#D6D7FD"/>
        </radialGradient>
    </defs>
</svg>
