<svg width="29" height="28" viewBox="0 0 29 28" fill="none" xmlns="http://www.w3.org/2000/svg">
<path d="M14.4105 24.8101H13.6454V20.1158C13.6461 19.6568 13.597 19.1992 13.4989 18.7508C13.4904 18.7062 13.4729 18.6637 13.4477 18.6259C13.4225 18.5881 13.3899 18.5557 13.3519 18.5308C13.3139 18.5058 13.2713 18.4887 13.2266 18.4805C13.1819 18.4722 13.136 18.4731 13.0916 18.4829C13.0473 18.4928 13.0053 18.5114 12.9683 18.5378C12.9312 18.5641 12.8998 18.5976 12.876 18.6363C12.8521 18.675 12.8363 18.7181 12.8294 18.763C12.8225 18.808 12.8247 18.8538 12.8358 18.8979C12.9242 19.297 12.9688 19.7046 12.9689 20.1134V24.8077H11.7789C11.7332 24.8058 11.6875 24.8131 11.6446 24.8293C11.6017 24.8455 11.5626 24.8702 11.5295 24.9019C11.4964 24.9336 11.4701 24.9717 11.4521 25.0138C11.4341 25.056 11.4248 25.1013 11.4248 25.1471C11.4248 25.193 11.4341 25.2383 11.4521 25.2805C11.4701 25.3226 11.4964 25.3607 11.5295 25.3924C11.5626 25.4241 11.6017 25.4488 11.6446 25.465C11.6875 25.4812 11.7332 25.4885 11.7789 25.4866H14.0726V27.1755H0.678865V25.489H8.00112C8.08866 25.4853 8.17138 25.4479 8.23201 25.3847C8.29264 25.3214 8.32649 25.2372 8.32649 25.1496C8.32649 25.062 8.29264 24.9777 8.23201 24.9145C8.17138 24.8512 8.08866 24.8138 8.00112 24.8101H0.339128C0.249186 24.8101 0.162927 24.8459 0.0993284 24.9095C0.0357295 24.9731 0 25.0593 0 25.1493V27.5141C0 27.604 0.0357295 27.6903 0.0993284 27.7539C0.162927 27.8175 0.249186 27.8532 0.339128 27.8532H14.4105C14.4551 27.8533 14.4993 27.8445 14.5405 27.8275C14.5817 27.8105 14.6192 27.7856 14.6507 27.7541C14.6823 27.7226 14.7073 27.6852 14.7244 27.644C14.7415 27.6028 14.7503 27.5586 14.7503 27.5141V25.1493C14.7503 25.1047 14.7415 25.0605 14.7244 25.0193C14.7073 24.9782 14.6823 24.9408 14.6507 24.9093C14.6192 24.8778 14.5817 24.8528 14.5405 24.8358C14.4993 24.8188 14.4551 24.8101 14.4105 24.8101Z" fill="#37366B"/>
<path d="M9.97362 25.4889C10.0194 25.4908 10.0651 25.4835 10.108 25.4673C10.1508 25.4511 10.19 25.4264 10.2231 25.3947C10.2562 25.363 10.2825 25.3249 10.3005 25.2828C10.3185 25.2406 10.3277 25.1953 10.3277 25.1494C10.3277 25.1036 10.3185 25.0583 10.3005 25.0161C10.2825 24.974 10.2562 24.9359 10.2231 24.9042C10.19 24.8725 10.1508 24.8478 10.108 24.8316C10.0651 24.8154 10.0194 24.8081 9.97362 24.81H9.89036C9.84457 24.8081 9.79887 24.8154 9.756 24.8316C9.71313 24.8478 9.67398 24.8725 9.6409 24.9042C9.60782 24.9359 9.58149 24.974 9.56351 25.0161C9.54553 25.0583 9.53625 25.1036 9.53625 25.1494C9.53625 25.1953 9.54553 25.2406 9.56351 25.2828C9.58149 25.3249 9.60782 25.363 9.6409 25.3947C9.67398 25.4264 9.71313 25.4511 9.756 25.4673C9.79887 25.4835 9.84457 25.4908 9.89036 25.4889H9.97362Z" fill="#37366B"/>
<path d="M1.10589 20.1156V23.5756C1.10396 23.6213 1.1113 23.667 1.12749 23.7099C1.14367 23.7528 1.16836 23.7919 1.20007 23.825C1.23178 23.8581 1.26986 23.8844 1.312 23.9024C1.35415 23.9204 1.3995 23.9297 1.44533 23.9297C1.49115 23.9297 1.5365 23.9204 1.57865 23.9024C1.6208 23.8844 1.65887 23.8581 1.69058 23.825C1.72229 23.7919 1.74698 23.7528 1.76317 23.7099C1.77935 23.667 1.7867 23.6213 1.78476 23.5756V20.1156C1.78552 19.2511 1.98657 18.3985 2.37214 17.6248C2.75772 16.8511 3.31732 16.1772 4.00705 15.656C4.69679 15.1349 5.49789 14.7806 6.34753 14.621C7.19716 14.4615 8.07221 14.5009 8.90403 14.7363C8.94781 14.7514 8.99421 14.7573 9.04037 14.7537C9.08652 14.7502 9.13147 14.7373 9.17245 14.7157C9.21343 14.6942 9.24957 14.6645 9.27866 14.6285C9.30775 14.5925 9.32918 14.5509 9.34162 14.5063C9.35406 14.4617 9.35726 14.4151 9.35102 14.3692C9.34478 14.3233 9.32923 14.2792 9.30533 14.2396C9.28142 14.1999 9.24967 14.1656 9.21202 14.1387C9.17436 14.1117 9.1316 14.0928 9.08636 14.083C8.15373 13.8196 7.17277 13.7758 6.22038 13.9551C5.268 14.1343 4.37007 14.5317 3.59699 15.1161C2.82391 15.7005 2.19668 16.456 1.76449 17.3234C1.33229 18.1908 1.10687 19.1465 1.10589 20.1156Z" fill="#37366B"/>
<path d="M24.172 9.03099C24.2116 9.05142 24.2549 9.06385 24.2994 9.06755C24.3439 9.07125 24.3886 9.06615 24.4311 9.05255C24.4736 9.03895 24.513 9.01711 24.5471 8.98828C24.5811 8.95945 24.6092 8.92419 24.6296 8.88452C25.0986 7.97277 25.2427 6.92841 25.0383 5.9237C24.834 4.919 24.2932 4.01397 23.5053 3.3579C22.7174 2.70184 21.7294 2.33393 20.7043 2.31487C19.6792 2.2958 18.6782 2.62672 17.8665 3.25304C17.7992 3.30942 17.7564 3.38964 17.747 3.47689C17.7375 3.56415 17.7622 3.65166 17.8159 3.72111C17.8695 3.79056 17.948 3.83655 18.0348 3.84945C18.1216 3.86235 18.2101 3.84115 18.2816 3.79029C18.971 3.25787 19.8213 2.97642 20.6922 2.9924C21.5631 3.00838 22.4025 3.32083 23.0719 3.87819C23.7413 4.43554 24.2006 5.20448 24.3741 6.05808C24.5476 6.91168 24.4248 7.79892 24.0261 8.57335C23.9848 8.65338 23.9769 8.74655 24.0043 8.83236C24.0316 8.91818 24.0919 8.98962 24.172 9.03099Z" fill="#37366B"/>
<path d="M26.3342 9.55052C26.2986 9.57742 26.2687 9.61106 26.2461 9.64953C26.2235 9.688 26.2087 9.73055 26.2025 9.77474C26.1964 9.81893 26.199 9.8639 26.2102 9.90707C26.2215 9.95025 26.2411 9.9908 26.268 10.0264C27.4604 11.6066 27.2793 11.9992 27.2769 12.0022C27.2197 12.0679 26.6217 12.1195 24.9175 11.1356C23.4431 10.2847 21.6436 8.95796 19.8513 7.40331C18.059 5.84867 16.4922 4.25574 15.4438 2.91563C14.2283 1.36828 14.1955 0.768423 14.2526 0.702785C14.3097 0.637148 14.8968 0.586096 16.5718 1.54878C16.6106 1.57303 16.6538 1.58921 16.699 1.59635C16.7441 1.6035 16.7902 1.60145 16.8346 1.59035C16.8789 1.57925 16.9205 1.55931 16.957 1.53174C16.9935 1.50416 17.024 1.46952 17.0467 1.42987C17.0695 1.39022 17.084 1.3464 17.0894 1.30101C17.0948 1.25562 17.091 1.20961 17.0782 1.16573C17.0654 1.12185 17.0439 1.081 17.015 1.04562C16.986 1.01025 16.9502 0.981083 16.9097 0.959867C15.2111 -0.012545 14.1748 -0.245316 13.7366 0.257907C13.2984 0.76113 13.6813 1.77122 14.9066 3.33498C15.3429 3.89047 15.865 4.48972 16.4521 5.1072C16.0986 5.97091 16.0218 6.92299 16.2321 7.83222C16.4424 8.74144 16.9295 9.56306 17.6263 10.1838C18.3232 10.8046 19.1954 11.1939 20.1228 11.2982C21.0502 11.4025 21.9871 11.2166 22.8044 10.766C22.8492 10.7412 22.8877 10.7062 22.9168 10.6639C23.4996 11.0675 24.0588 11.4255 24.5784 11.7251C25.7149 12.3815 26.5585 12.7109 27.1273 12.7109C27.4203 12.7109 27.6403 12.6246 27.7898 12.452C28.2116 11.9657 27.9004 11.0663 26.8095 9.62163C26.783 9.58568 26.7497 9.55531 26.7114 9.53227C26.6732 9.50923 26.6308 9.49397 26.5866 9.48737C26.5425 9.48076 26.4974 9.48294 26.4541 9.49378C26.4108 9.50461 26.3701 9.5239 26.3342 9.55052ZM18.1125 9.71158C17.5438 9.22117 17.1326 8.57375 16.9304 7.85054C16.7282 7.12733 16.7441 6.36052 16.976 5.64629C17.7132 6.3914 18.5331 7.15899 19.407 7.91626C20.3964 8.77441 21.3889 9.56328 22.3315 10.2464C21.6539 10.5828 20.8921 10.7116 20.1415 10.6168C19.391 10.522 18.6852 10.2077 18.1125 9.7134V9.71158Z" fill="#37366B"/>
<path d="M25.008 15.9928C23.891 15.5394 23.4886 13.893 23.4886 13.8772C23.4714 13.7992 23.4273 13.7298 23.364 13.6811C23.3006 13.6324 23.2222 13.6076 23.1424 13.611C23.0626 13.6144 22.9865 13.6459 22.9276 13.6998C22.8687 13.7537 22.8306 13.8266 22.8201 13.9058C22.58 15.5619 21.3803 15.9673 21.3317 15.9831C21.2671 16.003 21.21 16.0418 21.1675 16.0944C21.1251 16.1471 21.0993 16.2111 21.0935 16.2785C21.0877 16.3458 21.1021 16.4134 21.1349 16.4725C21.1677 16.5316 21.2174 16.5796 21.2776 16.6103C21.5864 16.774 21.8586 16.999 22.0774 17.2715C22.135 17.3408 22.2177 17.3843 22.3073 17.3926C22.3969 17.4008 22.4862 17.3731 22.5554 17.3156C22.6247 17.2581 22.6682 17.1754 22.6765 17.0857C22.6847 16.9961 22.657 16.9068 22.5995 16.8376C22.4504 16.6568 22.2839 16.4911 22.1023 16.3429C22.585 16.0184 22.9656 15.5636 23.2 15.0313C23.4273 15.4866 23.7712 16.0038 24.2696 16.3556C23.7883 16.7847 23.0541 17.6149 22.9204 18.7836C22.9151 18.8279 22.9187 18.8728 22.9308 18.9158C22.9429 18.9587 22.9634 18.9988 22.9911 19.0338C23.0188 19.0688 23.0531 19.098 23.092 19.1198C23.131 19.1415 23.1739 19.1553 23.2182 19.1604H23.2577C23.3409 19.1604 23.4211 19.1298 23.4832 19.0744C23.5453 19.0191 23.5848 18.9428 23.5944 18.8602C23.7585 17.452 25.053 16.5994 25.064 16.5915C25.1163 16.5578 25.1584 16.5104 25.1856 16.4545C25.2128 16.3985 25.2242 16.3362 25.2184 16.2742C25.2126 16.2123 25.19 16.1531 25.1529 16.1032C25.1158 16.0532 25.0657 16.0144 25.008 15.991V15.9928Z" fill="#37366B"/>
<path d="M9.7043 7.10443C9.69386 7.19388 9.71936 7.28382 9.77521 7.35448C9.83105 7.42514 9.91266 7.47073 10.0021 7.48124C10.0155 7.48124 10.0288 7.48124 10.0422 7.48124C10.1254 7.48106 10.2055 7.4504 10.2676 7.39507C10.3296 7.33974 10.3692 7.26358 10.3789 7.18101C10.543 5.77283 11.8375 4.91954 11.8479 4.91164C11.9002 4.87803 11.9423 4.83069 11.9696 4.77478C11.9969 4.71888 12.0083 4.65655 12.0026 4.59461C11.9969 4.53266 11.9743 4.47347 11.9373 4.42349C11.9002 4.37351 11.8502 4.33466 11.7926 4.31118C10.6755 3.85779 10.2732 2.21137 10.2732 2.19557C10.2559 2.11758 10.2118 2.04815 10.1485 1.99947C10.0852 1.95079 10.0067 1.92598 9.92691 1.92939C9.84712 1.9328 9.77107 1.96421 9.71214 2.01811C9.6532 2.07202 9.61513 2.14496 9.60463 2.22414C9.36639 3.88271 8.16485 4.28808 8.11563 4.30388C8.05108 4.32391 7.99398 4.36274 7.95161 4.4154C7.90925 4.46805 7.88356 4.53215 7.87782 4.59949C7.87207 4.66682 7.88655 4.73434 7.91938 4.79341C7.95221 4.85248 8.00192 4.90042 8.06214 4.93109C8.37071 5.09515 8.6428 5.3201 8.86195 5.59233C8.9195 5.66148 9.00215 5.70494 9.09174 5.71314C9.18132 5.72135 9.2705 5.69363 9.33965 5.63609C9.4088 5.57854 9.45226 5.49589 9.46046 5.4063C9.46867 5.31671 9.44095 5.22754 9.38341 5.15839C9.23454 4.97758 9.06823 4.81187 8.88687 4.66367C9.3682 4.33873 9.74753 3.88396 9.98083 3.35213C10.2081 3.80734 10.5521 4.32455 11.0511 4.67644C10.5728 5.10551 9.84044 5.93571 9.7043 7.10443Z" fill="#37366B"/>
<path d="M15.1275 11.5639C15.0631 11.5041 14.978 11.4716 14.8901 11.4733C14.8022 11.4749 14.7183 11.5105 14.6562 11.5727C14.594 11.6349 14.5583 11.7187 14.5567 11.8066C14.5551 11.8945 14.5876 11.9796 14.6474 12.0441L16.7138 14.1104L15.8398 14.9844L13.2538 12.3984L12.6989 11.8435L13.5729 10.9696L13.7862 11.1829C13.8506 11.2427 13.9358 11.2752 14.0237 11.2736C14.1116 11.2719 14.1954 11.2363 14.2576 11.1741C14.3198 11.112 14.3554 11.0281 14.357 10.9402C14.3587 10.8523 14.3262 10.7672 14.2663 10.7028L13.813 10.2494C13.7493 10.1858 13.6629 10.15 13.5729 10.15C13.4829 10.15 13.3965 10.1858 13.3328 10.2494L11.9794 11.6016C11.9478 11.6331 11.9227 11.6705 11.9056 11.7117C11.8886 11.7529 11.8798 11.7971 11.8798 11.8417C11.8798 11.8863 11.8886 11.9304 11.9056 11.9716C11.9227 12.0128 11.9478 12.0503 11.9794 12.0818L12.5342 12.6366L9.40611 15.7642C9.24688 15.6578 9.10223 15.5697 8.98068 15.5034C8.90197 15.4634 8.81076 15.4555 8.72637 15.4816C8.64198 15.5076 8.57105 15.5655 8.52861 15.6429C8.48618 15.7204 8.47556 15.8113 8.49903 15.8965C8.52249 15.9816 8.57819 16.0543 8.65431 16.099C9.4365 16.5275 11.0616 17.8293 11.4579 19.0381C11.4914 19.1163 11.5529 19.179 11.6304 19.214C11.7078 19.2489 11.7956 19.2536 11.8763 19.2271C11.9571 19.2005 12.0249 19.1446 12.0665 19.0705C12.1081 18.9964 12.1203 18.9094 12.1009 18.8266C12.0414 18.6491 11.967 18.4769 11.8785 18.3119L14.2937 15.8966C14.3535 15.8322 14.386 15.7471 14.3844 15.6592C14.3827 15.5713 14.3471 15.4874 14.2849 15.4253C14.2228 15.3631 14.1389 15.3275 14.051 15.3258C13.9631 15.3242 13.878 15.3567 13.8136 15.4165L11.5041 17.726C11.0629 17.1261 10.4837 16.584 9.95674 16.1714L13.0125 13.1168L15.5985 15.7028C15.63 15.7343 15.6675 15.7594 15.7087 15.7765C15.7498 15.7936 15.794 15.8024 15.8386 15.8024C15.8832 15.8024 15.9274 15.7936 15.9686 15.7765C16.0098 15.7594 16.0472 15.7343 16.0787 15.7028L17.4321 14.3517C17.4637 14.3202 17.4888 14.2828 17.5059 14.2416C17.5229 14.2004 17.5317 14.1563 17.5317 14.1117C17.5317 14.0671 17.5229 14.0229 17.5059 13.9817C17.4888 13.9405 17.4637 13.9031 17.4321 13.8716L15.1275 11.5639Z" fill="#37366B"/>
</svg>
